<svg width="594" height="520" viewBox="0 0 594 520" fill="none" xmlns="http://www.w3.org/2000/svg">
<g filter="url(#filter0_dii_1800_4497)">
<path d="M476.554 246.172C487.535 254.911 498.59 252.464 511.568 245.927C511.568 245.927 497.992 273.42 511.568 276.6C527.448 280.344 553.365 258.097 558.053 244.283C562.673 230.639 543.851 236.095 533.251 252.607C525.07 265.34 517.337 287.092 526.959 293.425C541.615 303.046 578.968 268.731 583.765 233.785" stroke="#1C0CF9" stroke-width="2.27588" stroke-linecap="round" stroke-linejoin="round"/>
</g>
<g filter="url(#filter1_dii_1800_4497)">
<path d="M114.365 378.23L119.998 365.781L123.747 378.566L139.132 371.977L129.966 385.559L141.556 393.245L126.45 394.355L128.384 408.96L117.904 398.617L108.169 406.263L110.263 394.321L96.8522 393.262L108.892 385.485L102.149 372.717L114.365 378.23Z" stroke="#19DFDF" stroke-width="2.27588" stroke-linecap="round" stroke-linejoin="round"/>
</g>
<g filter="url(#filter2_dii_1800_4497)">
<path d="M449.989 14.432L455.61 2L459.36 14.7677L474.722 8.18471L465.567 21.7546L477.146 29.4243L462.051 30.5395L463.986 45.1222L453.522 34.7954L443.799 42.4253L445.887 30.4997L432.499 29.4471L444.521 21.675L437.79 8.93006L449.989 14.432Z" stroke="#0063F8" stroke-width="2.27588" stroke-linecap="round" stroke-linejoin="round"/>
</g>
<g filter="url(#filter3_dii_1800_4497)">
<path d="M103.474 36.2227H301.134C316.383 36.2227 328.729 48.5693 328.729 63.8746V294.819C328.729 310.068 316.383 322.414 301.134 322.414H103.474C88.2259 322.414 75.8793 310.068 75.8793 294.819V63.8746C75.8793 48.6262 88.2259 36.2227 103.474 36.2227Z" fill="#4A6CE8"/>
</g>
<g filter="url(#filter4_dii_1800_4497)">
<path d="M442.307 86.7578L561.347 86.4961C574.387 86.4961 584.931 97.0448 584.931 110.08V185.639C584.931 198.674 574.387 209.223 561.347 209.223H442.569L442.307 86.7578Z" fill="#2ED9FF"/>
<path d="M478.459 86.3594H439.986V209.086H478.459V86.3594Z" fill="#4A6CE8"/>
<path d="M586.558 168.092H551.134C539.954 168.092 530.867 159.034 530.867 147.825C530.867 136.645 539.919 127.559 551.134 127.559H586.558C589.346 127.559 591.565 129.812 591.565 132.566V163.051C591.565 165.867 589.312 168.092 586.558 168.092Z" fill="#4A6CE8"/>
<path d="M552.095 156.944C557.114 156.944 561.182 152.876 561.182 147.858C561.182 142.839 557.114 138.766 552.095 138.766C547.077 138.766 543.009 142.839 543.009 147.858C543.009 152.876 547.077 156.944 552.095 156.944Z" fill="white"/>
</g>
<g filter="url(#filter5_dii_1800_4497)">
<path d="M304.497 403.893L278.621 395.797V383.023H269.853L224.563 423.426L269.853 469.006H278.621V456.233L304.497 448.136V403.893Z" fill="#6BBFFF" stroke="#01165F"/>
<path d="M252.323 460.244H207.659V490.712H252.323V460.244Z" fill="white" stroke="#01165F"/>
<path d="M240.215 460.244H195.551V490.712H240.215V460.244Z" fill="#6BBFFF" stroke="#01165F"/>
<path d="M261.506 484.869H305.334V513.67H261.506L234.286 500.732L261.506 484.869Z" fill="#6BBFFF" stroke="#01165F"/>
<path d="M261.506 484.869H157.567V513.67H261.506V484.869Z" fill="#2ED9FF" stroke="#01165F"/>
<path d="M269.853 383.023H165.919V469.006H269.853V383.023Z" fill="#2ED9FF" stroke="#01165F"/>
<path d="M257.33 395.545H178.436V456.487H257.33V395.545Z" fill="white" stroke="#01165F"/>
<path d="M255.242 491.133H219.345V498.643H255.242V491.133Z" fill="#01165F" stroke="#01165F"/>
<path d="M278.62 395.797V456.233" stroke="#01165F" stroke-linecap="round" stroke-linejoin="round"/>
<path d="M189.708 407.648H218.094" stroke="#01165F" stroke-linecap="round" stroke-linejoin="round"/>
<path d="M189.708 415.994H203.067" stroke="#01165F" stroke-linecap="round" stroke-linejoin="round"/>
<path d="M189.708 428.52H210.577" stroke="#01165F" stroke-linecap="round" stroke-linejoin="round"/>
</g>
<g filter="url(#filter6_dii_1800_4497)">
<path d="M146.87 72.1973H261.432C270.268 72.1973 277.431 79.3606 277.431 88.2024V202.719C277.431 211.561 270.268 218.718 261.432 218.718H146.87C138.028 218.718 130.87 211.561 130.87 202.719V88.1569C130.87 79.3606 138.028 72.1973 146.87 72.1973Z" stroke="#01165F" stroke-width="2.27588" stroke-linecap="round" stroke-linejoin="round"/>
<path d="M154.949 90.2012V200.843" stroke="#01165F" stroke-width="2.27588" stroke-linecap="round" stroke-linejoin="round"/>
<path d="M259.588 194.6H148.628" stroke="#01165F" stroke-width="2.27588" stroke-linecap="round" stroke-linejoin="round"/>
<path d="M148.708 105.197H162.551C165.39 105.197 167.671 107.479 167.671 110.318C167.671 113.157 169.947 115.439 172.792 115.439H174.232C176.468 115.439 178.431 116.878 179.108 119.04L197.229 177.758C198.629 182.321 202.828 185.399 207.59 185.399C212.512 185.399 216.791 182.122 218.071 177.36L228.91 136.957C230.15 132.32 234.349 129.117 239.111 129.117H259.469" stroke="#01165F" stroke-width="2.27588" stroke-linecap="round" stroke-linejoin="round"/>
<path d="M253.227 122.602L259.588 128.957L253.227 135.318" stroke="#01165F" stroke-width="2.27588" stroke-linecap="round" stroke-linejoin="round"/>
<path d="M236.471 94.0003L244.59 90.0801L248.51 98.1993" stroke="#01165F" stroke-width="2.27588" stroke-linecap="round" stroke-linejoin="round"/>
<path d="M148.708 150.238H166.431C170.311 150.238 173.987 152.041 176.348 155.119L178.072 157.361C181.349 161.6 186.43 164.081 191.83 164.081C199.75 164.081 206.669 158.721 208.671 151.04L216.95 118.882C217.752 115.838 220.472 113.721 223.59 113.721H230.992C234.747 113.721 238.03 111.28 239.151 107.679L244.511 90.1602" stroke="#01165F" stroke-width="2.27588" stroke-linecap="round" stroke-linejoin="round"/>
</g>
<g filter="url(#filter7_dii_1800_4497)">
<path d="M131.496 288.008C144.446 288.008 154.938 277.516 154.938 264.567C154.938 251.622 144.446 241.125 131.496 241.125C118.547 241.125 108.055 251.622 108.055 264.567C108.055 277.516 118.547 288.008 131.496 288.008Z" fill="#6BBFFF" stroke="#01165F" stroke-width="2.27588"/>
<path d="M139.149 257.158C137.721 255.52 135.656 254.581 133.471 254.547C128.794 254.547 125.027 259.042 125.027 264.566C125.027 270.097 128.822 274.586 133.471 274.586C135.656 274.558 137.693 273.619 139.149 271.98" stroke="#01165F" stroke-width="2.27588" stroke-linecap="round" stroke-linejoin="round"/>
<path d="M121.386 261.836H134.136" stroke="#01165F" stroke-width="2.27588" stroke-linecap="round" stroke-linejoin="round"/>
<path d="M121.386 267.303H134.136" stroke="#01165F" stroke-width="2.27588" stroke-linecap="round" stroke-linejoin="round"/>
</g>
<g filter="url(#filter8_dii_1800_4497)">
<path d="M204.586 288.022C217.53 288.022 228.027 277.524 228.027 264.58C228.027 251.63 217.53 241.139 204.586 241.139C191.636 241.139 181.144 251.63 181.144 264.58C181.144 277.524 191.636 288.022 204.586 288.022Z" fill="#6BBFFF" stroke="#01165F" stroke-width="2.27588"/>
</g>
<g filter="url(#filter9_dii_1800_4497)">
<path d="M275.252 288.022C288.202 288.022 298.694 277.524 298.694 264.58C298.694 251.63 288.202 241.139 275.252 241.139C262.303 241.139 251.811 251.63 251.811 264.58C251.811 277.524 262.303 288.022 275.252 288.022Z" fill="#2ED9FF" stroke="#01165F" stroke-width="2.27588"/>
<path d="M268.3 273.836V254.861L282.234 274.263V254.861" stroke="#01165F" stroke-width="2.27588" stroke-linecap="round" stroke-linejoin="round"/>
<path d="M264.106 262.24H268.3" stroke="#01165F" stroke-width="2.27588" stroke-linecap="round" stroke-linejoin="round"/>
<path d="M264.106 266.885H268.3" stroke="#01165F" stroke-width="2.27588" stroke-linecap="round" stroke-linejoin="round"/>
<path d="M282.234 262.24H286.427" stroke="#01165F" stroke-width="2.27588" stroke-linecap="round" stroke-linejoin="round"/>
<path d="M282.234 266.885H286.427" stroke="#01165F" stroke-width="2.27588" stroke-linecap="round" stroke-linejoin="round"/>
</g>
<g filter="url(#filter10_dii_1800_4497)">
<path d="M3 167.873L93.819 134.332C93.9271 134.332 94.0409 134.332 93.9271 134.446L62.8385 226.152C62.8385 226.26 62.7304 226.26 62.6167 226.152L50.9186 199.633C50.9186 199.519 50.8048 199.519 50.6967 199.633L29.7473 221.14H29.6335L8.684 200.856V200.748L29.6335 179.241C29.6335 179.127 29.6335 179.127 29.6335 179.019L3 168.208C3 167.987 3 167.873 3 167.873Z" fill="#24ACEB"/>
</g>
<g filter="url(#filter11_dii_1800_4497)">
<path d="M374.885 120.886L376.006 112.784C373.952 113.409 371.835 113.785 369.713 113.722C363.921 113.722 358.999 111.725 356.632 108.425C352.706 103.065 352.581 96.8353 356.257 85.4331C355.881 84.9381 353.082 81.3878 353.639 79.0777C353.952 77.7748 355.881 76.836 359.312 76.341L359.619 75.2201C361.804 68.7396 363.608 63.0669 366.162 58.7712C368.842 54.282 374.265 57.5251 379.806 55.4029C384.045 53.7244 385.849 53.7244 390.4 53.7244C399.123 53.7244 399.743 53.4115 405.541 58.5208C414.695 66.805 413.324 76.5287 411.708 85.0007L412.454 87.9878C411.708 92.4144 415.879 103.253 414.075 112.476C413.762 114.155 413.199 115.964 412.892 117.46L410.582 121.386L374.885 120.886Z" fill="#F5F5F5"/>
<path d="M410.024 112.722C404.978 112.722 395.573 111.727 389.9 105.189L389.65 104.939L389.9 104.814C390.338 104.626 399.994 99.6418 401.678 93.036C402.235 90.7317 401.74 88.3648 400.369 86.4986C398.998 84.5641 396.756 83.5684 393.638 83.5684C388.216 83.5684 382.048 86.5555 381.986 86.6181L381.866 86.7432L381.741 86.6181C378.248 82.5727 380.927 76.7123 382.299 74.2828C382.424 74.095 382.236 73.913 382.048 73.9756C380.307 74.4706 378.498 74.7209 376.569 74.8461C374.697 74.8461 373.576 74.3454 373.144 73.4123C372.455 71.9159 373.514 69.2986 376.444 65.5605C376.632 65.3727 376.444 65.0029 376.194 65.0655C375.573 65.1281 374.948 65.1281 374.265 65.1281C371.46 65.1281 369.343 64.377 367.972 62.9432C366.914 61.8849 366.225 60.3885 366.163 58.8978V58.7727C368.842 54.2209 372.956 50.7331 377.815 48.9921C381.986 47.3079 386.475 46.5 391.209 46.5C399.868 46.5 408.215 49.4871 414.076 54.659C423.23 62.9432 420.243 78.7094 418.622 87.1813L418.559 87.6194C417.876 92.1029 416.004 102.942 414.263 111.914L414.138 112.478L413.95 112.54C412.767 112.722 411.521 112.722 410.024 112.722Z" fill="#AFD8FF"/>
<path d="M253.211 198.205C251.276 198.205 249.905 197.642 249.097 196.584C247.851 194.905 248.226 192.533 248.414 191.975C245.859 191.725 244.05 190.917 242.992 189.421C242.059 187.924 241.746 186.183 242.184 184.436C237.57 181.444 239.442 176.334 239.692 175.651C239.254 175.088 236.136 170.354 239.129 166.804C242.059 163.316 254.77 160.949 256.949 160.574C255.578 159.578 249.285 154.907 249.097 151.231C249.034 150.23 249.535 149.297 250.28 148.739C250.844 148.301 251.839 148.051 253.273 148.051C259.19 148.051 272.334 152.102 285.921 158.082C289.033 159.453 292.27 160.949 295.701 162.628L296.071 163.441L282.928 195.964L278.257 196.151C276.76 194.593 275.702 193.534 274.644 192.595C273.58 193.034 261.808 197.58 254.144 198.205C253.831 198.143 253.524 198.205 253.211 198.205Z" fill="#F5F5F5" stroke="#01165F" stroke-width="2.27588"/>
<path d="M360.496 92.849C362.988 93.2245 365.724 91.7907 367.096 90.7324" stroke="#01165F" stroke-width="2.27588" stroke-linecap="round" stroke-linejoin="round"/>
<path d="M366.913 80.8885C367.943 80.8885 368.78 80.0521 368.78 79.0223C368.78 77.9868 367.943 77.1504 366.913 77.1504C365.884 77.1504 365.042 77.9868 365.042 79.0223C365.042 80.0521 365.884 80.8885 366.913 80.8885Z" fill="#AFD8FF" stroke="#01165F" stroke-width="2.27588"/>
<path d="M384.978 96.4662L390.896 92.9102" stroke="#01165F" stroke-width="2.27588" stroke-linecap="round" stroke-linejoin="round"/>
<path d="M376.006 112.785C377.627 112.29 380.557 111.419 382.048 110.543" stroke="#01165F" stroke-width="2.27588" stroke-linecap="round" stroke-linejoin="round"/>
<path d="M239.692 175.65L251.031 171.85" stroke="#01165F" stroke-width="2.27588" stroke-linecap="round" stroke-linejoin="round"/>
<path d="M242.184 184.436L254.394 180.01" stroke="#01165F" stroke-width="2.27588" stroke-linecap="round" stroke-linejoin="round"/>
<path d="M248.414 191.975L257.694 189.295" stroke="#01165F" stroke-width="2.27588" stroke-linecap="round" stroke-linejoin="round"/>
<path d="M256.949 160.572L265.358 159.389" stroke="#01165F" stroke-width="2.27588" stroke-linecap="round" stroke-linejoin="round"/>
<path d="M482.796 437.696L482.232 437.571C474.819 424.234 464.662 410.033 454.819 396.201C448.151 386.796 441.858 377.948 436.749 369.846C430.581 360.066 424.977 349.91 419.867 339.503V339.446L420.926 337.449L478.995 336.203L483.103 339.628C483.791 340.812 484.224 341.688 484.975 342.871C489.208 349.972 494.067 355.952 498.869 361.687C501.424 364.737 503.853 367.667 506.032 370.654C510.891 377.197 514.88 382.682 518.618 388.662C523.972 397.322 528.837 406.169 533.07 415.392L533.007 415.574L525.161 463.613L482.796 437.696Z" fill="#24ACEB" stroke="#01165F" stroke-width="2.27588"/>
<path d="M479.24 503.296C479.615 501.055 480.36 498.938 481.424 496.941C481.857 496.133 482.357 495.2 482.852 494.136C485.407 489.34 489.27 482.051 491.518 476.322C494.88 467.662 491.888 455.014 482.232 437.569L493.384 432.585C497.498 430.776 502.294 431.896 505.224 435.327L517.929 450.092C518.368 450.587 519.238 450.217 519.175 449.529L516.996 430.281C516.496 425.791 518.931 421.496 523.101 419.749L533.07 415.391C533.07 415.391 533.633 416.511 533.696 416.756C541.542 434.514 547.647 453.142 551.76 472.083L551.51 472.458L550.827 474.7L479.615 505.914L479.24 503.296Z" fill="#400CE9" stroke="#01165F" stroke-width="2.27588"/>
<path d="M370.771 445.542C368.592 430.032 365.787 411.529 363.608 396.946C361.804 384.736 360.183 373.397 359.312 367.229C358.066 358.319 357.127 349.164 356.445 339.628L356.82 338.013L415.009 336.141V336.266C413.763 342.496 413.763 352.151 414.32 358.507C415.384 370.717 417.814 381.123 420.181 391.217L420.431 392.338C422.297 400.252 423.794 406.915 424.852 413.833C426.473 424.359 427.281 434.891 427.469 445.48L427.344 445.605L399.311 489.091L370.771 445.542Z" fill="#24ACEB" stroke="#01165F" stroke-width="2.27588"/>
<path d="M343.051 503.861C344.36 501.801 345.976 500.122 347.847 498.626C348.655 497.938 349.651 497.13 350.835 496.259C355.199 492.766 361.241 488.032 365.292 483.673C373.081 475.321 372.643 458.565 370.834 445.917L370.771 445.541H381.303C386.537 445.541 391.146 448.909 392.768 453.831L398.309 470.775C398.372 471.088 398.81 471.025 398.873 470.775L403.481 454.326C404.978 449.097 409.712 445.541 415.134 445.479H427.469V445.604C427.657 465.171 425.848 484.732 422.109 503.923L421.74 504.293L419.93 505.789C419.868 505.852 419.805 505.852 419.742 505.852L343.984 506.472C343.859 506.472 343.734 506.415 343.671 506.227L343.051 503.861Z" fill="#400CE9" stroke="#01165F" stroke-width="2.27588"/>
<path d="M370.652 473.328L381.866 477.129" stroke="#01165F" stroke-width="2.27588" stroke-linecap="round" stroke-linejoin="round"/>
<path d="M367.095 481.553L376.882 488.346" stroke="#01165F" stroke-width="2.27588" stroke-linecap="round" stroke-linejoin="round"/>
<path d="M492.263 461.801L503.978 457.818" stroke="#01165F" stroke-width="2.27588" stroke-linecap="round" stroke-linejoin="round"/>
<path d="M492.946 470.586H503.978" stroke="#01165F" stroke-width="2.27588" stroke-linecap="round" stroke-linejoin="round"/>
<path d="M340.183 513.947V513.828C340.121 510.272 341.116 506.784 343.051 503.859L422.109 503.922C421.239 508.03 420.368 511.768 419.68 513.828L340.183 513.947Z" fill="#6BBFFF" stroke="#01165F" stroke-width="2.27588"/>
<path d="M356.444 339.445C352.769 286.735 358.874 239.699 362.174 226.362L355.636 195.211C353.827 197.953 337.879 221.816 320.184 221.816C302.802 221.816 289.903 208.297 280.498 198.454C279.747 197.703 279.065 196.895 278.319 196.206L278.257 196.15L295.701 162.626L295.826 162.688C306.227 167.86 314.699 172.907 315.763 173.596C316.696 171.724 328.161 149.42 339.996 136.897C347.347 129.17 359.124 124.812 373.144 124.75C373.388 124.75 373.576 124.75 373.701 124.75L375.385 117.398L412.955 117.461C412.955 117.461 412.704 123.936 412.516 125C413.888 125.182 425.847 127.242 434.012 136.277C436.316 138.706 442.234 146.057 448.026 160.822C453.511 174.654 457.624 188.611 459.24 199.137C462.358 219.073 451.206 236.393 438.621 243.249C449.272 258.759 456.936 279.196 464.475 300.629C469.271 314.273 473.76 323.616 482.978 339.382L483.103 339.627H356.444V339.445Z" fill="#6BBFFF"/>
<path d="M358.686 247.732H380.677V265.427C380.677 274.4 373.388 281.689 364.421 281.689L355.881 281.563" stroke="#01165F" stroke-width="2.27588" stroke-linecap="round" stroke-linejoin="round"/>
<path d="M362.299 226.426L421.239 226.363L431.082 180.572" stroke="#01165F" stroke-width="2.27588" stroke-linecap="round" stroke-linejoin="round"/>
<path d="M425.66 205.744L436.066 208.612" stroke="#01165F" stroke-width="2.27588" stroke-linecap="round" stroke-linejoin="round"/>
<path d="M355.699 194.904C365.042 181.198 369.406 174.342 369.406 174.342" stroke="#01165F" stroke-width="2.27588" stroke-linecap="round" stroke-linejoin="round"/>
<path d="M438.433 243.123C432.954 236.022 425.722 228.603 421.239 226.361" stroke="#01165F" stroke-width="2.27588" stroke-linecap="round" stroke-linejoin="round"/>
<path d="M480.548 513.892C479.057 510.586 478.557 506.911 479.239 503.298L551.76 472.084C552.511 475.572 553.069 479.003 553.444 482.49V482.553L480.548 513.892Z" fill="#6BBFFF" stroke="#01165F" stroke-width="2.27588"/>
<path d="M373.701 124.75L381.866 124.813" stroke="#01165F" stroke-width="2.27588" stroke-linecap="round" stroke-linejoin="round"/>
<path d="M315.763 173.596L319.564 189.294" stroke="#01165F" stroke-width="2.27588" stroke-linecap="round" stroke-linejoin="round"/>
</g>
<path d="M198.023 269.996L193.652 269.996L194.947 266.763L196.728 266.763L195.757 264.177L201.099 264.177L204.822 272.065L199.075 272.065L198.185 269.996L198.023 269.996ZM215.91 258.035C219.229 258.035 221.9 260.169 221.9 262.819C221.9 265.47 219.229 267.604 215.91 267.604L212.996 267.604L212.996 272.065L207.574 272.065L207.574 264.113L214.696 264.113C215.586 264.113 216.315 263.531 216.315 262.819C216.315 262.108 215.586 261.526 214.696 261.526L195.595 261.526L191.305 272.065L185.639 272.065L192.033 258.035L215.91 258.035Z" fill="#04177F"/>
<defs>
<filter id="filter0_dii_1800_4497" x="473.14" y="232.646" width="116.884" height="68.6793" filterUnits="userSpaceOnUse" color-interpolation-filters="sRGB">
<feFlood flood-opacity="0" result="BackgroundImageFix"/>
<feColorMatrix in="SourceAlpha" type="matrix" values="0 0 0 0 0 0 0 0 0 0 0 0 0 0 0 0 0 0 127 0" result="hardAlpha"/>
<feOffset dy="2.27588"/>
<feGaussianBlur stdDeviation="1.13794"/>
<feComposite in2="hardAlpha" operator="out"/>
<feColorMatrix type="matrix" values="0 0 0 0 0 0 0 0 0 0 0 0 0 0 0 0 0 0 0.25 0"/>
<feBlend mode="normal" in2="BackgroundImageFix" result="effect1_dropShadow_1800_4497"/>
<feBlend mode="normal" in="SourceGraphic" in2="effect1_dropShadow_1800_4497" result="shape"/>
<feColorMatrix in="SourceAlpha" type="matrix" values="0 0 0 0 0 0 0 0 0 0 0 0 0 0 0 0 0 0 127 0" result="hardAlpha"/>
<feOffset dx="14.7932" dy="10.8104"/>
<feGaussianBlur stdDeviation="2.56036"/>
<feComposite in2="hardAlpha" operator="arithmetic" k2="-1" k3="1"/>
<feColorMatrix type="matrix" values="0 0 0 0 0 0 0 0 0 0 0 0 0 0 0 0 0 0 0.25 0"/>
<feBlend mode="normal" in2="shape" result="effect2_innerShadow_1800_4497"/>
<feColorMatrix in="SourceAlpha" type="matrix" values="0 0 0 0 0 0 0 0 0 0 0 0 0 0 0 0 0 0 127 0" result="hardAlpha"/>
<feOffset dx="8.53455" dy="2.27588"/>
<feGaussianBlur stdDeviation="2.27588"/>
<feComposite in2="hardAlpha" operator="arithmetic" k2="-1" k3="1"/>
<feColorMatrix type="matrix" values="0 0 0 0 1 0 0 0 0 1 0 0 0 0 1 0 0 0 0.25 0"/>
<feBlend mode="normal" in2="effect2_innerShadow_1800_4497" result="effect3_innerShadow_1800_4497"/>
</filter>
<filter id="filter1_dii_1800_4497" x="93.4382" y="364.643" width="54.3766" height="50.5758" filterUnits="userSpaceOnUse" color-interpolation-filters="sRGB">
<feFlood flood-opacity="0" result="BackgroundImageFix"/>
<feColorMatrix in="SourceAlpha" type="matrix" values="0 0 0 0 0 0 0 0 0 0 0 0 0 0 0 0 0 0 127 0" result="hardAlpha"/>
<feOffset dy="2.27588"/>
<feGaussianBlur stdDeviation="1.13794"/>
<feComposite in2="hardAlpha" operator="out"/>
<feColorMatrix type="matrix" values="0 0 0 0 0 0 0 0 0 0 0 0 0 0 0 0 0 0 0.25 0"/>
<feBlend mode="normal" in2="BackgroundImageFix" result="effect1_dropShadow_1800_4497"/>
<feBlend mode="normal" in="SourceGraphic" in2="effect1_dropShadow_1800_4497" result="shape"/>
<feColorMatrix in="SourceAlpha" type="matrix" values="0 0 0 0 0 0 0 0 0 0 0 0 0 0 0 0 0 0 127 0" result="hardAlpha"/>
<feOffset dx="14.7932" dy="10.8104"/>
<feGaussianBlur stdDeviation="2.56036"/>
<feComposite in2="hardAlpha" operator="arithmetic" k2="-1" k3="1"/>
<feColorMatrix type="matrix" values="0 0 0 0 0 0 0 0 0 0 0 0 0 0 0 0 0 0 0.25 0"/>
<feBlend mode="normal" in2="shape" result="effect2_innerShadow_1800_4497"/>
<feColorMatrix in="SourceAlpha" type="matrix" values="0 0 0 0 0 0 0 0 0 0 0 0 0 0 0 0 0 0 127 0" result="hardAlpha"/>
<feOffset dx="8.53455" dy="2.27588"/>
<feGaussianBlur stdDeviation="2.27588"/>
<feComposite in2="hardAlpha" operator="arithmetic" k2="-1" k3="1"/>
<feColorMatrix type="matrix" values="0 0 0 0 1 0 0 0 0 1 0 0 0 0 1 0 0 0 0.25 0"/>
<feBlend mode="normal" in2="effect2_innerShadow_1800_4497" result="effect3_innerShadow_1800_4497"/>
</filter>
<filter id="filter2_dii_1800_4497" x="429.085" y="0.861328" width="54.3197" height="50.5192" filterUnits="userSpaceOnUse" color-interpolation-filters="sRGB">
<feFlood flood-opacity="0" result="BackgroundImageFix"/>
<feColorMatrix in="SourceAlpha" type="matrix" values="0 0 0 0 0 0 0 0 0 0 0 0 0 0 0 0 0 0 127 0" result="hardAlpha"/>
<feOffset dy="2.27588"/>
<feGaussianBlur stdDeviation="1.13794"/>
<feComposite in2="hardAlpha" operator="out"/>
<feColorMatrix type="matrix" values="0 0 0 0 0 0 0 0 0 0 0 0 0 0 0 0 0 0 0.25 0"/>
<feBlend mode="normal" in2="BackgroundImageFix" result="effect1_dropShadow_1800_4497"/>
<feBlend mode="normal" in="SourceGraphic" in2="effect1_dropShadow_1800_4497" result="shape"/>
<feColorMatrix in="SourceAlpha" type="matrix" values="0 0 0 0 0 0 0 0 0 0 0 0 0 0 0 0 0 0 127 0" result="hardAlpha"/>
<feOffset dx="14.7932" dy="10.8104"/>
<feGaussianBlur stdDeviation="2.56036"/>
<feComposite in2="hardAlpha" operator="arithmetic" k2="-1" k3="1"/>
<feColorMatrix type="matrix" values="0 0 0 0 0 0 0 0 0 0 0 0 0 0 0 0 0 0 0.25 0"/>
<feBlend mode="normal" in2="shape" result="effect2_innerShadow_1800_4497"/>
<feColorMatrix in="SourceAlpha" type="matrix" values="0 0 0 0 0 0 0 0 0 0 0 0 0 0 0 0 0 0 127 0" result="hardAlpha"/>
<feOffset dx="8.53455" dy="2.27588"/>
<feGaussianBlur stdDeviation="2.27588"/>
<feComposite in2="hardAlpha" operator="arithmetic" k2="-1" k3="1"/>
<feColorMatrix type="matrix" values="0 0 0 0 1 0 0 0 0 1 0 0 0 0 1 0 0 0 0.25 0"/>
<feBlend mode="normal" in2="effect2_innerShadow_1800_4497" result="effect3_innerShadow_1800_4497"/>
</filter>
<filter id="filter3_dii_1800_4497" x="73.6034" y="36.2227" width="260.247" height="291.312" filterUnits="userSpaceOnUse" color-interpolation-filters="sRGB">
<feFlood flood-opacity="0" result="BackgroundImageFix"/>
<feColorMatrix in="SourceAlpha" type="matrix" values="0 0 0 0 0 0 0 0 0 0 0 0 0 0 0 0 0 0 127 0" result="hardAlpha"/>
<feOffset dy="2.27588"/>
<feGaussianBlur stdDeviation="1.13794"/>
<feComposite in2="hardAlpha" operator="out"/>
<feColorMatrix type="matrix" values="0 0 0 0 0 0 0 0 0 0 0 0 0 0 0 0 0 0 0.25 0"/>
<feBlend mode="normal" in2="BackgroundImageFix" result="effect1_dropShadow_1800_4497"/>
<feBlend mode="normal" in="SourceGraphic" in2="effect1_dropShadow_1800_4497" result="shape"/>
<feColorMatrix in="SourceAlpha" type="matrix" values="0 0 0 0 0 0 0 0 0 0 0 0 0 0 0 0 0 0 127 0" result="hardAlpha"/>
<feOffset dx="14.7932" dy="10.8104"/>
<feGaussianBlur stdDeviation="2.56036"/>
<feComposite in2="hardAlpha" operator="arithmetic" k2="-1" k3="1"/>
<feColorMatrix type="matrix" values="0 0 0 0 0 0 0 0 0 0 0 0 0 0 0 0 0 0 0.25 0"/>
<feBlend mode="normal" in2="shape" result="effect2_innerShadow_1800_4497"/>
<feColorMatrix in="SourceAlpha" type="matrix" values="0 0 0 0 0 0 0 0 0 0 0 0 0 0 0 0 0 0 127 0" result="hardAlpha"/>
<feOffset dx="8.53455" dy="2.27588"/>
<feGaussianBlur stdDeviation="2.27588"/>
<feComposite in2="hardAlpha" operator="arithmetic" k2="-1" k3="1"/>
<feColorMatrix type="matrix" values="0 0 0 0 1 0 0 0 0 1 0 0 0 0 1 0 0 0 0.25 0"/>
<feBlend mode="normal" in2="effect2_innerShadow_1800_4497" result="effect3_innerShadow_1800_4497"/>
</filter>
<filter id="filter4_dii_1800_4497" x="437.71" y="86.3594" width="158.976" height="127.984" filterUnits="userSpaceOnUse" color-interpolation-filters="sRGB">
<feFlood flood-opacity="0" result="BackgroundImageFix"/>
<feColorMatrix in="SourceAlpha" type="matrix" values="0 0 0 0 0 0 0 0 0 0 0 0 0 0 0 0 0 0 127 0" result="hardAlpha"/>
<feOffset dy="2.27588"/>
<feGaussianBlur stdDeviation="1.13794"/>
<feComposite in2="hardAlpha" operator="out"/>
<feColorMatrix type="matrix" values="0 0 0 0 0 0 0 0 0 0 0 0 0 0 0 0 0 0 0.25 0"/>
<feBlend mode="normal" in2="BackgroundImageFix" result="effect1_dropShadow_1800_4497"/>
<feBlend mode="normal" in="SourceGraphic" in2="effect1_dropShadow_1800_4497" result="shape"/>
<feColorMatrix in="SourceAlpha" type="matrix" values="0 0 0 0 0 0 0 0 0 0 0 0 0 0 0 0 0 0 127 0" result="hardAlpha"/>
<feOffset dx="14.7932" dy="10.8104"/>
<feGaussianBlur stdDeviation="2.56036"/>
<feComposite in2="hardAlpha" operator="arithmetic" k2="-1" k3="1"/>
<feColorMatrix type="matrix" values="0 0 0 0 0 0 0 0 0 0 0 0 0 0 0 0 0 0 0.25 0"/>
<feBlend mode="normal" in2="shape" result="effect2_innerShadow_1800_4497"/>
<feColorMatrix in="SourceAlpha" type="matrix" values="0 0 0 0 0 0 0 0 0 0 0 0 0 0 0 0 0 0 127 0" result="hardAlpha"/>
<feOffset dx="8.53455" dy="2.27588"/>
<feGaussianBlur stdDeviation="2.27588"/>
<feComposite in2="hardAlpha" operator="arithmetic" k2="-1" k3="1"/>
<feColorMatrix type="matrix" values="0 0 0 0 1 0 0 0 0 1 0 0 0 0 1 0 0 0 0.25 0"/>
<feBlend mode="normal" in2="effect2_innerShadow_1800_4497" result="effect3_innerShadow_1800_4497"/>
</filter>
<filter id="filter5_dii_1800_4497" x="154.791" y="382.523" width="156.164" height="136.767" filterUnits="userSpaceOnUse" color-interpolation-filters="sRGB">
<feFlood flood-opacity="0" result="BackgroundImageFix"/>
<feColorMatrix in="SourceAlpha" type="matrix" values="0 0 0 0 0 0 0 0 0 0 0 0 0 0 0 0 0 0 127 0" result="hardAlpha"/>
<feOffset dy="2.27588"/>
<feGaussianBlur stdDeviation="1.13794"/>
<feComposite in2="hardAlpha" operator="out"/>
<feColorMatrix type="matrix" values="0 0 0 0 0 0 0 0 0 0 0 0 0 0 0 0 0 0 0.25 0"/>
<feBlend mode="normal" in2="BackgroundImageFix" result="effect1_dropShadow_1800_4497"/>
<feBlend mode="normal" in="SourceGraphic" in2="effect1_dropShadow_1800_4497" result="shape"/>
<feColorMatrix in="SourceAlpha" type="matrix" values="0 0 0 0 0 0 0 0 0 0 0 0 0 0 0 0 0 0 127 0" result="hardAlpha"/>
<feOffset dx="14.7932" dy="10.8104"/>
<feGaussianBlur stdDeviation="2.56036"/>
<feComposite in2="hardAlpha" operator="arithmetic" k2="-1" k3="1"/>
<feColorMatrix type="matrix" values="0 0 0 0 0 0 0 0 0 0 0 0 0 0 0 0 0 0 0.25 0"/>
<feBlend mode="normal" in2="shape" result="effect2_innerShadow_1800_4497"/>
<feColorMatrix in="SourceAlpha" type="matrix" values="0 0 0 0 0 0 0 0 0 0 0 0 0 0 0 0 0 0 127 0" result="hardAlpha"/>
<feOffset dx="8.53455" dy="2.27588"/>
<feGaussianBlur stdDeviation="2.27588"/>
<feComposite in2="hardAlpha" operator="arithmetic" k2="-1" k3="1"/>
<feColorMatrix type="matrix" values="0 0 0 0 1 0 0 0 0 1 0 0 0 0 1 0 0 0 0.25 0"/>
<feBlend mode="normal" in2="effect2_innerShadow_1800_4497" result="effect3_innerShadow_1800_4497"/>
</filter>
<filter id="filter6_dii_1800_4497" x="127.457" y="71.0586" width="156.233" height="153.918" filterUnits="userSpaceOnUse" color-interpolation-filters="sRGB">
<feFlood flood-opacity="0" result="BackgroundImageFix"/>
<feColorMatrix in="SourceAlpha" type="matrix" values="0 0 0 0 0 0 0 0 0 0 0 0 0 0 0 0 0 0 127 0" result="hardAlpha"/>
<feOffset dy="2.27588"/>
<feGaussianBlur stdDeviation="1.13794"/>
<feComposite in2="hardAlpha" operator="out"/>
<feColorMatrix type="matrix" values="0 0 0 0 0 0 0 0 0 0 0 0 0 0 0 0 0 0 0.25 0"/>
<feBlend mode="normal" in2="BackgroundImageFix" result="effect1_dropShadow_1800_4497"/>
<feBlend mode="normal" in="SourceGraphic" in2="effect1_dropShadow_1800_4497" result="shape"/>
<feColorMatrix in="SourceAlpha" type="matrix" values="0 0 0 0 0 0 0 0 0 0 0 0 0 0 0 0 0 0 127 0" result="hardAlpha"/>
<feOffset dx="14.7932" dy="10.8104"/>
<feGaussianBlur stdDeviation="2.56036"/>
<feComposite in2="hardAlpha" operator="arithmetic" k2="-1" k3="1"/>
<feColorMatrix type="matrix" values="0 0 0 0 0 0 0 0 0 0 0 0 0 0 0 0 0 0 0.25 0"/>
<feBlend mode="normal" in2="shape" result="effect2_innerShadow_1800_4497"/>
<feColorMatrix in="SourceAlpha" type="matrix" values="0 0 0 0 0 0 0 0 0 0 0 0 0 0 0 0 0 0 127 0" result="hardAlpha"/>
<feOffset dx="9" dy="2.27588"/>
<feGaussianBlur stdDeviation="2.27588"/>
<feComposite in2="hardAlpha" operator="arithmetic" k2="-1" k3="1"/>
<feColorMatrix type="matrix" values="0 0 0 0 1 0 0 0 0 1 0 0 0 0 1 0 0 0 0.25 0"/>
<feBlend mode="normal" in2="effect2_innerShadow_1800_4497" result="effect3_innerShadow_1800_4497"/>
</filter>
<filter id="filter7_dii_1800_4497" x="104.641" y="239.986" width="56.5555" height="54.2809" filterUnits="userSpaceOnUse" color-interpolation-filters="sRGB">
<feFlood flood-opacity="0" result="BackgroundImageFix"/>
<feColorMatrix in="SourceAlpha" type="matrix" values="0 0 0 0 0 0 0 0 0 0 0 0 0 0 0 0 0 0 127 0" result="hardAlpha"/>
<feOffset dy="2.27588"/>
<feGaussianBlur stdDeviation="1.13794"/>
<feComposite in2="hardAlpha" operator="out"/>
<feColorMatrix type="matrix" values="0 0 0 0 0 0 0 0 0 0 0 0 0 0 0 0 0 0 0.25 0"/>
<feBlend mode="normal" in2="BackgroundImageFix" result="effect1_dropShadow_1800_4497"/>
<feBlend mode="normal" in="SourceGraphic" in2="effect1_dropShadow_1800_4497" result="shape"/>
<feColorMatrix in="SourceAlpha" type="matrix" values="0 0 0 0 0 0 0 0 0 0 0 0 0 0 0 0 0 0 127 0" result="hardAlpha"/>
<feOffset dx="14.7932" dy="10.8104"/>
<feGaussianBlur stdDeviation="2.56036"/>
<feComposite in2="hardAlpha" operator="arithmetic" k2="-1" k3="1"/>
<feColorMatrix type="matrix" values="0 0 0 0 0 0 0 0 0 0 0 0 0 0 0 0 0 0 0.25 0"/>
<feBlend mode="normal" in2="shape" result="effect2_innerShadow_1800_4497"/>
<feColorMatrix in="SourceAlpha" type="matrix" values="0 0 0 0 0 0 0 0 0 0 0 0 0 0 0 0 0 0 127 0" result="hardAlpha"/>
<feOffset dx="8.53455" dy="2.27588"/>
<feGaussianBlur stdDeviation="2.27588"/>
<feComposite in2="hardAlpha" operator="arithmetic" k2="-1" k3="1"/>
<feColorMatrix type="matrix" values="0 0 0 0 1 0 0 0 0 1 0 0 0 0 1 0 0 0 0.25 0"/>
<feBlend mode="normal" in2="effect2_innerShadow_1800_4497" result="effect3_innerShadow_1800_4497"/>
</filter>
<filter id="filter8_dii_1800_4497" x="177.73" y="240" width="56.5557" height="54.2809" filterUnits="userSpaceOnUse" color-interpolation-filters="sRGB">
<feFlood flood-opacity="0" result="BackgroundImageFix"/>
<feColorMatrix in="SourceAlpha" type="matrix" values="0 0 0 0 0 0 0 0 0 0 0 0 0 0 0 0 0 0 127 0" result="hardAlpha"/>
<feOffset dy="2.27588"/>
<feGaussianBlur stdDeviation="1.13794"/>
<feComposite in2="hardAlpha" operator="out"/>
<feColorMatrix type="matrix" values="0 0 0 0 0 0 0 0 0 0 0 0 0 0 0 0 0 0 0.25 0"/>
<feBlend mode="normal" in2="BackgroundImageFix" result="effect1_dropShadow_1800_4497"/>
<feBlend mode="normal" in="SourceGraphic" in2="effect1_dropShadow_1800_4497" result="shape"/>
<feColorMatrix in="SourceAlpha" type="matrix" values="0 0 0 0 0 0 0 0 0 0 0 0 0 0 0 0 0 0 127 0" result="hardAlpha"/>
<feOffset dx="14.7932" dy="10.8104"/>
<feGaussianBlur stdDeviation="2.56036"/>
<feComposite in2="hardAlpha" operator="arithmetic" k2="-1" k3="1"/>
<feColorMatrix type="matrix" values="0 0 0 0 0 0 0 0 0 0 0 0 0 0 0 0 0 0 0.25 0"/>
<feBlend mode="normal" in2="shape" result="effect2_innerShadow_1800_4497"/>
<feColorMatrix in="SourceAlpha" type="matrix" values="0 0 0 0 0 0 0 0 0 0 0 0 0 0 0 0 0 0 127 0" result="hardAlpha"/>
<feOffset dx="8.53455" dy="2.27588"/>
<feGaussianBlur stdDeviation="2.27588"/>
<feComposite in2="hardAlpha" operator="arithmetic" k2="-1" k3="1"/>
<feColorMatrix type="matrix" values="0 0 0 0 1 0 0 0 0 1 0 0 0 0 1 0 0 0 0.25 0"/>
<feBlend mode="normal" in2="effect2_innerShadow_1800_4497" result="effect3_innerShadow_1800_4497"/>
</filter>
<filter id="filter9_dii_1800_4497" x="248.397" y="240" width="56.5557" height="54.2809" filterUnits="userSpaceOnUse" color-interpolation-filters="sRGB">
<feFlood flood-opacity="0" result="BackgroundImageFix"/>
<feColorMatrix in="SourceAlpha" type="matrix" values="0 0 0 0 0 0 0 0 0 0 0 0 0 0 0 0 0 0 127 0" result="hardAlpha"/>
<feOffset dy="2.27588"/>
<feGaussianBlur stdDeviation="1.13794"/>
<feComposite in2="hardAlpha" operator="out"/>
<feColorMatrix type="matrix" values="0 0 0 0 0 0 0 0 0 0 0 0 0 0 0 0 0 0 0.25 0"/>
<feBlend mode="normal" in2="BackgroundImageFix" result="effect1_dropShadow_1800_4497"/>
<feBlend mode="normal" in="SourceGraphic" in2="effect1_dropShadow_1800_4497" result="shape"/>
<feColorMatrix in="SourceAlpha" type="matrix" values="0 0 0 0 0 0 0 0 0 0 0 0 0 0 0 0 0 0 127 0" result="hardAlpha"/>
<feOffset dx="14.7932" dy="10.8104"/>
<feGaussianBlur stdDeviation="2.56036"/>
<feComposite in2="hardAlpha" operator="arithmetic" k2="-1" k3="1"/>
<feColorMatrix type="matrix" values="0 0 0 0 0 0 0 0 0 0 0 0 0 0 0 0 0 0 0.25 0"/>
<feBlend mode="normal" in2="shape" result="effect2_innerShadow_1800_4497"/>
<feColorMatrix in="SourceAlpha" type="matrix" values="0 0 0 0 0 0 0 0 0 0 0 0 0 0 0 0 0 0 127 0" result="hardAlpha"/>
<feOffset dx="8.53455" dy="2.27588"/>
<feGaussianBlur stdDeviation="2.27588"/>
<feComposite in2="hardAlpha" operator="arithmetic" k2="-1" k3="1"/>
<feColorMatrix type="matrix" values="0 0 0 0 1 0 0 0 0 1 0 0 0 0 1 0 0 0 0.25 0"/>
<feBlend mode="normal" in2="effect2_innerShadow_1800_4497" result="effect3_innerShadow_1800_4497"/>
</filter>
<filter id="filter10_dii_1800_4497" x="0.724121" y="134.332" width="98.371" height="97.0231" filterUnits="userSpaceOnUse" color-interpolation-filters="sRGB">
<feFlood flood-opacity="0" result="BackgroundImageFix"/>
<feColorMatrix in="SourceAlpha" type="matrix" values="0 0 0 0 0 0 0 0 0 0 0 0 0 0 0 0 0 0 127 0" result="hardAlpha"/>
<feOffset dy="2.27588"/>
<feGaussianBlur stdDeviation="1.13794"/>
<feComposite in2="hardAlpha" operator="out"/>
<feColorMatrix type="matrix" values="0 0 0 0 0 0 0 0 0 0 0 0 0 0 0 0 0 0 0.25 0"/>
<feBlend mode="normal" in2="BackgroundImageFix" result="effect1_dropShadow_1800_4497"/>
<feBlend mode="normal" in="SourceGraphic" in2="effect1_dropShadow_1800_4497" result="shape"/>
<feColorMatrix in="SourceAlpha" type="matrix" values="0 0 0 0 0 0 0 0 0 0 0 0 0 0 0 0 0 0 127 0" result="hardAlpha"/>
<feOffset dx="14.7932" dy="10.8104"/>
<feGaussianBlur stdDeviation="2.56036"/>
<feComposite in2="hardAlpha" operator="arithmetic" k2="-1" k3="1"/>
<feColorMatrix type="matrix" values="0 0 0 0 0 0 0 0 0 0 0 0 0 0 0 0 0 0 0.25 0"/>
<feBlend mode="normal" in2="shape" result="effect2_innerShadow_1800_4497"/>
<feColorMatrix in="SourceAlpha" type="matrix" values="0 0 0 0 0 0 0 0 0 0 0 0 0 0 0 0 0 0 127 0" result="hardAlpha"/>
<feOffset dx="8.53455" dy="2.27588"/>
<feGaussianBlur stdDeviation="2.27588"/>
<feComposite in2="hardAlpha" operator="arithmetic" k2="-1" k3="1"/>
<feColorMatrix type="matrix" values="0 0 0 0 1 0 0 0 0 1 0 0 0 0 1 0 0 0 0.25 0"/>
<feBlend mode="normal" in2="effect2_innerShadow_1800_4497" result="effect3_innerShadow_1800_4497"/>
</filter>
<filter id="filter11_dii_1800_4497" x="232.156" y="46.5" width="327.548" height="474" filterUnits="userSpaceOnUse" color-interpolation-filters="sRGB">
<feFlood flood-opacity="0" result="BackgroundImageFix"/>
<feColorMatrix in="SourceAlpha" type="matrix" values="0 0 0 0 0 0 0 0 0 0 0 0 0 0 0 0 0 0 127 0" result="hardAlpha"/>
<feOffset dy="2.27588"/>
<feGaussianBlur stdDeviation="1.13794"/>
<feComposite in2="hardAlpha" operator="out"/>
<feColorMatrix type="matrix" values="0 0 0 0 0 0 0 0 0 0 0 0 0 0 0 0 0 0 0.25 0"/>
<feBlend mode="normal" in2="BackgroundImageFix" result="effect1_dropShadow_1800_4497"/>
<feBlend mode="normal" in="SourceGraphic" in2="effect1_dropShadow_1800_4497" result="shape"/>
<feColorMatrix in="SourceAlpha" type="matrix" values="0 0 0 0 0 0 0 0 0 0 0 0 0 0 0 0 0 0 127 0" result="hardAlpha"/>
<feOffset dx="14.7932" dy="10.8104"/>
<feGaussianBlur stdDeviation="2.56036"/>
<feComposite in2="hardAlpha" operator="arithmetic" k2="-1" k3="1"/>
<feColorMatrix type="matrix" values="0 0 0 0 0 0 0 0 0 0 0 0 0 0 0 0 0 0 0.25 0"/>
<feBlend mode="normal" in2="shape" result="effect2_innerShadow_1800_4497"/>
<feColorMatrix in="SourceAlpha" type="matrix" values="0 0 0 0 0 0 0 0 0 0 0 0 0 0 0 0 0 0 127 0" result="hardAlpha"/>
<feOffset dx="-16" dy="2.27588"/>
<feGaussianBlur stdDeviation="2.27588"/>
<feComposite in2="hardAlpha" operator="arithmetic" k2="-1" k3="1"/>
<feColorMatrix type="matrix" values="0 0 0 0 1 0 0 0 0 1 0 0 0 0 1 0 0 0 0.25 0"/>
<feBlend mode="normal" in2="effect2_innerShadow_1800_4497" result="effect3_innerShadow_1800_4497"/>
</filter>
</defs>
</svg>
