<svg width="491" height="395" viewBox="0 0 491 395" fill="none" xmlns="http://www.w3.org/2000/svg">
<g filter="url(#filter0_di_1614_3903)">
<path d="M15.7 309.947C12.7227 309.947 10.0521 310.561 8.24942 311.463C6.463 312.365 5.7773 313.376 5.7773 314.098C5.7773 314.801 6.463 315.832 8.24942 316.714C10.0521 317.616 12.7227 318.248 15.7 318.248C18.6774 318.248 21.348 317.616 23.1344 316.714C24.9389 315.832 25.6246 314.801 25.6246 314.098C25.6246 313.376 24.9389 312.365 23.1344 311.463C21.348 310.561 18.6774 309.947 15.7 309.947ZM44.5714 315.722C41.5941 315.722 38.9235 316.335 37.1371 317.237C35.3326 318.14 34.6469 319.15 34.6469 319.872C34.6469 320.576 35.3326 321.606 37.1371 322.488C38.9235 323.391 41.5941 324.02 44.5714 324.02C45.4015 324.02 46.1955 323.966 46.9533 323.876C47.7293 322.885 48.83 322.006 50.1111 321.422C51.5908 320.754 53.305 320.213 54.496 319.872C54.496 319.15 53.8103 318.14 52.0058 317.237C50.2194 316.335 47.5488 315.722 44.5714 315.722ZM5.7773 319.04C5.70513 321.685 8.57061 322.764 10.3769 323.298C13.6069 324.237 17.7932 324.237 21.0232 323.298C23.3329 322.638 25.6065 321.364 25.6246 319.04C22.7194 320.958 18.4789 321.474 15.7 321.494C12.1813 321.2 8.4858 320.835 5.7773 319.04ZM59.0071 322.813C56.0298 322.813 53.3592 323.427 51.5728 324.345C49.7683 325.229 49.0826 326.258 49.0826 326.962C49.0826 327.683 49.7683 328.694 51.5728 329.596C53.3592 330.498 56.0298 331.112 59.0071 331.112C61.9845 331.112 64.6551 330.498 66.4415 329.596C68.246 328.694 68.9317 327.683 68.9317 326.962C68.9317 326.258 68.246 325.229 66.4415 324.345C64.6551 323.427 61.9845 322.813 59.0071 322.813ZM34.6469 324.814V325.247C35.1702 325.428 35.6754 325.644 36.1446 325.879C37.7686 326.691 39.1761 327.828 39.8979 329.253C41.7384 329.704 43.8136 329.867 45.8346 329.74V327.232C45.4195 327.25 45.0045 327.268 44.5714 327.268C41.161 327.268 38.0573 326.601 35.6754 325.41C35.3145 325.229 34.9717 325.031 34.6469 324.814ZM5.7773 324.832C5.71595 327.467 8.57783 328.549 10.3769 329.091C11.6039 329.434 12.9753 329.668 14.3828 329.74C14.7437 328.802 15.3933 327.972 16.2233 327.268C13.9136 327.322 11.5859 327.034 9.47465 326.438C8.06897 326.023 6.82389 325.5 5.7773 324.832ZM27.2486 327.268C24.2712 327.268 21.6006 327.9 19.8142 328.784C18.0098 329.686 17.3241 330.697 17.3241 331.419C17.3241 332.14 18.0098 333.151 19.8142 334.053C21.6006 334.955 24.2712 335.569 27.2486 335.569C30.226 335.569 32.8966 334.955 34.683 334.053C36.4874 333.151 37.1731 332.14 37.1731 331.419C37.1731 330.697 36.4874 329.686 34.683 328.784C32.8966 327.9 30.226 327.268 27.2486 327.268ZM5.7773 330.607C5.71595 333.241 8.57783 334.324 10.3769 334.865C11.5137 335.19 12.7768 335.406 14.076 335.497V333.006C12.4881 332.898 10.9363 332.628 9.47465 332.213C8.06897 331.797 6.82389 331.274 5.7773 330.607ZM49.0826 331.924C49.0465 334.576 51.8615 335.641 53.684 336.182C56.914 337.121 61.1003 337.121 64.3303 336.182C66.622 335.515 68.9136 334.252 68.9317 331.924C68.6069 332.122 68.264 332.321 67.9031 332.501C65.5212 333.692 62.4176 334.36 59.0071 334.36C55.5967 334.36 52.493 333.692 50.1111 332.501C49.7502 332.321 49.4074 332.122 49.0826 331.924ZM40.4212 332.682V335.154C42.1174 335.497 44.0121 335.623 45.8346 335.515V333.025C44.0121 333.115 42.1715 333.006 40.4212 332.682ZM17.3241 336.363C17.2338 337.445 17.721 338.33 18.3165 338.853C19.0744 339.503 20.3014 340.17 21.9254 340.639C25.1554 341.56 29.3418 341.56 32.5718 340.639C34.1958 340.17 35.4228 339.503 36.1807 338.853C37.0649 338.113 37.1731 337.391 37.1731 336.363C36.8483 336.579 36.5055 336.778 36.1446 336.958C33.7627 338.149 30.659 338.817 27.2486 338.817C23.8382 338.817 20.7345 338.149 18.3526 336.958C17.9917 336.778 17.6489 336.579 17.3241 336.363ZM5.7773 336.381C5.71595 339.015 8.57783 340.098 10.3769 340.639C11.5137 340.964 12.7768 341.181 14.076 341.271V338.781C12.4881 338.673 10.9363 338.402 9.47465 337.987C8.06897 337.572 6.82389 337.048 5.7773 336.381ZM49.0826 337.698C49.0465 340.351 51.8615 341.415 53.684 341.957C56.914 342.895 61.1003 342.895 64.3303 341.957C66.622 341.289 68.9136 340.026 68.9317 337.698C67.8851 338.366 66.64 338.889 65.2325 339.304C61.3168 340.441 56.6974 340.441 52.7817 339.304C51.3743 338.889 50.1292 338.366 49.0826 337.698ZM40.4212 338.456V340.928C42.1174 341.271 44.0121 341.397 45.8346 341.289V338.799C44.0121 338.889 42.1715 338.781 40.4212 338.456ZM5.7773 342.155C5.71595 344.79 8.57783 345.872 10.3769 346.414C11.5137 346.738 12.7768 346.955 14.076 347.045V344.555C12.4881 344.447 10.9363 344.176 9.47465 343.761C8.06897 343.346 6.82389 342.823 5.7773 342.155ZM17.3241 342.155C17.2338 343.238 17.721 344.104 18.3165 344.627C19.0744 345.277 20.3014 345.944 21.9254 346.414C25.1554 347.334 29.3418 347.334 32.5718 346.414C34.1958 345.944 35.4228 345.277 36.1807 344.627C37.0649 343.887 37.1731 343.184 37.1731 342.155C36.1266 342.823 34.8815 343.346 33.474 343.761C29.5583 344.88 24.9389 344.88 21.0232 343.761C19.6157 343.346 18.3706 342.823 17.3241 342.155ZM49.0826 343.472C49.0465 346.125 51.8615 347.19 53.684 347.731C56.914 348.669 61.1003 348.669 64.3303 347.731C66.622 347.063 68.9136 345.8 68.9317 343.472C67.8851 344.14 66.64 344.663 65.2325 345.078C61.3168 346.215 56.6974 346.215 52.7817 345.078C51.3743 344.663 50.1292 344.14 49.0826 343.472ZM40.4212 344.23V346.702C42.1174 347.045 44.0121 347.172 45.8346 347.063V344.573C44.0121 344.663 42.1715 344.555 40.4212 344.23ZM17.3241 347.929V348.344C17.8474 348.525 18.3526 348.741 18.8218 348.976C20.4458 349.788 21.8533 350.925 22.575 352.35C25.6968 353.108 29.5583 353.054 32.5718 352.188C34.1958 351.719 35.4228 351.051 36.1807 350.402C37.0649 349.662 37.1731 348.958 37.1731 347.929C36.1266 348.597 34.8815 349.12 33.474 349.535C29.5583 350.654 24.9389 350.654 21.0232 349.535C19.6157 349.12 18.3706 348.597 17.3241 347.929ZM49.0826 349.247C49.0465 351.899 51.8615 352.964 53.684 353.505C56.914 354.443 61.1003 354.443 64.3303 353.505C66.622 352.838 68.9136 351.574 68.9317 349.247C67.8851 349.914 66.64 350.438 65.2325 350.853C61.3168 351.989 56.6974 351.989 52.7817 350.853C51.3743 350.438 50.1292 349.914 49.0826 349.247ZM40.4212 350.005V352.477C42.1174 352.819 44.0121 352.946 45.8346 352.838V350.347C44.0121 350.438 42.1715 350.329 40.4212 350.005ZM9.92576 350.365C6.9502 350.365 4.2796 350.997 2.47514 351.881C0.68872 352.783 0.00302395 353.794 0.00302395 354.516C0.00302395 355.237 0.68872 356.248 2.47514 357.15C4.2796 358.052 6.9502 358.666 9.92576 358.666C12.9031 358.666 15.5737 358.052 17.3601 357.15C19.1646 356.248 19.8503 355.237 19.8503 354.516C19.8503 353.794 19.1646 352.783 17.3601 351.881C15.5737 350.997 12.9031 350.365 9.92576 350.365ZM37.1731 353.704C36.1266 354.371 34.8815 354.895 33.474 355.31C30.226 356.23 26.5088 356.392 23.0983 355.779V358.251C26.1298 358.882 29.7207 358.774 32.5718 357.962C34.8454 357.295 37.1551 356.013 37.1731 353.704ZM49.0826 355.021C49.0285 357.583 51.7352 358.684 53.5216 359.225C54.5321 358.413 55.4523 357.8 56.535 357.349C55.2358 357.204 53.9727 356.97 52.7817 356.627C51.3743 356.212 50.1292 355.689 49.0826 355.021ZM68.9317 355.021C68.4264 355.346 67.867 355.634 67.2535 355.905C67.8129 355.959 68.3723 356.031 68.8956 356.122C68.9678 355.761 68.9317 355.4 68.9317 355.021ZM40.4212 355.779V358.233C42.388 358.612 44.0301 358.702 45.8346 358.63V356.122C44.0121 356.212 42.1715 356.104 40.4212 355.779ZM64.7814 359.027C61.8041 359.027 59.1334 359.658 57.347 360.543C55.5426 361.445 54.8569 362.455 54.8569 363.177C54.8569 363.899 55.5426 364.909 57.347 365.812C59.1334 366.714 61.8041 367.327 64.7814 367.327C67.7588 367.327 70.4294 366.714 72.2158 365.812C74.0203 364.909 74.706 363.899 74.706 363.177C74.706 362.455 74.0203 361.445 72.2158 360.543C70.4294 359.658 67.7588 359.027 64.7814 359.027ZM0.00302395 359.46C-0.0493055 362.131 2.76566 363.195 4.6044 363.736C7.83439 364.657 12.0189 364.657 15.2489 363.736C17.5406 363.069 19.8323 361.788 19.8503 359.46C19.5255 359.676 19.1827 359.875 18.8218 360.055C16.4399 361.246 13.3362 361.914 9.92576 361.914C6.38721 361.625 2.72957 361.264 0.00302395 359.46ZM37.1731 359.478C36.1266 360.146 34.8815 360.669 33.474 361.084C30.226 362.004 26.5088 362.167 23.0983 361.553V364.025C26.1298 364.657 29.7207 364.548 32.5718 363.736C34.8454 363.069 37.1551 361.788 37.1731 359.478ZM49.0826 360.795C49.0104 362.654 50.5262 363.7 51.5728 364.242C51.5728 364.242 51.5908 364.26 51.6088 364.26V362.022C50.6705 361.679 49.8224 361.264 49.0826 360.795ZM0.00302395 365.252C-0.0583278 367.887 2.80355 368.969 4.6044 369.511C7.83439 370.431 12.0189 370.431 15.2489 369.511C17.5225 368.843 19.8323 367.562 19.8503 365.252C18.8037 365.92 17.5586 366.443 16.1512 366.858C12.2355 367.977 7.61786 367.977 3.70217 366.858C2.29469 366.443 1.04961 365.92 0.00302395 365.252ZM23.0983 367.327V369.781C23.9825 369.98 24.9389 370.106 25.9313 370.178C26.2922 369.222 26.9418 368.392 27.7719 367.688C26.202 367.724 24.6141 367.598 23.0983 367.327ZM38.7972 367.688C35.8198 367.688 33.1492 368.32 31.3628 369.204C29.5583 370.106 28.8726 371.117 28.8726 371.839C28.8726 372.56 29.5583 373.571 31.3628 374.473C33.1492 375.375 35.8198 375.989 38.7972 375.989C41.7745 375.989 44.4451 375.375 46.2315 374.473C48.036 373.571 48.7217 372.56 48.7217 371.839C48.7217 371.117 48.036 370.106 46.2315 369.204C44.4451 368.32 41.7745 367.688 38.7972 367.688ZM54.8569 368.121C54.8388 370.792 57.5997 371.857 59.4583 372.398C62.6882 373.318 66.8746 373.318 70.1046 372.398C72.3962 371.73 74.6879 370.449 74.706 368.121C71.8549 369.854 67.5422 370.557 64.7814 370.575C61.2447 370.287 57.5816 369.926 54.8569 368.121ZM0.00302395 371.027C-0.0583278 373.661 2.80355 374.744 4.6044 375.285C7.83439 376.205 12.0189 376.205 15.2489 375.285C17.5225 374.617 19.8323 373.336 19.8503 371.027C18.8037 371.694 17.5586 372.217 16.1512 372.632C12.2355 373.751 7.61786 373.751 3.70217 372.632C2.29469 372.217 1.04961 371.694 0.00302395 371.027ZM54.8569 373.914C54.8208 376.566 57.6357 377.631 59.4583 378.172C62.6882 379.092 66.8746 379.092 70.1046 378.172C72.3782 377.505 74.6879 376.223 74.706 373.914C73.6594 374.581 72.4143 375.105 71.0068 375.52C67.0911 376.638 62.4717 376.638 58.556 375.52C57.1485 375.105 55.9035 374.581 54.8569 373.914ZM28.8726 376.783C28.7824 377.865 29.2696 378.75 29.8651 379.273C30.6229 379.923 31.85 380.59 33.474 381.059C36.704 381.98 40.8903 381.98 44.1203 381.059C45.7443 380.59 46.9714 379.923 47.7292 379.273C48.4871 378.623 48.7217 378.064 48.7217 377.613V376.783C48.3969 376.999 48.054 377.198 47.6932 377.378C45.3113 378.569 42.2076 379.237 38.7972 379.237C35.3867 379.237 32.283 378.569 29.9012 377.378C29.5403 377.198 29.1974 376.999 28.8726 376.783ZM0.00302395 376.801C-0.0583278 379.435 2.80355 380.518 4.6044 381.059C7.83439 381.98 12.0189 381.98 15.2489 381.059C17.5225 380.392 19.8323 379.11 19.8503 376.801C18.8037 377.468 17.5586 377.992 16.1512 378.407C12.2355 379.526 7.61786 379.526 3.70217 378.407C2.29469 377.992 1.04961 377.468 0.00302395 376.801ZM54.8569 379.688C54.8208 382.34 57.6357 383.405 59.4583 383.946C62.6882 384.867 66.8746 384.867 70.1046 383.946C72.3782 383.279 74.6879 381.998 74.706 379.688C73.6594 380.356 72.4143 380.879 71.0068 381.294C67.0911 382.413 62.4717 382.413 58.556 381.294C57.1485 380.879 55.9035 380.356 54.8569 379.688ZM0.00302395 382.575C-0.0583278 385.21 2.80355 386.292 4.6044 386.834C7.83439 387.754 12.0189 387.754 15.2489 386.834C17.5225 386.166 19.8323 384.885 19.8503 382.575C18.8037 383.243 17.5586 383.766 16.1512 384.181C12.2355 385.3 7.61786 385.3 3.70217 384.181C2.29469 383.766 1.04961 383.243 0.00302395 382.575ZM28.8726 382.575C28.8004 384.434 30.3162 385.48 31.3628 386.022C33.1492 386.924 35.8198 387.537 38.7972 387.537C41.7745 387.537 44.4451 386.924 46.2315 386.022C48.018 384.903 48.7217 384.47 48.7217 382.575C47.6751 383.243 46.43 383.766 45.0226 384.181C41.1069 385.3 36.4874 385.3 32.5718 384.181C31.1643 383.766 29.9192 383.243 28.8726 382.575ZM54.8569 385.462C54.7847 387.321 56.3004 388.367 57.347 388.909C59.1334 389.811 61.8041 390.424 64.7814 390.424C67.7588 390.424 70.4294 389.811 72.2158 388.909C74.0022 387.79 74.706 387.357 74.706 385.462C73.6594 386.13 72.4143 386.653 71.0068 387.068C67.0911 388.187 62.4717 388.187 58.556 387.068C57.1485 386.653 55.9035 386.13 54.8569 385.462ZM0.00302395 388.349C-0.0763724 390.19 1.42494 391.255 2.47514 391.796C4.2796 392.698 6.9502 393.312 9.92576 393.312C12.9031 393.312 15.5737 392.698 17.3601 391.796C19.1466 390.677 19.8503 390.244 19.8503 388.349C18.8037 389.017 17.5586 389.54 16.1512 389.955C12.2355 391.074 7.61786 391.074 3.70217 389.955C2.29469 389.54 1.04961 389.017 0.00302395 388.349Z" fill="#729AFE"/>
</g>
<g filter="url(#filter1_i_1614_3903)">
<path fill-rule="evenodd" clip-rule="evenodd" d="M218.974 126.802C215.092 122.896 209.7 120.5 203.758 120.5C197.815 120.5 192.447 122.896 188.541 126.802C184.659 130.684 182.238 136.076 182.238 142.019C182.238 147.962 184.635 153.33 188.541 157.236C192.423 161.118 197.815 163.538 203.758 163.538C209.7 163.538 215.068 161.142 218.974 157.236C222.856 153.354 225.277 147.962 225.277 142.019C225.277 136.076 222.856 130.708 218.974 126.802ZM214.325 105.475C217.297 106.338 220.124 107.56 222.76 109.07C225.444 110.627 227.936 112.496 230.165 114.653C230.596 115.06 231.243 115.132 231.747 114.845L241.739 109.07H241.787C242.362 108.734 243.009 108.662 243.609 108.83C244.232 108.998 244.783 109.381 245.118 109.98L245.166 110.052L252.187 122.225C252.523 122.801 252.595 123.495 252.427 124.119C252.259 124.742 251.852 125.293 251.277 125.628L251.205 125.676L241.284 131.403C240.757 131.715 240.517 132.314 240.661 132.865C241.02 134.351 241.308 135.861 241.5 137.418C241.691 138.928 241.787 140.485 241.787 142.043C241.787 143.601 241.691 145.158 241.5 146.668C241.308 148.226 241.02 149.735 240.661 151.221C240.517 151.844 240.805 152.443 241.356 152.731L251.253 158.458C251.828 158.793 252.235 159.345 252.403 159.968C252.571 160.591 252.499 161.262 252.163 161.837L245.094 174.082C244.759 174.657 244.208 175.065 243.585 175.232C242.962 175.4 242.291 175.328 241.715 174.993L241.644 174.945L231.723 169.218C231.195 168.93 230.572 169.026 230.141 169.409C227.913 171.566 225.444 173.435 222.736 174.993C220.1 176.526 217.249 177.724 214.253 178.611C213.678 178.779 213.295 179.306 213.295 179.881V191.408C213.295 192.079 213.007 192.702 212.576 193.157C212.121 193.612 211.498 193.876 210.827 193.876H196.688C196.017 193.876 195.394 193.588 194.939 193.157C194.484 192.702 194.22 192.079 194.22 191.408V179.881C194.22 179.258 193.789 178.731 193.214 178.587C190.242 177.725 187.414 176.502 184.779 174.993C182.095 173.435 179.602 171.566 177.374 169.409C176.919 168.978 176.248 168.93 175.744 169.265L165.824 174.993C165.248 175.328 164.553 175.4 163.954 175.232C163.331 175.065 162.78 174.681 162.445 174.082L162.397 174.01L155.376 161.813C155.04 161.238 154.968 160.543 155.136 159.944C155.304 159.321 155.687 158.77 156.286 158.434L166.279 152.659C166.806 152.347 167.046 151.748 166.902 151.197C166.542 149.711 166.255 148.202 166.063 146.644C165.871 145.134 165.776 143.577 165.776 142.019C165.776 140.462 165.871 138.904 166.063 137.394C166.255 135.837 166.542 134.327 166.902 132.841C167.046 132.218 166.758 131.619 166.207 131.331L156.286 125.604C155.711 125.269 155.304 124.718 155.136 124.095C154.968 123.472 155.04 122.801 155.376 122.225L155.423 122.154L162.445 109.98C162.78 109.405 163.331 108.998 163.954 108.83C164.577 108.662 165.248 108.734 165.824 109.07L175.816 114.845C176.343 115.156 177.014 115.036 177.422 114.629C179.626 112.496 182.119 110.627 184.779 109.094C187.414 107.56 190.266 106.362 193.262 105.499C193.837 105.331 194.22 104.804 194.22 104.229V92.7026C194.22 92.0316 194.508 91.4086 194.939 90.9533C195.394 90.498 196.017 90.2344 196.688 90.2344H210.827C211.498 90.2344 212.121 90.5219 212.576 90.9533C213.031 91.4086 213.295 92.0316 213.295 92.7026V104.229C213.295 104.852 213.726 105.379 214.301 105.523L214.325 105.475Z" fill="#352FFF"/>
</g>
<g filter="url(#filter2_i_1614_3903)">
<path fill-rule="evenodd" clip-rule="evenodd" d="M322.494 84.4481C321.043 79.1359 317.533 74.3929 312.363 71.4629C307.192 68.533 301.341 67.9715 296.017 69.4441C290.725 70.9077 285.961 74.4054 283.031 79.5759C280.101 84.7463 279.54 90.5979 281.013 95.9219C282.476 101.213 285.974 105.977 291.144 108.907C296.315 111.837 302.166 112.399 307.49 110.926C312.782 109.462 317.546 105.965 320.476 100.794C323.405 95.6237 323.946 89.7603 322.494 84.4481ZM328.964 63.6009C331.124 65.8164 332.982 68.2738 334.531 70.8868C336.098 73.5651 337.345 76.42 338.22 79.3951C338.395 79.9622 338.922 80.3437 339.502 80.3416L351.043 80.2436L351.085 80.2672C351.751 80.2589 352.349 80.5153 352.787 80.9566C353.247 81.4098 353.537 82.015 353.534 82.7016L353.54 82.7878L353.647 96.8405C353.655 97.5063 353.375 98.1463 352.922 98.6057C352.469 99.0651 351.843 99.3437 351.177 99.3521L351.091 99.3583L339.636 99.4501C339.024 99.4612 338.52 99.8643 338.373 100.415C337.954 101.885 337.46 103.34 336.858 104.789C336.281 106.197 335.596 107.6 334.828 108.955C334.061 110.31 333.209 111.618 332.298 112.837C331.363 114.098 330.369 115.269 329.324 116.385C328.891 116.856 328.846 117.519 329.184 118.041L334.971 127.903C335.306 128.478 335.389 129.159 335.227 129.783C335.066 130.408 334.673 130.957 334.097 131.291L321.91 138.46C321.335 138.795 320.654 138.878 320.029 138.716C319.405 138.555 318.856 138.162 318.521 137.586L318.483 137.509L312.675 127.635C312.358 127.125 311.769 126.902 311.204 127.022C308.202 127.8 305.133 128.209 302.009 128.23C298.96 128.264 295.888 127.901 292.845 127.196C292.262 127.058 291.668 127.328 291.385 127.828L285.702 137.856C285.371 138.44 284.814 138.84 284.214 139.024C283.594 139.195 282.922 139.117 282.338 138.787L270.037 131.816C269.453 131.486 269.053 130.928 268.87 130.328C268.698 129.708 268.776 129.036 269.107 128.452L274.789 118.424C275.096 117.882 274.981 117.21 274.552 116.802C272.392 114.586 270.534 112.129 268.985 109.516C267.418 106.838 266.171 103.983 265.295 101.008C265.112 100.408 264.552 100.035 263.949 100.079L252.494 100.171C251.828 100.179 251.188 99.8992 250.749 99.4579C250.29 99.0048 250 98.3995 250.003 97.7129L249.997 97.6267L249.902 83.5532C249.893 82.8874 250.173 82.2474 250.615 81.8088C251.068 81.3495 251.673 81.059 252.36 81.0625L263.901 80.9644C264.513 80.9533 265.017 80.5503 265.163 79.9999C265.583 78.53 266.077 77.0748 266.678 75.6251C267.256 74.2171 267.94 72.8147 268.708 71.4595C269.476 70.1044 270.328 68.7965 271.239 67.5775C272.173 66.3169 273.168 65.1452 274.213 64.0298C274.645 63.5586 274.69 62.8956 274.353 62.3737L268.545 52.4998C268.21 51.9244 268.127 51.244 268.289 50.6193C268.45 49.9945 268.843 49.4462 269.419 49.1112L269.496 49.0723L281.606 41.9427C282.181 41.6077 282.862 41.525 283.486 41.6863C284.111 41.8475 284.66 42.2408 284.995 42.8163L290.841 52.7673C291.146 53.2983 291.789 53.5248 292.344 53.3712C295.314 52.6026 298.404 52.2051 301.474 52.1821C304.523 52.1474 307.595 52.5108 310.627 53.2371C311.21 53.3747 311.803 53.105 312.087 52.6047L317.769 42.5765C318.1 41.9927 318.657 41.5924 319.257 41.4089C319.878 41.2373 320.55 41.3151 321.134 41.6459L333.434 48.6163C334.018 48.9471 334.418 49.5044 334.602 50.1042C334.773 50.7248 334.696 51.3968 334.365 51.9805L328.682 62.0087C328.375 62.5508 328.49 63.2221 328.92 63.6308L328.964 63.6009Z" fill="#05E2FF"/>
</g>
<g filter="url(#filter3_i_1614_3903)">
<rect x="138.359" y="200.895" width="117.214" height="179.036" fill="url(#paint0_radial_1614_3903)"/>
<rect x="255.574" y="143.029" width="117.214" height="236.901" fill="url(#paint1_radial_1614_3903)"/>
<rect x="372.787" y="90.2344" width="117.214" height="289.696" fill="url(#paint2_radial_1614_3903)"/>
</g>
<path fill-rule="evenodd" clip-rule="evenodd" d="M96.7766 170.958C98.6521 171.896 99.6442 174.2 98.9919 176.109C98.3395 178.019 96.2873 178.814 94.4118 177.876C92.5363 176.938 91.5442 174.635 92.1966 172.725C92.8489 170.816 94.9011 170.021 96.7766 170.958Z" fill="white"/>
<path fill-rule="evenodd" clip-rule="evenodd" d="M107.752 212.153C107.752 212.153 111.564 214.096 107.738 214.368C103.913 214.64 64.0377 198.779 61.0478 195.837C58.0579 192.895 47.0087 169.111 47.729 163.539C52.9274 163.063 54.6874 161.527 55.2582 163.124C56.5629 166.773 64.8939 183.558 67.5985 187.73C70.0516 191.515 83.9752 195.062 97.0154 192.806V206.281H109.03C108.432 208.388 107.929 210.413 107.752 212.153V212.153Z" fill="#0017CF"/>
<path fill-rule="evenodd" clip-rule="evenodd" d="M111.898 180.395L111.49 183.664C111.49 183.664 110.92 190.65 110.858 191.404C110.797 192.158 111.089 192.444 111.85 193.13C112.747 195.155 109.071 203.275 106.91 203.432C104.749 203.588 94.9913 201.937 94.3525 201.291C93.904 200.836 99.5577 193.966 99.3743 192.743C99.8227 192.654 100.224 192.539 100.57 192.26C102.826 190.459 103.023 185.03 101.671 182.991C100.665 181.469 111.905 180.389 111.905 180.389L111.898 180.395Z" fill="white"/>
<path fill-rule="evenodd" clip-rule="evenodd" d="M91.587 204.229C93.4626 203.251 94.4071 204.257 96.1807 206.506C97.9475 208.755 99.8026 208.701 100.835 209.251C101.868 209.795 100.244 229.175 93.0005 231.567C90.3231 232.45 88.801 231.18 87.9923 228.794C86.5381 224.507 86.7148 206.771 91.5938 204.229H91.587Z" fill="#F6F5F5"/>
<g filter="url(#filter4_i_1614_3903)">
<path fill-rule="evenodd" clip-rule="evenodd" d="M80.7484 269.227L79.165 271.157C79.165 271.157 80.2047 288.037 82.5763 309.809C84.9547 331.581 89.5075 371.096 89.4056 374.956C89.3105 378.815 95.2768 376.58 96.0243 375.492C96.7649 374.405 94.1555 297.53 94.7535 290.503C94.9574 288.05 98.6676 288.974 100.115 293.853C102.813 302.966 104.016 322.203 104.851 333.157C106.136 349.983 108.487 375.689 108.317 377.055C108.147 378.414 113.563 379.78 114.65 377.599C114.65 377.599 114.874 377.28 114.8 376.111C114.725 374.949 115.887 269.193 114.501 266.319C113.114 263.451 84.0169 262.065 80.7552 269.213L80.7484 269.227Z" fill="#0017CF"/>
</g>
<g filter="url(#filter5_i_1614_3903)">
<path fill-rule="evenodd" clip-rule="evenodd" d="M116.498 268.409C114.67 271.881 106.957 273.695 100.916 274.225C99.4686 274.354 98.1163 274.409 96.9679 274.388C96.2001 274.375 95.5069 274.28 94.8886 274.103C88.4058 273.525 83.6559 271.602 80.8155 270.101C79.0691 269.795 78.1517 269.088 77.7372 268.164C77.0644 266.655 77.71 264.569 78.2536 262.707C79.2253 259.357 83.2482 253.038 83.9413 236.851C84.6344 220.665 83.8801 192.865 99.5841 192.328C99.5841 192.328 99.3871 192.709 99.0677 193.409L99.7132 193.497C99.7132 193.497 97.7766 198.254 100.508 200.136C103.24 202.018 106.658 200.054 108.241 198.315C108.472 198.063 108.717 197.968 108.982 197.995C110.096 196.704 111.32 195.406 112.652 194.102C115.879 194.985 120.799 198.186 120.799 198.186C123.293 199.728 126.337 202.372 126.528 205.355C126.799 209.588 120.969 223.702 117.361 232.55C111.333 247.363 119.596 262.558 116.511 268.415L116.498 268.409Z" fill="white"/>
</g>
<path fill-rule="evenodd" clip-rule="evenodd" d="M91.3009 375.959C91.3009 375.959 89.9962 375.076 88.5895 375.436C87.1829 375.796 79.0557 379.636 77.751 380.159C76.4463 380.682 75.0736 382.687 76.1065 383.835C77.1326 384.984 83.9959 384.854 87.6246 384.127C91.2601 383.407 94.0734 383.896 95.412 383.998C96.7507 384.093 98.3137 381.199 97.0225 377.013C95.7314 372.827 96.1323 376.721 91.2941 375.959H91.3009Z" fill="#074D84"/>
<path fill-rule="evenodd" clip-rule="evenodd" d="M75.8879 382.138C75.6636 382.743 75.6772 383.361 76.1053 383.837C76.6761 384.469 79.0205 384.713 81.6163 384.686C87.5962 384.618 89.5329 384.686 96.1787 384.686C97.2727 384.686 97.1776 382.933 97.4358 381.051C96.4437 382.43 94.7177 382.546 91.4288 382.288C88.0243 382.023 84.8984 382.913 80.6106 383.314C77.6139 383.592 76.3635 382.695 75.8879 382.138V382.138Z" fill="white"/>
<path fill-rule="evenodd" clip-rule="evenodd" d="M108.88 377.08C108.88 377.08 111.245 374.355 114.133 376.523C114.133 376.523 115.709 377.114 116.301 378.494C116.892 379.873 118.006 380.492 118.203 382.007C118.4 383.515 117.938 384.698 115.872 384.698H112.522C111.048 384.698 108.846 384.929 108.092 383.087C107.338 381.253 108.092 379.581 107.834 378.63C107.569 377.678 108.88 377.087 108.88 377.087V377.08Z" fill="#074D84"/>
<path fill-rule="evenodd" clip-rule="evenodd" d="M118.231 382.286C118.332 383.658 117.809 384.691 115.873 384.691H112.522C111.048 384.691 108.846 384.922 108.092 383.081C107.922 382.666 107.827 382.252 107.786 381.857C107.793 381.871 108.649 383.047 111.496 383.223C114.35 383.4 117.741 383.441 118.231 382.286Z" fill="white"/>
<path fill-rule="evenodd" clip-rule="evenodd" d="M97.8444 192.516C97.8444 192.516 99.3801 191.632 100.563 192.271C100.563 192.271 97.3619 197.313 100.372 200.052C103.383 202.79 110.477 197.517 111.843 193.134C111.843 193.134 113.338 193.351 114.099 194.602C114.099 194.602 111.36 201.445 104.348 203.069C97.3347 204.693 95.0515 197.714 97.8444 192.509V192.516Z" fill="#C0CDE9"/>
<path fill-rule="evenodd" clip-rule="evenodd" d="M114.092 194.602C114.092 194.602 105.36 209.008 102.18 233.695C98.9995 258.382 98.7141 275.065 116.28 282.153C116.28 282.153 117.095 282.458 117.836 280.719C121.356 272.469 114.065 240.531 123.768 218.562C129.443 205.712 126.969 198.726 114.092 194.608V194.602Z" fill="#0017CF"/>
<g filter="url(#filter6_i_1614_3903)">
<path fill-rule="evenodd" clip-rule="evenodd" d="M97.8449 192.514C97.8449 192.514 93.6182 200.145 92.3747 215.992C91.1311 231.838 87.0268 258.863 85.8036 264.449C84.5805 270.035 80.3809 275.824 78.2948 276.368C78.2948 276.368 75.4747 277.041 75.2912 272.698C75.1078 268.356 82.9836 248.453 82.8952 233.422C82.8069 218.39 85.0765 193.581 97.8449 192.514V192.514Z" fill="#0017CF"/>
</g>
<path fill-rule="evenodd" clip-rule="evenodd" d="M103.003 228.216C103.003 228.216 112.992 197.515 117.436 195.795C117.436 195.795 115.364 193.995 114.922 193.9C114.48 193.804 108.351 200.029 103.003 228.223V228.216Z" fill="#006AF8"/>
<path fill-rule="evenodd" clip-rule="evenodd" d="M97.8587 192.507C97.8587 192.507 93.7611 203.536 92.0759 219.838C91.8924 221.639 91.641 223.467 91.4983 225.274C91.4711 225.594 91.3896 225.893 91.376 226.205C91.376 226.205 91.4507 211.201 93.2719 202.938C95.093 194.675 94.6853 193.343 94.6853 193.343C94.6853 193.343 95.7182 192.201 97.8655 192.507H97.8587Z" fill="#006AF8"/>
<g filter="url(#filter7_i_1614_3903)">
<path fill-rule="evenodd" clip-rule="evenodd" d="M97.6137 157.109C97.6137 157.109 95.2149 159.032 94.8684 160.752C94.5218 162.471 95.4935 170.279 95.2965 171.414C95.0994 172.548 97.0089 172.555 97.4778 170.972C97.9466 169.389 103.94 160.84 97.6137 157.109V157.109Z" fill="#0017CF"/>
</g>
<path fill-rule="evenodd" clip-rule="evenodd" d="M121.777 175.144C123.795 175.498 125.14 177.421 124.787 179.439C124.434 181.457 122.511 182.809 120.492 182.456C118.474 182.103 117.129 180.18 117.475 178.161C117.829 176.143 119.752 174.798 121.77 175.144H121.777Z" fill="white"/>
<g filter="url(#filter8_d_1614_3903)">
<path fill-rule="evenodd" clip-rule="evenodd" d="M111.659 154.338C118.543 155.541 123.191 162.159 121.981 169.043L119.99 180.418C118.787 187.302 112.169 191.95 105.285 190.741C98.4014 189.538 93.7534 182.919 94.963 176.035L96.954 164.66C98.1568 157.776 104.775 153.128 111.659 154.338Z" fill="#FEFEFE"/>
</g>
<path fill-rule="evenodd" clip-rule="evenodd" d="M122.159 166.222C122.206 167.146 122.152 168.091 121.982 169.042L119.991 180.418C118.788 187.301 112.17 191.949 105.286 190.74C119.121 190.441 119.386 172.243 115.527 170.041C111.667 167.846 101.392 166.474 98.9324 166.501C96.8734 166.528 96.3842 168.002 96.2822 168.485L96.955 164.659C97.1996 163.246 97.6753 161.927 98.3344 160.738C100.903 160.813 107.461 162.369 113.495 163.422C116.96 164.027 119.821 165.087 122.152 166.222H122.159Z" fill="white"/>
<path fill-rule="evenodd" clip-rule="evenodd" d="M109.145 183.389C108.846 185.088 107.229 186.222 105.537 185.923C103.838 185.624 102.703 184.007 103.002 182.315C103.056 182.023 103.335 181.826 103.627 181.88L108.696 182.77C108.989 182.825 109.186 183.103 109.131 183.395L109.145 183.389Z" fill="white"/>
<path fill-rule="evenodd" clip-rule="evenodd" d="M110.823 258.217C110.748 257.748 110.307 257.428 109.838 257.503C109.369 257.578 109.049 258.019 109.124 258.488C109.124 258.516 110.558 267.682 114.717 270.638C115.104 270.91 115.641 270.822 115.913 270.435C116.184 270.047 116.096 269.51 115.709 269.239C112.148 266.704 110.823 258.244 110.823 258.217V258.217Z" fill="#006AF8"/>
<path fill-rule="evenodd" clip-rule="evenodd" d="M80.8354 252.721C80.9034 252.3 81.2975 252.014 81.7188 252.082C82.1401 252.15 82.4255 252.544 82.3575 252.966C82.3575 252.986 81.0732 261.215 77.3426 263.865C76.996 264.11 76.5136 264.028 76.2689 263.682C76.0243 263.335 76.1059 262.853 76.4524 262.608C79.6462 260.332 80.8354 252.741 80.8422 252.721H80.8354Z" fill="#006AF8"/>
<path fill-rule="evenodd" clip-rule="evenodd" d="M49.4621 161.957C49.4621 161.957 49.3601 161.148 48.4292 159.524C47.505 157.907 47.8584 156.908 47.5526 155.454C47.2468 154.006 47.8516 151.145 47.9195 149.705C47.9875 148.264 52.0307 146.382 52.9209 145.464C53.8111 144.554 54.579 146.015 53.8654 147.021C53.8654 147.021 54.1916 147.972 53.0364 148.828C51.8812 149.684 52.8597 150.989 53.58 151.349C54.2935 151.716 54.5654 151.111 55.5371 150.459C56.5088 149.807 56.7195 149.385 57.1951 149.766C57.664 150.146 58.0717 151.05 56.7535 152.124C55.4284 153.204 55.1701 155.277 54.5586 156.799C53.947 158.328 53.7635 159.592 53.8247 160.672C54.1508 161.597 50.0261 163.859 49.4621 161.95V161.957Z" fill="#FEFEFE"/>
<path fill-rule="evenodd" clip-rule="evenodd" d="M123.055 154.869C122.946 154.828 122.837 154.787 122.728 154.76C122.701 153.632 122.001 152.579 120.887 152.144C120.051 151.825 119.154 151.92 118.434 152.334C117.863 151.138 116.844 150.146 115.505 149.636C114.52 149.256 113.5 149.188 112.536 149.378C112.175 148.074 111.224 146.952 109.865 146.429C109.07 146.123 108.241 146.062 107.459 146.212C106.807 145.722 106.08 145.315 105.285 145.009C100.684 143.242 95.5268 145.546 93.76 150.139C92.1971 154.217 93.828 158.735 97.4227 160.937C97.5722 162.568 98.6187 164.056 100.256 164.688C101.588 165.198 103.008 165.028 104.143 164.342C104.592 164.838 105.156 165.245 105.829 165.504C107.106 165.993 108.472 165.843 109.573 165.205C110.245 166.231 111.238 167.06 112.474 167.535C114.873 168.453 117.496 167.76 119.134 165.986H119.256C117.449 168.011 119.168 171.3 119.168 171.3C117.768 175.554 120.364 178.347 120.364 178.347C120.642 174.793 122.491 175.357 122.491 175.357C129.089 165.51 124.624 161.467 124.624 161.467C124.652 161.406 124.679 161.345 124.699 161.284C124.985 160.944 125.222 160.55 125.392 160.108C126.194 158.015 125.148 155.664 123.055 154.862V154.869Z" fill="#0E00D6"/>
<g filter="url(#filter9_d_1614_3903)">
<path fill-rule="evenodd" clip-rule="evenodd" d="M93.3463 151.538C92.5852 155.214 94.2297 158.986 97.4167 160.936C97.5662 162.567 98.6127 164.055 100.25 164.687C101.582 165.197 103.002 165.027 104.137 164.34C104.586 164.836 105.15 165.244 105.822 165.502C107.1 165.992 108.466 165.842 109.567 165.203C110.239 166.23 111.232 167.059 112.468 167.534C114.867 168.452 117.49 167.758 119.128 165.985H119.25C117.442 168.01 119.162 171.299 119.162 171.299C117.762 175.553 120.358 178.346 120.358 178.346C120.636 174.792 122.485 175.356 122.485 175.356C129.083 165.509 124.618 161.466 124.618 161.466C124.646 161.405 124.673 161.344 124.693 161.283C124.978 160.943 125.216 160.549 125.386 160.107C125.767 159.115 125.733 158.068 125.366 157.151C125.366 157.158 125.366 157.165 125.366 157.165C125.488 161.432 115.098 167.663 111.035 161.724C111.035 161.724 106.584 164.205 104.783 161.738C101.63 164.68 98.1778 161.031 98.8913 158.734C98.8913 158.734 92.7551 158.327 93.3463 151.531V151.538Z" fill="#0017CF"/>
</g>
<g filter="url(#filter10_d_1614_3903)">
<path fill-rule="evenodd" clip-rule="evenodd" d="M123.388 200.378C123.388 200.378 122.409 198.224 126.058 202.471C128.668 205.509 132.806 227.05 134.24 236.563C135.674 246.097 134.627 245.88 128.375 253.851C123.802 259.681 118.114 266.055 115.886 267.04C115.886 267.04 115.451 267.21 115.335 266.606C115.22 266.001 115.322 263.86 114.601 263.235C113.881 262.61 114.404 262.1 115.233 261.577C116.069 261.054 124.692 246.777 126.473 243.1C128.253 239.431 117.061 217.414 116.484 214.621C115.906 211.828 116.966 203.423 123.388 200.378V200.378Z" fill="#0017CF"/>
</g>
<g filter="url(#filter11_i_1614_3903)">
<path fill-rule="evenodd" clip-rule="evenodd" d="M53.6946 163.22C53.5044 161.624 54.0548 160.421 54.544 159.714C55.0333 159.007 56.1137 158.002 56.7389 156.14C57.3641 154.278 56.5079 154.434 55.7196 155.263C54.9314 156.092 53.6878 156.982 53.6878 156.982C53.6878 156.982 52.6957 153.367 52.4171 151.838C52.1453 150.309 51.126 149.725 50.6707 150.5C50.2154 151.274 50.5008 151.465 50.1407 151.383C49.7805 151.302 49.4068 151.295 49.1689 151.879L48.9311 152.464C48.9311 152.464 48.2516 152.117 47.8914 152.579C47.5313 153.034 47.5245 153.952 47.5245 153.952C47.5245 153.952 46.5663 153.829 46.4712 154.264C46.3761 154.699 46.7362 157.669 47.3614 159.232C47.9865 160.795 49.2301 163.037 49.2845 164.165C49.3388 165.293 53.7014 163.227 53.7014 163.227L53.6946 163.22Z" fill="#FEFEFE"/>
<path fill-rule="evenodd" clip-rule="evenodd" d="M53.695 163.22C53.5523 161.997 53.8445 160.998 54.2046 160.285C52.3495 161.549 50.1682 161.107 48.6732 159.422C48.1568 158.831 47.4705 158.002 46.7773 157.139C46.9268 157.893 47.1171 158.661 47.3481 159.232C47.9733 160.795 49.2169 163.037 49.2712 164.165C49.3256 165.293 53.6882 163.227 53.6882 163.227L53.695 163.22Z" fill="white"/>
</g>
<path fill-rule="evenodd" clip-rule="evenodd" d="M48.585 148.589C49.7877 147.4 52.2476 146.163 52.9204 145.47C53.8106 144.56 54.5785 146.021 53.8649 147.026C53.8649 147.026 54.1911 147.978 53.0359 148.834C52.2137 149.446 52.4719 150.281 52.9544 150.845C52.4311 151.199 51.2691 151.443 50.841 150.947C50.4673 150.512 49.1897 149.357 48.585 148.589V148.589Z" fill="#FEFEFE"/>
<path fill-rule="evenodd" clip-rule="evenodd" d="M49.3258 147.958C49.652 147.713 50.0053 147.469 50.3655 147.231C51.5071 146.823 53.6408 146.286 54.1504 146.164C54.1504 146.449 54.0621 146.755 53.8651 147.034C53.8651 147.034 54.1912 147.985 53.036 148.841C52.9817 148.882 52.9273 148.93 52.8797 148.971C52.8254 149.032 52.771 149.086 52.7302 149.14C52.4584 149.46 51.9148 150.207 51.6838 151.227C51.344 151.233 51.0246 151.159 50.8479 150.948C50.5353 150.581 49.584 149.711 48.9316 148.984C49.0268 148.624 49.1559 148.25 49.3394 147.958H49.3258Z" fill="#FEFEFE"/>
<g filter="url(#filter12_ii_1614_3903)">
<path d="M39.3028 100.994H129.171C134.213 100.994 138.304 105.085 138.304 110.127V149.608C138.304 154.65 134.213 158.741 129.171 158.741H39.3028C34.2607 158.741 30.1699 154.65 30.1699 149.608V110.127C30.1699 105.085 34.2607 100.994 39.3028 100.994V100.994Z" fill="#05E2FF"/>
</g>
<path fill-rule="evenodd" clip-rule="evenodd" d="M39.3037 104.086H129.165C130.823 104.086 132.338 104.765 133.433 105.86C134.527 106.96 135.206 108.469 135.206 110.127V149.608C135.206 151.273 134.527 152.781 133.433 153.875C132.338 154.969 130.83 155.649 129.165 155.649H39.3037C37.6457 155.649 36.1303 154.969 35.0363 153.875C33.9422 152.781 33.2627 151.266 33.2627 149.608V110.127C33.2627 108.462 33.9422 106.954 35.0363 105.86C36.1303 104.765 37.6457 104.086 39.3037 104.086V104.086ZM129.165 105.2H39.3037C37.9515 105.2 36.7147 105.758 35.8245 106.648C34.9343 107.538 34.3771 108.775 34.3771 110.127V149.608C34.3771 150.96 34.9343 152.197 35.8245 153.087C36.7147 153.977 37.9515 154.534 39.3037 154.534H129.165C130.517 154.534 131.754 153.977 132.644 153.087C133.541 152.197 134.092 150.96 134.092 149.608V110.127C134.092 108.768 133.534 107.538 132.644 106.648C131.754 105.751 130.517 105.2 129.165 105.2Z" fill="white"/>
<path fill-rule="evenodd" clip-rule="evenodd" d="M54.1846 160.333C54.3001 160.095 54.2458 160.156 54.5516 159.715C54.8574 159.273 55.5641 157.567 56.5902 156.453C57.8269 155.107 55.8902 155.087 55.7272 155.264C55.2175 155.8 54.0079 156.759 53.5798 157.092C51.2694 157.567 46.5671 157.323 47.3078 159.191C47.6203 159.973 49.8492 164.274 54.1914 160.333H54.1846Z" fill="#FEFEFE"/>
<path fill-rule="evenodd" clip-rule="evenodd" d="M54.1851 160.334L54.213 160.285L54.1641 160.313L54.1851 160.334Z" fill="white"/>
<g filter="url(#filter13_i_1614_3903)">
<path d="M79.4361 120.66C75.842 124.694 73.3754 130.491 73.1464 131.037L66.7686 128.306L73.904 121.17C74.732 120.342 75.9301 119.972 77.0929 120.201L79.4361 120.66ZM82.9246 139.423C82.9246 139.423 89.5138 136.692 93.3017 132.904C102.816 123.39 101.23 115.955 100.719 114.282C99.0453 113.753 91.6104 112.185 82.0965 121.699C78.3086 125.487 75.5777 132.076 75.5777 132.076L82.9246 139.423ZM94.3412 135.565C90.3066 139.159 84.5102 141.625 83.964 141.854L86.6949 148.232L93.8303 141.097C94.6584 140.269 95.0283 139.071 94.7993 137.908L94.3412 135.565ZM79.1014 141.185C79.1014 142.647 78.5024 143.969 77.551 144.92C75.472 146.999 66.7686 148.232 66.7686 148.232C66.7686 148.232 68.0018 139.529 70.0808 137.45C70.8186 136.708 71.7603 136.202 72.7861 135.997C73.8119 135.791 74.8757 135.895 75.8423 136.296C76.8089 136.696 77.6348 137.374 78.2151 138.245C78.7953 139.115 79.1038 140.139 79.1014 141.185ZM86.1487 125.328C86.1487 123.39 87.7344 121.805 89.6724 121.805C91.6104 121.805 93.196 123.39 93.196 125.328C93.196 127.266 91.6104 128.852 89.6724 128.852C87.7344 128.852 86.1487 127.266 86.1487 125.328Z" fill="#367CFF"/>
</g>
<g filter="url(#filter14_ii_1614_3903)">
<path d="M330.472 241.78C328.64 241.78 326.884 241.052 325.589 239.757C324.295 238.463 323.567 236.706 323.567 234.875C323.567 233.044 324.295 231.288 325.589 229.993C326.884 228.698 328.64 227.971 330.472 227.971H358.09C359.921 227.971 361.677 228.698 362.972 229.993C364.267 231.288 364.994 233.044 364.994 234.875V262.493C364.994 264.324 364.267 266.081 362.972 267.375C361.677 268.67 359.921 269.398 358.09 269.398C356.258 269.398 354.502 268.67 353.207 267.375C351.913 266.081 351.185 264.324 351.185 262.493V251.543L311.187 291.54C309.893 292.835 308.137 293.562 306.306 293.562C304.475 293.562 302.719 292.835 301.424 291.54L282.14 272.256L245.595 308.802C244.292 310.059 242.548 310.755 240.738 310.74C238.928 310.724 237.196 309.998 235.916 308.718C234.636 307.437 233.909 305.706 233.894 303.895C233.878 302.085 234.574 300.341 235.832 299.039L277.259 257.612C278.553 256.317 280.309 255.59 282.14 255.59C283.971 255.59 285.727 256.317 287.022 257.612L306.306 276.896L341.422 241.78H330.472ZM247.618 338.443V359.156C247.618 360.987 246.89 362.744 245.595 364.039C244.3 365.333 242.544 366.061 240.713 366.061C238.882 366.061 237.126 365.333 235.831 364.039C234.536 362.744 233.809 360.987 233.809 359.156V338.443C233.809 336.612 234.536 334.855 235.831 333.561C237.126 332.266 238.882 331.538 240.713 331.538C242.544 331.538 244.3 332.266 245.595 333.561C246.89 334.855 247.618 336.612 247.618 338.443ZM282.14 310.825C282.14 308.994 281.413 307.237 280.118 305.943C278.823 304.648 277.067 303.92 275.236 303.92C273.404 303.92 271.648 304.648 270.353 305.943C269.059 307.237 268.331 308.994 268.331 310.825V359.156C268.331 360.987 269.059 362.744 270.353 364.039C271.648 365.333 273.404 366.061 275.236 366.061C277.067 366.061 278.823 365.333 280.118 364.039C281.413 362.744 282.14 360.987 282.14 359.156V310.825ZM309.758 317.729C311.589 317.729 313.346 318.457 314.64 319.752C315.935 321.046 316.663 322.803 316.663 324.634V359.156C316.663 360.987 315.935 362.744 314.64 364.039C313.346 365.333 311.589 366.061 309.758 366.061C307.927 366.061 306.171 365.333 304.876 364.039C303.581 362.744 302.854 360.987 302.854 359.156V324.634C302.854 322.803 303.581 321.046 304.876 319.752C306.171 318.457 307.927 317.729 309.758 317.729ZM351.185 290.111C351.185 288.28 350.458 286.524 349.163 285.229C347.868 283.934 346.112 283.207 344.281 283.207C342.449 283.207 340.693 283.934 339.398 285.229C338.104 286.524 337.376 288.28 337.376 290.111V359.156C337.376 360.987 338.104 362.744 339.398 364.039C340.693 365.333 342.449 366.061 344.281 366.061C346.112 366.061 347.868 365.333 349.163 364.039C350.458 362.744 351.185 360.987 351.185 359.156V290.111Z" fill="url(#paint3_linear_1614_3903)"/>
</g>
<g filter="url(#filter15_ii_1614_3903)">
<path opacity="0.5" d="M431.39 60.9918C406.392 60.9918 401.966 36.0808 401.185 16.317C400.968 10.8227 400.855 8.07125 402.92 5.53242C404.986 2.98925 407.456 2.57262 412.399 1.73936C418.676 0.710516 425.029 0.206792 431.39 0.233425C439.128 0.233425 445.508 0.914786 450.386 1.73936C455.325 2.57262 457.798 2.98925 459.86 5.53242C461.925 8.07559 461.817 10.8227 461.596 16.317C460.814 36.0765 456.388 60.9918 431.39 60.9918Z" fill="url(#paint4_linear_1614_3903)"/>
<path d="M455.866 45.4626L468.091 38.6706C471.355 36.8566 472.987 35.9495 473.889 34.4219C474.788 32.8943 474.788 31.0281 474.788 27.2915V26.9747C474.788 22.4482 474.788 20.1827 473.56 18.4772C472.331 16.7716 470.183 16.0555 465.887 14.6234L461.768 13.252L461.694 13.6208C461.673 14.4411 461.638 15.3351 461.599 16.3159C461.217 25.9721 459.963 36.8566 455.87 45.4626H455.866ZM401.183 16.3159C401.561 25.9721 402.815 36.8566 406.912 45.4626L394.687 38.6706C391.423 36.8566 389.787 35.9495 388.889 34.4219C387.99 32.8943 387.99 31.0281 387.99 27.2915V26.9747C387.99 22.4482 387.99 20.1827 389.218 18.4772C390.447 16.7716 392.595 16.0555 396.891 14.6234L401.01 13.252L401.084 13.6295C401.105 14.4454 401.14 15.3394 401.179 16.3202L401.183 16.3159Z" fill="url(#paint5_linear_1614_3903)"/>
<path fill-rule="evenodd" clip-rule="evenodd" d="M402.096 87.0283C402.096 86.1651 402.439 85.3372 403.049 84.7268C403.659 84.1164 404.487 83.7734 405.351 83.7734H457.429C458.292 83.7734 459.12 84.1164 459.731 84.7268C460.341 85.3372 460.684 86.1651 460.684 87.0283C460.684 87.8916 460.341 88.7195 459.731 89.3299C459.12 89.9403 458.292 90.2833 457.429 90.2833H405.351C404.487 90.2833 403.659 89.9403 403.049 89.3299C402.439 88.7195 402.096 87.8916 402.096 87.0283Z" fill="url(#paint6_linear_1614_3903)"/>
<path opacity="0.5" d="M446.399 83.7755H416.389L417.678 76.1807C417.874 75.1972 418.405 74.3122 419.181 73.6761C419.956 73.04 420.928 72.692 421.931 72.6914H440.853C441.856 72.691 442.829 73.0385 443.605 73.6747C444.382 74.3109 444.913 75.1965 445.11 76.1807L446.399 83.7755Z" fill="url(#paint7_linear_1614_3903)"/>
<path d="M431.39 60.9913C430.261 60.9913 429.176 60.9436 428.135 60.8438V72.6916H434.645V60.8438C433.563 60.944 432.476 60.9932 431.39 60.9913Z" fill="url(#paint8_linear_1614_3903)"/>
<g filter="url(#filter16_i_1614_3903)">
<path d="M425.601 33.4727H423.452L429.666 16.5515H431.781L437.994 33.4727H435.846L430.789 19.2285H430.657L425.601 33.4727ZM426.394 26.8628H435.053V28.6805H426.394V26.8628Z" fill="#115DF0"/>
</g>
</g>
<defs>
<filter id="filter0_di_1614_3903" x="0" y="309.947" width="75.6228" height="84.282" filterUnits="userSpaceOnUse" color-interpolation-filters="sRGB">
<feFlood flood-opacity="0" result="BackgroundImageFix"/>
<feColorMatrix in="SourceAlpha" type="matrix" values="0 0 0 0 0 0 0 0 0 0 0 0 0 0 0 0 0 0 127 0" result="hardAlpha"/>
<feOffset dx="0.458377" dy="0.458377"/>
<feGaussianBlur stdDeviation="0.229189"/>
<feComposite in2="hardAlpha" operator="out"/>
<feColorMatrix type="matrix" values="0 0 0 0 0 0 0 0 0 0 0 0 0 0 0 0 0 0 0.25 0"/>
<feBlend mode="normal" in2="BackgroundImageFix" result="effect1_dropShadow_1614_3903"/>
<feBlend mode="normal" in="SourceGraphic" in2="effect1_dropShadow_1614_3903" result="shape"/>
<feColorMatrix in="SourceAlpha" type="matrix" values="0 0 0 0 0 0 0 0 0 0 0 0 0 0 0 0 0 0 127 0" result="hardAlpha"/>
<feOffset dx="0.343783" dy="0.458377"/>
<feGaussianBlur stdDeviation="0.687566"/>
<feComposite in2="hardAlpha" operator="arithmetic" k2="-1" k3="1"/>
<feColorMatrix type="matrix" values="0 0 0 0 0 0 0 0 0 0 0 0 0 0 0 0 0 0 0.25 0"/>
<feBlend mode="normal" in2="shape" result="effect2_innerShadow_1614_3903"/>
</filter>
<filter id="filter1_i_1614_3903" x="155.049" y="90.2344" width="97.9232" height="104.099" filterUnits="userSpaceOnUse" color-interpolation-filters="sRGB">
<feFlood flood-opacity="0" result="BackgroundImageFix"/>
<feBlend mode="normal" in="SourceGraphic" in2="BackgroundImageFix" result="shape"/>
<feColorMatrix in="SourceAlpha" type="matrix" values="0 0 0 0 0 0 0 0 0 0 0 0 0 0 0 0 0 0 127 0" result="hardAlpha"/>
<feOffset dx="5.84431" dy="0.458377"/>
<feGaussianBlur stdDeviation="0.229189"/>
<feComposite in2="hardAlpha" operator="arithmetic" k2="-1" k3="1"/>
<feColorMatrix type="matrix" values="0 0 0 0 0 0 0 0 0 0 0 0 0 0 0 0 0 0 0.25 0"/>
<feBlend mode="normal" in2="shape" result="effect1_innerShadow_1614_3903"/>
</filter>
<filter id="filter2_i_1614_3903" x="249.9" y="41.3203" width="104.204" height="98.2494" filterUnits="userSpaceOnUse" color-interpolation-filters="sRGB">
<feFlood flood-opacity="0" result="BackgroundImageFix"/>
<feBlend mode="normal" in="SourceGraphic" in2="BackgroundImageFix" result="shape"/>
<feColorMatrix in="SourceAlpha" type="matrix" values="0 0 0 0 0 0 0 0 0 0 0 0 0 0 0 0 0 0 127 0" result="hardAlpha"/>
<feOffset dx="2.97945" dy="0.458377"/>
<feGaussianBlur stdDeviation="0.229189"/>
<feComposite in2="hardAlpha" operator="arithmetic" k2="-1" k3="1"/>
<feColorMatrix type="matrix" values="0 0 0 0 0 0 0 0 0 0 0 0 0 0 0 0 0 0 0.25 0"/>
<feBlend mode="normal" in2="shape" result="effect1_innerShadow_1614_3903"/>
</filter>
<filter id="filter3_i_1614_3903" x="138.359" y="90.2344" width="354.851" height="291.989" filterUnits="userSpaceOnUse" color-interpolation-filters="sRGB">
<feFlood flood-opacity="0" result="BackgroundImageFix"/>
<feBlend mode="normal" in="SourceGraphic" in2="BackgroundImageFix" result="shape"/>
<feColorMatrix in="SourceAlpha" type="matrix" values="0 0 0 0 0 0 0 0 0 0 0 0 0 0 0 0 0 0 127 0" result="hardAlpha"/>
<feOffset dx="5.15675" dy="2.29189"/>
<feGaussianBlur stdDeviation="1.60432"/>
<feComposite in2="hardAlpha" operator="arithmetic" k2="-1" k3="1"/>
<feColorMatrix type="matrix" values="0 0 0 0 0 0 0 0 0 0 0 0 0 0 0 0 0 0 0.25 0"/>
<feBlend mode="normal" in2="shape" result="effect1_innerShadow_1614_3903"/>
</filter>
<filter id="filter4_i_1614_3903" x="79.165" y="263.988" width="37.7384" height="115.214" filterUnits="userSpaceOnUse" color-interpolation-filters="sRGB">
<feFlood flood-opacity="0" result="BackgroundImageFix"/>
<feBlend mode="normal" in="SourceGraphic" in2="BackgroundImageFix" result="shape"/>
<feColorMatrix in="SourceAlpha" type="matrix" values="0 0 0 0 0 0 0 0 0 0 0 0 0 0 0 0 0 0 127 0" result="hardAlpha"/>
<feOffset dx="3.78161" dy="0.458377"/>
<feGaussianBlur stdDeviation="0.859458"/>
<feComposite in2="hardAlpha" operator="arithmetic" k2="-1" k3="1"/>
<feColorMatrix type="matrix" values="0 0 0 0 0 0 0 0 0 0 0 0 0 0 0 0 0 0 0.25 0"/>
<feBlend mode="normal" in2="shape" result="effect1_innerShadow_1614_3903"/>
</filter>
<filter id="filter5_i_1614_3903" x="77.4492" y="192.328" width="50.8068" height="82.5228" filterUnits="userSpaceOnUse" color-interpolation-filters="sRGB">
<feFlood flood-opacity="0" result="BackgroundImageFix"/>
<feBlend mode="normal" in="SourceGraphic" in2="BackgroundImageFix" result="shape"/>
<feColorMatrix in="SourceAlpha" type="matrix" values="0 0 0 0 0 0 0 0 0 0 0 0 0 0 0 0 0 0 127 0" result="hardAlpha"/>
<feOffset dx="7.44863" dy="0.458377"/>
<feGaussianBlur stdDeviation="0.859458"/>
<feComposite in2="hardAlpha" operator="arithmetic" k2="-1" k3="1"/>
<feColorMatrix type="matrix" values="0 0 0 0 0 0 0 0 0 0 0 0 0 0 0 0 0 0 0.25 0"/>
<feBlend mode="normal" in2="shape" result="effect1_innerShadow_1614_3903"/>
</filter>
<filter id="filter6_i_1614_3903" x="75.2881" y="192.514" width="24.161" height="84.351" filterUnits="userSpaceOnUse" color-interpolation-filters="sRGB">
<feFlood flood-opacity="0" result="BackgroundImageFix"/>
<feBlend mode="normal" in="SourceGraphic" in2="BackgroundImageFix" result="shape"/>
<feColorMatrix in="SourceAlpha" type="matrix" values="0 0 0 0 0 0 0 0 0 0 0 0 0 0 0 0 0 0 127 0" result="hardAlpha"/>
<feOffset dx="2.86486" dy="0.458377"/>
<feGaussianBlur stdDeviation="0.802161"/>
<feComposite in2="hardAlpha" operator="arithmetic" k2="-1" k3="1"/>
<feColorMatrix type="matrix" values="0 0 0 0 0 0 0 0 0 0 0 0 0 0 0 0 0 0 0.25 0"/>
<feBlend mode="normal" in2="shape" result="effect1_innerShadow_1614_3903"/>
</filter>
<filter id="filter7_i_1614_3903" x="94.793" y="157.109" width="6.16053" height="15.5678" filterUnits="userSpaceOnUse" color-interpolation-filters="sRGB">
<feFlood flood-opacity="0" result="BackgroundImageFix"/>
<feBlend mode="normal" in="SourceGraphic" in2="BackgroundImageFix" result="shape"/>
<feColorMatrix in="SourceAlpha" type="matrix" values="0 0 0 0 0 0 0 0 0 0 0 0 0 0 0 0 0 0 127 0" result="hardAlpha"/>
<feOffset dx="1.26054" dy="0.458377"/>
<feGaussianBlur stdDeviation="0.229189"/>
<feComposite in2="hardAlpha" operator="arithmetic" k2="-1" k3="1"/>
<feColorMatrix type="matrix" values="0 0 0 0 0 0 0 0 0 0 0 0 0 0 0 0 0 0 0.25 0"/>
<feBlend mode="normal" in2="shape" result="effect1_innerShadow_1614_3903"/>
</filter>
<filter id="filter8_d_1614_3903" x="94.3131" y="154.146" width="28.3171" height="37.7019" filterUnits="userSpaceOnUse" color-interpolation-filters="sRGB">
<feFlood flood-opacity="0" result="BackgroundImageFix"/>
<feColorMatrix in="SourceAlpha" type="matrix" values="0 0 0 0 0 0 0 0 0 0 0 0 0 0 0 0 0 0 127 0" result="hardAlpha"/>
<feOffset dy="0.458377"/>
<feGaussianBlur stdDeviation="0.229189"/>
<feComposite in2="hardAlpha" operator="out"/>
<feColorMatrix type="matrix" values="0 0 0 0 0 0 0 0 0 0 0 0 0 0 0 0 0 0 0.25 0"/>
<feBlend mode="normal" in2="BackgroundImageFix" result="effect1_dropShadow_1614_3903"/>
<feBlend mode="normal" in="SourceGraphic" in2="effect1_dropShadow_1614_3903" result="shape"/>
</filter>
<filter id="filter9_d_1614_3903" x="92.7037" y="151.531" width="33.8484" height="27.7312" filterUnits="userSpaceOnUse" color-interpolation-filters="sRGB">
<feFlood flood-opacity="0" result="BackgroundImageFix"/>
<feColorMatrix in="SourceAlpha" type="matrix" values="0 0 0 0 0 0 0 0 0 0 0 0 0 0 0 0 0 0 127 0" result="hardAlpha"/>
<feOffset dy="0.458377"/>
<feGaussianBlur stdDeviation="0.229189"/>
<feComposite in2="hardAlpha" operator="out"/>
<feColorMatrix type="matrix" values="0 0 0 0 0 0 0 0 0 0 0 0 0 0 0 0 0 0 0.25 0"/>
<feBlend mode="normal" in2="BackgroundImageFix" result="effect1_dropShadow_1614_3903"/>
<feBlend mode="normal" in="SourceGraphic" in2="effect1_dropShadow_1614_3903" result="shape"/>
</filter>
<filter id="filter10_d_1614_3903" x="113.802" y="199.832" width="21.4627" height="68.1472" filterUnits="userSpaceOnUse" color-interpolation-filters="sRGB">
<feFlood flood-opacity="0" result="BackgroundImageFix"/>
<feColorMatrix in="SourceAlpha" type="matrix" values="0 0 0 0 0 0 0 0 0 0 0 0 0 0 0 0 0 0 127 0" result="hardAlpha"/>
<feOffset dy="0.458377"/>
<feGaussianBlur stdDeviation="0.229189"/>
<feComposite in2="hardAlpha" operator="out"/>
<feColorMatrix type="matrix" values="0 0 0 0 0 0 0 0 0 0 0 0 0 0 0 0 0 0 0.25 0"/>
<feBlend mode="normal" in2="BackgroundImageFix" result="effect1_dropShadow_1614_3903"/>
<feBlend mode="normal" in="SourceGraphic" in2="effect1_dropShadow_1614_3903" result="shape"/>
</filter>
<filter id="filter11_i_1614_3903" x="46.4561" y="150.158" width="10.9564" height="14.8021" filterUnits="userSpaceOnUse" color-interpolation-filters="sRGB">
<feFlood flood-opacity="0" result="BackgroundImageFix"/>
<feBlend mode="normal" in="SourceGraphic" in2="BackgroundImageFix" result="shape"/>
<feColorMatrix in="SourceAlpha" type="matrix" values="0 0 0 0 0 0 0 0 0 0 0 0 0 0 0 0 0 0 127 0" result="hardAlpha"/>
<feOffset dx="1.9481" dy="0.458377"/>
<feGaussianBlur stdDeviation="0.229189"/>
<feComposite in2="hardAlpha" operator="arithmetic" k2="-1" k3="1"/>
<feColorMatrix type="matrix" values="0 0 0 0 0 0 0 0 0 0 0 0 0 0 0 0 0 0 0.25 0"/>
<feBlend mode="normal" in2="shape" result="effect1_innerShadow_1614_3903"/>
</filter>
<filter id="filter12_ii_1614_3903" x="28.3364" y="100.994" width="110.427" height="58.2045" filterUnits="userSpaceOnUse" color-interpolation-filters="sRGB">
<feFlood flood-opacity="0" result="BackgroundImageFix"/>
<feBlend mode="normal" in="SourceGraphic" in2="BackgroundImageFix" result="shape"/>
<feColorMatrix in="SourceAlpha" type="matrix" values="0 0 0 0 0 0 0 0 0 0 0 0 0 0 0 0 0 0 127 0" result="hardAlpha"/>
<feOffset dx="2.17729" dy="0.458377"/>
<feGaussianBlur stdDeviation="0.229189"/>
<feComposite in2="hardAlpha" operator="arithmetic" k2="-1" k3="1"/>
<feColorMatrix type="matrix" values="0 0 0 0 0 0 0 0 0 0 0 0 0 0 0 0 0 0 0.25 0"/>
<feBlend mode="normal" in2="shape" result="effect1_innerShadow_1614_3903"/>
<feColorMatrix in="SourceAlpha" type="matrix" values="0 0 0 0 0 0 0 0 0 0 0 0 0 0 0 0 0 0 127 0" result="hardAlpha"/>
<feOffset dx="-1.83351" dy="0.458377"/>
<feGaussianBlur stdDeviation="1.20324"/>
<feComposite in2="hardAlpha" operator="arithmetic" k2="-1" k3="1"/>
<feColorMatrix type="matrix" values="0 0 0 0 0 0 0 0 0 0 0 0 0 0 0 0 0 0 0.25 0"/>
<feBlend mode="normal" in2="effect1_innerShadow_1614_3903" result="effect2_innerShadow_1614_3903"/>
</filter>
<filter id="filter13_i_1614_3903" x="66.7686" y="113.852" width="34.8314" height="34.8392" filterUnits="userSpaceOnUse" color-interpolation-filters="sRGB">
<feFlood flood-opacity="0" result="BackgroundImageFix"/>
<feBlend mode="normal" in="SourceGraphic" in2="BackgroundImageFix" result="shape"/>
<feColorMatrix in="SourceAlpha" type="matrix" values="0 0 0 0 0 0 0 0 0 0 0 0 0 0 0 0 0 0 127 0" result="hardAlpha"/>
<feOffset dx="1.60432" dy="0.458377"/>
<feGaussianBlur stdDeviation="0.229189"/>
<feComposite in2="hardAlpha" operator="arithmetic" k2="-1" k3="1"/>
<feColorMatrix type="matrix" values="0 0 0 0 0 0 0 0 0 0 0 0 0 0 0 0 0 0 0.25 0"/>
<feBlend mode="normal" in2="shape" result="effect1_innerShadow_1614_3903"/>
</filter>
<filter id="filter14_ii_1614_3903" x="233.465" y="227.971" width="133.477" height="138.548" filterUnits="userSpaceOnUse" color-interpolation-filters="sRGB">
<feFlood flood-opacity="0" result="BackgroundImageFix"/>
<feBlend mode="normal" in="SourceGraphic" in2="BackgroundImageFix" result="shape"/>
<feColorMatrix in="SourceAlpha" type="matrix" values="0 0 0 0 0 0 0 0 0 0 0 0 0 0 0 0 0 0 127 0" result="hardAlpha"/>
<feOffset dx="1.9481" dy="0.458377"/>
<feGaussianBlur stdDeviation="1.14594"/>
<feComposite in2="hardAlpha" operator="arithmetic" k2="-1" k3="1"/>
<feColorMatrix type="matrix" values="0 0 0 0 0 0 0 0 0 0 0 0 0 0 0 0 0 0 0.25 0"/>
<feBlend mode="normal" in2="shape" result="effect1_innerShadow_1614_3903"/>
<feColorMatrix in="SourceAlpha" type="matrix" values="0 0 0 0 0 0 0 0 0 0 0 0 0 0 0 0 0 0 127 0" result="hardAlpha"/>
<feOffset dx="-0.343783" dy="0.458377"/>
<feGaussianBlur stdDeviation="0.744863"/>
<feComposite in2="hardAlpha" operator="arithmetic" k2="-1" k3="1"/>
<feColorMatrix type="matrix" values="0 0 0 0 0 0 0 0 0 0 0 0 0 0 0 0 0 0 0.25 0"/>
<feBlend mode="normal" in2="effect1_innerShadow_1614_3903" result="effect2_innerShadow_1614_3903"/>
</filter>
<filter id="filter15_ii_1614_3903" x="386.615" y="0.232422" width="89.6617" height="90.7383" filterUnits="userSpaceOnUse" color-interpolation-filters="sRGB">
<feFlood flood-opacity="0" result="BackgroundImageFix"/>
<feBlend mode="normal" in="SourceGraphic" in2="BackgroundImageFix" result="shape"/>
<feColorMatrix in="SourceAlpha" type="matrix" values="0 0 0 0 0 0 0 0 0 0 0 0 0 0 0 0 0 0 127 0" result="hardAlpha"/>
<feOffset dx="1.60432" dy="0.458377"/>
<feGaussianBlur stdDeviation="0.744863"/>
<feComposite in2="hardAlpha" operator="arithmetic" k2="-1" k3="1"/>
<feColorMatrix type="matrix" values="0 0 0 0 0 0 0 0 0 0 0 0 0 0 0 0 0 0 0.25 0"/>
<feBlend mode="normal" in2="shape" result="effect1_innerShadow_1614_3903"/>
<feColorMatrix in="SourceAlpha" type="matrix" values="0 0 0 0 0 0 0 0 0 0 0 0 0 0 0 0 0 0 127 0" result="hardAlpha"/>
<feOffset dx="-1.37513" dy="0.687566"/>
<feGaussianBlur stdDeviation="0.744863"/>
<feComposite in2="hardAlpha" operator="arithmetic" k2="-1" k3="1"/>
<feColorMatrix type="matrix" values="0 0 0 0 0 0 0 0 0 0 0 0 0 0 0 0 0 0 0.25 0"/>
<feBlend mode="normal" in2="effect1_innerShadow_1614_3903" result="effect2_innerShadow_1614_3903"/>
</filter>
<filter id="filter16_i_1614_3903" x="423.453" y="16.5508" width="18.1764" height="17.649" filterUnits="userSpaceOnUse" color-interpolation-filters="sRGB">
<feFlood flood-opacity="0" result="BackgroundImageFix"/>
<feBlend mode="normal" in="SourceGraphic" in2="BackgroundImageFix" result="shape"/>
<feColorMatrix in="SourceAlpha" type="matrix" values="0 0 0 0 0 0 0 0 0 0 0 0 0 0 0 0 0 0 127 0" result="hardAlpha"/>
<feOffset dx="3.99895" dy="0.727082"/>
<feGaussianBlur stdDeviation="1.8177"/>
<feComposite in2="hardAlpha" operator="arithmetic" k2="-1" k3="1"/>
<feColorMatrix type="matrix" values="0 0 0 0 0 0 0 0 0 0 0 0 0 0 0 0 0 0 0.25 0"/>
<feBlend mode="normal" in2="shape" result="effect1_innerShadow_1614_3903"/>
</filter>
<radialGradient id="paint0_radial_1614_3903" cx="0" cy="0" r="1" gradientUnits="userSpaceOnUse" gradientTransform="translate(225.549 259.503) rotate(103.352) scale(123.772 91.5659)">
<stop stop-color="#367CFF"/>
<stop offset="1" stop-color="#92ABFE"/>
</radialGradient>
<radialGradient id="paint1_radial_1614_3903" cx="0" cy="0" r="1" gradientUnits="userSpaceOnUse" gradientTransform="translate(342.763 220.581) rotate(100.169) scale(161.892 92.6313)">
<stop stop-color="#367CFF"/>
<stop offset="1" stop-color="#92ABFE"/>
</radialGradient>
<radialGradient id="paint2_radial_1614_3903" cx="0" cy="0" r="1" gradientUnits="userSpaceOnUse" gradientTransform="translate(459.976 185.069) rotate(98.3446) scale(196.947 93.1133)">
<stop stop-color="#367CFF"/>
<stop offset="1" stop-color="#92ABFE"/>
</radialGradient>
<linearGradient id="paint3_linear_1614_3903" x1="353.248" y1="236.935" x2="299.401" y2="366.061" gradientUnits="userSpaceOnUse">
<stop stop-color="#1300F2"/>
<stop offset="1" stop-color="#2AE6FF"/>
</linearGradient>
<linearGradient id="paint4_linear_1614_3903" x1="431.391" y1="0.232422" x2="431.391" y2="60.9918" gradientUnits="userSpaceOnUse">
<stop stop-color="#05E2FF"/>
<stop offset="1" stop-color="#076A77" stop-opacity="0.62"/>
</linearGradient>
<linearGradient id="paint5_linear_1614_3903" x1="431.389" y1="13.252" x2="431.389" y2="45.4626" gradientUnits="userSpaceOnUse">
<stop stop-color="#05E2FF"/>
<stop offset="1" stop-color="#076A77" stop-opacity="0.62"/>
</linearGradient>
<linearGradient id="paint6_linear_1614_3903" x1="431.39" y1="83.7734" x2="431.39" y2="90.2833" gradientUnits="userSpaceOnUse">
<stop stop-color="#05E2FF"/>
<stop offset="1" stop-color="#076A77" stop-opacity="0.62"/>
</linearGradient>
<linearGradient id="paint7_linear_1614_3903" x1="431.394" y1="72.6914" x2="431.394" y2="83.7755" gradientUnits="userSpaceOnUse">
<stop stop-color="#05E2FF"/>
<stop offset="1" stop-color="#076A77" stop-opacity="0.62"/>
</linearGradient>
<linearGradient id="paint8_linear_1614_3903" x1="431.39" y1="60.8438" x2="431.39" y2="72.6916" gradientUnits="userSpaceOnUse">
<stop stop-color="#05E2FF"/>
<stop offset="1" stop-color="#076A77" stop-opacity="0.62"/>
</linearGradient>
</defs>
</svg>
