<svg width="329" height="215" viewBox="0 0 329 215" fill="none" xmlns="http://www.w3.org/2000/svg">
<g filter="url(#filter0_i_1345_4010)">
<g clip-path="url(#clip0_1345_4010)">
<rect y="0.634766" width="329" height="214" rx="12.0397" fill="url(#paint0_linear_1345_4010)"/>
<g style="mix-blend-mode:color-burn">
<path d="M347.429 173.766C327.607 164.116 307.74 154.427 288.058 147.876C268.329 141.365 248.74 137.952 229.29 130.852C209.841 123.752 190.576 112.926 175.815 98.8046C161.007 84.6832 150.702 67.2668 144.482 49.1836C138.261 31.0612 136.126 12.2326 134.037 -6.55664H347.429V173.766Z" fill="#F4AFAB"/>
</g>
<path d="M76.3553 64.3386H54.1576C52.7364 64.3386 51.5698 63.1702 51.5698 61.7468V45.2831C51.5698 43.8597 52.7364 42.6914 54.1576 42.6914H76.3553C77.7766 42.6914 78.9431 43.8597 78.9431 45.2831V61.7468C78.9513 63.1702 77.7848 64.3386 76.3553 64.3386Z" fill="#F6C859"/>
<path d="M62.1113 61.452C61.9963 61.452 61.8813 61.3862 61.832 61.2792C61.7499 61.1229 61.8156 60.9337 61.9717 60.8514C62.4317 60.6128 63.0561 60.1767 63.4176 59.4115C63.8776 58.4407 63.7544 57.3875 63.5654 57.297C63.5162 57.2723 63.3272 57.3711 63.2122 57.4287C62.9082 57.585 62.4975 57.7907 62.021 57.6261C61.5527 57.4616 61.3227 57.042 61.2077 56.8445C60.4929 55.5281 60.2711 52.0971 61.0269 50.4022C61.2816 49.8345 61.6184 49.5053 62.0456 49.3984C62.481 49.2997 62.8343 49.4807 63.1136 49.6288C63.3436 49.7522 63.4669 49.8015 63.5408 49.7604C63.8366 49.5794 63.8283 48.4933 63.4176 47.6294C63.0561 46.8642 62.4317 46.4199 61.9717 46.1896C61.8156 46.1073 61.7581 45.9181 61.832 45.7617C61.9142 45.6054 62.1031 45.5478 62.2592 45.6219C62.8014 45.9016 63.549 46.4282 63.9844 47.3579C64.4198 48.2712 64.6252 49.8427 63.8612 50.3034C63.4751 50.5338 63.1136 50.3446 62.8179 50.1965C62.596 50.0731 62.3907 49.9743 62.1853 50.0155C61.906 50.0813 61.717 50.4022 61.602 50.6572C60.9366 52.1465 61.1255 55.38 61.7581 56.5401C61.8649 56.7375 61.9963 56.9515 62.2181 57.0255C62.4317 57.0996 62.6289 57.009 62.9164 56.8609C63.1958 56.7211 63.5079 56.5565 63.8365 56.7211C64.5431 57.0666 64.502 58.597 63.9844 59.6831C63.549 60.6046 62.8014 61.1394 62.2592 61.4191C62.2099 61.4438 62.1606 61.452 62.1113 61.452Z" fill="#7D662D"/>
<path d="M61.1589 50.9777H55.4493C55.2768 50.9777 55.1289 50.8378 55.1289 50.6568C55.1289 50.484 55.2686 50.3359 55.4493 50.3359H61.1589C61.3314 50.3359 61.4793 50.4758 61.4793 50.6568C61.4793 50.8378 61.3314 50.9777 61.1589 50.9777Z" fill="#7D662D"/>
<path d="M61.1589 56.6945H55.4493C55.2768 56.6945 55.1289 56.5546 55.1289 56.3736C55.1289 56.2008 55.2686 56.0527 55.4493 56.0527H61.1589C61.3314 56.0527 61.4793 56.1926 61.4793 56.3736C61.4793 56.5464 61.3314 56.6945 61.1589 56.6945Z" fill="#7D662D"/>
<path d="M68.7654 61.4511C68.7161 61.4511 68.6668 61.4429 68.6175 61.4182C68.0753 61.1385 67.3277 60.6119 66.8923 59.6821C66.3748 58.5961 66.3337 57.0657 67.0402 56.7202C67.3688 56.5638 67.681 56.7202 67.9603 56.86C68.2478 57.0081 68.445 57.0986 68.6586 57.0246C68.8968 56.9423 69.0365 56.6873 69.1187 56.5392C69.7512 55.379 69.9402 52.1455 69.2747 50.6563C69.1597 50.4013 68.9626 50.0804 68.6915 50.0146C68.5189 49.9734 68.4121 49.8006 68.4532 49.6361C68.4943 49.4633 68.6668 49.3563 68.8311 49.3975C69.2583 49.4962 69.6034 49.8335 69.8498 50.4013C70.6056 52.1044 70.392 55.5271 69.6691 56.8436C69.5623 57.041 69.3323 57.4607 68.864 57.6252C68.3875 57.7898 67.9685 57.5841 67.6728 57.4277C67.5578 57.3702 67.3606 57.2714 67.3195 57.2961C67.1306 57.3866 67.0073 58.4398 67.4674 59.4106C67.8289 60.1758 68.4532 60.6201 68.9133 60.8505C69.0694 60.9328 69.1269 61.122 69.0529 61.2783C68.9954 61.3935 68.8804 61.4511 68.7654 61.4511Z" fill="#7D662D"/>
<path d="M67.5002 49.7088C67.3688 49.7088 67.2456 49.6265 67.1963 49.4949C66.5144 47.4544 68.1082 45.8829 68.6175 45.6196C68.7736 45.5373 68.9626 45.6032 69.0447 45.7595C69.1269 45.9158 69.0611 46.105 68.905 46.1873C68.675 46.3025 67.2127 47.5614 67.796 49.2974C67.8535 49.462 67.7631 49.643 67.5988 49.7006C67.566 49.7006 67.5331 49.7088 67.5002 49.7088Z" fill="#7D662D"/>
<path d="M75.4275 50.9777H69.7179C69.5453 50.9777 69.3975 50.8378 69.3975 50.6568C69.3975 50.484 69.5371 50.3359 69.7179 50.3359H75.4275C75.6 50.3359 75.7479 50.4758 75.7479 50.6568C75.7397 50.8378 75.6 50.9777 75.4275 50.9777Z" fill="#7D662D"/>
<path d="M75.4275 56.6945H69.7179C69.5453 56.6945 69.3975 56.5546 69.3975 56.3736C69.3975 56.2008 69.5371 56.0527 69.7179 56.0527H75.4275C75.6 56.0527 75.7479 56.1926 75.7479 56.3736C75.7397 56.5464 75.6 56.6945 75.4275 56.6945Z" fill="#7D662D"/>
<path d="M26.5049 148.485H25.2902C25.2681 148.327 25.2228 148.188 25.1544 148.066C25.0859 147.942 24.9981 147.837 24.8909 147.75C24.7837 147.663 24.6598 147.596 24.5193 147.55C24.3806 147.504 24.2299 147.481 24.0672 147.481C23.7733 147.481 23.5172 147.554 23.299 147.7C23.0809 147.844 22.9117 148.055 22.7915 148.332C22.6714 148.608 22.6113 148.942 22.6113 149.336C22.6113 149.741 22.6714 150.081 22.7915 150.357C22.9136 150.632 23.0836 150.84 23.3018 150.981C23.52 151.121 23.7723 151.191 24.0589 151.191C24.2198 151.191 24.3686 151.17 24.5054 151.127C24.6441 151.085 24.767 151.023 24.8743 150.942C24.9815 150.858 25.0702 150.758 25.1405 150.639C25.2126 150.521 25.2625 150.386 25.2902 150.234L26.5049 150.24C26.4735 150.501 26.3949 150.752 26.2692 150.994C26.1453 151.235 25.978 151.45 25.7672 151.641C25.5583 151.829 25.3087 151.979 25.0185 152.09C24.73 152.199 24.4037 152.253 24.0395 152.253C23.5329 152.253 23.08 152.139 22.6806 151.91C22.2831 151.68 21.9688 151.348 21.7377 150.914C21.5084 150.479 21.3938 149.953 21.3938 149.336C21.3938 148.717 21.5103 148.19 21.7432 147.755C21.9762 147.321 22.2923 146.99 22.6917 146.762C23.091 146.533 23.5403 146.418 24.0395 146.418C24.3686 146.418 24.6737 146.465 24.9547 146.557C25.2376 146.65 25.4881 146.785 25.7062 146.962C25.9244 147.138 26.1019 147.353 26.2387 147.608C26.3774 147.863 26.4661 148.155 26.5049 148.485ZM28.5585 152.256C28.2868 152.256 28.0446 152.209 27.8319 152.115C27.6193 152.019 27.4511 151.877 27.3272 151.69C27.2052 151.502 27.1442 151.267 27.1442 150.986C27.1442 150.749 27.1876 150.551 27.2745 150.39C27.3614 150.229 27.4797 150.1 27.6295 150.002C27.7793 149.904 27.9493 149.83 28.1398 149.78C28.3321 149.73 28.5336 149.695 28.7444 149.674C28.9921 149.648 29.1918 149.624 29.3434 149.602C29.495 149.578 29.605 149.543 29.6734 149.497C29.7418 149.451 29.776 149.382 29.776 149.292V149.275C29.776 149.099 29.7205 148.963 29.6096 148.867C29.5005 148.771 29.3452 148.723 29.1437 148.723C28.9311 148.723 28.7619 148.77 28.6362 148.864C28.5105 148.957 28.4273 149.073 28.3866 149.214L27.2939 149.125C27.3494 148.866 27.4585 148.643 27.6212 148.454C27.7839 148.264 27.9937 148.118 28.2507 148.016C28.5095 147.912 28.8091 147.861 29.1492 147.861C29.3859 147.861 29.6124 147.888 29.8287 147.944C30.0469 147.999 30.2401 148.085 30.4083 148.202C30.5784 148.318 30.7124 148.468 30.8104 148.651C30.9084 148.832 30.9574 149.049 30.9574 149.303V152.176H29.837V151.585H29.8037C29.7353 151.718 29.6438 151.836 29.5292 151.937C29.4146 152.037 29.2768 152.116 29.116 152.173C28.9551 152.228 28.7693 152.256 28.5585 152.256ZM28.8969 151.441C29.0707 151.441 29.2241 151.407 29.3572 151.338C29.4904 151.268 29.5948 151.174 29.6706 151.055C29.7464 150.937 29.7843 150.803 29.7843 150.653V150.201C29.7474 150.225 29.6965 150.247 29.6318 150.268C29.5689 150.286 29.4978 150.304 29.4183 150.32C29.3388 150.335 29.2593 150.349 29.1798 150.362C29.1003 150.373 29.0282 150.383 28.9634 150.393C28.8248 150.413 28.7037 150.445 28.6001 150.49C28.4966 150.534 28.4162 150.594 28.3589 150.67C28.3016 150.744 28.2729 150.836 28.2729 150.947C28.2729 151.108 28.3311 151.231 28.4476 151.316C28.5659 151.399 28.7157 151.441 28.8969 151.441ZM31.874 152.176V147.916H33.0193V148.659H33.0637C33.1414 148.395 33.2717 148.195 33.4547 148.06C33.6378 147.923 33.8486 147.855 34.0871 147.855C34.1462 147.855 34.21 147.859 34.2784 147.866C34.3468 147.874 34.4069 147.884 34.4587 147.897V148.945C34.4032 148.928 34.3265 148.913 34.2285 148.901C34.1305 148.888 34.0408 148.881 33.9595 148.881C33.7857 148.881 33.6304 148.919 33.4936 148.995C33.3586 149.069 33.2514 149.172 33.1719 149.305C33.0942 149.439 33.0554 149.592 33.0554 149.766V152.176H31.874ZM36.4409 152.245C36.1173 152.245 35.8243 152.162 35.5617 151.996C35.3011 151.827 35.094 151.58 34.9405 151.255C34.7889 150.928 34.7131 150.527 34.7131 150.051C34.7131 149.563 34.7917 149.158 34.9488 148.834C35.106 148.509 35.3149 148.265 35.5756 148.105C35.8381 147.942 36.1256 147.861 36.4381 147.861C36.6766 147.861 36.8753 147.901 37.0343 147.983C37.1952 148.062 37.3246 148.162 37.4226 148.282C37.5224 148.4 37.5982 148.517 37.65 148.632H37.6861V146.496H38.8647V152.176H37.6999V151.494H37.65C37.5945 151.612 37.516 151.729 37.4143 151.846C37.3144 151.96 37.1841 152.056 37.0233 152.131C36.8643 152.207 36.6701 152.245 36.4409 152.245ZM36.8153 151.305C37.0057 151.305 37.1665 151.253 37.2978 151.15C37.4309 151.044 37.5326 150.897 37.6029 150.709C37.675 150.52 37.711 150.299 37.711 150.046C37.711 149.793 37.6759 149.573 37.6056 149.386C37.5354 149.199 37.4337 149.055 37.3006 148.953C37.1675 148.852 37.0057 148.801 36.8153 148.801C36.6211 148.801 36.4575 148.853 36.3244 148.959C36.1913 149.064 36.0905 149.21 36.0221 149.397C35.9537 149.584 35.9195 149.8 35.9195 150.046C35.9195 150.294 35.9537 150.513 36.0221 150.703C36.0924 150.892 36.1931 151.04 36.3244 151.147C36.4575 151.252 36.6211 151.305 36.8153 151.305ZM42.8249 149.713V152.176H41.6435V146.496H42.7917V148.668H42.8416C42.9377 148.416 43.093 148.219 43.3075 148.077C43.5219 147.933 43.791 147.861 44.1145 147.861C44.4103 147.861 44.6682 147.925 44.8882 148.055C45.1101 148.182 45.282 148.366 45.4041 148.607C45.5279 148.845 45.589 149.131 45.5871 149.464V152.176H44.4057V149.674C44.4075 149.412 44.341 149.207 44.206 149.061C44.0729 148.915 43.8862 148.842 43.6458 148.842C43.485 148.842 43.3426 148.877 43.2187 148.945C43.0967 149.013 43.0006 149.113 42.9303 149.244C42.8619 149.374 42.8268 149.53 42.8249 149.713ZM48.4415 152.259C48.0107 152.259 47.6382 152.167 47.3239 151.984C47.0114 151.8 46.7701 151.543 46.6 151.213C46.4299 150.883 46.3449 150.499 46.3449 150.063C46.3449 149.623 46.4299 149.238 46.6 148.909C46.7701 148.578 47.0114 148.321 47.3239 148.138C47.6382 147.953 48.0107 147.861 48.4415 147.861C48.8723 147.861 49.2439 147.953 49.5563 148.138C49.8706 148.321 50.1128 148.578 50.2829 148.909C50.453 149.238 50.5381 149.623 50.5381 150.063C50.5381 150.499 50.453 150.883 50.2829 151.213C50.1128 151.543 49.8706 151.8 49.5563 151.984C49.2439 152.167 48.8723 152.259 48.4415 152.259ZM48.447 151.344C48.643 151.344 48.8066 151.288 48.9379 151.177C49.0692 151.065 49.1681 150.911 49.2346 150.717C49.3031 150.523 49.3373 150.302 49.3373 150.054C49.3373 149.806 49.3031 149.586 49.2346 149.391C49.1681 149.197 49.0692 149.044 48.9379 148.931C48.8066 148.818 48.643 148.762 48.447 148.762C48.2492 148.762 48.0828 148.818 47.9478 148.931C47.8147 149.044 47.714 149.197 47.6456 149.391C47.579 149.586 47.5457 149.806 47.5457 150.054C47.5457 150.302 47.579 150.523 47.6456 150.717C47.714 150.911 47.8147 151.065 47.9478 151.177C48.0828 151.288 48.2492 151.344 48.447 151.344ZM52.4877 146.496V152.176H51.3063V146.496H52.4877ZM55.0037 152.245C54.6802 152.245 54.3871 152.162 54.1246 151.996C53.8639 151.827 53.6569 151.58 53.5034 151.255C53.3518 150.928 53.276 150.527 53.276 150.051C53.276 149.563 53.3546 149.158 53.5117 148.834C53.6689 148.509 53.8778 148.265 54.1385 148.105C54.401 147.942 54.6885 147.861 55.001 147.861C55.2395 147.861 55.4382 147.901 55.5972 147.983C55.7581 148.062 55.8875 148.162 55.9855 148.282C56.0853 148.4 56.1611 148.517 56.2129 148.632H56.2489V146.496H57.4276V152.176H56.2628V151.494H56.2129C56.1574 151.612 56.0788 151.729 55.9772 151.846C55.8773 151.96 55.747 152.056 55.5861 152.131C55.4271 152.207 55.233 152.245 55.0037 152.245ZM55.3781 151.305C55.5686 151.305 55.7294 151.253 55.8607 151.15C55.9938 151.044 56.0955 150.897 56.1657 150.709C56.2378 150.52 56.2739 150.299 56.2739 150.046C56.2739 149.793 56.2388 149.573 56.1685 149.386C56.0983 149.199 55.9966 149.055 55.8635 148.953C55.7303 148.852 55.5686 148.801 55.3781 148.801C55.184 148.801 55.0204 148.853 54.8873 148.959C54.7541 149.064 54.6534 149.21 54.585 149.397C54.5166 149.584 54.4824 149.8 54.4824 150.046C54.4824 150.294 54.5166 150.513 54.585 150.703C54.6552 150.892 54.756 151.04 54.8873 151.147C55.0204 151.252 55.184 151.305 55.3781 151.305ZM60.3402 152.259C59.902 152.259 59.5249 152.17 59.2087 151.993C58.8944 151.813 58.6522 151.56 58.4821 151.233C58.312 150.904 58.227 150.515 58.227 150.065C58.227 149.627 58.312 149.243 58.4821 148.912C58.6522 148.581 58.8916 148.323 59.2004 148.138C59.511 147.953 59.8752 147.861 60.2931 147.861C60.5741 147.861 60.8357 147.906 61.0779 147.996C61.3219 148.085 61.5346 148.219 61.7157 148.399C61.8988 148.578 62.0411 148.803 62.1428 149.075C62.2445 149.345 62.2954 149.661 62.2954 150.024V150.348H58.6984V149.616H61.1833C61.1833 149.446 61.1463 149.295 61.0723 149.164C60.9984 149.033 60.8958 148.93 60.7645 148.856C60.6351 148.78 60.4844 148.742 60.3125 148.742C60.1331 148.742 59.9741 148.784 59.8355 148.867C59.6987 148.949 59.5914 149.059 59.5138 149.197C59.4361 149.334 59.3964 149.487 59.3945 149.655V150.351C59.3945 150.562 59.4333 150.744 59.511 150.897C59.5905 151.051 59.7023 151.169 59.8466 151.252C59.9908 151.335 60.1618 151.377 60.3596 151.377C60.4909 151.377 60.6111 151.359 60.7201 151.322C60.8292 151.285 60.9226 151.229 61.0002 151.155C61.0779 151.081 61.1371 150.991 61.1777 150.883L62.2704 150.956C62.2149 151.218 62.1012 151.447 61.9293 151.643C61.7592 151.837 61.5392 151.989 61.2692 152.098C61.0012 152.205 60.6915 152.259 60.3402 152.259ZM63.0663 152.176V147.916H64.2117V148.659H64.2561C64.3337 148.395 64.4641 148.195 64.6471 148.06C64.8301 147.923 65.0409 147.855 65.2794 147.855C65.3386 147.855 65.4023 147.859 65.4707 147.866C65.5392 147.874 65.5992 147.884 65.651 147.897V148.945C65.5955 148.928 65.5188 148.913 65.4208 148.901C65.3228 148.888 65.2332 148.881 65.1518 148.881C64.978 148.881 64.8227 148.919 64.6859 148.995C64.5509 149.069 64.4437 149.172 64.3642 149.305C64.2866 149.439 64.2477 149.592 64.2477 149.766V152.176H63.0663ZM69.2507 149.713V152.176H68.0693V147.916H69.1952V148.668H69.2452C69.3395 148.42 69.4975 148.224 69.7194 148.08C69.9413 147.934 70.2103 147.861 70.5264 147.861C70.8222 147.861 71.0801 147.925 71.3002 148.055C71.5202 148.184 71.6912 148.369 71.8132 148.609C71.9352 148.848 71.9962 149.133 71.9962 149.464V152.176H70.8148V149.674C70.8167 149.414 70.7501 149.21 70.6152 149.064C70.4802 148.916 70.2944 148.842 70.0577 148.842C69.8987 148.842 69.7582 148.877 69.6362 148.945C69.516 149.013 69.4217 149.113 69.3533 149.244C69.2868 149.374 69.2526 149.53 69.2507 149.713ZM74.1421 152.256C73.8703 152.256 73.6281 152.209 73.4155 152.115C73.2029 152.019 73.0346 151.877 72.9107 151.69C72.7887 151.502 72.7277 151.267 72.7277 150.986C72.7277 150.749 72.7711 150.551 72.858 150.39C72.9449 150.229 73.0633 150.1 73.213 150.002C73.3628 149.904 73.5329 149.83 73.7233 149.78C73.9156 149.73 74.1171 149.695 74.3279 149.674C74.5756 149.648 74.7753 149.624 74.9269 149.602C75.0785 149.578 75.1885 149.543 75.2569 149.497C75.3253 149.451 75.3595 149.382 75.3595 149.292V149.275C75.3595 149.099 75.3041 148.963 75.1931 148.867C75.0841 148.771 74.9287 148.723 74.7272 148.723C74.5146 148.723 74.3454 148.77 74.2197 148.864C74.094 148.957 74.0108 149.073 73.9701 149.214L72.8775 149.125C72.9329 148.866 73.042 148.643 73.2047 148.454C73.3674 148.264 73.5772 148.118 73.8342 148.016C74.0931 147.912 74.3926 147.861 74.7328 147.861C74.9694 147.861 75.1959 147.888 75.4122 147.944C75.6304 147.999 75.8236 148.085 75.9918 148.202C76.1619 148.318 76.296 148.468 76.394 148.651C76.4919 148.832 76.5409 149.049 76.5409 149.303V152.176H75.4205V151.585H75.3873C75.3189 151.718 75.2273 151.836 75.1127 151.937C74.9981 152.037 74.8603 152.116 74.6995 152.173C74.5386 152.228 74.3528 152.256 74.1421 152.256ZM74.4804 151.441C74.6542 151.441 74.8076 151.407 74.9408 151.338C75.0739 151.268 75.1783 151.174 75.2541 151.055C75.3299 150.937 75.3678 150.803 75.3678 150.653V150.201C75.3309 150.225 75.28 150.247 75.2153 150.268C75.1525 150.286 75.0813 150.304 75.0018 150.32C74.9223 150.335 74.8428 150.349 74.7633 150.362C74.6838 150.373 74.6117 150.383 74.547 150.393C74.4083 150.413 74.2872 150.445 74.1837 150.49C74.0801 150.534 73.9997 150.594 73.9424 150.67C73.8851 150.744 73.8564 150.836 73.8564 150.947C73.8564 151.108 73.9147 151.231 74.0311 151.316C74.1495 151.399 74.2992 151.441 74.4804 151.441ZM77.4575 152.176V147.916H78.5835V148.668H78.6334C78.7221 148.418 78.87 148.221 79.0771 148.077C79.2842 147.933 79.5319 147.861 79.8203 147.861C80.1124 147.861 80.3611 147.934 80.5663 148.08C80.7716 148.224 80.9084 148.42 80.9768 148.668H81.0212C81.1081 148.424 81.2652 148.228 81.4926 148.082C81.7219 147.935 81.9927 147.861 82.3052 147.861C82.7027 147.861 83.0253 147.987 83.273 148.241C83.5226 148.492 83.6474 148.849 83.6474 149.311V152.176H82.4688V149.544C82.4688 149.307 82.4059 149.13 82.2802 149.011C82.1545 148.893 81.9973 148.834 81.8088 148.834C81.5943 148.834 81.427 148.902 81.3068 149.039C81.1866 149.174 81.1265 149.353 81.1265 149.574V152.176H79.9812V149.519C79.9812 149.31 79.9211 149.144 79.8009 149.02C79.6826 148.896 79.5264 148.834 79.3322 148.834C79.201 148.834 79.0826 148.867 78.9773 148.934C78.8737 148.999 78.7914 149.09 78.7304 149.208C78.6694 149.325 78.6389 149.462 78.6389 149.619V152.176H77.4575ZM86.5219 152.259C86.0838 152.259 85.7066 152.17 85.3904 151.993C85.0761 151.813 84.8339 151.56 84.6638 151.233C84.4938 150.904 84.4087 150.515 84.4087 150.065C84.4087 149.627 84.4938 149.243 84.6638 148.912C84.8339 148.581 85.0734 148.323 85.3821 148.138C85.6927 147.953 86.057 147.861 86.4748 147.861C86.7558 147.861 87.0174 147.906 87.2596 147.996C87.5037 148.085 87.7163 148.219 87.8975 148.399C88.0805 148.578 88.2229 148.803 88.3246 149.075C88.4262 149.345 88.4771 149.661 88.4771 150.024V150.348H84.8802V149.616H87.365C87.365 149.446 87.328 149.295 87.2541 149.164C87.1801 149.033 87.0775 148.93 86.9462 148.856C86.8168 148.78 86.6661 148.742 86.4942 148.742C86.3149 148.742 86.1559 148.784 86.0172 148.867C85.8804 148.949 85.7732 149.059 85.6955 149.197C85.6178 149.334 85.5781 149.487 85.5763 149.655V150.351C85.5763 150.562 85.6151 150.744 85.6927 150.897C85.7722 151.051 85.8841 151.169 86.0283 151.252C86.1725 151.335 86.3435 151.377 86.5413 151.377C86.6726 151.377 86.7928 151.359 86.9019 151.322C87.011 151.285 87.1043 151.229 87.182 151.155C87.2596 151.081 87.3188 150.991 87.3595 150.883L88.4521 150.956C88.3967 151.218 88.283 151.447 88.111 151.643C87.9409 151.837 87.7209 151.989 87.451 152.098C87.1829 152.205 86.8732 152.259 86.5219 152.259Z" fill="white"/>
<path d="M21.6582 171V163.427H23.2593V166.552H26.5096V163.427H28.107V171H26.5096V167.872H23.2593V171H21.6582ZM31.017 171.107C30.6547 171.107 30.3317 171.044 30.0483 170.919C29.7648 170.79 29.5404 170.602 29.3753 170.353C29.2126 170.101 29.1312 169.788 29.1312 169.414C29.1312 169.098 29.1892 168.833 29.305 168.619C29.4209 168.404 29.5786 168.232 29.7783 168.101C29.978 167.97 30.2048 167.872 30.4587 167.805C30.7151 167.739 30.9838 167.692 31.2648 167.665C31.5951 167.63 31.8614 167.598 32.0635 167.569C32.2656 167.536 32.4123 167.49 32.5035 167.428C32.5947 167.366 32.6403 167.275 32.6403 167.154V167.132C32.6403 166.898 32.5664 166.717 32.4185 166.589C32.273 166.46 32.066 166.396 31.7973 166.396C31.5138 166.396 31.2882 166.459 31.1206 166.585C30.953 166.708 30.842 166.864 30.7878 167.051L29.3309 166.933C29.4049 166.587 29.5503 166.289 29.7672 166.038C29.9842 165.784 30.2639 165.589 30.6066 165.453C30.9517 165.315 31.3511 165.246 31.8047 165.246C32.1202 165.246 32.4222 165.283 32.7106 165.357C33.0015 165.431 33.2591 165.546 33.4834 165.701C33.7102 165.857 33.8889 166.056 34.0196 166.3C34.1502 166.542 34.2155 166.831 34.2155 167.169V171H32.7217V170.212H32.6773C32.5861 170.39 32.4641 170.546 32.3112 170.682C32.1584 170.815 31.9747 170.92 31.7603 170.996C31.5458 171.07 31.2981 171.107 31.017 171.107ZM31.4682 170.02C31.6999 170.02 31.9045 169.975 32.082 169.883C32.2595 169.79 32.3987 169.664 32.4998 169.506C32.6009 169.348 32.6514 169.17 32.6514 168.97V168.367C32.6021 168.399 32.5343 168.429 32.4481 168.456C32.3642 168.481 32.2693 168.504 32.1633 168.526C32.0573 168.546 31.9513 168.564 31.8453 168.582C31.7393 168.597 31.6432 168.61 31.5569 168.622C31.372 168.65 31.2106 168.693 31.0725 168.752C30.9345 168.811 30.8272 168.891 30.7508 168.992C30.6744 169.091 30.6362 169.214 30.6362 169.362C30.6362 169.576 30.7138 169.74 30.8691 169.854C31.0269 169.965 31.2266 170.02 31.4682 170.02ZM35.4672 171V163.427H37.0424V166.274H37.0905C37.1595 166.122 37.2594 165.966 37.39 165.808C37.5231 165.648 37.6957 165.515 37.9077 165.409C38.1222 165.301 38.3884 165.246 38.7064 165.246C39.1205 165.246 39.5026 165.355 39.8527 165.572C40.2027 165.786 40.4825 166.11 40.6921 166.544C40.9016 166.976 41.0064 167.517 41.0064 168.168C41.0064 168.801 40.9041 169.336 40.6995 169.772C40.4973 170.206 40.2212 170.535 39.8712 170.76C39.5236 170.982 39.1341 171.092 38.7027 171.092C38.397 171.092 38.137 171.042 37.9225 170.941C37.7105 170.84 37.5367 170.713 37.4011 170.56C37.2655 170.405 37.162 170.248 37.0905 170.09H37.0202V171H35.4672ZM37.0092 168.16C37.0092 168.498 37.056 168.792 37.1497 169.044C37.2433 169.295 37.3789 169.491 37.5564 169.632C37.7339 169.77 37.9496 169.839 38.2035 169.839C38.4599 169.839 38.6768 169.769 38.8543 169.628C39.0318 169.485 39.1661 169.288 39.2574 169.037C39.351 168.783 39.3979 168.491 39.3979 168.16C39.3979 167.832 39.3523 167.544 39.261 167.295C39.1698 167.046 39.0355 166.851 38.858 166.711C38.6805 166.57 38.4623 166.5 38.2035 166.5C37.9471 166.5 37.7302 166.568 37.5527 166.703C37.3777 166.839 37.2433 167.031 37.1497 167.28C37.056 167.529 37.0092 167.822 37.0092 168.16ZM42.0574 171V165.32H43.6326V171H42.0574ZM42.8487 164.588C42.6145 164.588 42.4136 164.511 42.246 164.355C42.0808 164.197 41.9983 164.009 41.9983 163.79C41.9983 163.573 42.0808 163.386 42.246 163.231C42.4136 163.073 42.6145 162.994 42.8487 162.994C43.0829 162.994 43.2826 163.073 43.4478 163.231C43.6154 163.386 43.6992 163.573 43.6992 163.79C43.6992 164.009 43.6154 164.197 43.4478 164.355C43.2826 164.511 43.0829 164.588 42.8487 164.588ZM44.9241 171V163.427H46.4993V166.274H46.5473C46.6164 166.122 46.7162 165.966 46.8469 165.808C46.98 165.648 47.1525 165.515 47.3645 165.409C47.579 165.301 47.8452 165.246 48.1632 165.246C48.5774 165.246 48.9595 165.355 49.3095 165.572C49.6596 165.786 49.9394 166.11 50.1489 166.544C50.3584 166.976 50.4632 167.517 50.4632 168.168C50.4632 168.801 50.3609 169.336 50.1563 169.772C49.9542 170.206 49.6781 170.535 49.328 170.76C48.9804 170.982 48.5909 171.092 48.1595 171.092C47.8539 171.092 47.5938 171.042 47.3793 170.941C47.1673 170.84 46.9935 170.713 46.858 170.56C46.7224 170.405 46.6188 170.248 46.5473 170.09H46.4771V171H44.9241ZM46.466 168.16C46.466 168.498 46.5128 168.792 46.6065 169.044C46.7002 169.295 46.8358 169.491 47.0133 169.632C47.1907 169.77 47.4064 169.839 47.6604 169.839C47.9167 169.839 48.1337 169.769 48.3111 169.628C48.4886 169.485 48.623 169.288 48.7142 169.037C48.8079 168.783 48.8547 168.491 48.8547 168.16C48.8547 167.832 48.8091 167.544 48.7179 167.295C48.6267 167.046 48.4923 166.851 48.3148 166.711C48.1374 166.57 47.9192 166.5 47.6604 166.5C47.404 166.5 47.187 166.568 47.0096 166.703C46.8345 166.839 46.7002 167.031 46.6065 167.28C46.5128 167.529 46.466 167.822 46.466 168.16ZM21.6582 184V176.427H23.2593V179.766H23.3591L26.0843 176.427H28.0034L25.1932 179.818L28.0367 184H26.1213L24.0469 180.887L23.2593 181.848V184H21.6582ZM30.4273 184.107C30.0649 184.107 29.742 184.044 29.4585 183.919C29.175 183.79 28.9507 183.602 28.7855 183.353C28.6228 183.101 28.5414 182.788 28.5414 182.414C28.5414 182.098 28.5994 181.833 28.7152 181.619C28.8311 181.404 28.9889 181.232 29.1885 181.101C29.3882 180.97 29.615 180.872 29.8689 180.805C30.1253 180.739 30.394 180.692 30.675 180.665C31.0053 180.63 31.2716 180.598 31.4737 180.569C31.6759 180.536 31.8225 180.49 31.9137 180.428C32.0049 180.366 32.0506 180.275 32.0506 180.154V180.132C32.0506 179.898 31.9766 179.717 31.8287 179.589C31.6832 179.46 31.4762 179.396 31.2075 179.396C30.924 179.396 30.6984 179.459 30.5308 179.585C30.3632 179.708 30.2522 179.864 30.198 180.051L28.7411 179.933C28.8151 179.587 28.9605 179.289 29.1774 179.038C29.3944 178.784 29.6742 178.589 30.0168 178.453C30.3619 178.315 30.7613 178.246 31.2149 178.246C31.5304 178.246 31.8324 178.283 32.1208 178.357C32.4117 178.431 32.6693 178.546 32.8936 178.701C33.1204 178.857 33.2991 179.056 33.4298 179.3C33.5604 179.542 33.6258 179.831 33.6258 180.169V184H32.1319V183.212H32.0875C31.9963 183.39 31.8743 183.546 31.7215 183.682C31.5686 183.815 31.385 183.92 31.1705 183.996C30.956 184.07 30.7083 184.107 30.4273 184.107ZM30.8784 183.02C31.1101 183.02 31.3147 182.975 31.4922 182.883C31.6697 182.79 31.809 182.664 31.91 182.506C32.0111 182.348 32.0616 182.17 32.0616 181.97V181.367C32.0123 181.399 31.9446 181.429 31.8583 181.456C31.7745 181.481 31.6795 181.504 31.5735 181.526C31.4675 181.546 31.3615 181.564 31.2555 181.582C31.1495 181.597 31.0534 181.61 30.9671 181.622C30.7822 181.65 30.6208 181.693 30.4827 181.752C30.3447 181.811 30.2374 181.891 30.161 181.992C30.0846 182.091 30.0464 182.214 30.0464 182.362C30.0464 182.576 30.1241 182.74 30.2794 182.854C30.4371 182.965 30.6368 183.02 30.8784 183.02ZM34.8479 184V178.32H36.3491V179.322H36.4157C36.534 178.99 36.7312 178.727 37.0073 178.535C37.2834 178.343 37.6137 178.246 37.9983 178.246C38.3878 178.246 38.7193 178.344 38.993 178.539C39.2666 178.731 39.449 178.992 39.5402 179.322H39.5994C39.7152 178.997 39.9248 178.737 40.228 178.542C40.5337 178.345 40.8948 178.246 41.3114 178.246C41.8414 178.246 42.2716 178.415 42.6019 178.753C42.9347 179.088 43.1011 179.564 43.1011 180.18V184H41.5296V180.491C41.5296 180.175 41.4458 179.939 41.2781 179.781C41.1105 179.623 40.901 179.544 40.6495 179.544C40.3636 179.544 40.1405 179.635 39.9802 179.818C39.82 179.998 39.7399 180.236 39.7399 180.532V184H38.2128V180.458C38.2128 180.179 38.1326 179.957 37.9724 179.792C37.8146 179.627 37.6063 179.544 37.3475 179.544C37.1725 179.544 37.0147 179.589 36.8742 179.677C36.7361 179.764 36.6264 179.886 36.5451 180.043C36.4637 180.199 36.4231 180.381 36.4231 180.591V184H34.8479ZM45.965 184.107C45.6026 184.107 45.2797 184.044 44.9962 183.919C44.7127 183.79 44.4884 183.602 44.3232 183.353C44.1605 183.101 44.0791 182.788 44.0791 182.414C44.0791 182.098 44.1371 181.833 44.2529 181.619C44.3688 181.404 44.5266 181.232 44.7262 181.101C44.9259 180.97 45.1527 180.872 45.4066 180.805C45.663 180.739 45.9317 180.692 46.2127 180.665C46.543 180.63 46.8093 180.598 47.0114 180.569C47.2135 180.536 47.3602 180.49 47.4514 180.428C47.5426 180.366 47.5882 180.275 47.5882 180.154V180.132C47.5882 179.898 47.5143 179.717 47.3664 179.589C47.2209 179.46 47.0139 179.396 46.7452 179.396C46.4617 179.396 46.2361 179.459 46.0685 179.585C45.9009 179.708 45.7899 179.864 45.7357 180.051L44.2788 179.933C44.3528 179.587 44.4982 179.289 44.7151 179.038C44.9321 178.784 45.2119 178.589 45.5545 178.453C45.8996 178.315 46.299 178.246 46.7526 178.246C47.0681 178.246 47.3701 178.283 47.6585 178.357C47.9494 178.431 48.207 178.546 48.4313 178.701C48.6581 178.857 48.8368 179.056 48.9675 179.3C49.0981 179.542 49.1635 179.831 49.1635 180.169V184H47.6696V183.212H47.6252C47.534 183.39 47.412 183.546 47.2592 183.682C47.1063 183.815 46.9227 183.92 46.7082 183.996C46.4937 184.07 46.246 184.107 45.965 184.107ZM46.4161 183.02C46.6478 183.02 46.8524 182.975 47.0299 182.883C47.2074 182.79 47.3467 182.664 47.4477 182.506C47.5488 182.348 47.5993 182.17 47.5993 181.97V181.367C47.55 181.399 47.4822 181.429 47.396 181.456C47.3122 181.481 47.2172 181.504 47.1112 181.526C47.0052 181.546 46.8992 181.564 46.7932 181.582C46.6872 181.597 46.5911 181.61 46.5048 181.622C46.3199 181.65 46.1585 181.693 46.0204 181.752C45.8824 181.811 45.7751 181.891 45.6987 181.992C45.6223 182.091 45.5841 182.214 45.5841 182.362C45.5841 182.576 45.6618 182.74 45.8171 182.854C45.9748 182.965 46.1745 183.02 46.4161 183.02ZM51.9608 176.427V184H50.3856V176.427H51.9608ZM55.3155 184.092C54.8841 184.092 54.4934 183.982 54.1433 183.76C53.7957 183.535 53.5197 183.206 53.315 182.772C53.1129 182.336 53.0118 181.801 53.0118 181.168C53.0118 180.517 53.1166 179.976 53.3261 179.544C53.5357 179.11 53.8142 178.786 54.1618 178.572C54.5119 178.355 54.8952 178.246 55.3118 178.246C55.6298 178.246 55.8948 178.301 56.1068 178.409C56.3213 178.515 56.4938 178.648 56.6245 178.808C56.7576 178.966 56.8587 179.122 56.9277 179.274H56.9758V176.427H58.5473V184H56.9943V183.09H56.9277C56.8537 183.248 56.749 183.405 56.6134 183.56C56.4803 183.713 56.3065 183.84 56.092 183.941C55.88 184.042 55.6212 184.092 55.3155 184.092ZM55.8147 182.839C56.0686 182.839 56.2831 182.77 56.4581 182.632C56.6356 182.491 56.7712 182.295 56.8648 182.044C56.961 181.792 57.009 181.498 57.009 181.16C57.009 180.822 56.9622 180.529 56.8685 180.28C56.7749 180.031 56.6393 179.839 56.4618 179.703C56.2843 179.568 56.0686 179.5 55.8147 179.5C55.5559 179.5 55.3377 179.57 55.1602 179.711C54.9827 179.851 54.8484 180.046 54.7571 180.295C54.6659 180.544 54.6203 180.832 54.6203 181.16C54.6203 181.491 54.6659 181.783 54.7571 182.037C54.8508 182.288 54.9852 182.485 55.1602 182.628C55.3377 182.769 55.5559 182.839 55.8147 182.839ZM62.4308 184.111C61.8465 184.111 61.3437 183.993 60.9221 183.756C60.5031 183.517 60.1801 183.179 59.9533 182.743C59.7265 182.304 59.6131 181.785 59.6131 181.186C59.6131 180.602 59.7265 180.089 59.9533 179.648C60.1801 179.207 60.4994 178.863 60.911 178.616C61.3252 178.37 61.8108 178.246 62.3679 178.246C62.7426 178.246 63.0914 178.307 63.4144 178.428C63.7398 178.546 64.0233 178.725 64.2648 178.964C64.5089 179.203 64.6987 179.504 64.8343 179.866C64.9699 180.226 65.0377 180.647 65.0377 181.131V181.563H60.2417V180.587H63.5549C63.5549 180.36 63.5056 180.159 63.407 179.984C63.3084 179.809 63.1716 179.672 62.9965 179.574C62.824 179.473 62.6231 179.422 62.3938 179.422C62.1547 179.422 61.9427 179.478 61.7578 179.589C61.5754 179.697 61.4324 179.844 61.3289 180.029C61.2253 180.211 61.1723 180.414 61.1699 180.639V181.567C61.1699 181.848 61.2216 182.091 61.3252 182.295C61.4312 182.5 61.5803 182.658 61.7726 182.769C61.9649 182.88 62.1929 182.935 62.4567 182.935C62.6317 182.935 62.7919 182.91 62.9374 182.861C63.0828 182.812 63.2073 182.738 63.3108 182.639C63.4144 182.541 63.4933 182.42 63.5475 182.277L65.0044 182.373C64.9304 182.723 64.7788 183.029 64.5496 183.29C64.3228 183.549 64.0294 183.751 63.6695 183.896C63.3121 184.039 62.8992 184.111 62.4308 184.111ZM68.654 184.111C68.0698 184.111 67.5669 183.993 67.1453 183.756C66.7263 183.517 66.4033 183.179 66.1765 182.743C65.9498 182.304 65.8364 181.785 65.8364 181.186C65.8364 180.602 65.9498 180.089 66.1765 179.648C66.4033 179.207 66.7226 178.863 67.1342 178.616C67.5484 178.37 68.034 178.246 68.5911 178.246C68.9658 178.246 69.3146 178.307 69.6376 178.428C69.963 178.546 70.2465 178.725 70.4881 178.964C70.7321 179.203 70.9219 179.504 71.0575 179.866C71.1931 180.226 71.2609 180.647 71.2609 181.131V181.563H66.465V180.587H69.7781C69.7781 180.36 69.7288 180.159 69.6302 179.984C69.5316 179.809 69.3948 179.672 69.2197 179.574C69.0472 179.473 68.8463 179.422 68.617 179.422C68.3779 179.422 68.1659 179.478 67.981 179.589C67.7986 179.697 67.6556 179.844 67.5521 180.029C67.4485 180.211 67.3955 180.414 67.3931 180.639V181.567C67.3931 181.848 67.4449 182.091 67.5484 182.295C67.6544 182.5 67.8035 182.658 67.9958 182.769C68.1881 182.88 68.4161 182.935 68.6799 182.935C68.8549 182.935 69.0151 182.91 69.1606 182.861C69.306 182.812 69.4305 182.738 69.534 182.639C69.6376 182.541 69.7165 182.42 69.7707 182.277L71.2276 182.373C71.1536 182.723 71.002 183.029 70.7728 183.29C70.546 183.549 70.2526 183.751 69.8927 183.896C69.5353 184.039 69.1224 184.111 68.654 184.111ZM73.864 180.716V184H72.2888V178.32H73.7901V179.322H73.8566C73.9824 178.992 74.1931 178.731 74.489 178.539C74.7848 178.344 75.1434 178.246 75.565 178.246C75.9594 178.246 76.3033 178.333 76.5966 178.505C76.89 178.678 77.118 178.924 77.2807 179.245C77.4434 179.563 77.5248 179.942 77.5248 180.384V184H75.9495V180.665C75.952 180.317 75.8633 180.046 75.6833 179.851C75.5034 179.654 75.2556 179.555 74.9401 179.555C74.7281 179.555 74.5407 179.601 74.378 179.692C74.2178 179.783 74.0921 179.917 74.0009 180.092C73.9121 180.264 73.8665 180.472 73.864 180.716Z" fill="white"/>
<path d="M230.658 160.176V152.603H235.761V153.923H232.259V155.727H235.498V157.048H232.259V158.856H235.776V160.176H230.658ZM238.321 154.496L239.363 156.482L240.432 154.496H242.048L240.403 157.336L242.092 160.176H240.484L239.363 158.212L238.262 160.176H236.635L238.321 157.336L236.694 154.496H238.321ZM242.984 162.306V154.496H244.537V155.45H244.607C244.676 155.297 244.776 155.142 244.906 154.984C245.039 154.824 245.212 154.691 245.424 154.585C245.638 154.476 245.905 154.422 246.223 154.422C246.637 154.422 247.019 154.531 247.369 154.748C247.719 154.962 247.999 155.286 248.208 155.72C248.418 156.151 248.523 156.693 248.523 157.343C248.523 157.977 248.42 158.512 248.216 158.948C248.014 159.382 247.738 159.711 247.387 159.935C247.04 160.157 246.65 160.268 246.219 160.268C245.913 160.268 245.653 160.218 245.439 160.117C245.227 160.016 245.053 159.889 244.917 159.736C244.782 159.58 244.678 159.424 244.607 159.266H244.559V162.306H242.984ZM244.525 157.336C244.525 157.674 244.572 157.968 244.666 158.22C244.76 158.471 244.895 158.667 245.073 158.808C245.25 158.946 245.466 159.015 245.72 159.015C245.976 159.015 246.193 158.944 246.371 158.804C246.548 158.661 246.682 158.464 246.774 158.212C246.867 157.958 246.914 157.666 246.914 157.336C246.914 157.008 246.869 156.72 246.777 156.471C246.686 156.222 246.552 156.027 246.374 155.886C246.197 155.746 245.979 155.676 245.72 155.676C245.463 155.676 245.247 155.743 245.069 155.879C244.894 156.015 244.76 156.207 244.666 156.456C244.572 156.705 244.525 156.998 244.525 157.336ZM249.573 160.176V154.496H251.148V160.176H249.573ZM250.364 153.764C250.13 153.764 249.929 153.686 249.761 153.531C249.596 153.373 249.514 153.185 249.514 152.965C249.514 152.748 249.596 152.562 249.761 152.407C249.929 152.249 250.13 152.17 250.364 152.17C250.598 152.17 250.798 152.249 250.963 152.407C251.131 152.562 251.215 152.748 251.215 152.965C251.215 153.185 251.131 153.373 250.963 153.531C250.798 153.686 250.598 153.764 250.364 153.764ZM252.41 160.176V154.496H253.937V155.487H253.996C254.1 155.135 254.273 154.868 254.518 154.688C254.762 154.506 255.043 154.415 255.361 154.415C255.439 154.415 255.525 154.42 255.616 154.43C255.707 154.439 255.787 154.453 255.856 154.47V155.868C255.782 155.846 255.68 155.826 255.549 155.809C255.419 155.792 255.299 155.783 255.191 155.783C254.959 155.783 254.752 155.833 254.569 155.935C254.389 156.033 254.246 156.171 254.14 156.349C254.037 156.526 253.985 156.731 253.985 156.962V160.176H252.41ZM258.995 160.287C258.41 160.287 257.907 160.168 257.486 159.932C257.067 159.693 256.744 159.355 256.517 158.919C256.29 158.48 256.177 157.961 256.177 157.362C256.177 156.778 256.29 156.265 256.517 155.824C256.744 155.382 257.063 155.038 257.475 154.792C257.889 154.545 258.375 154.422 258.932 154.422C259.306 154.422 259.655 154.483 259.978 154.603C260.304 154.722 260.587 154.9 260.829 155.14C261.073 155.379 261.262 155.679 261.398 156.042C261.534 156.402 261.601 156.823 261.601 157.306V157.739H256.805V156.763H260.119C260.119 156.536 260.069 156.335 259.971 156.16C259.872 155.985 259.735 155.848 259.56 155.75C259.388 155.649 259.187 155.598 258.958 155.598C258.718 155.598 258.506 155.654 258.322 155.764C258.139 155.873 257.996 156.02 257.893 156.204C257.789 156.387 257.736 156.59 257.734 156.815V157.743C257.734 158.024 257.785 158.267 257.889 158.471C257.995 158.676 258.144 158.834 258.336 158.944C258.529 159.055 258.757 159.111 259.02 159.111C259.195 159.111 259.356 159.086 259.501 159.037C259.647 158.988 259.771 158.914 259.875 158.815C259.978 158.716 260.057 158.596 260.111 158.453L261.568 158.549C261.494 158.899 261.343 159.205 261.113 159.466C260.887 159.725 260.593 159.927 260.233 160.072C259.876 160.215 259.463 160.287 258.995 160.287ZM267.132 160.268C266.701 160.268 266.31 160.157 265.96 159.935C265.612 159.711 265.336 159.382 265.132 158.948C264.93 158.512 264.829 157.977 264.829 157.343C264.829 156.693 264.933 156.151 265.143 155.72C265.352 155.286 265.631 154.962 265.979 154.748C266.329 154.531 266.712 154.422 267.129 154.422C267.447 154.422 267.712 154.476 267.924 154.585C268.138 154.691 268.311 154.824 268.441 154.984C268.574 155.142 268.675 155.297 268.744 155.45H268.792V152.603H270.364V160.176H268.811V159.266H268.744C268.67 159.424 268.566 159.58 268.43 159.736C268.297 159.889 268.123 160.016 267.909 160.117C267.697 160.218 267.438 160.268 267.132 160.268ZM267.631 159.015C267.885 159.015 268.1 158.946 268.275 158.808C268.452 158.667 268.588 158.471 268.682 158.22C268.778 157.968 268.826 157.674 268.826 157.336C268.826 156.998 268.779 156.705 268.685 156.456C268.592 156.207 268.456 156.015 268.279 155.879C268.101 155.743 267.885 155.676 267.631 155.676C267.373 155.676 267.154 155.746 266.977 155.886C266.799 156.027 266.665 156.222 266.574 156.471C266.483 156.72 266.437 157.008 266.437 157.336C266.437 157.666 266.483 157.958 266.574 158.212C266.668 158.464 266.802 158.661 266.977 158.804C267.154 158.944 267.373 159.015 267.631 159.015ZM273.279 160.283C272.916 160.283 272.593 160.22 272.31 160.094C272.026 159.966 271.802 159.778 271.637 159.529C271.474 159.277 271.393 158.964 271.393 158.589C271.393 158.274 271.451 158.009 271.567 157.794C271.683 157.58 271.84 157.407 272.04 157.277C272.24 157.146 272.466 157.048 272.72 156.981C272.977 156.914 273.245 156.868 273.526 156.84C273.857 156.806 274.123 156.774 274.325 156.744C274.527 156.712 274.674 156.665 274.765 156.604C274.856 156.542 274.902 156.451 274.902 156.33V156.308C274.902 156.074 274.828 155.893 274.68 155.764C274.535 155.636 274.328 155.572 274.059 155.572C273.775 155.572 273.55 155.635 273.382 155.761C273.215 155.884 273.104 156.039 273.049 156.227L271.593 156.108C271.667 155.763 271.812 155.465 272.029 155.213C272.246 154.96 272.526 154.765 272.868 154.629C273.213 154.491 273.613 154.422 274.066 154.422C274.382 154.422 274.684 154.459 274.972 154.533C275.263 154.607 275.521 154.722 275.745 154.877C275.972 155.032 276.151 155.232 276.281 155.476C276.412 155.718 276.477 156.007 276.477 156.345V160.176H274.983V159.388H274.939C274.848 159.566 274.726 159.722 274.573 159.858C274.42 159.991 274.236 160.096 274.022 160.172C273.807 160.246 273.56 160.283 273.279 160.283ZM273.73 159.196C273.962 159.196 274.166 159.15 274.344 159.059C274.521 158.965 274.66 158.84 274.761 158.682C274.863 158.524 274.913 158.345 274.913 158.146V157.543C274.864 157.575 274.796 157.605 274.71 157.632C274.626 157.656 274.531 157.68 274.425 157.702C274.319 157.722 274.213 157.74 274.107 157.757C274.001 157.772 273.905 157.786 273.819 157.798C273.634 157.825 273.472 157.868 273.334 157.928C273.196 157.987 273.089 158.067 273.012 158.168C272.936 158.267 272.898 158.39 272.898 158.538C272.898 158.752 272.975 158.916 273.131 159.029C273.289 159.14 273.488 159.196 273.73 159.196ZM280.72 154.496V155.679H277.3V154.496H280.72ZM278.076 153.135H279.652V158.43C279.652 158.576 279.674 158.689 279.718 158.771C279.763 158.85 279.824 158.905 279.903 158.937C279.984 158.969 280.078 158.985 280.184 158.985C280.258 158.985 280.332 158.979 280.406 158.967C280.48 158.952 280.537 158.941 280.576 158.933L280.824 160.106C280.745 160.13 280.634 160.159 280.491 160.191C280.348 160.225 280.174 160.246 279.97 160.253C279.59 160.268 279.257 160.218 278.971 160.102C278.688 159.986 278.467 159.806 278.309 159.562C278.152 159.318 278.074 159.01 278.076 158.638V153.135ZM284.274 160.287C283.69 160.287 283.187 160.168 282.765 159.932C282.346 159.693 282.023 159.355 281.796 158.919C281.57 158.48 281.456 157.961 281.456 157.362C281.456 156.778 281.57 156.265 281.796 155.824C282.023 155.382 282.342 155.038 282.754 154.792C283.168 154.545 283.654 154.422 284.211 154.422C284.586 154.422 284.934 154.483 285.257 154.603C285.583 154.722 285.866 154.9 286.108 155.14C286.352 155.379 286.542 155.679 286.677 156.042C286.813 156.402 286.881 156.823 286.881 157.306V157.739H282.085V156.763H285.398C285.398 156.536 285.349 156.335 285.25 156.16C285.151 155.985 285.015 155.848 284.84 155.75C284.667 155.649 284.466 155.598 284.237 155.598C283.998 155.598 283.786 155.654 283.601 155.764C283.418 155.873 283.275 156.02 283.172 156.204C283.068 156.387 283.015 156.59 283.013 156.815V157.743C283.013 158.024 283.065 158.267 283.168 158.471C283.274 158.676 283.423 158.834 283.616 158.944C283.808 159.055 284.036 159.111 284.3 159.111C284.475 159.111 284.635 159.086 284.78 159.037C284.926 158.988 285.05 158.914 285.154 158.815C285.257 158.716 285.336 158.596 285.39 158.453L286.847 158.549C286.773 158.899 286.622 159.205 286.393 159.466C286.166 159.725 285.872 159.927 285.513 160.072C285.155 160.215 284.742 160.287 284.274 160.287Z" fill="white"/>
<path d="M234.583 186.342C233.947 186.34 233.4 186.183 232.941 185.873C232.485 185.562 232.134 185.112 231.887 184.523C231.643 183.934 231.523 183.225 231.525 182.397C231.525 181.571 231.647 180.867 231.891 180.285C232.138 179.704 232.489 179.261 232.945 178.958C233.403 178.652 233.95 178.499 234.583 178.499C235.217 178.499 235.761 178.652 236.217 178.958C236.676 179.264 237.028 179.707 237.275 180.289C237.521 180.868 237.644 181.571 237.641 182.397C237.641 183.227 237.518 183.937 237.271 184.527C237.027 185.116 236.677 185.566 236.221 185.876C235.765 186.187 235.219 186.342 234.583 186.342ZM234.583 185.015C235.017 185.015 235.363 184.797 235.622 184.36C235.881 183.924 236.009 183.269 236.007 182.397C236.007 181.822 235.948 181.344 235.829 180.962C235.713 180.58 235.548 180.293 235.334 180.1C235.122 179.908 234.871 179.812 234.583 179.812C234.152 179.812 233.807 180.028 233.548 180.459C233.289 180.891 233.158 181.536 233.156 182.397C233.156 182.979 233.214 183.464 233.33 183.854C233.448 184.241 233.614 184.532 233.829 184.726C234.043 184.919 234.295 185.015 234.583 185.015ZM238.783 186.176V185.022L241.478 182.526C241.708 182.304 241.9 182.105 242.055 181.927C242.213 181.75 242.332 181.576 242.414 181.406C242.495 181.233 242.536 181.047 242.536 180.847C242.536 180.626 242.485 180.434 242.384 180.274C242.283 180.112 242.145 179.987 241.97 179.901C241.795 179.812 241.597 179.768 241.375 179.768C241.143 179.768 240.941 179.815 240.768 179.908C240.596 180.002 240.463 180.136 240.369 180.311C240.275 180.486 240.229 180.695 240.229 180.936H238.709C238.709 180.441 238.821 180.01 239.045 179.646C239.27 179.281 239.584 178.999 239.988 178.799C240.392 178.599 240.858 178.499 241.386 178.499C241.928 178.499 242.4 178.596 242.802 178.788C243.206 178.978 243.521 179.241 243.745 179.579C243.969 179.917 244.082 180.304 244.082 180.74C244.082 181.026 244.025 181.308 243.911 181.587C243.8 181.866 243.602 182.175 243.316 182.515C243.03 182.853 242.627 183.258 242.107 183.732L241.001 184.815V184.867H244.181V186.176H238.783ZM248.655 178.248L246.214 187.315H244.857L247.298 178.248H248.655ZM249.399 186.176V185.022L252.094 182.526C252.324 182.304 252.516 182.105 252.671 181.927C252.829 181.75 252.949 181.576 253.03 181.406C253.111 181.233 253.152 181.047 253.152 180.847C253.152 180.626 253.101 180.434 253 180.274C252.899 180.112 252.761 179.987 252.586 179.901C252.411 179.812 252.213 179.768 251.991 179.768C251.759 179.768 251.557 179.815 251.384 179.908C251.212 180.002 251.079 180.136 250.985 180.311C250.891 180.486 250.845 180.695 250.845 180.936H249.325C249.325 180.441 249.437 180.01 249.661 179.646C249.886 179.281 250.2 178.999 250.604 178.799C251.009 178.599 251.474 178.499 252.002 178.499C252.544 178.499 253.016 178.596 253.418 178.788C253.822 178.978 254.137 179.241 254.361 179.579C254.585 179.917 254.698 180.304 254.698 180.74C254.698 181.026 254.641 181.308 254.527 181.587C254.417 181.866 254.218 182.175 253.932 182.515C253.646 182.853 253.243 183.258 252.723 183.732L251.617 184.815V184.867H254.797V186.176H249.399ZM258.723 186.279C258.201 186.279 257.735 186.183 257.326 185.991C256.919 185.799 256.596 185.534 256.357 185.196C256.118 184.858 255.993 184.471 255.983 184.035H257.536C257.554 184.328 257.677 184.566 257.906 184.748C258.136 184.931 258.408 185.022 258.723 185.022C258.975 185.022 259.197 184.967 259.389 184.856C259.584 184.742 259.735 184.586 259.844 184.386C259.955 184.184 260.01 183.952 260.01 183.691C260.01 183.425 259.954 183.191 259.84 182.988C259.729 182.786 259.575 182.628 259.378 182.515C259.181 182.402 258.955 182.344 258.701 182.341C258.479 182.341 258.264 182.387 258.054 182.478C257.847 182.569 257.686 182.694 257.57 182.852L256.146 182.596L256.505 178.603H261.134V179.912H257.825L257.629 181.809H257.673C257.806 181.621 258.007 181.466 258.276 181.343C258.545 181.22 258.845 181.158 259.178 181.158C259.634 181.158 260.041 181.265 260.398 181.48C260.756 181.694 261.038 181.989 261.245 182.363C261.452 182.736 261.555 183.165 261.552 183.65C261.555 184.161 261.436 184.614 261.197 185.011C260.961 185.405 260.629 185.716 260.203 185.943C259.779 186.167 259.285 186.279 258.723 186.279Z" fill="white"/>
<path d="M255.072 59.602L251.367 59.602L252.465 56.8575L253.974 56.8575L253.151 54.6618L257.679 54.6618L260.835 61.3585L255.964 61.3585L255.209 59.602L255.072 59.602ZM270.235 49.4473C273.049 49.4473 275.313 51.2586 275.313 53.5092C275.313 55.7597 273.049 57.571 270.235 57.571L267.765 57.571L267.765 61.3585L263.168 61.3585L263.168 54.607L269.206 54.607C269.961 54.607 270.579 54.1129 270.579 53.5092C270.579 52.9054 269.961 52.4113 269.206 52.4113L253.014 52.4113L249.377 61.3585L244.574 61.3585L249.995 49.4473L270.235 49.4473Z" fill="#04177F"/>
<path d="M29.0507 82.432V84.5139L26.1089 84.38L27.8229 86.7541L25.9752 87.862L24.5164 85.2079L23.0576 87.862L21.2463 86.7541L22.9361 84.38L20.0186 84.5139V82.432L22.9361 82.5903L21.2463 80.1919L23.0576 79.084L24.5164 81.7381L25.9752 79.084L27.8229 80.1919L26.1089 82.5903L29.0507 82.432Z" fill="white"/>
<path d="M44.2348 82.432V84.5139L41.293 84.38L43.007 86.7541L41.1592 87.862L39.7005 85.2079L38.2417 87.862L36.4304 86.7541L38.1202 84.38L35.2026 84.5139V82.432L38.1202 82.5903L36.4304 80.1919L38.2417 79.084L39.7005 81.7381L41.1592 79.084L43.007 80.1919L41.293 82.5903L44.2348 82.432Z" fill="white"/>
<path d="M59.4296 82.432V84.5139L56.4878 84.38L58.2018 86.7541L56.3541 87.862L54.8953 85.2079L53.4365 87.862L51.6252 86.7541L53.315 84.38L50.3975 84.5139V82.432L53.315 82.5903L51.6252 80.1919L53.4365 79.084L54.8953 81.7381L56.3541 79.084L58.2018 80.1919L56.4878 82.5903L59.4296 82.432Z" fill="white"/>
<path d="M74.6127 82.432V84.5139L71.6709 84.38L73.3849 86.7541L71.5372 87.862L70.0784 85.2079L68.6196 87.862L66.8084 86.7541L68.4981 84.38L65.5806 84.5139V82.432L68.4981 82.5903L66.8084 80.1919L68.6196 79.084L70.0784 81.7381L71.5372 79.084L73.3849 80.1919L71.6709 82.5903L74.6127 82.432Z" fill="white"/>
<path d="M100.335 82.432V84.5139L97.3935 84.38L99.1076 86.7541L97.2598 87.862L95.8011 85.2079L94.3423 87.862L92.531 86.7541L94.2207 84.38L91.3032 84.5139V82.432L94.2207 82.5903L92.531 80.1919L94.3423 79.084L95.8011 81.7381L97.2598 79.084L99.1076 80.1919L97.3935 82.5903L100.335 82.432Z" fill="white"/>
<path d="M115.519 82.432V84.5139L112.578 84.38L114.292 86.7541L112.444 87.862L110.985 85.2079L109.526 87.862L107.715 86.7541L109.405 84.38L106.487 84.5139V82.432L109.405 82.5903L107.715 80.1919L109.526 79.084L110.985 81.7381L112.444 79.084L114.292 80.1919L112.578 82.5903L115.519 82.432Z" fill="white"/>
<path d="M130.714 82.432V84.5139L127.772 84.38L129.486 86.7541L127.639 87.862L126.18 85.2079L124.721 87.862L122.91 86.7541L124.6 84.38L121.682 84.5139V82.432L124.6 82.5903L122.91 80.1919L124.721 79.084L126.18 81.7381L127.639 79.084L129.486 80.1919L127.772 82.5903L130.714 82.432Z" fill="white"/>
<path d="M145.898 82.432V84.5139L142.956 84.38L144.67 86.7541L142.822 87.862L141.364 85.2079L139.905 87.862L138.094 86.7541L139.783 84.38L136.866 84.5139V82.432L139.783 82.5903L138.094 80.1919L139.905 79.084L141.364 81.7381L142.822 79.084L144.67 80.1919L142.956 82.5903L145.898 82.432Z" fill="white"/>
<path d="M171.62 82.432V84.5139L168.678 84.38L170.392 86.7541L168.544 87.862L167.086 85.2079L165.627 87.862L163.816 86.7541L165.505 84.38L162.588 84.5139V82.432L165.505 82.5903L163.816 80.1919L165.627 79.084L167.086 81.7381L168.544 79.084L170.392 80.1919L168.678 82.5903L171.62 82.432Z" fill="white"/>
<path d="M186.804 82.432V84.5139L183.862 84.38L185.576 86.7541L183.728 87.862L182.269 85.2079L180.811 87.862L178.999 86.7541L180.689 84.38L177.771 84.5139V82.432L180.689 82.5903L178.999 80.1919L180.811 79.084L182.269 81.7381L183.728 79.084L185.576 80.1919L183.862 82.5903L186.804 82.432Z" fill="white"/>
<path d="M201.999 82.432V84.5139L199.057 84.38L200.771 86.7541L198.923 87.862L197.465 85.2079L196.006 87.862L194.195 86.7541L195.884 84.38L192.967 84.5139V82.432L195.884 82.5903L194.195 80.1919L196.006 79.084L197.465 81.7381L198.923 79.084L200.771 80.1919L199.057 82.5903L201.999 82.432Z" fill="white"/>
<path d="M217.183 82.432V84.5139L214.241 84.38L215.955 86.7541L214.107 87.862L212.648 85.2079L211.189 87.862L209.378 86.7541L211.068 84.38L208.15 84.5139V82.432L211.068 82.5903L209.378 80.1919L211.189 79.084L212.648 81.7381L214.107 79.084L215.955 80.1919L214.241 82.5903L217.183 82.432Z" fill="white"/>
<path d="M233.144 102.216V99.7563L241.142 91.587C243.282 89.4442 244.352 87.6059 244.352 86.0718C244.352 84.7935 243.963 83.7952 243.185 83.089C242.407 82.3707 241.458 82.0176 240.34 82.0176C238.201 82.0176 236.645 83.0281 235.672 85.0613L233.144 83.5638C233.861 82.0907 234.845 80.9828 236.11 80.228C237.374 79.4731 238.772 79.0957 240.304 79.0957C242.2 79.0957 243.853 79.7166 245.263 80.9706C246.674 82.2246 247.366 83.9169 247.366 86.0353C247.366 88.3242 246.017 90.8322 243.318 93.535L237.532 99.3058H247.78V102.228H233.144V102.216Z" fill="white"/>
<path d="M261.382 88.8234C263.108 89.1522 264.531 89.8948 265.637 91.0636C266.743 92.2324 267.29 93.7177 267.29 95.5074C267.29 97.711 266.536 99.452 265.017 100.73C263.497 102.009 261.674 102.642 259.51 102.642C257.784 102.642 256.252 102.252 254.915 101.461C253.578 100.669 252.63 99.5372 252.07 98.0397L254.599 96.5422C255.267 98.6363 256.909 99.6833 259.522 99.6833C260.92 99.6833 262.063 99.3181 262.95 98.5754C263.838 97.8449 264.275 96.8101 264.275 95.4952C264.275 94.1803 263.838 93.1455 262.95 92.4028C262.063 91.6602 260.92 91.2828 259.522 91.2828H258.744L257.541 89.4322L262.792 82.3343H252.715V79.5098H266.317L266.305 82.1517L261.382 88.8234Z" fill="white"/>
<path d="M289.658 95.0813V97.9058H286.911V102.216H283.896V97.9058H272.335V95.0813L280.468 79.5098H283.702L275.569 95.0813H283.896V88.653H286.911V95.0813H289.658Z" fill="white"/>
<path d="M301.511 88.373C303.65 88.373 305.462 89.0061 306.945 90.2722C308.428 91.5384 309.169 93.2794 309.169 95.5074C309.169 97.711 308.416 99.452 306.908 100.73C305.401 102.009 303.565 102.642 301.401 102.642C299.675 102.642 298.131 102.228 296.77 101.388C295.408 100.56 294.46 99.3546 293.925 97.7719L296.478 96.3109C296.782 97.4188 297.366 98.2467 298.229 98.8189C299.092 99.3911 300.149 99.6833 301.401 99.6833C302.824 99.6833 303.979 99.3181 304.866 98.5754C305.753 97.8449 306.191 96.8101 306.191 95.4952C306.191 94.1803 305.753 93.1455 304.866 92.4028C303.979 91.6602 302.848 91.2828 301.462 91.2828H295.056L295.87 79.5098H308.306V82.3343H298.618L298.216 88.373H301.511Z" fill="white"/>
</g>
</g>
<defs>
<filter id="filter0_i_1345_4010" x="0" y="0.634766" width="332.579" height="217.579" filterUnits="userSpaceOnUse" color-interpolation-filters="sRGB">
<feFlood flood-opacity="0" result="BackgroundImageFix"/>
<feBlend mode="normal" in="SourceGraphic" in2="BackgroundImageFix" result="shape"/>
<feColorMatrix in="SourceAlpha" type="matrix" values="0 0 0 0 0 0 0 0 0 0 0 0 0 0 0 0 0 0 127 0" result="hardAlpha"/>
<feOffset dx="12.3651" dy="10.4127"/>
<feGaussianBlur stdDeviation="1.78968"/>
<feComposite in2="hardAlpha" operator="arithmetic" k2="-1" k3="1"/>
<feColorMatrix type="matrix" values="0 0 0 0 0 0 0 0 0 0 0 0 0 0 0 0 0 0 0.25 0"/>
<feBlend mode="normal" in2="shape" result="effect1_innerShadow_1345_4010"/>
</filter>
<linearGradient id="paint0_linear_1345_4010" x1="4.78704" y1="84.535" x2="329.017" y2="127.773" gradientUnits="userSpaceOnUse">
<stop stop-color="#1C0CF9"/>
<stop offset="1" stop-color="#19DFDF"/>
</linearGradient>
<clipPath id="clip0_1345_4010">
<rect y="0.634766" width="329" height="214" rx="12.0397" fill="white"/>
</clipPath>
</defs>
</svg>
