<svg width="159" height="97" viewBox="0 0 159 97" fill="none" xmlns="http://www.w3.org/2000/svg">
<g filter="url(#filter0_bi_963_2539)">
<g clip-path="url(#clip0_963_2539)">
<rect width="158.825" height="96.2196" rx="5.04207" fill="url(#paint0_linear_963_2539)" fill-opacity="0.4"/>
<g filter="url(#filter1_i_963_2539)">
<circle cx="147.48" cy="87.3945" r="29.4121" fill="url(#paint1_linear_963_2539)"/>
</g>
<g filter="url(#filter2_i_963_2539)">
<circle cx="152.522" cy="91.1752" r="25.2104" fill="url(#paint2_angular_963_2539)"/>
</g>
<g filter="url(#filter3_dii_963_2539)">
<circle cx="156.724" cy="94.9579" r="21.0086" fill="url(#paint3_angular_963_2539)" shape-rendering="crispEdges"/>
</g>
<path d="M20.1785 41.8672V42.6211L19.1129 42.5754L19.7368 43.4345L19.0673 43.8366L18.5391 42.8725L18.0108 43.8366L17.355 43.4345L17.9652 42.5754L16.9087 42.6257V41.8717L17.9652 41.9311L17.355 41.0584L18.0108 40.6562L18.5391 41.6204L19.0673 40.6562L19.7368 41.0584L19.1174 41.9311L20.1785 41.8672Z" fill="white"/>
<path d="M25.68 41.8613V42.6153L24.6143 42.5696L25.2382 43.4287L24.5688 43.8308L24.0405 42.8666L23.5122 43.8308L22.8565 43.4287L23.4667 42.5696L22.4102 42.6199V41.8659L23.4667 41.9253L22.8565 41.0525L23.5122 40.6504L24.0405 41.6146L24.5688 40.6504L25.2382 41.0525L24.6189 41.9253L25.68 41.8613Z" fill="white"/>
<path d="M31.181 41.8574V42.6114L30.1153 42.5657L30.7392 43.4248L30.0698 43.8269L29.5415 42.8627L29.0132 43.8269L28.3574 43.4248L28.9677 42.5657L27.9111 42.6159V41.862L28.9677 41.9214L28.3574 41.0486L29.0132 40.6465L29.5415 41.6107L30.0698 40.6465L30.7392 41.0486L30.1199 41.9214L31.181 41.8574Z" fill="white"/>
<path d="M36.6824 41.8535V42.6075L35.6168 42.5618L36.2407 43.4208L35.5712 43.823L35.043 42.8588L34.5147 43.823L33.8589 43.4208L34.4691 42.5618L33.4126 42.612V41.8581L34.4691 41.9175L33.8589 41.0447L34.5147 40.6426L35.043 41.6067L35.5712 40.6426L36.2407 41.0447L35.6213 41.9175L36.6824 41.8535Z" fill="white"/>
<path d="M45.9954 41.8437V42.5977L44.9298 42.552L45.5537 43.4111L44.8842 43.8132L44.356 42.849L43.8277 43.8132L43.1719 43.4111L43.7821 42.552L42.7256 42.6023V41.8483L43.7821 41.9077L43.1719 41.0349L43.8277 40.6328L44.356 41.597L44.8842 40.6328L45.5537 41.0349L44.9343 41.9077L45.9954 41.8437Z" fill="white"/>
<path d="M51.497 41.8437V42.5977L50.4314 42.552L51.0553 43.4111L50.3858 43.8132L49.8575 42.849L49.3293 43.8132L48.6735 43.4111L49.2837 42.552L48.2272 42.6023V41.8483L49.2837 41.9077L48.6735 41.0349L49.3293 40.6328L49.8575 41.597L50.3858 40.6328L51.0553 41.0349L50.4359 41.9077L51.497 41.8437Z" fill="white"/>
<path d="M56.9985 41.8405V42.5945L55.9283 42.5442L56.5522 43.4033L55.8828 43.8054L55.3545 42.8412L54.8262 43.8054L54.1704 43.4033L54.7807 42.5442L53.7241 42.5945V41.8405L54.7807 41.8999L54.1704 41.0271L54.8262 40.625L55.3545 41.5892L55.8828 40.625L56.5522 41.0271L55.9329 41.8999L56.9985 41.8405Z" fill="white"/>
<path d="M62.5 41.8359V42.5899L61.4298 42.5442L62.0537 43.4033L61.3842 43.8054L60.856 42.8412L60.3277 43.8054L59.6719 43.4033L60.2821 42.5442L59.2256 42.5945V41.8405L60.2821 41.8999L59.6719 41.0271L60.3277 40.625L60.856 41.5892L61.3842 40.625L62.0537 41.0225L61.4343 41.8953L62.5 41.8359Z" fill="white"/>
<path d="M71.8131 41.8262V42.5801L70.7474 42.5344L71.3713 43.3935L70.7019 43.7956L70.1736 42.8315L69.6453 43.7956L68.9895 43.3935L69.5998 42.5344L68.5432 42.5847V41.8307L69.5998 41.8901L68.9895 41.0174L69.6453 40.6152L70.1736 41.5794L70.7019 40.6152L71.3713 41.0174L70.752 41.8901L71.8131 41.8262Z" fill="white"/>
<path d="M77.3094 41.8262V42.5801L76.2437 42.5344L76.8676 43.3935L76.1982 43.7956L75.6699 42.8315L75.1416 43.7956L74.4859 43.3935L75.0961 42.5344L74.0396 42.5847V41.8307L75.0961 41.8901L74.4859 41.0174L75.1416 40.6152L75.6699 41.5794L76.1982 40.6152L76.8676 41.0128L76.2483 41.8856L77.3094 41.8262Z" fill="white"/>
<path d="M82.8109 41.8203V42.5743L81.7452 42.5286L82.3691 43.3876L81.6997 43.7898L81.1714 42.8256L80.6431 43.7898L79.9873 43.3876L80.5976 42.5286L79.541 42.5788V41.8249L80.5976 41.8843L79.9873 41.0115L80.6431 40.6094L81.1714 41.5735L81.6997 40.6094L82.3691 41.0115L81.7497 41.8843L82.8109 41.8203Z" fill="white"/>
<path d="M88.3123 41.8164V42.5704L87.2467 42.5247L87.8706 43.3837L87.2011 43.7859L86.6728 42.8217L86.1446 43.7859L85.4888 43.3837L86.099 42.5247L85.0425 42.5749V41.821L86.099 41.8804L85.4888 41.0076L86.1446 40.6055L86.6728 41.5696L87.2011 40.6055L87.8706 41.0076L87.2512 41.8804L88.3123 41.8164Z" fill="white"/>
<path d="M94.1004 48.9906V48.095L96.9968 45.1248C97.771 44.3479 98.1581 43.6808 98.1581 43.1233C98.1581 42.6618 98.0169 42.3008 97.7345 42.0403C97.4522 41.7799 97.1106 41.6519 96.7008 41.6519C95.9266 41.6519 95.3619 42.0221 95.0112 42.7578L94.0958 42.2185C94.3509 41.6839 94.7106 41.2818 95.166 41.0076C95.6214 40.7335 96.1315 40.5964 96.6825 40.5918C97.3702 40.5918 97.9668 40.8203 98.4769 41.2727C98.9869 41.7296 99.2419 42.3374 99.2419 43.1096C99.2419 43.9413 98.7547 44.8506 97.7801 45.833L95.6852 47.9259L99.3968 47.9213V48.9814L94.1004 48.9906Z" fill="white"/>
<path d="M104.32 44.1178C104.948 44.2366 105.458 44.5062 105.859 44.9312C106.26 45.3561 106.46 45.8908 106.46 46.5442C106.46 47.3439 106.187 47.9745 105.641 48.4406C105.094 48.9066 104.429 49.1351 103.646 49.1351C103.022 49.1351 102.466 48.9935 101.979 48.7056C101.496 48.4177 101.15 48.0064 100.945 47.4627L101.861 46.9189C102.102 47.682 102.699 48.0613 103.646 48.0613C104.156 48.0613 104.57 47.9288 104.889 47.6592C105.208 47.3941 105.372 47.0194 105.367 46.5396C105.367 46.0598 105.208 45.6851 104.885 45.4155C104.566 45.1459 104.151 45.0088 103.641 45.0088H103.359L102.926 44.3371L104.825 41.7599L101.178 41.7645V40.7409L106.105 40.7363L106.101 41.6959L104.32 44.1178Z" fill="white"/>
<path d="M114.562 46.3843V47.4078H113.565V48.9752H112.476V47.4078L108.291 47.4124V46.3888L111.233 40.7363H112.408L109.466 46.3888H112.481V44.0584H113.569V46.3888L114.562 46.3843Z" fill="white"/>
<path d="M118.852 43.9461C119.626 43.9461 120.282 44.1746 120.819 44.6316C121.357 45.0885 121.625 45.7237 121.625 46.5325C121.625 47.3321 121.352 47.9627 120.806 48.4288C120.259 48.8949 119.594 49.1234 118.811 49.1234C118.187 49.1234 117.627 48.9726 117.135 48.671C116.643 48.3694 116.297 47.9307 116.101 47.3596L117.026 46.8295C117.135 47.2316 117.349 47.5332 117.659 47.7434C117.973 47.9536 118.356 48.0541 118.806 48.0541C119.321 48.0541 119.74 47.9216 120.063 47.652C120.382 47.387 120.542 47.0123 120.542 46.5325C120.542 46.0527 120.382 45.678 120.059 45.4084C119.735 45.1388 119.326 45.0017 118.825 45.0017H116.502L116.794 40.7292L121.298 40.7246V41.7482L117.791 41.7528L117.65 43.9416L118.852 43.9461Z" fill="white"/>
<path d="M17.6231 71.5459C17.145 71.5459 16.7488 71.386 16.4345 71.0707C16.1203 70.7554 15.9655 70.3624 15.9655 69.9009C15.9655 69.4394 16.1203 69.0464 16.4345 68.7311C16.7442 68.4112 17.1404 68.2559 17.6231 68.2559C17.9146 68.2559 18.1787 68.3244 18.4201 68.4661C18.6615 68.6031 18.8527 68.7905 18.9894 69.0281L18.625 69.2429C18.534 69.0692 18.3973 68.9276 18.2197 68.8225C18.0421 68.7174 17.8417 68.6671 17.6231 68.6671C17.2588 68.6671 16.9582 68.7859 16.7305 69.0235C16.4983 69.2612 16.3844 69.5536 16.3844 69.91C16.3844 70.2619 16.4983 70.5543 16.7305 70.7919C16.9628 71.0296 17.2588 71.1438 17.6231 71.1438C17.8417 71.1438 18.0376 71.0935 18.2197 70.9884C18.3973 70.8833 18.534 70.7462 18.625 70.5726L18.9939 70.7828C18.8619 71.0204 18.6706 71.2078 18.4292 71.3494C18.1787 71.4774 17.9146 71.5459 17.6231 71.5459Z" fill="white"/>
<path d="M21.2848 69.2143H21.6765V71.4854H21.2848V71.097C21.089 71.3986 20.8021 71.5448 20.4286 71.5494C20.1099 71.5494 19.8412 71.4351 19.618 71.2021C19.3949 70.969 19.281 70.6903 19.281 70.3567C19.281 70.0231 19.3903 69.7398 19.6135 69.5113C19.8366 69.2783 20.1053 69.1641 20.4241 69.1641C20.7975 69.1641 21.0844 69.3149 21.2803 69.6119V69.2143H21.2848ZM20.4833 71.1609C20.711 71.1609 20.9023 71.0833 21.0571 70.9279C21.2119 70.7725 21.2894 70.5806 21.2894 70.3476C21.2894 70.1191 21.2119 69.9272 21.0571 69.7672C20.9023 69.6119 20.711 69.5342 20.4833 69.5342C20.2556 69.5342 20.0689 69.6119 19.914 69.7672C19.7592 69.9226 19.6818 70.1145 19.6818 70.3476C19.6818 70.576 19.7592 70.768 19.914 70.9279C20.0643 71.0833 20.2556 71.1609 20.4833 71.1609Z" fill="white"/>
<path d="M22.6689 69.5942C22.7964 69.3109 23.0332 69.1738 23.3748 69.1738V69.5851C23.1835 69.5759 23.015 69.6262 22.8784 69.7404C22.7417 69.8547 22.6689 70.0329 22.6689 70.2797V71.4814H22.2772V69.2104H22.6689V69.5942Z" fill="white"/>
<path d="M25.5106 68.3066H25.9068V71.487H25.5152V71.0986C25.3193 71.4002 25.0324 71.5464 24.659 71.5464C24.3402 71.5464 24.0715 71.4322 23.8484 71.1992C23.6252 70.9661 23.5114 70.6874 23.5114 70.3538C23.5114 70.0202 23.6207 69.7369 23.8438 69.5084C24.067 69.2754 24.3356 69.1611 24.6544 69.1611C25.0279 69.1611 25.3148 69.3119 25.5106 69.609V68.3066ZM24.7091 71.1626C24.9368 71.1626 25.1281 71.0849 25.2829 70.9296C25.4377 70.7742 25.5152 70.5823 25.5152 70.3492C25.5152 70.1207 25.4377 69.9243 25.2829 69.7689C25.1281 69.6135 24.9368 69.5358 24.7091 69.5358C24.4814 69.5358 24.2947 69.6135 24.1398 69.7689C23.985 69.9243 23.9076 70.1162 23.9076 70.3492C23.9076 70.5777 23.985 70.7696 24.1398 70.9296C24.2901 71.0849 24.4814 71.1626 24.7091 71.1626Z" fill="white"/>
<path d="M29.6325 68.3008H30.0469V71.4812H29.6325V70.0509H28.0932V71.4812H27.6742V68.3008H28.0932V69.6488H29.6325V68.3008Z" fill="white"/>
<path d="M32.597 71.1891C32.3647 71.4175 32.0823 71.5363 31.7499 71.5363C31.4174 71.5363 31.1351 71.4221 30.9074 71.1936C30.6797 70.9652 30.5613 70.6818 30.5613 70.3437C30.5613 70.0056 30.6751 69.7268 30.9074 69.4938C31.1396 69.2653 31.4174 69.1465 31.7499 69.1465C32.0823 69.1465 32.3647 69.2607 32.597 69.4892C32.8292 69.7177 32.9476 70.001 32.9476 70.3391C32.9476 70.6773 32.8292 70.9606 32.597 71.1891ZM31.7545 71.1525C31.9822 71.1525 32.1689 71.0748 32.3237 70.9195C32.4786 70.7641 32.556 70.5722 32.556 70.3437C32.556 70.1152 32.4786 69.9233 32.3237 69.7679C32.1689 69.6126 31.9776 69.5349 31.7545 69.5395C31.5313 69.5395 31.3446 69.6171 31.1897 69.7725C31.0349 69.9279 30.9575 70.1198 30.9575 70.3483C30.9575 70.5767 31.0349 70.7687 31.1897 70.924C31.34 71.0748 31.5313 71.1525 31.7545 71.1525Z" fill="white"/>
<path d="M33.412 71.477V68.1641H33.8036L33.8082 71.477H33.412Z" fill="white"/>
<path d="M36.2811 68.2969H36.6728V71.4773H36.2811V71.0889C36.0853 71.3904 35.7984 71.5367 35.425 71.5412C35.1062 71.5412 34.8375 71.427 34.6143 71.194C34.3912 70.9609 34.2773 70.6822 34.2773 70.3486C34.2773 70.015 34.3866 69.7317 34.6098 69.5032C34.8329 69.2748 35.1016 69.1559 35.4204 69.1559C35.7939 69.1559 36.0808 69.3067 36.2766 69.6038L36.2811 68.2969ZM35.4751 71.1528C35.7028 71.1528 35.894 71.0751 36.0489 70.9198C36.2037 70.7644 36.2811 70.5725 36.2811 70.3395C36.2811 70.111 36.2037 69.9145 36.0489 69.7591C35.894 69.6038 35.7028 69.5261 35.4751 69.5261C35.2474 69.5261 35.0606 69.6038 34.9058 69.7591C34.751 69.9145 34.6736 70.1064 34.6736 70.3395C34.6736 70.5679 34.751 70.7598 34.9058 70.9198C35.0606 71.0751 35.2519 71.1528 35.4751 71.1528Z" fill="white"/>
<path d="M37.5471 70.5187C37.5881 70.7197 37.6792 70.8797 37.8249 70.9893C37.9707 71.099 38.1528 71.1584 38.3669 71.1584C38.6674 71.1584 38.8815 71.0487 39.0181 70.8248L39.3551 71.0168C39.1365 71.3595 38.8041 71.5285 38.3578 71.5285C37.998 71.5285 37.7065 71.4143 37.4834 71.1904C37.2602 70.9665 37.1464 70.6786 37.1464 70.3359C37.1464 69.9932 37.2557 69.7099 37.4743 69.4814C37.6929 69.2529 37.9798 69.1387 38.3304 69.1387C38.6629 69.1387 38.9316 69.2575 39.1411 69.4905C39.3505 69.7236 39.4553 70.0069 39.4553 70.3359C39.4553 70.3953 39.4507 70.4501 39.4416 70.5141L37.5471 70.5187ZM38.3304 69.5179C38.1209 69.5179 37.9433 69.5773 37.8067 69.6962C37.6701 69.815 37.5836 69.9749 37.5471 70.176H39.0591C39.0272 69.9612 38.9407 69.7967 38.8041 69.687C38.6674 69.5728 38.5126 69.5179 38.3304 69.5179Z" fill="white"/>
<path d="M40.3024 69.5806C40.4299 69.2972 40.6667 69.1602 41.0083 69.1602V69.5714C40.817 69.5623 40.6485 69.6125 40.5119 69.7268C40.3753 69.841 40.3024 70.0192 40.3024 70.266V71.4678H39.9108V69.1967H40.307V69.5806H40.3024Z" fill="white"/>
<path d="M43.6499 69.1406C43.9141 69.1406 44.1281 69.2229 44.2875 69.3919C44.4469 69.561 44.5289 69.7895 44.5289 70.0774V71.4711H44.1327V70.1002C44.1327 69.9174 44.0826 69.7712 43.9824 69.6707C43.8822 69.5702 43.7456 69.5199 43.5725 69.5199C43.3767 69.5199 43.2173 69.5839 43.0989 69.7027C42.9759 69.8261 42.9167 70.0134 42.9167 70.2693V71.4711H42.5205V69.2H42.9122V69.529C43.0807 69.2686 43.322 69.1406 43.6499 69.1406Z" fill="white"/>
<path d="M46.9517 69.1955H47.3434V71.4665H46.9472V71.0781C46.7513 71.3797 46.4644 71.5259 46.091 71.5259C45.7722 71.5259 45.5035 71.4117 45.2804 71.1786C45.0572 70.9456 44.9434 70.6668 44.9434 70.3333C44.9434 69.9997 45.0527 69.7164 45.2758 69.4879C45.499 69.2549 45.7676 69.1406 46.0864 69.1406C46.4599 69.1406 46.7468 69.2914 46.9426 69.5884L46.9517 69.1955ZM46.1456 71.1421C46.3733 71.1421 46.5646 71.0644 46.7195 70.909C46.8743 70.7537 46.9517 70.5617 46.9517 70.3287C46.9517 70.1002 46.8743 69.9037 46.7195 69.7484C46.5646 69.593 46.3733 69.5153 46.1456 69.5153C45.9179 69.5153 45.7312 69.593 45.5764 69.7484C45.4215 69.9037 45.3441 70.0957 45.3441 70.3287C45.3441 70.5572 45.4215 70.7491 45.5764 70.909C45.7312 71.0644 45.9179 71.1421 46.1456 71.1421Z" fill="white"/>
<path d="M50.3852 69.1328C50.6402 69.1328 50.8452 69.2151 51 69.3796C51.1548 69.5441 51.2368 69.768 51.2368 70.0513V71.4633H50.8452V70.065C50.8452 69.8914 50.7996 69.7543 50.7085 69.6583C50.6175 69.5623 50.4991 69.5121 50.3488 69.5121C50.1803 69.5121 50.0436 69.5715 49.9435 69.6812C49.8433 69.7954 49.7932 69.969 49.7932 70.2021V71.4633H49.397V70.065C49.397 69.8914 49.356 69.7543 49.2695 69.6583C49.1829 69.5623 49.0645 69.5121 48.9188 69.5121C48.7548 69.5121 48.6137 69.5715 48.5044 69.6857C48.3951 69.8 48.3404 69.9736 48.3404 70.2021V71.4633H47.9442V69.1922H48.3359V69.4984C48.4907 69.2562 48.7139 69.1328 49.0099 69.1328C49.315 69.1328 49.5381 69.2608 49.6748 69.5167C49.8296 69.2653 50.0664 69.1374 50.3852 69.1328Z" fill="white"/>
<path d="M52.0565 70.5089C52.0975 70.71 52.1886 70.8699 52.3343 70.9796C52.4801 71.0938 52.6622 71.1486 52.8763 71.1486C53.1768 71.1486 53.3909 71.039 53.5275 70.8151L53.8645 71.007C53.6459 71.3497 53.3134 71.5188 52.8671 71.5188C52.5074 71.5188 52.2159 71.4045 51.9928 71.1806C51.7696 70.9567 51.6558 70.6688 51.6558 70.3261C51.6558 69.9834 51.7651 69.7001 51.9837 69.4716C52.2022 69.2431 52.4892 69.1289 52.8398 69.1289C53.1723 69.1289 53.441 69.2477 53.6505 69.4808C53.8599 69.7138 53.9647 69.9971 53.9647 70.3261C53.9647 70.3855 53.9601 70.4404 53.951 70.5043L52.0565 70.5089ZM52.8398 69.5036C52.6303 69.5036 52.4527 69.563 52.3161 69.6818C52.1795 69.8006 52.093 69.9606 52.0565 70.1616H53.5685C53.5366 69.9469 53.4501 69.7823 53.3135 69.6727C53.1814 69.563 53.022 69.5036 52.8398 69.5036Z" fill="white"/>
<path d="M19.0537 76.0508H20.0101L20.0146 80.9128H19.286L17.2093 77.9426V80.9128H16.253L16.2484 76.0508H16.9725L19.0537 79.0118V76.0508Z" fill="white"/>
<path d="M23.8176 80.4726C23.4624 80.829 23.0298 81.0072 22.5152 81.0072C22.0051 81.0072 21.5679 80.829 21.2172 80.4772C20.8666 80.1253 20.689 79.6912 20.689 79.1748C20.689 78.6631 20.8666 78.229 21.2172 77.8725C21.5725 77.5161 22.0005 77.3425 22.5152 77.3379C23.0298 77.3379 23.4624 77.5161 23.8176 77.868C24.1728 78.2244 24.3505 78.6585 24.3505 79.1703C24.3505 79.6866 24.1728 80.1207 23.8176 80.4726ZM21.8457 79.8603C22.0233 80.0385 22.2465 80.1299 22.5152 80.1299C22.7838 80.1299 23.007 80.0385 23.1846 79.8603C23.3668 79.6775 23.4533 79.449 23.4533 79.1748C23.4533 78.8961 23.3622 78.6676 23.1846 78.4894C23.007 78.3112 22.7793 78.2198 22.5152 78.2198C22.2465 78.2198 22.0233 78.3112 21.8503 78.4894C21.6726 78.6676 21.5816 78.9007 21.5861 79.1748C21.5816 79.4536 21.6681 79.6821 21.8457 79.8603Z" fill="white"/>
<path d="M28.804 77.3379C29.2002 77.3379 29.519 77.4658 29.7558 77.7263C29.9926 77.9868 30.1111 78.3341 30.1111 78.7682V80.9067H29.2184V78.8321C29.2184 78.6219 29.1684 78.462 29.0636 78.3478C28.9634 78.2335 28.8177 78.1741 28.6355 78.1741C28.4306 78.1741 28.2758 78.2427 28.1619 78.3752C28.048 78.5077 27.9934 78.7042 27.9934 78.9601V80.9113H27.1008V78.8367C27.1008 78.6265 27.0507 78.4666 26.946 78.3523C26.8458 78.2381 26.7 78.1787 26.5179 78.1787C26.3175 78.1787 26.1627 78.2472 26.0442 78.3797C25.9258 78.5123 25.8666 78.7088 25.8666 78.9646V80.9158H24.974L24.9695 77.443H25.8621V77.8086C26.0716 77.4978 26.3904 77.3425 26.823 77.3425C27.2465 77.3425 27.5608 77.507 27.7657 77.8405C28.0025 77.5024 28.3486 77.3379 28.804 77.3379Z" fill="white"/>
<path d="M33.5041 77.4299H34.3967L34.4012 80.9028H33.5086V80.4915C33.24 80.8297 32.8665 80.9987 32.3792 80.9987C31.9193 80.9987 31.5231 80.8205 31.1906 80.4687C30.8627 80.1168 30.6942 79.6827 30.6942 79.1664C30.6942 78.6546 30.8582 78.2205 31.1861 77.8641C31.5139 77.5122 31.9102 77.334 32.3747 77.334C32.8574 77.334 33.2354 77.5031 33.5041 77.8412V77.4299ZM31.8601 79.8746C32.0422 80.0574 32.2699 80.1488 32.5477 80.1488C32.8255 80.1488 33.0532 80.0574 33.2354 79.8746C33.4176 79.6919 33.5086 79.4588 33.5086 79.1709C33.5086 78.8831 33.4176 78.65 33.2354 78.4672C33.0532 78.2844 32.8255 78.1931 32.5477 78.1931C32.2699 78.1931 32.0422 78.2844 31.8646 78.4672C31.687 78.65 31.5959 78.8876 31.5959 79.1709C31.5868 79.4542 31.6779 79.6919 31.8601 79.8746Z" fill="white"/>
<path d="M37.1287 77.3301C37.5067 77.3301 37.821 77.458 38.0669 77.7093C38.3128 77.9652 38.4358 78.3171 38.4403 78.7649V80.8989H37.5477V78.8791C37.5477 78.6461 37.484 78.4725 37.361 78.3491C37.238 78.2257 37.0695 78.1663 36.8646 78.1663C36.6323 78.1663 36.4502 78.2394 36.309 78.3811C36.1724 78.5227 36.0995 78.7421 36.1041 79.0254V80.8989H35.2115L35.2069 77.426H36.0995V77.8144C36.3181 77.4946 36.6597 77.3301 37.1287 77.3301Z" fill="white"/>
<path d="M45.7135 76.0319L45.7181 80.8939H44.7708V77.7409L43.4046 79.9983L43.2907 80.0028L41.9291 77.7546V80.8939H40.9727L40.9681 76.0319H41.9518L43.3408 78.3258L44.7207 76.0273L45.7135 76.0319Z" fill="white"/>
<path d="M49.2017 77.4202H50.0943L50.0989 80.893H49.2063V80.4818C48.9376 80.8199 48.5642 80.989 48.0769 80.989C47.6169 80.989 47.2207 80.8108 46.8882 80.4589C46.5603 80.1071 46.3918 79.673 46.3918 79.1566C46.3918 78.6448 46.5558 78.2107 46.8837 77.8543C47.2116 77.4979 47.6078 77.3242 48.0723 77.3242C48.555 77.3242 48.933 77.4933 49.2017 77.8314V77.4202ZM47.5577 79.8603C47.7399 80.0431 47.9676 80.1345 48.2454 80.1345C48.5232 80.1345 48.7509 80.0431 48.933 79.8603C49.1152 79.6775 49.2063 79.4399 49.2063 79.1566C49.2063 78.8687 49.1152 78.6357 48.933 78.4529C48.7509 78.2701 48.5232 78.1787 48.2454 78.1787C47.9676 78.1787 47.7399 78.2701 47.5622 78.4529C47.3846 78.6357 47.2936 78.8687 47.2936 79.1566C47.2844 79.4445 47.3755 79.6775 47.5577 79.8603Z" fill="white"/>
<path d="M52.827 77.3203C53.205 77.3203 53.5192 77.4483 53.7651 77.6996C54.011 77.9555 54.134 78.3073 54.1386 78.7551V80.8891H53.246V78.8694C53.246 78.6363 53.1822 78.4627 53.0592 78.3393C52.9363 78.2159 52.7678 78.1565 52.5628 78.1565C52.3306 78.1565 52.1484 78.2296 52.0072 78.3713C51.8706 78.513 51.7978 78.7323 51.8023 79.0156V80.8891H50.9097L50.9052 77.4163H51.7978V77.8047C52.0118 77.4802 52.3579 77.3203 52.827 77.3203Z" fill="white"/>
<path d="M55.9468 80.0481H57.4816V80.8888H54.7537V80.2948L56.211 78.2568H54.822V77.416H57.4133V78.01L55.9468 80.0481Z" fill="white"/>
<path d="M60.8785 80.4511C60.5233 80.8075 60.0907 80.9857 59.5761 80.9857C59.066 80.9857 58.6288 80.8075 58.2782 80.4557C57.9275 80.1038 57.7499 79.6697 57.7499 79.1533C57.7499 78.6416 57.9275 78.2075 58.2782 77.851C58.6334 77.4946 59.0615 77.321 59.5761 77.3164C60.0907 77.3164 60.5233 77.4946 60.8785 77.8465C61.2338 78.2029 61.4114 78.6324 61.4114 79.1488C61.4114 79.6606 61.2338 80.0947 60.8785 80.4511ZM58.9112 79.8388C59.0888 80.017 59.3119 80.1084 59.5806 80.1084C59.8493 80.1084 60.0725 80.017 60.2501 79.8388C60.4322 79.656 60.5188 79.4275 60.5188 79.1533C60.5188 78.8746 60.4277 78.6461 60.2501 78.4679C60.0725 78.2897 59.8448 78.1983 59.5806 78.1983C59.3119 78.1983 59.0888 78.2897 58.9157 78.4679C58.7381 78.6461 58.647 78.8792 58.6516 79.1533C58.6425 79.4275 58.7336 79.656 58.9112 79.8388Z" fill="white"/>
<path d="M64.9907 80.4465C64.6355 80.8029 64.2029 80.9766 63.6883 80.9812C63.1782 80.9812 62.741 80.803 62.3903 80.4511C62.0397 80.0992 61.8621 79.6651 61.8621 79.1488C61.8621 78.637 62.0397 78.1983 62.3903 77.8465C62.7456 77.49 63.1736 77.3164 63.6883 77.3164C64.2029 77.3164 64.6355 77.4946 64.9907 77.8465C65.3459 78.1983 65.5235 78.6324 65.5235 79.1488C65.5235 79.656 65.3459 80.0901 64.9907 80.4465ZM63.0234 79.8342C63.201 80.017 63.4241 80.1038 63.6928 80.1038C63.9615 80.1038 64.1846 80.0124 64.3623 79.8342C64.5444 79.6514 64.6309 79.423 64.6309 79.1442C64.6309 78.8655 64.5399 78.637 64.3623 78.4588C64.1846 78.276 63.9569 78.1892 63.6928 78.1892C63.4241 78.1892 63.201 78.2806 63.0279 78.4588C62.8503 78.637 62.7592 78.87 62.7638 79.1442C62.7547 79.423 62.8457 79.6514 63.0234 79.8342Z" fill="white"/>
<path d="M67.0447 78.0011C67.1267 77.7772 67.2633 77.6127 67.4546 77.5031C67.6459 77.3934 67.8599 77.334 68.0967 77.334V78.3347C67.8235 78.3027 67.5821 78.3576 67.3681 78.5038C67.154 78.6454 67.0447 78.8831 67.0447 79.2212V80.8799H66.1521L66.1476 77.4071H67.0402V78.0011H67.0447Z" fill="white"/>
<path d="M113.774 71.0192H115.245V71.4167H113.355V68.2363H115.222V68.6384H113.774V69.6163H115.108V70.0093H113.774V71.0192Z" fill="white"/>
<path d="M117.672 71.4123H117.212L116.575 70.5533L115.942 71.4123H115.482L116.347 70.2425L115.532 69.1413H115.996L116.579 69.9273L117.162 69.1367H117.622L116.807 70.238L117.672 71.4123Z" fill="white"/>
<path d="M119.289 69.0859C119.608 69.0859 119.876 69.2002 120.099 69.4332C120.322 69.6663 120.436 69.9496 120.436 70.2786C120.436 70.6122 120.327 70.8955 120.104 71.124C119.881 71.357 119.612 71.4712 119.293 71.4712C118.92 71.4712 118.633 71.3204 118.437 71.0234V72.3212H118.045L118.041 69.1408H118.437V69.5292C118.628 69.2322 118.915 69.0859 119.289 69.0859ZM119.239 71.092C119.466 71.092 119.653 71.0143 119.808 70.8589C119.963 70.7036 120.04 70.5116 120.04 70.2786C120.04 70.0501 119.963 69.8536 119.808 69.6983C119.653 69.5429 119.462 69.4652 119.239 69.4652C119.011 69.4652 118.82 69.5429 118.665 69.6983C118.51 69.8536 118.433 70.0455 118.433 70.2786C118.433 70.5071 118.51 70.699 118.665 70.8589C118.82 71.0143 119.011 71.092 119.239 71.092Z" fill="white"/>
<path d="M121.101 68.7312C121.024 68.7312 120.965 68.7038 120.91 68.6536C120.86 68.6033 120.833 68.5393 120.833 68.4662C120.833 68.3931 120.86 68.3291 120.91 68.2789C120.96 68.224 121.024 68.2012 121.101 68.2012C121.174 68.2012 121.233 68.2286 121.288 68.2789C121.338 68.3337 121.365 68.3931 121.365 68.4662C121.365 68.5393 121.338 68.5987 121.288 68.6536C121.238 68.7038 121.174 68.7312 121.101 68.7312ZM120.905 71.4135V69.1425H121.302V71.4135H120.905Z" fill="white"/>
<path d="M122.29 69.522C122.418 69.2386 122.655 69.1016 122.996 69.1016V69.5128C122.805 69.5037 122.636 69.5539 122.5 69.6682C122.363 69.7824 122.29 69.9606 122.29 70.2074V71.4092H121.899V69.1381H122.295V69.522H122.29Z" fill="white"/>
<path d="M125.013 69.1426H125.432L124.512 71.5553C124.417 71.8112 124.28 72.0077 124.107 72.1448C123.934 72.2773 123.734 72.3412 123.506 72.323V71.9574C123.784 71.9802 123.984 71.8249 124.112 71.4913L124.153 71.4045L123.164 69.1426H123.583L124.339 70.8836L125.013 69.1426Z" fill="white"/>
<path d="M128.169 68.2285C128.602 68.2285 128.957 68.3839 129.244 68.69C129.531 68.9962 129.672 69.3709 129.672 69.8187C129.672 70.262 129.531 70.6412 129.244 70.9474C128.957 71.2535 128.602 71.4089 128.169 71.4089H126.935L126.931 68.2285H128.169ZM128.169 71.0068C128.493 71.0068 128.757 70.8926 128.962 70.6641C129.167 70.4356 129.267 70.1523 129.267 69.8141C129.267 69.476 129.162 69.1927 128.957 68.9642C128.752 68.7357 128.488 68.6261 128.165 68.6261H127.35V71.0068H128.169Z" fill="white"/>
<path d="M132.018 69.1342H132.409V71.4053H132.013V71.0169C131.817 71.3185 131.53 71.4647 131.157 71.4693C130.838 71.4693 130.569 71.355 130.346 71.122C130.123 70.8889 130.009 70.6102 130.009 70.2766C130.009 69.9431 130.119 69.6597 130.342 69.4313C130.565 69.1982 130.834 69.084 131.152 69.084C131.526 69.084 131.813 69.2348 132.009 69.5318L132.018 69.1342ZM131.212 71.0854C131.439 71.0854 131.631 71.0077 131.785 70.8524C131.94 70.697 132.018 70.5051 132.018 70.2721C132.018 70.0436 131.94 69.8471 131.785 69.6917C131.631 69.5364 131.439 69.4587 131.212 69.4587C130.984 69.4587 130.797 69.5364 130.642 69.6917C130.487 69.8471 130.41 70.039 130.41 70.2721C130.41 70.5005 130.487 70.6925 130.642 70.8524C130.797 71.0077 130.984 71.0854 131.212 71.0854Z" fill="white"/>
<path d="M134.235 69.5183H133.634V70.7475C133.634 70.8618 133.657 70.9395 133.698 70.9852C133.744 71.0309 133.807 71.0583 133.898 71.0583C133.989 71.0583 134.099 71.0583 134.235 71.0491V71.4056C133.889 71.4513 133.639 71.4238 133.479 71.3233C133.32 71.2228 133.238 71.0309 133.238 70.7475V69.5183H132.792V69.1391H133.238V68.6227L133.63 68.5039V69.1391H134.231L134.235 69.5183Z" fill="white"/>
<path d="M134.868 70.4484C134.909 70.6494 135 70.8093 135.146 70.919C135.292 71.0333 135.474 71.0881 135.688 71.0881C135.989 71.0881 136.203 70.9784 136.339 70.7545L136.676 70.9464C136.458 71.2892 136.125 71.4582 135.679 71.4582C135.319 71.4582 135.028 71.344 134.805 71.1201C134.581 70.8962 134.468 70.6083 134.468 70.2656C134.468 69.9229 134.577 69.6396 134.795 69.4111C135.014 69.1826 135.301 69.0684 135.652 69.0684C135.984 69.0684 136.253 69.1872 136.467 69.4202C136.676 69.6533 136.781 69.9366 136.781 70.2656C136.781 70.325 136.776 70.3798 136.767 70.4438L134.868 70.4484ZM135.647 69.4431C135.438 69.4431 135.26 69.5025 135.123 69.6213C134.987 69.7401 134.9 69.9 134.864 70.1011H136.376C136.344 69.8863 136.257 69.7218 136.121 69.6121C135.989 69.5025 135.829 69.4431 135.647 69.4431Z" fill="white"/>
<path d="M116.579 80.2467C116.251 80.7036 115.791 80.9321 115.204 80.9367C114.612 80.9367 114.152 80.7082 113.824 80.2512C113.496 79.7943 113.332 79.182 113.332 78.4189C113.332 77.6557 113.496 77.0434 113.824 76.5865C114.152 76.1295 114.612 75.8965 115.199 75.8965C115.791 75.8965 116.247 76.125 116.575 76.5819C116.903 77.0389 117.067 77.6512 117.067 78.4143C117.071 79.1774 116.907 79.7897 116.579 80.2467ZM114.293 79.8126C114.507 80.1416 114.808 80.3061 115.199 80.3061C115.591 80.3061 115.896 80.1416 116.11 79.8126C116.324 79.4836 116.434 79.0175 116.429 78.4143C116.425 77.8111 116.32 77.345 116.106 77.016C115.892 76.687 115.587 76.5179 115.195 76.5179C114.803 76.5179 114.498 76.6824 114.289 77.0114C114.075 77.3404 113.97 77.8065 113.97 78.4143C113.974 79.0175 114.084 79.4836 114.293 79.8126Z" fill="white"/>
<path d="M117.54 80.844V80.3139L119.248 78.5638C119.704 78.1068 119.931 77.7139 119.931 77.3849C119.931 77.1107 119.849 76.9005 119.681 76.7451C119.517 76.5943 119.312 76.5167 119.071 76.5167C118.615 76.5167 118.283 76.736 118.073 77.1701L117.531 76.8502C117.682 76.5349 117.896 76.2973 118.164 76.1328C118.433 75.9683 118.734 75.8906 119.062 75.8906C119.467 75.8906 119.822 76.0231 120.123 76.2927C120.423 76.5623 120.574 76.9233 120.574 77.3757C120.574 77.8692 120.287 78.4039 119.708 78.9796L118.474 80.218H120.665V80.844H117.54Z" fill="white"/>
<path d="M121.566 81.5252L121.206 81.5343L123.97 75.2923L124.33 75.2832L121.566 81.5252Z" fill="white"/>
<path d="M126.776 77.9663C127.145 78.0348 127.45 78.1947 127.682 78.4461C127.919 78.6974 128.037 79.0127 128.037 79.3965C128.037 79.8672 127.878 80.2419 127.555 80.5161C127.231 80.7902 126.84 80.9273 126.38 80.9273C126.011 80.9273 125.683 80.8451 125.396 80.676C125.109 80.5069 124.909 80.2647 124.786 79.9449L125.323 79.625C125.464 80.0728 125.815 80.2967 126.375 80.2967C126.676 80.2967 126.922 80.219 127.108 80.0591C127.295 79.8992 127.391 79.6798 127.391 79.4011C127.391 79.1178 127.295 78.8984 127.108 78.7385C126.917 78.5786 126.676 78.5009 126.375 78.5009H126.211L125.956 78.1033L127.076 76.5817H124.922V75.9785H127.828L127.823 76.5451L126.776 77.9663Z" fill="white"/>
<path d="M131.854 80.2369C131.526 80.6939 131.066 80.9269 130.478 80.9269C129.886 80.9269 129.426 80.6984 129.098 80.2415C128.77 79.7845 128.606 79.1722 128.606 78.4091C128.606 77.646 128.77 77.0337 129.098 76.5767C129.426 76.1198 129.886 75.8913 130.474 75.8867C131.066 75.8867 131.521 76.1152 131.849 76.5721C132.177 77.0291 132.341 77.6414 132.341 78.4045C132.341 79.1676 132.181 79.7754 131.854 80.2369ZM129.572 79.7982C129.786 80.1272 130.087 80.2917 130.478 80.2917C130.87 80.2917 131.175 80.1272 131.389 79.7982C131.603 79.4692 131.712 79.0031 131.712 78.4045C131.712 77.8013 131.603 77.3353 131.389 77.0063C131.175 76.6772 130.87 76.5082 130.478 76.5127C130.087 76.5127 129.781 76.6772 129.572 77.0063C129.358 77.3353 129.253 77.8014 129.253 78.4091C129.253 79.0077 129.358 79.4692 129.572 79.7982Z" fill="white"/>
<path d="M31.3767 16.866L31.3812 24.9997C31.3812 25.9593 30.5979 26.7453 29.6461 26.7453L18.4522 26.7544C17.4913 26.7544 16.708 25.9685 16.708 25.0135L16.6989 16.8797C16.6989 15.9155 17.4822 15.1341 18.4385 15.1341L29.637 15.125C30.5934 15.125 31.3767 15.9018 31.3767 16.866Z" fill="#F6C859"/>
<path d="M22.3599 25.2002C22.2961 25.2002 22.2369 25.1682 22.2096 25.1088C22.1686 25.0266 22.2005 24.9215 22.2825 24.8803C22.5284 24.7524 22.8608 24.5148 23.0567 24.1081C23.3026 23.5872 23.2388 23.0205 23.1341 22.9703C23.1068 22.9566 23.0066 23.0114 22.9428 23.0434C22.7834 23.1256 22.5603 23.2399 22.3052 23.1485C22.0548 23.0617 21.9318 22.8378 21.8726 22.7281C21.4855 22.0198 21.3671 20.1829 21.7724 19.269C21.909 18.9674 22.0912 18.7846 22.3189 18.7298C22.5512 18.6749 22.7424 18.7709 22.8927 18.8531C23.0157 18.9171 23.0794 18.9445 23.1204 18.9217C23.2798 18.8257 23.2753 18.2408 23.0521 17.7793C22.8563 17.368 22.5238 17.1304 22.2779 17.007C22.1959 16.9659 22.1595 16.8608 22.205 16.7786C22.246 16.6963 22.3508 16.6598 22.4327 16.7055C22.7242 16.8562 23.125 17.1396 23.3572 17.6376C23.5895 18.1266 23.6988 18.9719 23.2935 19.2187C23.0885 19.3421 22.8927 19.2415 22.7379 19.1639C22.6195 19.1045 22.5056 19.045 22.3963 19.0725C22.246 19.109 22.1458 19.2781 22.0821 19.4152C21.7269 20.2148 21.8316 21.9513 22.1686 22.5727C22.2278 22.6778 22.2961 22.7921 22.4145 22.8332C22.5284 22.8743 22.6377 22.824 22.788 22.7464C22.9383 22.6687 23.1022 22.5864 23.2798 22.6687C23.6624 22.856 23.635 23.674 23.3618 24.2589C23.125 24.757 22.7288 25.0403 22.4373 25.1911C22.41 25.1956 22.3827 25.2002 22.3599 25.2002Z" fill="#7D662D"/>
<path d="M21.8445 19.5745H18.7887C18.6931 19.5745 18.6202 19.4968 18.6202 19.4054C18.6202 19.314 18.6931 19.2363 18.7842 19.2363H21.84C21.9356 19.2363 22.0085 19.314 22.0085 19.4054C22.013 19.4968 21.9402 19.5745 21.8445 19.5745Z" fill="#7D662D"/>
<path d="M21.8445 22.6467H18.7887C18.6931 22.6467 18.6202 22.5691 18.6202 22.4777C18.6202 22.3817 18.6977 22.3086 18.7887 22.3086H21.8445C21.9402 22.3086 22.013 22.3863 22.013 22.4777C22.0176 22.5691 21.9402 22.6467 21.8445 22.6467Z" fill="#7D662D"/>
<path d="M25.9254 25.1953C25.898 25.1953 25.8707 25.1907 25.8479 25.177C25.5565 25.0262 25.1557 24.7429 24.9235 24.2449C24.6457 23.66 24.6229 22.842 25.0009 22.6547C25.1785 22.5678 25.347 22.6547 25.4927 22.7278C25.6476 22.8055 25.7569 22.8557 25.8662 22.8146C25.9937 22.7689 26.0665 22.6364 26.1121 22.5541C26.4491 21.9327 26.5493 20.1917 26.1941 19.3966C26.1303 19.2595 26.0301 19.0859 25.8798 19.0539C25.7887 19.031 25.7295 18.9396 25.7523 18.8482C25.7751 18.7569 25.8662 18.702 25.9572 18.7203C26.1849 18.7751 26.3671 18.9533 26.5037 19.2549C26.9136 20.1688 26.7952 22.0104 26.4081 22.7141C26.3489 22.8237 26.2259 23.0476 25.9755 23.1345C25.7204 23.2259 25.4973 23.1116 25.3379 23.0294C25.2741 22.9974 25.1739 22.9471 25.1466 22.9562C25.0464 23.0065 24.9781 23.5731 25.2286 24.0941C25.4244 24.5053 25.7569 24.7429 26.0028 24.8663C26.0848 24.9074 26.1212 25.0125 26.0756 25.0948C26.0483 25.1633 25.9891 25.1953 25.9254 25.1953Z" fill="#7D662D"/>
<path d="M25.2425 18.8891C25.1696 18.8891 25.1059 18.8434 25.0831 18.7748C24.7188 17.6781 25.5704 16.8328 25.8436 16.6957C25.9256 16.65 26.0304 16.6865 26.0713 16.7688C26.1123 16.8511 26.0804 16.9562 25.9985 16.9973C25.8755 17.0612 25.0922 17.733 25.4019 18.6652C25.4338 18.7565 25.3837 18.8525 25.2926 18.8799C25.2789 18.8891 25.2607 18.8891 25.2425 18.8891Z" fill="#7D662D"/>
<path d="M29.491 19.5725H26.4352C26.3396 19.5725 26.2667 19.4948 26.2667 19.4034C26.2667 19.3121 26.3441 19.2344 26.4352 19.2344H29.491C29.5867 19.2344 29.6595 19.3121 29.6595 19.4034C29.6595 19.4948 29.5821 19.5725 29.491 19.5725Z" fill="#7D662D"/>
<path d="M29.4911 22.637H26.4353C26.3397 22.637 26.2668 22.5593 26.2668 22.4679C26.2668 22.3719 26.3443 22.2988 26.4353 22.2988H29.4911C29.5868 22.2988 29.6596 22.3765 29.6596 22.4679C29.6596 22.5639 29.5868 22.637 29.4911 22.637Z" fill="#7D662D"/>
<g filter="url(#filter4_d_963_2539)">
<path d="M112.753 24.1959L111.499 24.2177L111.854 23.2833L112.365 23.2743L112.074 22.5368L113.607 22.51L114.715 24.7558L113.066 24.7845L112.8 24.1951L112.753 24.1959ZM117.829 20.6727C118.781 20.656 119.559 21.2552 119.572 22.0161C119.585 22.7771 118.829 23.403 117.876 23.4196L117.04 23.4342L117.062 24.7148L115.505 24.742L115.466 22.4591L117.51 22.4234C117.766 22.4189 117.972 22.2483 117.969 22.0441C117.965 21.8399 117.753 21.6765 117.497 21.681L112.014 21.7766L110.835 24.8234L109.209 24.8518L110.974 20.7922L117.829 20.6727Z" fill="#04177F"/>
<path d="M121.28 24.2998L120.512 24.299L120.387 24.5876L119.618 24.5869L120.472 22.6688L121.303 22.6696L122.153 24.5893L121.384 24.5885L121.26 24.2997L121.28 24.2998ZM121.115 23.8411L120.907 23.3145L120.699 23.8407L121.115 23.8411ZM123.503 24.5905L123.067 23.8939L123.067 24.5901L122.34 24.5894L122.341 22.6705L123.422 22.6716C123.609 22.6717 123.775 22.7059 123.899 22.7569C124.024 22.808 124.128 22.893 124.19 22.978C124.252 23.0799 124.294 23.1818 124.293 23.3007C124.293 23.4365 124.252 23.5384 124.169 23.6402C124.085 23.742 123.961 23.8098 123.794 23.8606L124.292 24.5913L123.503 24.5905ZM123.068 23.5033L123.359 23.5036C123.421 23.5036 123.483 23.4867 123.525 23.4698C123.566 23.4359 123.587 23.4019 123.587 23.351C123.587 23.3 123.566 23.266 123.525 23.232C123.483 23.198 123.442 23.181 123.38 23.181L123.089 23.1807L123.088 23.5033L123.068 23.5033ZM125.249 23.1488L125.249 23.3865L125.976 23.3872L125.976 23.8457L125.249 23.845L125.248 24.1167L126.058 24.1175L126.058 24.593L124.521 24.5915L124.523 22.6726L126.06 22.6741L126.059 23.1495L125.249 23.1488ZM129.113 22.6769L129.112 24.5958L128.385 24.5952L128.386 23.6442L128.031 24.5948L127.408 24.5942L127.056 23.6429L127.055 24.5939L126.328 24.5932L126.33 22.6743L127.223 22.6752L127.741 23.8304L128.241 22.6761L129.134 22.677L129.113 22.6769ZM130.919 24.5975L130.504 24.1047L130.15 24.5968L129.319 24.596L130.089 23.6118L129.3 22.6771L130.152 22.6779L130.567 23.1538L130.9 22.6786L131.731 22.6794L130.982 23.6466L131.791 24.5984L130.94 24.5976L130.919 24.5975ZM134.161 22.6817L133.329 24.0225L133.329 24.5998L132.602 24.5991L132.602 24.0218L131.772 22.6795L132.603 22.6802L132.977 23.3598L133.351 22.6809L134.161 22.6817ZM136.217 23.3459C136.217 23.4648 136.176 23.5836 136.113 23.6685C136.051 23.7703 135.947 23.8381 135.822 23.9059C135.697 23.9568 135.531 23.9906 135.344 23.9904L135.053 23.9901L135.053 24.6015L134.326 24.6008L134.328 22.6819L135.345 22.6828C135.636 22.6831 135.844 22.7512 135.989 22.8702C136.135 22.9892 136.217 23.1421 136.217 23.3459ZM135.262 23.5148C135.407 23.515 135.49 23.4641 135.49 23.3452C135.49 23.2264 135.407 23.1753 135.262 23.1752L135.054 23.175L135.054 23.5316L135.262 23.5318L135.262 23.5148ZM137.172 24.145L137.878 24.1456L137.878 24.6041L136.445 24.6028L136.446 22.6839L137.173 22.6846L137.172 24.145ZM138.815 22.6861L138.814 23.7729C138.813 23.8578 138.834 23.9258 138.876 23.9767C138.917 24.0277 139 24.0618 139.104 24.0619C139.208 24.062 139.291 24.0281 139.333 23.9772C139.374 23.9263 139.416 23.8584 139.416 23.7735L139.417 22.6867L140.144 22.6874L140.143 23.7742C140.143 23.961 140.101 24.1138 139.997 24.2495C139.914 24.3853 139.789 24.4701 139.623 24.5378C139.457 24.6056 139.291 24.6394 139.083 24.6392C138.896 24.639 138.709 24.6049 138.564 24.5368C138.418 24.4688 138.294 24.3668 138.211 24.2478C138.128 24.1119 138.086 23.959 138.086 23.7722L138.088 22.6854L138.815 22.6861ZM141.868 23.3513C141.847 23.3173 141.805 23.2833 141.743 23.2662C141.681 23.2492 141.618 23.2322 141.556 23.2321C141.411 23.232 141.307 23.2658 141.224 23.3507C141.14 23.4185 141.099 23.5204 141.099 23.6562C141.099 23.809 141.14 23.911 141.223 23.9959C141.306 24.064 141.431 24.115 141.618 24.1152C141.784 24.1153 141.929 24.0645 142.012 23.9458L141.431 23.9452L141.431 23.5207L142.615 23.5218L142.615 24.1161C142.511 24.2519 142.386 24.3876 142.199 24.4893C142.033 24.5911 141.804 24.6418 141.534 24.6415C141.285 24.6413 141.077 24.6071 140.911 24.5221C140.724 24.437 140.6 24.318 140.496 24.1821C140.392 24.0291 140.351 23.8593 140.351 23.6725C140.351 23.4857 140.393 23.3159 140.497 23.1632C140.601 23.0104 140.726 22.8917 140.913 22.8239C141.079 22.7392 141.287 22.7054 141.536 22.7057C141.847 22.706 142.076 22.7741 142.284 22.8932C142.47 23.0122 142.595 23.1821 142.615 23.3859L141.847 23.3852L141.868 23.3513Z" fill="#04177F"/>
</g>
</g>
</g>
<defs>
<filter id="filter0_bi_963_2539" x="-13.4455" y="-13.4455" width="185.716" height="123.11" filterUnits="userSpaceOnUse" color-interpolation-filters="sRGB">
<feFlood flood-opacity="0" result="BackgroundImageFix"/>
<feGaussianBlur in="BackgroundImageFix" stdDeviation="6.72277"/>
<feComposite in2="SourceAlpha" operator="in" result="effect1_backgroundBlur_963_2539"/>
<feBlend mode="normal" in="SourceGraphic" in2="effect1_backgroundBlur_963_2539" result="shape"/>
<feColorMatrix in="SourceAlpha" type="matrix" values="0 0 0 0 0 0 0 0 0 0 0 0 0 0 0 0 0 0 127 0" result="hardAlpha"/>
<feOffset dx="3.36138" dy="3.36138"/>
<feGaussianBlur stdDeviation="2.52104"/>
<feComposite in2="hardAlpha" operator="arithmetic" k2="-1" k3="1"/>
<feColorMatrix type="matrix" values="0 0 0 0 0 0 0 0 0 0 0 0 0 0 0 0 0 0 0.3 0"/>
<feBlend mode="normal" in2="shape" result="effect2_innerShadow_963_2539"/>
</filter>
<filter id="filter1_i_963_2539" x="118.068" y="57.9824" width="58.8242" height="62.1856" filterUnits="userSpaceOnUse" color-interpolation-filters="sRGB">
<feFlood flood-opacity="0" result="BackgroundImageFix"/>
<feBlend mode="normal" in="SourceGraphic" in2="BackgroundImageFix" result="shape"/>
<feColorMatrix in="SourceAlpha" type="matrix" values="0 0 0 0 0 0 0 0 0 0 0 0 0 0 0 0 0 0 127 0" result="hardAlpha"/>
<feOffset dy="3.36138"/>
<feGaussianBlur stdDeviation="2.94121"/>
<feComposite in2="hardAlpha" operator="arithmetic" k2="-1" k3="1"/>
<feColorMatrix type="matrix" values="0 0 0 0 0 0 0 0 0 0 0 0 0 0 0 0 0 0 0.25 0"/>
<feBlend mode="normal" in2="shape" result="effect1_innerShadow_963_2539"/>
</filter>
<filter id="filter2_i_963_2539" x="127.312" y="65.9648" width="50.4208" height="52.1006" filterUnits="userSpaceOnUse" color-interpolation-filters="sRGB">
<feFlood flood-opacity="0" result="BackgroundImageFix"/>
<feBlend mode="normal" in="SourceGraphic" in2="BackgroundImageFix" result="shape"/>
<feColorMatrix in="SourceAlpha" type="matrix" values="0 0 0 0 0 0 0 0 0 0 0 0 0 0 0 0 0 0 127 0" result="hardAlpha"/>
<feOffset dy="1.68069"/>
<feGaussianBlur stdDeviation="1.68069"/>
<feComposite in2="hardAlpha" operator="arithmetic" k2="-1" k3="1"/>
<feColorMatrix type="matrix" values="0 0 0 0 0 0 0 0 0 0 0 0 0 0 0 0 0 0 0.25 0"/>
<feBlend mode="normal" in2="shape" result="effect1_innerShadow_963_2539"/>
</filter>
<filter id="filter3_dii_963_2539" x="134.035" y="73.9492" width="45.3787" height="45.379" filterUnits="userSpaceOnUse" color-interpolation-filters="sRGB">
<feFlood flood-opacity="0" result="BackgroundImageFix"/>
<feColorMatrix in="SourceAlpha" type="matrix" values="0 0 0 0 0 0 0 0 0 0 0 0 0 0 0 0 0 0 127 0" result="hardAlpha"/>
<feOffset dy="1.68069"/>
<feGaussianBlur stdDeviation="0.840346"/>
<feComposite in2="hardAlpha" operator="out"/>
<feColorMatrix type="matrix" values="0 0 0 0 0 0 0 0 0 0 0 0 0 0 0 0 0 0 0.25 0"/>
<feBlend mode="normal" in2="BackgroundImageFix" result="effect1_dropShadow_963_2539"/>
<feBlend mode="normal" in="SourceGraphic" in2="effect1_dropShadow_963_2539" result="shape"/>
<feColorMatrix in="SourceAlpha" type="matrix" values="0 0 0 0 0 0 0 0 0 0 0 0 0 0 0 0 0 0 127 0" result="hardAlpha"/>
<feOffset dx="3.36138" dy="1.68069"/>
<feGaussianBlur stdDeviation="0.840346"/>
<feComposite in2="hardAlpha" operator="arithmetic" k2="-1" k3="1"/>
<feColorMatrix type="matrix" values="0 0 0 0 1 0 0 0 0 1 0 0 0 0 1 0 0 0 0.13 0"/>
<feBlend mode="normal" in2="shape" result="effect2_innerShadow_963_2539"/>
<feColorMatrix in="SourceAlpha" type="matrix" values="0 0 0 0 0 0 0 0 0 0 0 0 0 0 0 0 0 0 127 0" result="hardAlpha"/>
<feOffset dy="1.68069"/>
<feGaussianBlur stdDeviation="1.89078"/>
<feComposite in2="hardAlpha" operator="arithmetic" k2="-1" k3="1"/>
<feColorMatrix type="matrix" values="0 0 0 0 0 0 0 0 0 0 0 0 0 0 0 0 0 0 0.25 0"/>
<feBlend mode="normal" in2="effect2_innerShadow_963_2539" result="effect3_innerShadow_963_2539"/>
</filter>
<filter id="filter4_d_963_2539" x="107.528" y="20.6719" width="36.7681" height="7.54107" filterUnits="userSpaceOnUse" color-interpolation-filters="sRGB">
<feFlood flood-opacity="0" result="BackgroundImageFix"/>
<feColorMatrix in="SourceAlpha" type="matrix" values="0 0 0 0 0 0 0 0 0 0 0 0 0 0 0 0 0 0 127 0" result="hardAlpha"/>
<feOffset dy="1.68069"/>
<feGaussianBlur stdDeviation="0.840346"/>
<feComposite in2="hardAlpha" operator="out"/>
<feColorMatrix type="matrix" values="0 0 0 0 0 0 0 0 0 0 0 0 0 0 0 0 0 0 0.25 0"/>
<feBlend mode="normal" in2="BackgroundImageFix" result="effect1_dropShadow_963_2539"/>
<feBlend mode="normal" in="SourceGraphic" in2="effect1_dropShadow_963_2539" result="shape"/>
</filter>
<linearGradient id="paint0_linear_963_2539" x1="153.573" y1="2.73111" x2="23.1095" y2="79.6227" gradientUnits="userSpaceOnUse">
<stop stop-color="#0063F8"/>
<stop offset="1" stop-color="#071DE2"/>
</linearGradient>
<linearGradient id="paint1_linear_963_2539" x1="147.48" y1="57.9824" x2="147.48" y2="116.807" gradientUnits="userSpaceOnUse">
<stop stop-color="#039DF3"/>
<stop offset="1" stop-color="#08ECEC" stop-opacity="0.58"/>
</linearGradient>
<radialGradient id="paint2_angular_963_2539" cx="0" cy="0" r="1" gradientUnits="userSpaceOnUse" gradientTransform="translate(146.22 82.5617) rotate(42.1936) scale(30.3413)">
<stop stop-color="#09ABF0"/>
<stop offset="1" stop-color="#553AC1" stop-opacity="0.86"/>
</radialGradient>
<radialGradient id="paint3_angular_963_2539" cx="0" cy="0" r="1" gradientUnits="userSpaceOnUse" gradientTransform="translate(150.001 85.609) rotate(105.811) scale(12.3367)">
<stop stop-color="#0325A0"/>
<stop offset="1" stop-color="#0D3FF1" stop-opacity="0.91"/>
</radialGradient>
<clipPath id="clip0_963_2539">
<rect width="158.825" height="96.2196" rx="5.04207" fill="white"/>
</clipPath>
</defs>
</svg>
