<svg width="538" height="400" viewBox="0 0 538 400" fill="none" xmlns="http://www.w3.org/2000/svg">
<g filter="url(#filter0_i_1352_4362)">
<path d="M251.464 135.742C275.387 132.353 298.06 122.997 317.619 108.826C346.838 87.6495 407.994 51.6168 466.325 69.5661C546.786 94.3222 547.146 165.943 526.189 204.849C505.232 243.756 356.61 357.679 163.935 339.553C-8.47545 323.32 -42.0791 137.642 49.8772 104.045C129.632 74.9043 156.845 149.158 251.464 135.742Z" fill="url(#paint0_linear_1352_4362)"/>
</g>
<g filter="url(#filter1_d_1352_4362)">
<path d="M213.713 3.36107V74.0918C213.713 75.9489 212.209 77.4529 210.352 77.4529H90.6384C88.7813 77.4529 87.2773 75.9489 87.2773 74.0918V3.36107C87.2773 1.50401 88.7813 0 90.6384 0H210.352C212.209 0 213.713 1.50401 213.713 3.36107Z" fill="white"/>
<path d="M140.094 43.43C140.094 49.1707 137.919 54.4029 134.353 58.3571C130.272 62.8762 124.376 65.7077 117.809 65.7077C105.501 65.7077 95.5312 55.7375 95.5312 43.43C95.5312 40.3796 96.1456 37.4705 97.2542 34.8155L117.809 43.43L116.757 21.1806C117.103 21.1594 117.456 21.1523 117.809 21.1523C130.116 21.1523 140.087 31.1296 140.087 43.43H140.094Z" fill="#0063F8"/>
<path d="M114.541 17.5039C107.882 17.8146 101.993 21.0415 98.1165 25.9419C96.8667 27.5165 95.8287 29.2676 95.0449 31.1459L115.6 39.7533L114.541 17.5039Z" fill="#675FA6"/>
<path d="M193.731 28.0898H190.674V31.1473H193.731V28.0898Z" fill="#19DFDF"/>
<path d="M206.76 29.2324H195.801C195.781 29.2324 195.766 29.2482 195.766 29.2677V29.9668C195.766 29.9863 195.781 30.0021 195.801 30.0021H206.76C206.779 30.0021 206.795 29.9863 206.795 29.9668V29.2677C206.795 29.2482 206.779 29.2324 206.76 29.2324Z" fill="#E8D3E7"/>
<path d="M193.731 22.6406H190.674V25.6981H193.731V22.6406Z" fill="#19DFDF"/>
<path d="M206.76 23.7832H195.801C195.781 23.7832 195.766 23.799 195.766 23.8185V24.5176C195.766 24.5371 195.781 24.5529 195.801 24.5529H206.76C206.779 24.5529 206.795 24.5371 206.795 24.5176V23.8185C206.795 23.799 206.779 23.7832 206.76 23.7832Z" fill="#E8D3E7"/>
<path d="M193.731 33.543H190.674V36.6004H193.731V33.543Z" fill="#675FA6"/>
<path d="M206.76 34.6855H195.801C195.781 34.6855 195.766 34.7014 195.766 34.7209V35.4199C195.766 35.4394 195.781 35.4552 195.801 35.4552H206.76C206.779 35.4552 206.795 35.4394 206.795 35.4199V34.7209C206.795 34.7014 206.779 34.6855 206.76 34.6855Z" fill="#E8D3E7"/>
<path d="M206.406 46.1884H191.055C190.843 46.1884 190.674 46.0189 190.674 45.8071C190.674 45.5952 190.843 45.4258 191.055 45.4258H206.406C206.618 45.4258 206.787 45.5952 206.787 45.8071C206.787 46.0189 206.618 46.1884 206.406 46.1884Z" fill="#E8D3E7"/>
<path d="M206.406 49.3368H191.055C190.843 49.3368 190.674 49.1673 190.674 48.9555C190.674 48.7437 190.843 48.5742 191.055 48.5742H206.406C206.618 48.5742 206.787 48.7437 206.787 48.9555C206.787 49.1673 206.618 49.3368 206.406 49.3368Z" fill="#E8D3E7"/>
<path d="M206.406 52.4794H191.055C190.843 52.4794 190.674 52.3099 190.674 52.0981C190.674 51.8863 190.843 51.7168 191.055 51.7168H206.406C206.618 51.7168 206.787 51.8863 206.787 52.0981C206.787 52.3099 206.618 52.4794 206.406 52.4794Z" fill="#E8D3E7"/>
<path d="M206.406 55.6298H191.055C190.843 55.6298 190.674 55.4603 190.674 55.2485C190.674 55.0367 190.843 54.8672 191.055 54.8672H206.406C206.618 54.8672 206.787 55.0367 206.787 55.2485C206.787 55.4603 206.618 55.6298 206.406 55.6298Z" fill="#E8D3E7"/>
<path d="M206.406 58.7724H191.055C190.843 58.7724 190.674 58.6029 190.674 58.3911C190.674 58.1792 190.843 58.0098 191.055 58.0098H206.406C206.618 58.0098 206.787 58.1792 206.787 58.3911C206.787 58.6029 206.618 58.7724 206.406 58.7724Z" fill="#E8D3E7"/>
<path d="M206.406 61.9188H191.055C190.843 61.9188 190.674 61.7494 190.674 61.5375C190.674 61.3257 190.843 61.1562 191.055 61.1562H206.406C206.618 61.1562 206.787 61.3257 206.787 61.5375C206.787 61.7494 206.618 61.9188 206.406 61.9188Z" fill="#E8D3E7"/>
<path d="M206.406 65.0634H191.055C190.843 65.0634 190.674 64.8939 190.674 64.6821C190.674 64.4702 190.843 64.3008 191.055 64.3008H206.406C206.618 64.3008 206.787 64.4702 206.787 64.6821C206.787 64.8939 206.618 65.0634 206.406 65.0634Z" fill="#E8D3E7"/>
<path d="M213.713 3.36107V9.26412H87.2773V3.36107C87.2773 1.50401 88.7813 0 90.6384 0H210.352C212.209 0 213.713 1.50401 213.713 3.36107Z" fill="#28100C"/>
<path d="M200.389 4.63081C200.389 5.49226 199.69 6.19131 198.828 6.19131C197.967 6.19131 197.268 5.49226 197.268 4.63081C197.268 3.76936 197.967 3.07031 198.828 3.07031C199.69 3.07031 200.389 3.76936 200.389 4.63081Z" fill="#675FA6"/>
<path d="M205.435 4.63081C205.435 5.49226 204.736 6.19131 203.875 6.19131C203.014 6.19131 202.314 5.49226 202.314 4.63081C202.314 3.76936 203.014 3.07031 203.875 3.07031C204.736 3.07031 205.435 3.76936 205.435 4.63081Z" fill="#0063F8"/>
<path d="M210.275 4.63081C210.275 5.49226 209.576 6.19131 208.715 6.19131C207.853 6.19131 207.154 5.49226 207.154 4.63081C207.154 3.76936 207.853 3.07031 208.715 3.07031C209.576 3.07031 210.275 3.76936 210.275 4.63081Z" fill="#19DFDF"/>
<path d="M140.095 43.432C140.095 49.1726 137.92 54.4049 134.354 58.3591L117.81 43.432L116.758 21.1825C117.104 21.1614 117.457 21.1543 117.81 21.1543C130.117 21.1543 140.088 31.1316 140.088 43.432H140.095Z" fill="#19DFDF"/>
<path d="M168.883 37.8008H161.787V68.1916H168.883V37.8008Z" fill="#0063F8"/>
<path d="M161.787 60.1764C164.301 59.3997 166.659 58.0087 168.883 56.5117V68.1907H161.787V60.1764Z" fill="#19DFDF"/>
<path d="M157.288 46.2461H150.191V68.1919H157.288V46.2461Z" fill="#0063F8"/>
<path d="M155.974 60.6906C156.419 60.7542 156.857 60.7966 157.288 60.8107V68.1895H150.191V60.8742C151.448 60.4576 153.284 60.2952 155.974 60.6836V60.6906Z" fill="#19DFDF"/>
<path d="M180.477 28.7227H173.381V68.194H180.477V28.7227Z" fill="#0063F8"/>
<path d="M180.477 50.3574V68.2008H173.381V53.3866C175.902 51.6779 178.253 50.3504 180.477 50.3574Z" fill="#19DFDF"/>
<path d="M180.186 17.2129L173.782 18.5827L175.498 20.2703L165.697 30.2617L162.258 26.8866L150.099 39.2858C149.633 39.7589 149.64 40.5215 150.113 40.9805C150.586 41.4465 151.349 41.4394 151.808 40.9663L162.286 30.2829L165.725 33.6581L177.207 21.9509L178.922 23.6385L180.172 17.2129H180.186Z" fill="#0063F8"/>
<path d="M156.406 221.057V101.244C156.406 99.4086 154.923 97.9258 153.087 97.9258H92.4535C90.6176 97.9258 89.1348 99.4086 89.1348 101.244V221.057C89.1348 224.764 92.1428 227.772 95.8498 227.772H149.698C153.405 227.772 156.406 224.764 156.406 221.057Z" fill="white"/>
<path d="M146.337 188.914H101.521C100.702 188.914 100.045 188.251 100.045 187.439C100.045 186.62 100.709 185.963 101.521 185.963H146.337C147.156 185.963 147.813 186.627 147.813 187.439C147.813 188.258 147.149 188.914 146.337 188.914Z" fill="#E8D3E7"/>
<path d="M146.337 198.291H101.521C100.702 198.291 100.045 197.628 100.045 196.816C100.045 195.997 100.709 195.34 101.521 195.34H146.337C147.156 195.34 147.813 196.004 147.813 196.816C147.813 197.635 147.149 198.291 146.337 198.291Z" fill="#E8D3E7"/>
<path d="M146.337 207.661H101.521C100.702 207.661 100.045 206.997 100.045 206.185C100.045 205.366 100.709 204.709 101.521 204.709H146.337C147.156 204.709 147.813 205.373 147.813 206.185C147.813 207.004 147.149 207.661 146.337 207.661Z" fill="#E8D3E7"/>
<path d="M146.337 217.039H101.521C100.702 217.039 100.045 216.376 100.045 215.564C100.045 214.745 100.709 214.088 101.521 214.088H146.337C147.156 214.088 147.813 214.752 147.813 215.564C147.813 216.383 147.149 217.039 146.337 217.039Z" fill="#E8D3E7"/>
<path d="M156.406 101.244V110.445H89.1348V101.244C89.1348 99.4086 90.6176 97.9258 92.4535 97.9258H153.087C154.923 97.9258 156.406 99.4086 156.406 101.244Z" fill="#239CAF"/>
<path d="M140.116 103.583C140.116 104.791 139.135 105.772 137.927 105.772C136.72 105.772 135.738 104.791 135.738 103.583C135.738 102.376 136.72 101.395 137.927 101.395C139.135 101.395 140.116 102.376 140.116 103.583Z" fill="#675FA6"/>
<path d="M147.204 103.583C147.204 104.791 146.223 105.772 145.015 105.772C143.808 105.772 142.826 104.791 142.826 103.583C142.826 102.376 143.808 101.395 145.015 101.395C146.223 101.395 147.204 102.376 147.204 103.583Z" fill="#0063F8"/>
<path d="M153.991 103.583C153.991 104.791 153.01 105.772 151.802 105.772C150.595 105.772 149.613 104.791 149.613 103.583C149.613 102.376 150.595 101.395 151.802 101.395C153.01 101.395 153.991 102.376 153.991 103.583Z" fill="#19DFDF"/>
<path d="M110.021 161.719H102.451V180H110.021V161.719Z" fill="#0063F8"/>
<path d="M121.183 148.734H113.613V180.001H121.183V148.734Z" fill="#19DFDF"/>
<path d="M133.538 139.154H125.969V180.003H133.538V139.154Z" fill="#675FA6"/>
<path d="M145.644 127.904H138.074V179.994H145.644V127.904Z" fill="#0063F8"/>
<path d="M131.695 119.897L136.942 121.825L136.334 115.682L131.695 119.897Z" fill="#E8D3E7"/>
<path d="M100.374 152.838C100.141 152.838 99.9295 152.697 99.8447 152.471C99.7388 152.174 99.8871 151.849 100.177 151.743C100.403 151.659 123.175 142.931 134.282 119.481C134.416 119.199 134.755 119.079 135.037 119.213C135.32 119.347 135.44 119.686 135.305 119.969C123.994 143.849 100.805 152.718 100.572 152.81C100.508 152.831 100.438 152.845 100.374 152.845V152.838Z" fill="#E8D3E7"/>
<path d="M237.764 4.63297V23.3307C237.764 25.8021 239.769 27.8074 242.24 27.8074H276.19L286.443 31.4862C287.495 31.8675 288.505 30.8295 288.102 29.7916L284.226 19.779V4.63297C284.226 2.16159 282.22 0.15625 279.749 0.15625H242.247C239.776 0.15625 237.771 2.16159 237.771 4.63297H237.764Z" fill="#0063F8"/>
<path d="M267.268 14.5106C267.268 16.297 268.715 17.7516 270.509 17.7516C272.302 17.7516 273.75 16.3041 273.75 14.5106C273.75 12.7241 272.302 11.2695 270.509 11.2695C268.715 11.2695 267.268 12.7171 267.268 14.5106Z" fill="#4A429A"/>
<path d="M257.012 14.5106C257.012 16.297 258.459 17.7516 260.253 17.7516C262.046 17.7516 263.494 16.3041 263.494 14.5106C263.494 12.7241 262.046 11.2695 260.253 11.2695C258.459 11.2695 257.012 12.7171 257.012 14.5106Z" fill="#4A429A"/>
<path d="M246.76 14.5106C246.76 16.297 248.207 17.7516 250.001 17.7516C251.794 17.7516 253.242 16.3041 253.242 14.5106C253.242 12.7241 251.794 11.2695 250.001 11.2695C248.207 11.2695 246.76 12.7171 246.76 14.5106Z" fill="#4A429A"/>
</g>
<g filter="url(#filter2_i_1352_4362)">
<path d="M69.7685 79.512C80.6827 68.5978 80.6827 50.9022 69.7685 39.988C58.8542 29.0737 41.1587 29.0737 30.2444 39.988C19.3302 50.9022 19.3302 68.5978 30.2444 79.512C41.1587 90.4263 58.8542 90.4263 69.7685 79.512Z" fill="#19DFDF"/>
<path d="M69.7743 75.8753C80.6886 64.961 80.6886 47.2655 69.7743 36.3513C58.8601 25.437 41.1646 25.437 30.2503 36.3513C19.336 47.2655 19.336 64.961 30.2503 75.8753C41.1646 86.7896 58.8601 86.7896 69.7743 75.8753Z" fill="#1765EE"/>
<path d="M72.445 59.7288C74.4405 47.3392 66.0145 35.6777 53.6249 33.6821C41.2353 31.6865 29.5738 40.1125 27.5782 52.5022C25.5826 64.8918 34.0086 76.5533 46.3982 78.5489C58.7879 80.5445 70.4494 72.1184 72.445 59.7288Z" fill="white"/>
<path d="M27.293 56.1151C27.293 56.7224 27.3142 57.3225 27.3636 57.9086C28.2815 46.2155 38.0893 36.9796 50.0155 36.9796C61.9416 36.9796 71.7495 46.2155 72.6674 57.9086C72.7168 57.3155 72.738 56.7153 72.738 56.1151C72.738 43.5888 62.5489 33.3926 50.0155 33.3926C37.4892 33.3926 27.293 43.5817 27.293 56.1151Z" fill="#19DFDF"/>
<path d="M50.0061 58.4732C50.1826 58.4732 50.3521 58.3885 50.4651 58.2402L61.6145 43.2354C61.8052 42.9812 61.7487 42.6282 61.4945 42.4375C61.2403 42.2469 60.8872 42.3034 60.6966 42.5576L49.8225 57.2022L37.4656 51.7793C37.1761 51.6522 36.8443 51.7793 36.7172 52.0688C36.5901 52.3583 36.7172 52.6902 37.0067 52.8173L49.7802 58.4238C49.8508 58.4591 49.9284 58.4732 50.0061 58.4732Z" fill="#14C4EB"/>
</g>
<g opacity="0.06">
<path d="M278.821 399.96C376.946 399.96 456.492 392.095 456.492 382.392C456.492 372.69 376.946 364.824 278.821 364.824C180.696 364.824 101.15 372.69 101.15 382.392C101.15 392.095 180.696 399.96 278.821 399.96Z" fill="black"/>
</g>
<path d="M105.773 232.188L126.519 386.819H130.289L118.031 231.334L105.773 232.188Z" fill="#1C0CF9"/>
<path d="M187.795 232.188L208.54 386.819H212.311L200.053 231.334L187.795 232.188Z" fill="#1C0CF9"/>
<path d="M314.682 271.42L316.857 374.632H308.264L310.848 271.42H314.682Z" fill="#049BEF"/>
<path d="M313.084 365.15C314.666 365.68 355.21 381.998 355.21 381.998V387.266H313.084V365.15Z" fill="#19DFDF"/>
<path d="M312.562 365.15C310.98 365.68 270.436 381.998 270.436 381.998V387.266H312.562V365.15Z" fill="#19DFDF"/>
<path d="M313.086 365.15C312.239 365.68 290.441 381.998 290.441 381.998V387.266H313.086V365.15Z" fill="#049BEF"/>
<path d="M236.206 251.275C239.158 228.355 268.059 235.317 277.28 218.745C281.828 210.575 290.252 168.767 300.391 157.794C304.508 153.338 298.57 184.944 298.57 184.944C295.392 202.222 300.257 221.139 297.249 238.911C295.491 249.291 291.847 257.877 284.469 264.571C279.229 269.33 271.999 272.677 267.72 278.602C264.21 283.46 263.476 289.702 261.887 294.997C225.685 300.307 233.784 270.142 236.213 251.268L236.206 251.275Z" fill="#2110BD"/>
<path d="M245.16 259.445C256.303 249.744 277.804 254.933 281.631 243.706C285.818 231.399 284.392 142.733 324.301 140.198C324.371 140.198 324.442 140.156 324.513 140.142C341.558 136.046 363.257 162.066 382.66 233.256C386.156 246.072 390.562 262.849 385.57 275.82C381.848 285.487 374.434 291.651 365.488 295.633H249.651C244.271 295.633 239.907 290.797 239.907 284.837C239.907 281.151 237.803 265.864 245.174 259.445H245.16Z" fill="#19DFDF"/>
<g filter="url(#filter3_i_1352_4362)">
<path d="M197.586 222.227C197.586 223.576 198.871 224.663 200.453 224.663H288.554C290.135 224.663 291.42 223.569 291.42 222.227C291.42 220.878 290.135 219.791 288.554 219.791H200.453C198.871 219.791 197.586 220.885 197.586 222.227Z" fill="#3692FF"/>
<path d="M179.403 222.433C179.685 223.697 180.935 224.714 182.192 224.714H253.184C254.448 224.714 255.196 223.69 254.864 222.433L242.31 174.955C241.978 173.691 240.714 172.674 239.485 172.674H170.527C169.305 172.674 168.536 173.698 168.818 174.955L179.403 222.433Z" fill="#3692FF"/>
<path d="M177.886 222.433C178.168 223.697 179.411 224.714 180.675 224.714H251.667C252.931 224.714 253.679 223.69 253.347 222.433L240.828 174.955C240.496 173.691 239.232 172.674 238.011 172.674H169.052C167.831 172.674 167.061 173.698 167.344 174.955L177.893 222.433H177.886Z" fill="#3692FF"/>
<path d="M207.601 198.692C207.904 199.956 209.161 200.98 210.411 200.98C211.661 200.98 212.416 199.956 212.106 198.692C211.795 197.428 210.538 196.404 209.295 196.404C208.053 196.404 207.29 197.428 207.601 198.692Z" fill="#3692FF"/>
</g>
<path d="M214.038 200.836C214.533 204.508 212.019 207.212 208.425 206.874C204.831 206.535 201.519 203.286 201.025 199.615C200.531 195.943 203.044 193.239 206.638 193.578C210.233 193.916 213.544 197.165 214.038 200.836Z" fill="white"/>
<g filter="url(#filter4_i_1352_4362)">
<path d="M264.662 77.6648C264.662 77.6648 267.155 75.2146 268.404 72.6161C269.647 70.0176 270.84 67.2426 271.582 65.6257C272.472 63.6768 270.438 63.6344 269.089 65.0466C267.049 67.1932 266.801 68.7184 266.801 68.7184C266.801 68.7184 269.435 57.5548 268.92 54.5115C268.454 51.7365 266.689 57.8232 264.959 62.773C264.959 62.773 265.629 51.5459 264.076 50.4302C262.035 48.9686 261.266 62.5682 261.266 62.5682C261.266 62.5682 260.341 52.4568 259.154 52.7321C257.82 53.0428 257.502 63.5144 257.502 63.5144C257.502 63.5144 256.252 56.6228 255.532 57.0888C254.099 58.0138 253.724 72.9127 257.834 78.3497C257.834 78.3497 263.398 78.7239 264.669 77.6577L264.662 77.6648Z" fill="white"/>
<path d="M268.772 99.687C266.872 87.4996 265.227 77.2611 265.227 77.2611C262.749 75.3193 259.734 75.6511 256.711 76.0042C255.342 96.8344 257.82 113.35 261.061 125.891C266.11 139.526 292.052 168.342 292.052 168.342C301.083 165.962 298.781 152.998 298.781 152.998C285.104 135.649 272.105 120.065 271.9 119.825C271.582 117.777 270.389 110.081 268.772 99.6941V99.687Z" fill="#3C20B8"/>
</g>
<path d="M430.405 232.188L409.659 386.819H405.889L418.147 231.334L430.405 232.188Z" fill="#1C0CF9"/>
<path d="M268.748 281.631C268.706 268.356 272.138 259.445 272.138 259.445C294.444 258.068 331.295 259.593 331.295 259.593C331.345 259.72 331.394 259.847 331.437 259.982C331.437 259.982 330.229 271.498 328.125 281.172C306.426 294.023 288.548 293.635 268.748 281.631Z" fill="#0063F8"/>
<path d="M365.466 295.641H326.051C326.101 295.493 326.15 295.352 326.199 295.197C327.958 289.025 326.891 279.931 326.962 273.237C327.103 259.206 319.131 240.205 333.621 233.688C343.534 229.232 367.768 234.606 368.559 221.423C369.371 207.823 361.526 184.415 355.891 171.995C349.557 158.028 339.1 140.976 324.293 140.199C324.364 140.178 324.434 140.15 324.505 140.143C343.782 138.328 363.249 162.067 382.653 233.257C386.148 246.073 390.554 262.85 385.562 275.821C381.841 285.488 374.427 291.652 365.48 295.634L365.466 295.641Z" fill="#2D5BFF"/>
<path d="M295.378 285.336C295.378 285.336 257.297 293.873 244.277 297.573C244.277 297.573 243.641 316.539 241.608 329.948C239.828 341.655 237.117 354.471 237.117 354.471L227.662 355.798C227.662 355.798 224.76 300.277 226.377 292.157C227.987 284.03 267.564 258.2 305.249 261.046L295.371 285.336H295.378Z" fill="#1765EE"/>
<path d="M212.114 380.486L241.241 372.853C242.618 372.493 243.473 371.172 243.303 369.817C243.282 369.626 243.24 369.435 243.169 369.245L237.979 354.261C237.979 354.261 236.623 354.021 234.816 354.063C233.75 354.092 232.705 353.583 232.14 352.672C232.097 352.609 232.062 352.538 232.02 352.468C230.579 349.7 226.088 349.876 226.06 352.955C226.06 353.35 226.06 353.739 226.081 354.106C226.081 354.198 226.088 354.289 226.095 354.374C226.131 355.024 226.187 355.617 226.258 356.132C226.258 356.146 226.258 356.154 226.258 356.168C226.434 357.474 226.66 358.286 226.66 358.286C226.406 358.879 226.159 359.458 225.919 360.023C225.799 360.305 225.679 360.588 225.566 360.863C225.312 361.463 225.072 362.042 224.824 362.607C224.711 362.869 224.598 363.13 224.485 363.377C224.217 363.991 223.942 364.57 223.659 365.121C223.532 365.368 223.405 365.615 223.271 365.855C222.184 367.825 220.948 369.301 219.225 370.021C216.182 371.285 211.112 372.98 209.834 378.269C209.806 378.382 209.791 378.488 209.784 378.594C209.714 379.808 210.872 380.804 212.107 380.479L212.114 380.486Z" fill="#1765EE"/>
<path d="M212.113 380.486L241.24 372.853C242.617 372.493 243.471 371.172 243.302 369.816L209.79 378.593C209.72 379.808 210.878 380.803 212.113 380.479V380.486Z" fill="#115DF0"/>
<path d="M225.564 360.863C226.03 361.273 226.878 361.689 228.41 361.88C228.671 361.915 228.954 361.943 229.257 361.957L229.307 361.131C229.01 361.11 228.735 361.089 228.488 361.054C226.73 360.828 226.122 360.312 225.925 360.016C225.805 360.298 225.684 360.581 225.572 360.856L225.564 360.863Z" fill="white"/>
<path d="M228.382 361.78C228.516 362.282 229.024 362.578 229.519 362.444C230.02 362.31 230.317 361.802 230.182 361.307C230.048 360.806 229.54 360.509 229.046 360.644C228.544 360.778 228.248 361.286 228.382 361.78Z" fill="white"/>
<path d="M224.484 363.377C224.965 363.674 225.699 363.956 226.807 364.111C227.118 364.161 227.45 364.189 227.824 364.217L227.874 363.391C227.528 363.37 227.217 363.342 226.942 363.299C225.812 363.144 225.176 362.862 224.823 362.607C224.71 362.869 224.597 363.13 224.484 363.377Z" fill="white"/>
<path d="M226.802 364.077C226.936 364.579 227.444 364.875 227.939 364.741C228.44 364.607 228.737 364.098 228.602 363.604C228.468 363.103 227.96 362.806 227.466 362.94C226.964 363.075 226.668 363.583 226.802 364.077Z" fill="white"/>
<path d="M223.273 365.855C223.754 366.145 224.467 366.399 225.519 366.547C225.83 366.597 226.176 366.632 226.55 366.653L226.599 365.827C226.253 365.806 225.943 365.771 225.66 365.735C224.65 365.594 224.029 365.354 223.662 365.121C223.535 365.368 223.408 365.615 223.273 365.855Z" fill="white"/>
<path d="M225.513 366.519C225.647 367.02 226.155 367.317 226.65 367.182C227.151 367.048 227.447 366.54 227.313 366.046C227.179 365.544 226.671 365.248 226.176 365.382C225.675 365.516 225.379 366.024 225.513 366.519Z" fill="white"/>
<path d="M226.259 356.132C227.586 355.765 228.893 355.602 228.893 355.602L228.497 354.148C227.629 354.063 226.788 354.19 226.104 354.374C226.139 355.023 226.195 355.617 226.266 356.132H226.259Z" fill="white"/>
<path d="M255.99 316.042L215.869 369.565L223.142 376.019C242.073 358.084 259.895 343.468 268.728 327.347C285.223 314.976 320.493 281.175 320.493 281.175C317.195 273.704 307.409 260.408 307.409 260.408C289.573 274.559 255.99 316.042 255.99 316.042Z" fill="#1765EE"/>
<path d="M188.54 366.323L212.329 387.436C213.452 388.432 215.118 388.41 216.205 387.464C216.361 387.33 216.502 387.182 216.629 387.012L226.748 373.66C226.748 373.66 226.161 372.325 225.067 370.765C224.417 369.84 224.255 368.632 224.721 367.601C224.756 367.524 224.792 367.453 224.834 367.376C226.423 364.488 223.634 360.646 220.908 362.426C220.555 362.659 220.223 362.885 219.905 363.118C219.828 363.174 219.75 363.231 219.672 363.287C219.122 363.704 218.634 364.099 218.218 364.459C218.211 364.459 218.204 364.473 218.19 364.48C217.145 365.405 216.566 366.076 216.566 366.076C215.895 366.196 215.245 366.323 214.603 366.443C214.278 366.5 213.967 366.563 213.656 366.627C212.986 366.754 212.329 366.881 211.693 366.994C211.397 367.051 211.107 367.1 210.818 367.15C210.119 367.27 209.448 367.376 208.798 367.446C208.502 367.481 208.212 367.517 207.923 367.538C205.55 367.743 203.531 367.524 201.893 366.429C198.998 364.495 194.535 361.042 189.14 363.019C189.027 363.061 188.921 363.111 188.823 363.167C187.714 363.817 187.516 365.42 188.526 366.316L188.54 366.323Z" fill="#1765EE"/>
<path d="M188.547 366.325L212.336 387.438C213.459 388.433 215.125 388.412 216.213 387.466L188.844 363.176C187.735 363.825 187.538 365.428 188.547 366.325Z" fill="#05E2FF"/>
<path d="M213.679 366.636C213.594 367.285 213.722 368.274 214.456 369.728C214.576 369.975 214.717 370.244 214.88 370.519L215.635 370.081C215.473 369.806 215.339 369.552 215.218 369.319C214.385 367.638 214.484 366.805 214.625 366.459C214.301 366.515 213.99 366.579 213.679 366.643V366.636Z" fill="white"/>
<path d="M214.519 369.643C214.159 370.053 214.195 370.674 214.604 371.034C215.014 371.394 215.635 371.359 215.995 370.95C216.355 370.54 216.32 369.919 215.911 369.559C215.501 369.198 214.88 369.234 214.519 369.643Z" fill="white"/>
<path d="M210.832 367.165C210.853 367.765 211.037 368.57 211.552 369.636C211.693 369.933 211.863 370.251 212.054 370.59L212.809 370.152C212.626 369.841 212.47 369.545 212.343 369.276C211.814 368.189 211.693 367.469 211.708 367.01C211.411 367.066 211.122 367.116 210.832 367.165Z" fill="white"/>
<path d="M211.574 369.6C211.214 370.01 211.249 370.631 211.659 370.991C212.068 371.351 212.69 371.316 213.05 370.907C213.41 370.497 213.375 369.876 212.965 369.516C212.556 369.155 211.934 369.191 211.574 369.6Z" fill="white"/>
<path d="M207.943 367.545C207.971 368.131 208.161 368.908 208.649 369.924C208.79 370.228 208.959 370.546 209.157 370.892L209.913 370.447C209.729 370.129 209.574 369.84 209.447 369.564C208.974 368.59 208.825 367.912 208.811 367.453C208.515 367.488 208.225 367.524 207.936 367.545H207.943Z" fill="white"/>
<path d="M208.668 369.903C208.308 370.313 208.343 370.934 208.753 371.294C209.162 371.654 209.784 371.619 210.144 371.209C210.504 370.8 210.468 370.178 210.059 369.818C209.649 369.458 209.028 369.494 208.668 369.903Z" fill="white"/>
<path d="M218.238 364.465C219.34 365.418 220.251 366.463 220.251 366.463L221.296 365.263C220.858 364.444 220.258 363.787 219.693 363.293C219.142 363.71 218.655 364.105 218.238 364.465Z" fill="white"/>
<g filter="url(#filter5_i_1352_4362)">
<path d="M356.438 375.302C356.601 375.994 356.784 376.672 357.003 377.328C358.451 381.77 361.113 385.314 364.728 386.783C378.419 392.34 391.285 390.42 417.474 389.812C443.656 389.205 463.103 382.271 460.674 360.714C460.483 359.012 460.151 357.423 459.706 355.94C459.12 353.991 458.336 352.226 457.404 350.63C456.31 348.745 455.011 347.1 453.591 345.659C446.241 338.196 435.176 335.76 425.262 339.156C415.476 342.51 398.176 344.134 380.163 344.494C360.809 344.883 353.578 362.966 356.438 375.309V375.302Z" fill="#6B7CFE"/>
<path d="M356.438 375.303C356.6 375.995 356.783 376.673 357.002 377.329C361.641 381.375 370.39 383.931 383.051 384.941C387.033 385.259 391.411 385.414 396.121 385.414C407.016 385.414 419.719 384.567 433.594 382.907C445.329 381.495 453.266 377.365 457.192 370.614C460.115 365.594 460.263 360.114 459.706 355.927C459.12 353.978 458.336 352.213 457.404 350.617C458.421 353.745 460.652 362.6 456.288 370.092C452.532 376.538 444.856 380.5 433.467 381.869C392.315 386.805 364.296 384.411 356.438 375.296V375.303Z" fill="#2110BD"/>
<path d="M434.681 348.626C442.724 349.276 448.669 356.612 447.356 364.577C447.328 364.732 447.299 364.888 447.271 365.043C445.534 373.721 433.876 373.46 401.473 373.763C376.103 374.004 363.054 364.923 369.804 353.71C375.171 344.792 417.551 347.249 434.681 348.633V348.626Z" fill="#2110BD"/>
<path d="M373.494 355.19C385.293 369.884 433.449 370.717 439.769 359.709C442.848 354.35 442 347.487 440.32 341.852C440.143 341.259 439.96 340.673 439.769 340.115C438.039 335.045 435.857 331.338 435.857 331.338C435.857 331.338 436.055 336.577 418.296 334.692C416.263 334.48 413.954 334.388 411.482 334.417C411.023 334.417 410.557 334.431 410.084 334.445C390.928 335.017 363.298 342.487 373.501 355.19H373.494Z" fill="#19DFDF"/>
<path d="M412.187 346.426C414.969 349.526 419.792 350.698 426.146 349.808C426.288 349.787 426.429 349.766 426.577 349.745C434.584 348.509 438.482 344.703 440.325 341.844C440.149 341.25 439.965 340.664 439.774 340.106C438.412 342.733 434.825 347.217 425.963 348.46C420.081 349.286 415.668 348.269 413.204 345.515C410.986 343.037 410.393 339.203 411.488 334.408C411.029 334.408 410.563 334.422 410.09 334.436C409.002 339.535 409.722 343.658 412.201 346.419L412.187 346.426Z" fill="#115DF0"/>
<path d="M380.165 344.492C380.165 344.492 368.86 343.658 367.518 337.953C366.177 332.248 392.112 337.254 394.972 325.504C397.831 313.755 386.364 304.385 382.643 307.823C378.23 311.898 387.897 313.628 388.412 319.672C388.843 324.692 385.729 329.317 376.076 330.009C366.424 330.701 362.102 332.198 362.145 336.689C362.187 341.575 370.011 346.61 374.77 346.928C379.522 347.245 380.172 344.499 380.172 344.499L380.165 344.492Z" fill="#19DFDF"/>
<path d="M429.768 327.019C429.768 327.019 433.122 322.656 438.587 319.753C439.378 319.33 440.324 319.965 440.232 320.862L439.201 330.868C439.201 330.868 431.356 331.531 429.768 327.019Z" fill="#19DFDF"/>
<path d="M437.281 329.645C437.726 327.378 437.832 324.991 438.355 322.322C438.355 322.322 432.459 325.832 432.105 327.766C432.105 327.766 435.361 330.231 437.274 329.645H437.281Z" fill="#FEFEFE"/>
<path d="M419.534 327.423C419.534 327.423 414.93 324.648 408.886 323.886C407.897 323.758 407.17 324.803 407.622 325.693L411.752 333.926C411.752 333.926 419.696 332.204 419.534 327.423Z" fill="#19DFDF"/>
<path d="M413.495 332.606C412.259 330.658 411.285 328.476 409.83 326.174C409.83 326.174 416.602 327.304 417.633 328.977C417.633 328.977 415.5 332.458 413.502 332.606H413.495Z" fill="#FEFEFE"/>
<path d="M434.149 327.187C434.149 327.187 441.132 328.253 440.603 336.437C440.08 344.614 432.115 345.489 432.115 345.489C432.115 345.489 430.696 348.123 425.774 349.182C422.625 349.86 417.937 349.648 416.75 347.332C416.75 347.332 409.915 344.825 409.993 338.732C410.078 331.981 418.219 323.692 434.149 327.187Z" fill="#19DFDF"/>
<path d="M441.244 346.523C441.244 346.523 438.398 358.132 436.012 360.533C433.625 362.933 431.034 364.24 427.708 364.642C422.334 365.292 423.33 368.872 424.933 370.107C426.79 371.534 430.073 370.722 435.009 370.722C439.274 370.722 443.292 369.867 444.732 367.071C446.173 364.268 446.074 355.971 444.542 351.304C443.595 348.423 442.268 346.919 441.237 346.523H441.244Z" fill="#19DFDF"/>
<path d="M405.168 347.289C405.168 347.289 408.014 358.897 410.401 361.298C412.787 363.699 415.393 364.885 418.705 365.408C422.75 366.05 422.376 369.87 421.48 370.873C419.919 372.617 416.339 371.487 411.403 371.487C407.138 371.487 402.097 369.779 400.656 366.975C399.216 364.172 400.339 356.73 401.871 352.069C402.817 349.188 404.145 347.684 405.176 347.289H405.168Z" fill="#19DFDF"/>
<path d="M381.322 344.979C381.322 344.979 373.809 343.179 371.387 348.842C367.581 357.746 370.625 362.837 380.772 364.249C390.918 365.661 402.456 367.582 393.736 360.365C385.015 353.149 381.322 344.979 381.322 344.979Z" fill="#19DFDF"/>
<path d="M421.763 340.402C421.763 340.402 424.793 340.077 425.605 340.452C426.96 341.073 424.779 343.601 423.395 343.82C422.004 344.032 420.655 342.408 420.676 341.348C420.697 340.289 421.771 340.402 421.771 340.402H421.763Z" fill="#FEFEFE"/>
<path d="M420.2 338.068C420.349 337.976 420.504 338.159 420.398 338.294C419.798 339.014 418.682 339.96 417.178 339.642C415.935 339.381 415.462 338.505 415.293 337.75C415.257 337.58 415.483 337.489 415.568 337.637C415.886 338.202 416.514 338.774 417.722 338.851C418.64 338.908 419.572 338.456 420.193 338.068H420.2Z" fill="#FEFEFE"/>
<path d="M431.956 337.444C432.083 337.331 432.274 337.479 432.189 337.628C431.73 338.447 430.812 339.584 429.273 339.548C428.002 339.52 427.38 338.75 427.077 338.03C427.006 337.868 427.218 337.734 427.331 337.868C427.747 338.362 428.468 338.814 429.668 338.666C430.579 338.553 431.419 337.938 431.956 337.444Z" fill="#FEFEFE"/>
</g>
<path d="M363.438 236.61L352.416 392.229L348.652 392.469L351.152 236.525L363.438 236.61Z" fill="#1C0CF9"/>
<g filter="url(#filter6_i_1352_4362)">
<path d="M294.68 94.7473C294.68 94.7473 289.971 97.8542 291.658 106.292C293.346 114.737 296.608 115.634 296.608 115.634C296.608 115.634 301.551 96.9433 294.68 94.7402V94.7473Z" fill="#045560"/>
<path d="M314.169 134.154L313.837 144.838L313.682 149.738C319.408 154.808 329.915 149.442 329.915 149.442L332.358 133.773C329.689 131.612 322.247 132.566 317.756 133.399C315.638 133.794 314.176 134.154 314.176 134.154H314.169Z" fill="white"/>
<path d="M314.168 134.155L313.836 144.839C321.172 143.808 328.071 134.367 328.071 134.367L317.755 133.393C315.637 133.788 314.175 134.148 314.175 134.148L314.168 134.155Z" fill="white"/>
<path d="M295.626 99.0472C295.626 99.0472 284.11 93.6879 287.485 84.2331C290.86 74.7783 304.636 79.1279 317.028 79.601C336.976 80.3566 343.225 90.7363 342.716 101.54C342.208 112.343 342.321 126.833 337.428 132.234C332.534 137.636 329.187 130.003 326.652 123.246C324.118 116.488 308.491 95.7991 295.619 99.0543L295.626 99.0472Z" fill="#045560"/>
<path d="M294.588 108.234C294.588 108.601 294.602 108.969 294.609 109.343C294.814 116.051 295.972 124.206 297.109 130.837C298.316 137.877 305.102 142.53 312.099 141.118C320.53 139.416 330.917 136.832 335.662 133.718C337.103 132.771 338.021 131.776 338.204 130.738C338.628 128.323 338.861 125.018 338.974 121.431C339.306 110.55 338.515 96.9788 338.515 96.9788C328.382 84.396 300.152 89.3105 295.852 98.5111C294.87 100.615 294.532 104.111 294.588 108.234Z" fill="white"/>
<path d="M300.822 127.728C300.822 127.728 300.949 128.046 301.239 128.512C301.684 129.232 302.51 130.298 303.823 131.004C305.059 131.668 306.725 132.021 308.914 131.47C310.856 130.983 312.106 130.037 312.904 128.95C314.026 127.417 314.252 125.603 314.252 124.367C314.252 123.513 314.139 122.934 314.139 122.934C308.928 126.874 300.829 127.728 300.829 127.728H300.822Z" fill="#0063F8"/>
<path d="M303.83 131.004C305.066 131.667 306.732 132.02 308.921 131.47C310.863 130.982 312.113 130.036 312.911 128.949C311.696 128.454 309.761 128.13 307.544 128.836C305.659 129.436 304.72 130.283 303.83 131.004Z" fill="#033581"/>
<path d="M300.822 127.728C300.822 127.728 300.949 128.046 301.239 128.512C307.043 128.943 312.297 125.737 314.252 124.367C314.252 123.513 314.139 122.934 314.139 122.934C308.928 126.874 300.829 127.728 300.829 127.728H300.822Z" fill="white"/>
<path d="M311.322 114.313C311.322 115.725 311.951 116.876 312.727 116.876C313.504 116.876 314.133 115.732 314.133 114.313C314.133 112.894 313.504 111.75 312.727 111.75C311.951 111.75 311.322 112.894 311.322 114.313Z" fill="#045560"/>
<path d="M296.92 114.313C296.92 115.725 297.548 116.876 298.325 116.876C299.102 116.876 299.73 115.732 299.73 114.313C299.73 112.901 299.102 111.75 298.325 111.75C297.548 111.75 296.92 112.894 296.92 114.313Z" fill="#045560"/>
<path d="M339.016 111.462C339.016 111.462 334.504 108.525 330.705 113.771H327.754C327.754 113.771 327.923 107.699 326.49 104.408C325.056 101.118 319.4 101.203 318.553 97.319C318.553 97.319 305.201 102.629 295.626 99.0489C286.051 95.4619 314.754 79.5109 328.594 87.2781C342.441 95.0453 341.163 101.139 339.016 111.469V111.462Z" fill="#045560"/>
<path d="M318.68 111.035C318.68 111.035 317.571 108.147 315.043 107.229C312.699 106.374 310.934 106.847 310.037 107.236C309.642 107.405 309.444 107.843 309.557 108.26C309.691 108.747 310.214 109.015 310.687 108.846C312.198 108.295 315.467 107.709 318.68 111.042V111.035Z" fill="#045560"/>
<path d="M294.75 106.404C294.722 106.771 294.701 107.138 294.68 107.513C297.405 106.475 299.594 107.329 300.703 107.972C300.816 108.035 300.936 108.071 301.063 108.085C301.409 108.113 301.762 107.929 301.917 107.59C302.101 107.202 301.981 106.736 301.621 106.503C300.802 105.959 299.149 105.19 296.692 105.627C295.965 105.755 295.308 106.051 294.75 106.411V106.404Z" fill="#045560"/>
<path d="M335.661 133.718C337.102 132.772 338.02 131.776 338.203 130.738C338.627 128.323 338.86 125.019 338.973 121.432L331.524 126.551C331.524 126.551 331.425 131.854 335.668 133.711L335.661 133.718Z" fill="#045560"/>
<path d="M330.715 113.769C330.715 113.769 335.241 108.29 339.026 111.46C343.199 114.955 340 126.818 331.527 126.549L330.722 113.762L330.715 113.769Z" fill="white"/>
<path d="M331.314 123.978C331.688 123.978 332.013 123.696 332.055 123.314C332.747 117.313 336.306 116.388 336.454 116.352C336.85 116.253 337.104 115.858 337.012 115.455C336.92 115.06 336.525 114.806 336.13 114.898C335.939 114.94 331.392 116.035 330.58 123.145C330.53 123.555 330.827 123.922 331.236 123.971C331.265 123.971 331.293 123.971 331.321 123.971L331.314 123.978Z" fill="white"/>
<path d="M336.075 120.181C336.252 120.181 336.428 120.118 336.577 119.99C336.88 119.715 336.909 119.249 336.64 118.945C336.577 118.875 335.108 117.258 332.658 117.794C332.255 117.886 332.001 118.282 332.093 118.684C332.185 119.087 332.58 119.341 332.983 119.249C334.557 118.903 335.496 119.899 335.539 119.941C335.687 120.103 335.892 120.181 336.09 120.181H336.075Z" fill="white"/>
<path d="M308.18 134.874C312.014 134.874 313.899 132.389 313.991 132.269C314.238 131.937 314.167 131.471 313.836 131.224C313.504 130.977 313.038 131.047 312.791 131.379C312.706 131.492 310.799 133.921 306.845 133.264C306.443 133.194 306.054 133.469 305.984 133.879C305.913 134.288 306.188 134.67 306.598 134.74C307.156 134.832 307.685 134.874 308.18 134.874Z" fill="white"/>
<path d="M304.545 122.538C304.771 122.538 304.99 122.439 305.138 122.241C305.385 121.916 305.322 121.443 304.997 121.196L303.006 119.678L304.728 119.233C305.018 119.155 305.23 118.922 305.279 118.626L306.042 113.881C306.105 113.471 305.83 113.09 305.42 113.026C305.018 112.956 304.63 113.238 304.566 113.648L303.881 117.913L301.149 118.619C300.873 118.689 300.661 118.915 300.605 119.191C300.548 119.473 300.654 119.756 300.88 119.932L304.086 122.382C304.22 122.488 304.382 122.538 304.538 122.538H304.545Z" fill="white"/>
</g>
<path d="M331.156 261.916C330.768 263.328 329.737 264.493 328.353 265.164C326.22 266.195 330.351 265.143 325.571 265.821C321.256 266.442 304.084 269.93 299.642 269.514C295.709 269.196 294.297 268.956 290.682 267.868C286 266.449 279.998 264.091 274.576 261.288C272.203 260.059 271.123 257.404 272.026 255.038L284.835 208.358C284.998 207.934 285.097 207.489 285.139 207.044L294.403 155.626C294.594 153.31 296.437 151.424 298.887 151.036L310.34 149.214L315.035 148.473C317.627 148.063 320.254 147.979 322.852 148.19C325.451 148.437 328.021 148.974 330.499 149.829L335.562 151.58L345.956 155.16C348.3 155.972 349.79 158.146 349.578 160.462L342.348 212.729C342.319 213.011 342.27 213.286 342.192 213.562L331.142 261.93L331.156 261.916Z" fill="#1765EE"/>
<path d="M334.975 151.693L314.689 267.29C310.332 267.6 306.046 267.41 301.654 266.661C297.763 266.054 294.148 265.051 290.639 263.682L291.119 260.822L291.613 257.821L292.771 250.859L293.28 247.865L294.438 240.91L294.932 237.909L296.104 230.961L296.598 227.974L297.756 221.019L298.258 218.039L299.416 211.077L299.91 208.09L301.068 201.128L301.569 198.148L302.734 191.179L303.236 188.213L304.401 181.229L304.888 178.271L306.053 171.287L306.554 168.329L307.719 161.36L308.221 158.401L309.386 151.411L309.774 149.561L309.817 149.306L314.667 147.802C317.287 147.576 319.914 147.689 322.491 148.092C325.061 148.53 328.112 148.741 330.513 149.794L333.994 151.001L334.975 151.679V151.693Z" fill="white"/>
<path d="M334.326 155.541L333.81 158.457C329.326 158.457 325.026 158.012 321.114 157.37C316.278 156.579 312.041 155.47 308.828 154.489L309.315 151.537C314.964 153.281 324.257 155.548 334.269 155.52L334.319 155.541H334.326Z" fill="#05E2FF"/>
<path d="M332.873 163.846L332.357 166.783C327.937 166.783 323.693 166.353 319.845 165.724C314.966 164.926 310.694 163.796 307.467 162.787L307.968 159.828C313.624 161.6 322.881 163.895 332.873 163.846Z" fill="#05E2FF"/>
<path d="M331.368 172.383L330.845 175.334C326.489 175.341 322.309 174.925 318.51 174.303C313.602 173.498 309.309 172.347 306.047 171.302L306.548 168.344C312.183 170.151 321.384 172.474 331.368 172.376V172.383Z" fill="#05E2FF"/>
<path d="M329.617 182.344L329.094 185.296C324.787 185.317 320.67 184.907 316.914 184.293C311.985 183.481 307.671 182.309 304.395 181.25L304.882 178.291C310.516 180.127 319.661 182.471 329.617 182.351V182.344Z" fill="#05E2FF"/>
<path d="M327.867 192.315L327.351 195.259C323.1 195.288 319.033 194.899 315.312 194.285C310.348 193.473 306.027 192.273 302.736 191.192L303.238 188.227C308.851 190.098 317.932 192.456 327.867 192.315Z" fill="#05E2FF"/>
<path d="M326.114 202.272L325.591 205.223C321.383 205.266 317.365 204.877 313.694 204.277C308.716 203.458 304.366 202.243 301.068 201.142L301.57 198.162C307.169 200.076 316.2 202.448 326.114 202.272Z" fill="#05E2FF"/>
<path d="M324.364 212.232L323.841 215.184C319.682 215.24 315.7 214.859 312.064 214.266C307.086 213.447 302.729 212.218 299.41 211.088L299.904 208.102C305.497 210.043 314.464 212.437 324.364 212.232Z" fill="#05E2FF"/>
<path d="M322.62 222.197L322.097 225.148C317.967 225.219 314.034 224.852 310.44 224.259C305.44 223.44 301.091 222.19 297.758 221.025L298.259 218.045C303.837 220.015 312.748 222.416 322.62 222.19V222.197Z" fill="#05E2FF"/>
<path d="M320.867 232.161L320.344 235.126C316.256 235.19 312.365 234.83 308.792 234.244C303.793 233.425 299.443 232.154 296.104 230.967L296.598 227.98C302.155 229.993 311.024 232.415 320.867 232.161Z" fill="#05E2FF"/>
<path d="M319.116 242.124L318.593 245.075C314.533 245.153 310.678 244.807 307.14 244.228C302.141 243.409 297.784 242.117 294.438 240.909L294.932 237.908C300.482 239.949 309.287 242.392 319.116 242.117V242.124Z" fill="#05E2FF"/>
<path d="M317.365 252.08L316.843 255.053C312.818 255.138 308.991 254.799 305.488 254.227C300.475 253.408 296.125 252.101 292.771 250.873L293.28 247.879C298.816 249.948 307.564 252.398 317.365 252.087V252.08Z" fill="#05E2FF"/>
<path d="M315.614 262.044L315.091 265.016C311.095 265.108 307.31 264.776 303.829 264.204C298.83 263.385 294.48 262.072 291.119 260.829L291.613 257.828C297.135 259.918 305.841 262.375 315.614 262.044Z" fill="#05E2FF"/>
<path d="M444.985 227.041H89.5449V236.34H444.985V227.041Z" fill="#1765EE"/>
<path d="M444.984 227.041H317.504V236.34H444.984V227.041Z" fill="#1765EE"/>
<path d="M455.225 224.895H79.3008V229.188H455.225V224.895Z" fill="#19DFDF"/>
<g filter="url(#filter7_i_1352_4362)">
<path d="M386.439 88.3168C386.439 88.3168 384.406 85.4711 383.636 82.6961C382.859 79.9211 382.167 76.9837 381.722 75.2608C381.186 73.1919 383.191 73.5026 384.278 75.1267C385.917 77.591 385.895 79.1444 385.895 79.1444C385.895 79.1444 385.239 67.6914 386.277 64.7893C387.223 62.1343 387.894 68.4328 388.748 73.6156C388.748 73.6156 390.033 62.445 391.756 61.6188C394.016 60.5314 392.413 74.0605 392.413 74.0605C392.413 74.0605 395.075 64.2597 396.205 64.7398C397.461 65.2765 395.958 75.6421 395.958 75.6421C395.958 75.6421 398.386 69.0753 399.015 69.6543C400.265 70.8124 398.048 85.5559 393.055 90.195C393.055 90.195 387.512 89.6019 386.446 88.3309L386.439 88.3168Z" fill="white"/>
<path d="M378.571 109.287C382.561 97.615 385.957 87.8142 385.957 87.8142C388.732 86.3314 391.648 87.1787 394.564 88.0543C392.291 108.807 386.988 124.645 381.614 136.423C374.271 148.977 343.725 172.851 343.725 172.851C335.244 168.939 339.763 156.575 339.763 156.575C356.244 141.867 371.75 128.775 371.997 128.571C372.661 126.615 375.175 119.236 378.578 109.287H378.571Z" fill="#3C20B8"/>
</g>
<defs>
<filter id="filter0_i_1352_4362" x="0" y="64.709" width="545.503" height="284.423" filterUnits="userSpaceOnUse" color-interpolation-filters="sRGB">
<feFlood flood-opacity="0" result="BackgroundImageFix"/>
<feBlend mode="normal" in="SourceGraphic" in2="BackgroundImageFix" result="shape"/>
<feColorMatrix in="SourceAlpha" type="matrix" values="0 0 0 0 0 0 0 0 0 0 0 0 0 0 0 0 0 0 127 0" result="hardAlpha"/>
<feOffset dx="15.2797" dy="10.3684"/>
<feGaussianBlur stdDeviation="3.81993"/>
<feComposite in2="hardAlpha" operator="arithmetic" k2="-1" k3="1"/>
<feColorMatrix type="matrix" values="0 0 0 0 0 0 0 0 0 0 0 0 0 0 0 0 0 0 0.25 0"/>
<feBlend mode="normal" in2="shape" result="effect1_innerShadow_1352_4362"/>
</filter>
<filter id="filter1_d_1352_4362" x="85.0945" y="0" width="205.282" height="232.137" filterUnits="userSpaceOnUse" color-interpolation-filters="sRGB">
<feFlood flood-opacity="0" result="BackgroundImageFix"/>
<feColorMatrix in="SourceAlpha" type="matrix" values="0 0 0 0 0 0 0 0 0 0 0 0 0 0 0 0 0 0 127 0" result="hardAlpha"/>
<feOffset dy="2.18282"/>
<feGaussianBlur stdDeviation="1.09141"/>
<feComposite in2="hardAlpha" operator="out"/>
<feColorMatrix type="matrix" values="0 0 0 0 0 0 0 0 0 0 0 0 0 0 0 0 0 0 0.25 0"/>
<feBlend mode="normal" in2="BackgroundImageFix" result="effect1_dropShadow_1352_4362"/>
<feBlend mode="normal" in="SourceGraphic" in2="effect1_dropShadow_1352_4362" result="shape"/>
</filter>
<filter id="filter2_i_1352_4362" x="22.0586" y="28.166" width="58.0852" height="61.7141" filterUnits="userSpaceOnUse" color-interpolation-filters="sRGB">
<feFlood flood-opacity="0" result="BackgroundImageFix"/>
<feBlend mode="normal" in="SourceGraphic" in2="BackgroundImageFix" result="shape"/>
<feColorMatrix in="SourceAlpha" type="matrix" values="0 0 0 0 0 0 0 0 0 0 0 0 0 0 0 0 0 0 127 0" result="hardAlpha"/>
<feOffset dx="5.45704" dy="2.18282"/>
<feGaussianBlur stdDeviation="1.09141"/>
<feComposite in2="hardAlpha" operator="arithmetic" k2="-1" k3="1"/>
<feColorMatrix type="matrix" values="0 0 0 0 0 0 0 0 0 0 0 0 0 0 0 0 0 0 0.25 0"/>
<feBlend mode="normal" in2="shape" result="effect1_innerShadow_1352_4362"/>
</filter>
<filter id="filter3_i_1352_4362" x="167.285" y="172.674" width="125.772" height="54.2238" filterUnits="userSpaceOnUse" color-interpolation-filters="sRGB">
<feFlood flood-opacity="0" result="BackgroundImageFix"/>
<feBlend mode="normal" in="SourceGraphic" in2="BackgroundImageFix" result="shape"/>
<feColorMatrix in="SourceAlpha" type="matrix" values="0 0 0 0 0 0 0 0 0 0 0 0 0 0 0 0 0 0 127 0" result="hardAlpha"/>
<feOffset dx="1.63711" dy="3.81993"/>
<feGaussianBlur stdDeviation="1.09141"/>
<feComposite in2="hardAlpha" operator="arithmetic" k2="-1" k3="1"/>
<feColorMatrix type="matrix" values="0 0 0 0 1 0 0 0 0 1 0 0 0 0 1 0 0 0 0.25 0"/>
<feBlend mode="normal" in2="shape" result="effect1_innerShadow_1352_4362"/>
</filter>
<filter id="filter4_i_1352_4362" x="254.539" y="50.3203" width="44.5039" height="120.204" filterUnits="userSpaceOnUse" color-interpolation-filters="sRGB">
<feFlood flood-opacity="0" result="BackgroundImageFix"/>
<feBlend mode="normal" in="SourceGraphic" in2="BackgroundImageFix" result="shape"/>
<feColorMatrix in="SourceAlpha" type="matrix" values="0 0 0 0 0 0 0 0 0 0 0 0 0 0 0 0 0 0 127 0" result="hardAlpha"/>
<feOffset dy="2.18282"/>
<feGaussianBlur stdDeviation="1.09141"/>
<feComposite in2="hardAlpha" operator="arithmetic" k2="-1" k3="1"/>
<feColorMatrix type="matrix" values="0 0 0 0 0 0 0 0 0 0 0 0 0 0 0 0 0 0 0.25 0"/>
<feBlend mode="normal" in2="shape" result="effect1_innerShadow_1352_4362"/>
</filter>
<filter id="filter5_i_1352_4362" x="355.836" y="307.104" width="105.043" height="85.7082" filterUnits="userSpaceOnUse" color-interpolation-filters="sRGB">
<feFlood flood-opacity="0" result="BackgroundImageFix"/>
<feBlend mode="normal" in="SourceGraphic" in2="BackgroundImageFix" result="shape"/>
<feColorMatrix in="SourceAlpha" type="matrix" values="0 0 0 0 0 0 0 0 0 0 0 0 0 0 0 0 0 0 127 0" result="hardAlpha"/>
<feOffset dy="2.18282"/>
<feGaussianBlur stdDeviation="1.09141"/>
<feComposite in2="hardAlpha" operator="arithmetic" k2="-1" k3="1"/>
<feColorMatrix type="matrix" values="0 0 0 0 0 0 0 0 0 0 0 0 0 0 0 0 0 0 0.25 0"/>
<feBlend mode="normal" in2="shape" result="effect1_innerShadow_1352_4362"/>
</filter>
<filter id="filter6_i_1352_4362" x="286.865" y="78.1934" width="58.0617" height="75.9074" filterUnits="userSpaceOnUse" color-interpolation-filters="sRGB">
<feFlood flood-opacity="0" result="BackgroundImageFix"/>
<feBlend mode="normal" in="SourceGraphic" in2="BackgroundImageFix" result="shape"/>
<feColorMatrix in="SourceAlpha" type="matrix" values="0 0 0 0 0 0 0 0 0 0 0 0 0 0 0 0 0 0 127 0" result="hardAlpha"/>
<feOffset dx="4.36563" dy="2.18282"/>
<feGaussianBlur stdDeviation="1.09141"/>
<feComposite in2="hardAlpha" operator="arithmetic" k2="-1" k3="1"/>
<feColorMatrix type="matrix" values="0 0 0 0 0 0 0 0 0 0 0 0 0 0 0 0 0 0 0.25 0"/>
<feBlend mode="normal" in2="shape" result="effect1_innerShadow_1352_4362"/>
</filter>
<filter id="filter7_i_1352_4362" x="338.561" y="61.5566" width="60.7969" height="113.478" filterUnits="userSpaceOnUse" color-interpolation-filters="sRGB">
<feFlood flood-opacity="0" result="BackgroundImageFix"/>
<feBlend mode="normal" in="SourceGraphic" in2="BackgroundImageFix" result="shape"/>
<feColorMatrix in="SourceAlpha" type="matrix" values="0 0 0 0 0 0 0 0 0 0 0 0 0 0 0 0 0 0 127 0" result="hardAlpha"/>
<feOffset dy="2.18282"/>
<feGaussianBlur stdDeviation="1.09141"/>
<feComposite in2="hardAlpha" operator="arithmetic" k2="-1" k3="1"/>
<feColorMatrix type="matrix" values="0 0 0 0 0 0 0 0 0 0 0 0 0 0 0 0 0 0 0.25 0"/>
<feBlend mode="normal" in2="shape" result="effect1_innerShadow_1352_4362"/>
</filter>
<linearGradient id="paint0_linear_1352_4362" x1="268.932" y1="64.709" x2="268.932" y2="341.492" gradientUnits="userSpaceOnUse">
<stop stop-color="#302AFF"/>
<stop offset="1" stop-color="#19DFDF"/>
</linearGradient>
</defs>
</svg>
