<svg width="682" height="298" viewBox="0 0 682 298" fill="none" xmlns="http://www.w3.org/2000/svg">
<g filter="url(#filter0_i_1397_3898)">
<path d="M359.216 200.87L357.663 187.563C356.821 187.217 356.028 186.801 355.283 186.316C354.537 185.831 353.81 185.311 353.101 184.757L341.551 189.954L330.875 170.203L340.872 162.094C340.807 161.609 340.775 161.141 340.775 160.689V157.886C340.775 157.434 340.807 156.966 340.872 156.481L330.875 148.372L341.551 128.62L353.101 133.818C353.813 133.264 354.557 132.744 355.333 132.259C356.11 131.774 356.886 131.358 357.663 131.011L359.216 117.705H380.568L382.121 131.011C382.962 131.358 383.755 131.774 384.501 132.259C385.246 132.744 385.973 133.264 386.683 133.818L398.232 128.62L408.908 148.372L398.912 156.481C398.976 156.966 399.009 157.434 399.009 157.886V160.689C399.009 161.141 398.944 161.609 398.815 162.094L408.811 170.203L398.135 189.954L386.683 184.757C385.971 185.311 385.227 185.831 384.45 186.316C383.674 186.801 382.897 187.217 382.121 187.563L380.568 200.87H359.216ZM370.086 173.841C373.839 173.841 377.042 172.42 379.694 169.579C382.347 166.738 383.674 163.307 383.674 159.287C383.674 155.268 382.347 151.837 379.694 148.996C377.042 146.154 373.839 144.734 370.086 144.734C366.268 144.734 363.049 146.154 360.427 148.996C357.805 151.837 356.495 155.268 356.498 159.287C356.498 163.307 357.808 166.738 360.427 169.579C363.046 172.42 366.266 173.841 370.086 173.841Z" fill="#1765EE"/>
</g>
<g filter="url(#filter1_i_1397_3898)">
<path d="M566.29 156.746L558.217 147.893C561.997 143.844 566.435 140.636 571.53 138.27C576.625 135.903 582.119 134.719 588.011 134.716C593.906 134.716 599.401 135.917 604.496 138.319C609.591 140.721 614.028 143.981 617.806 148.099L609.732 156.746C606.913 153.726 603.645 151.359 599.929 149.643C596.213 147.927 592.24 147.069 588.011 147.069C583.782 147.069 579.81 147.927 576.094 149.643C572.377 151.359 569.109 153.726 566.29 156.746ZM549.951 139.246L541.878 130.598C547.773 124.147 554.661 119.103 562.542 115.466C570.423 111.828 578.913 110.01 588.011 110.01C597.11 110.01 605.6 111.828 613.481 115.466C621.362 119.103 628.25 124.147 634.145 130.598L626.071 139.246C621.138 133.961 615.418 129.826 608.914 126.839C602.409 123.852 595.441 122.36 588.011 122.363C580.579 122.363 573.61 123.856 567.105 126.843C560.6 129.83 554.882 133.964 549.951 139.246ZM588.011 180.011L601.563 165.393C599.833 163.54 597.815 162.081 595.508 161.016C593.201 159.951 590.702 159.42 588.011 159.423C585.32 159.423 582.821 159.955 580.515 161.02C578.208 162.085 576.19 163.543 574.46 165.393L588.011 180.011Z" fill="#19DFDF"/>
</g>
<g filter="url(#filter2_i_1397_3898)">
<ellipse cx="98.8842" cy="194.229" rx="98.8842" ry="103.233" fill="#19DFDF"/>
</g>
<g filter="url(#filter3_i_1397_3898)">
<path fill-rule="evenodd" clip-rule="evenodd" d="M197.768 160.955H0V297.464H197.768V160.955ZM57.0995 241.121H36.3017V265.701H57.0995V241.121ZM88.4851 241.121H109.283V265.701H88.4851V241.121ZM161.467 241.121H140.67V265.701H161.467V241.121Z" fill="#729AFE"/>
</g>
<rect x="26.0908" y="194.23" width="145.963" height="24.5792" fill="white"/>
<g filter="url(#filter4_i_1397_3898)">
<rect x="308.187" y="168.518" width="142.182" height="100.586" fill="white"/>
</g>
<g filter="url(#filter5_i_1397_3898)">
<rect x="326.714" y="184.777" width="104.745" height="68.0656" fill="#19DFDF"/>
</g>
<g filter="url(#filter6_ii_1397_3898)">
<rect x="605.027" y="137.51" width="76.7629" height="138.022" rx="4.98336" fill="#6B7CFE"/>
</g>
<rect x="0.166112" y="161.121" width="197.436" height="15.9279" stroke="black" stroke-width="0.332224"/>
<rect x="621.665" y="173.811" width="43.4864" height="9.45356" fill="white"/>
<rect x="621.665" y="190.828" width="43.4864" height="9.45356" fill="white"/>
<circle cx="643.598" cy="252.842" r="9.45356" fill="#05E2FF"/>
<g filter="url(#filter7_d_1397_3898)">
<path d="M78.2932 192.168L96.9127 145.613C97.0883 145.162 97.3847 144.776 97.7646 144.505C98.1445 144.234 98.5908 144.089 99.0474 144.089C99.504 144.089 99.9503 144.234 100.33 144.505C100.71 144.776 101.007 145.162 101.182 145.613L119.802 192.168M86.6542 171.273H111.441M60.5039 131.831C60.5039 125.935 62.6905 120.281 66.5827 116.112C70.4748 111.944 75.7537 109.602 81.2581 109.602" stroke="#1C0CF9" stroke-width="5.20971" stroke-linecap="round" stroke-linejoin="round"/>
<path d="M60.5039 131.831C60.5039 125.935 62.6905 120.281 66.5827 116.112C70.4748 111.944 75.7537 109.602 81.2581 109.602M75.3283 131.831C75.3283 130.147 75.9531 128.531 77.0651 127.34C78.1772 126.149 79.6854 125.48 81.2581 125.48" stroke="#1C0CF9" stroke-width="5.20971" stroke-linecap="round" stroke-linejoin="round"/>
<path d="M75.3281 131.831C75.3281 130.147 75.9529 128.531 77.0649 127.34C78.177 126.149 79.6852 125.48 81.2579 125.48M116.837 109.602C122.341 109.602 127.62 111.944 131.512 116.112C135.404 120.281 137.591 125.935 137.591 131.831" stroke="#1C0CF9" stroke-width="5.20971" stroke-linecap="round" stroke-linejoin="round"/>
<path d="M116.837 109.602C122.341 109.602 127.62 111.944 131.512 116.112C135.405 120.281 137.591 125.935 137.591 131.831M116.837 125.48C118.41 125.48 119.918 126.149 121.03 127.34C122.142 128.531 122.767 130.147 122.767 131.831" stroke="#1C0CF9" stroke-width="5.20971" stroke-linecap="round" stroke-linejoin="round"/>
<path d="M116.837 125.479C118.41 125.479 119.918 126.148 121.03 127.339C122.142 128.53 122.767 130.145 122.767 131.83" stroke="#1C0CF9" stroke-width="5.20971" stroke-linecap="round" stroke-linejoin="round"/>
</g>
<path d="M97.3721 56.776V1H359.236H635.847V56.776" stroke="black" stroke-width="1.3289" stroke-dasharray="8.31 8.31"/>
<defs>
<filter id="filter0_i_1397_3898" x="330.875" y="117.705" width="79.3621" height="84.493" filterUnits="userSpaceOnUse" color-interpolation-filters="sRGB">
<feFlood flood-opacity="0" result="BackgroundImageFix"/>
<feBlend mode="normal" in="SourceGraphic" in2="BackgroundImageFix" result="shape"/>
<feColorMatrix in="SourceAlpha" type="matrix" values="0 0 0 0 0 0 0 0 0 0 0 0 0 0 0 0 0 0 127 0" result="hardAlpha"/>
<feOffset dx="4.31891" dy="1.3289"/>
<feGaussianBlur stdDeviation="0.664448"/>
<feComposite in2="hardAlpha" operator="arithmetic" k2="-1" k3="1"/>
<feColorMatrix type="matrix" values="0 0 0 0 0 0 0 0 0 0 0 0 0 0 0 0 0 0 0.25 0"/>
<feBlend mode="normal" in2="shape" result="effect1_innerShadow_1397_3898"/>
</filter>
<filter id="filter1_i_1397_3898" x="541.878" y="110.01" width="92.2666" height="71.3308" filterUnits="userSpaceOnUse" color-interpolation-filters="sRGB">
<feFlood flood-opacity="0" result="BackgroundImageFix"/>
<feBlend mode="normal" in="SourceGraphic" in2="BackgroundImageFix" result="shape"/>
<feColorMatrix in="SourceAlpha" type="matrix" values="0 0 0 0 0 0 0 0 0 0 0 0 0 0 0 0 0 0 127 0" result="hardAlpha"/>
<feOffset dy="1.3289"/>
<feGaussianBlur stdDeviation="0.664448"/>
<feComposite in2="hardAlpha" operator="arithmetic" k2="-1" k3="1"/>
<feColorMatrix type="matrix" values="0 0 0 0 0 0 0 0 0 0 0 0 0 0 0 0 0 0 0.25 0"/>
<feBlend mode="normal" in2="shape" result="effect1_innerShadow_1397_3898"/>
</filter>
<filter id="filter2_i_1397_3898" x="0" y="90.9961" width="199.097" height="207.794" filterUnits="userSpaceOnUse" color-interpolation-filters="sRGB">
<feFlood flood-opacity="0" result="BackgroundImageFix"/>
<feBlend mode="normal" in="SourceGraphic" in2="BackgroundImageFix" result="shape"/>
<feColorMatrix in="SourceAlpha" type="matrix" values="0 0 0 0 0 0 0 0 0 0 0 0 0 0 0 0 0 0 127 0" result="hardAlpha"/>
<feOffset dx="6.64448" dy="1.3289"/>
<feGaussianBlur stdDeviation="0.664448"/>
<feComposite in2="hardAlpha" operator="arithmetic" k2="-1" k3="1"/>
<feColorMatrix type="matrix" values="0 0 0 0 1 0 0 0 0 1 0 0 0 0 1 0 0 0 0.25 0"/>
<feBlend mode="normal" in2="shape" result="effect1_innerShadow_1397_3898"/>
</filter>
<filter id="filter3_i_1397_3898" x="0" y="160.955" width="202.087" height="141.161" filterUnits="userSpaceOnUse" color-interpolation-filters="sRGB">
<feFlood flood-opacity="0" result="BackgroundImageFix"/>
<feBlend mode="normal" in="SourceGraphic" in2="BackgroundImageFix" result="shape"/>
<feColorMatrix in="SourceAlpha" type="matrix" values="0 0 0 0 0 0 0 0 0 0 0 0 0 0 0 0 0 0 127 0" result="hardAlpha"/>
<feOffset dx="4.31891" dy="4.65114"/>
<feGaussianBlur stdDeviation="3.15613"/>
<feComposite in2="hardAlpha" operator="arithmetic" k2="-1" k3="1"/>
<feColorMatrix type="matrix" values="0 0 0 0 0 0 0 0 0 0 0 0 0 0 0 0 0 0 0.25 0"/>
<feBlend mode="normal" in2="shape" result="effect1_innerShadow_1397_3898"/>
</filter>
<filter id="filter4_i_1397_3898" x="308.187" y="168.518" width="143.511" height="101.915" filterUnits="userSpaceOnUse" color-interpolation-filters="sRGB">
<feFlood flood-opacity="0" result="BackgroundImageFix"/>
<feBlend mode="normal" in="SourceGraphic" in2="BackgroundImageFix" result="shape"/>
<feColorMatrix in="SourceAlpha" type="matrix" values="0 0 0 0 0 0 0 0 0 0 0 0 0 0 0 0 0 0 127 0" result="hardAlpha"/>
<feOffset dx="1.3289" dy="1.3289"/>
<feGaussianBlur stdDeviation="1.49501"/>
<feComposite in2="hardAlpha" operator="arithmetic" k2="-1" k3="1"/>
<feColorMatrix type="matrix" values="0 0 0 0 0 0 0 0 0 0 0 0 0 0 0 0 0 0 0.25 0"/>
<feBlend mode="normal" in2="shape" result="effect1_innerShadow_1397_3898"/>
</filter>
<filter id="filter5_i_1397_3898" x="326.714" y="184.777" width="106.074" height="69.3953" filterUnits="userSpaceOnUse" color-interpolation-filters="sRGB">
<feFlood flood-opacity="0" result="BackgroundImageFix"/>
<feBlend mode="normal" in="SourceGraphic" in2="BackgroundImageFix" result="shape"/>
<feColorMatrix in="SourceAlpha" type="matrix" values="0 0 0 0 0 0 0 0 0 0 0 0 0 0 0 0 0 0 127 0" result="hardAlpha"/>
<feOffset dx="1.3289" dy="1.3289"/>
<feGaussianBlur stdDeviation="1.49501"/>
<feComposite in2="hardAlpha" operator="arithmetic" k2="-1" k3="1"/>
<feColorMatrix type="matrix" values="0 0 0 0 0 0 0 0 0 0 0 0 0 0 0 0 0 0 0.25 0"/>
<feBlend mode="normal" in2="shape" result="effect1_innerShadow_1397_3898"/>
</filter>
<filter id="filter6_ii_1397_3898" x="605.027" y="136.181" width="77.7594" height="140.679" filterUnits="userSpaceOnUse" color-interpolation-filters="sRGB">
<feFlood flood-opacity="0" result="BackgroundImageFix"/>
<feBlend mode="normal" in="SourceGraphic" in2="BackgroundImageFix" result="shape"/>
<feColorMatrix in="SourceAlpha" type="matrix" values="0 0 0 0 0 0 0 0 0 0 0 0 0 0 0 0 0 0 127 0" result="hardAlpha"/>
<feOffset dx="0.996672" dy="1.3289"/>
<feGaussianBlur stdDeviation="0.664448"/>
<feComposite in2="hardAlpha" operator="arithmetic" k2="-1" k3="1"/>
<feColorMatrix type="matrix" values="0 0 0 0 0 0 0 0 0 0 0 0 0 0 0 0 0 0 0.25 0"/>
<feBlend mode="normal" in2="shape" result="effect1_innerShadow_1397_3898"/>
<feColorMatrix in="SourceAlpha" type="matrix" values="0 0 0 0 0 0 0 0 0 0 0 0 0 0 0 0 0 0 127 0" result="hardAlpha"/>
<feOffset dy="-3.98669"/>
<feGaussianBlur stdDeviation="0.664448"/>
<feComposite in2="hardAlpha" operator="arithmetic" k2="-1" k3="1"/>
<feColorMatrix type="matrix" values="0 0 0 0 0 0 0 0 0 0 0 0 0 0 0 0 0 0 0.25 0"/>
<feBlend mode="normal" in2="effect1_innerShadow_1397_3898" result="effect2_innerShadow_1397_3898"/>
</filter>
<filter id="filter7_d_1397_3898" x="56.5705" y="106.996" width="84.9547" height="90.4351" filterUnits="userSpaceOnUse" color-interpolation-filters="sRGB">
<feFlood flood-opacity="0" result="BackgroundImageFix"/>
<feColorMatrix in="SourceAlpha" type="matrix" values="0 0 0 0 0 0 0 0 0 0 0 0 0 0 0 0 0 0 127 0" result="hardAlpha"/>
<feOffset dy="1.3289"/>
<feGaussianBlur stdDeviation="0.664448"/>
<feComposite in2="hardAlpha" operator="out"/>
<feColorMatrix type="matrix" values="0 0 0 0 0 0 0 0 0 0 0 0 0 0 0 0 0 0 0.25 0"/>
<feBlend mode="normal" in2="BackgroundImageFix" result="effect1_dropShadow_1397_3898"/>
<feBlend mode="normal" in="SourceGraphic" in2="effect1_dropShadow_1397_3898" result="shape"/>
</filter>
</defs>
</svg>
