<svg width="187" height="189" viewBox="0 0 187 189" fill="none" xmlns="http://www.w3.org/2000/svg">
<g filter="url(#filter0_i_1058_2420)">
<path d="M77.7685 55.7141L79.7802 59.2145C80.3435 60.1801 80.6251 61.2865 80.6251 62.4131V70.7416C80.6251 71.5262 80.947 72.2906 81.4902 72.8338C82.7374 74.0811 84.8095 73.9805 85.9159 72.5924L88.6519 69.1725C89.5974 67.9855 91.247 67.6234 92.5948 68.3074L95.6527 69.8363C96.3366 70.1783 97.1011 70.3594 97.8656 70.3594C99.1732 70.3594 100.441 69.8363 101.366 68.9109L102.151 68.1264C102.734 67.543 103.619 67.4021 104.363 67.7643L110.238 70.7014C111.807 71.4859 112.772 73.0752 112.772 74.8254C112.772 76.9377 111.344 78.7684 109.292 79.2914L102.171 81.0617C100.682 81.4238 99.1329 81.3635 97.6644 80.8807L91.2269 78.7281C90.563 78.5068 89.879 78.3861 89.1749 78.3861C87.7667 78.3861 86.3988 78.8488 85.2722 79.6937L77.4064 85.6484C75.3745 87.1773 74.1876 89.5512 74.1876 92.0859V97.7188C74.1876 103.05 78.5128 107.375 83.8439 107.375H90.2814C92.0517 107.375 93.5001 108.823 93.5001 110.594V120.25C93.5001 123.811 96.3769 126.688 99.9376 126.688C101.969 126.688 103.881 125.742 105.088 124.113L110.238 117.253C111.907 115.02 112.813 112.304 112.813 109.528V107.093C112.813 106.309 113.336 105.625 114.1 105.444L115.166 105.182C117.56 104.579 119.25 102.426 119.25 99.9518C119.25 98.5234 118.687 97.1555 117.681 96.1496L110.942 89.4104C110.197 88.666 110.197 87.459 110.942 86.7146C112.088 85.568 113.778 85.1656 115.327 85.6887L118.164 86.6342C120.638 87.459 123.334 86.3324 124.501 84.0189C125.205 82.6107 126.754 81.8463 128.303 82.1682L133.815 83.2746C128.906 65.6117 112.712 52.6562 93.5001 52.6562C87.9277 52.6562 82.6368 53.7426 77.7685 55.7141ZM42.0001 94.5C42.0001 80.8414 47.426 67.7421 57.0841 58.084C66.7422 48.4259 79.8415 43 93.5001 43C107.159 43 120.258 48.4259 129.916 58.084C139.574 67.7421 145 80.8414 145 94.5C145 108.159 139.574 121.258 129.916 130.916C120.258 140.574 107.159 146 93.5001 146C79.8415 146 66.7422 140.574 57.0841 130.916C47.426 121.258 42.0001 108.159 42.0001 94.5Z" fill="url(#paint0_linear_1058_2420)"/>
</g>
<g filter="url(#filter1_i_1058_2420)">
<path d="M179.768 73C179.768 73 184 78.0784 184 89.9279C184 101.777 179.768 106.856 179.768 106.856M174.125 81.464C174.125 81.464 175.536 84.0031 175.536 89.9279C175.536 95.8527 174.125 98.3919 174.125 98.3919" stroke="#0B6BEC" stroke-width="4.23198" stroke-linecap="round"/>
<path d="M166 83.834C168.044 85.6396 170.905 90.3343 166 94.6678" stroke="#0B6BEC" stroke-width="2.70846" stroke-linecap="round" stroke-linejoin="round"/>
</g>
<g filter="url(#filter2_i_1058_2420)">
<path d="M74.9893 181.403C74.9893 181.403 79.993 185.723 91.8408 185.93C103.688 186.137 108.84 181.994 108.84 181.994M83.5504 175.909C83.5504 175.909 86.0646 177.364 91.9885 177.468C97.9123 177.571 100.476 176.205 100.476 176.205" stroke="#0B6BEC" stroke-width="4.23198" stroke-linecap="round"/>
<path d="M86.0618 167.826C87.8315 169.901 92.4755 172.844 96.894 168.015" stroke="#0B6BEC" stroke-width="2.70846" stroke-linecap="round" stroke-linejoin="round"/>
</g>
<g filter="url(#filter3_i_1058_2420)">
<path d="M6.23131 72.2452C6.23131 72.2452 2.09058 77.3982 2.3019 89.2458C2.51322 101.093 6.83509 106.096 6.83509 106.096M12.024 80.6071C12.024 80.6071 10.6588 83.1711 10.7645 89.0949C10.8702 95.0187 12.3259 97.5323 12.3259 97.5323" stroke="#0B6BEC" stroke-width="4.23198" stroke-linecap="round"/>
<path d="M20.1904 82.832C18.1791 84.6738 15.4018 89.4188 20.3836 93.6642" stroke="#0B6BEC" stroke-width="2.70846" stroke-linecap="round" stroke-linejoin="round"/>
</g>
<g filter="url(#filter4_i_1058_2420)">
<path d="M108.864 7.23238C108.864 7.23238 103.778 3.0102 91.9282 3.03305C80.0787 3.0559 75.0085 7.29766 75.0085 7.29766M100.411 12.8913C100.411 12.8913 97.8693 11.4856 91.9445 11.497C86.0198 11.5084 83.4833 12.924 83.4833 12.924" stroke="#0B58EC" stroke-width="4.23198" stroke-linecap="round"/>
<path d="M98.057 21.0215C96.2474 18.9811 91.5472 16.1287 87.2232 21.0424" stroke="#0B58EC" stroke-width="2.70846" stroke-linecap="round" stroke-linejoin="round"/>
</g>
<defs>
<filter id="filter0_i_1058_2420" x="42.0001" y="43" width="110" height="107" filterUnits="userSpaceOnUse" color-interpolation-filters="sRGB">
<feFlood flood-opacity="0" result="BackgroundImageFix"/>
<feBlend mode="normal" in="SourceGraphic" in2="BackgroundImageFix" result="shape"/>
<feColorMatrix in="SourceAlpha" type="matrix" values="0 0 0 0 0 0 0 0 0 0 0 0 0 0 0 0 0 0 127 0" result="hardAlpha"/>
<feOffset dx="11" dy="4"/>
<feGaussianBlur stdDeviation="3.5"/>
<feComposite in2="hardAlpha" operator="arithmetic" k2="-1" k3="1"/>
<feColorMatrix type="matrix" values="0 0 0 0 0 0 0 0 0 0 0 0 0 0 0 0 0 0 0.25 0"/>
<feBlend mode="normal" in2="shape" result="effect1_innerShadow_1058_2420"/>
</filter>
<filter id="filter1_i_1058_2420" x="164.646" y="70.8848" width="25.4702" height="42.0879" filterUnits="userSpaceOnUse" color-interpolation-filters="sRGB">
<feFlood flood-opacity="0" result="BackgroundImageFix"/>
<feBlend mode="normal" in="SourceGraphic" in2="BackgroundImageFix" result="shape"/>
<feColorMatrix in="SourceAlpha" type="matrix" values="0 0 0 0 0 0 0 0 0 0 0 0 0 0 0 0 0 0 127 0" result="hardAlpha"/>
<feOffset dx="9" dy="4"/>
<feGaussianBlur stdDeviation="2"/>
<feComposite in2="hardAlpha" operator="arithmetic" k2="-1" k3="1"/>
<feColorMatrix type="matrix" values="0 0 0 0 0.0308334 0 0 0 0 0.925 0 0 0 0 0.925 0 0 0 0.58 0"/>
<feBlend mode="normal" in2="shape" result="effect1_innerShadow_1058_2420"/>
</filter>
<filter id="filter2_i_1058_2420" x="72.8733" y="166.473" width="42.0828" height="25.582" filterUnits="userSpaceOnUse" color-interpolation-filters="sRGB">
<feFlood flood-opacity="0" result="BackgroundImageFix"/>
<feBlend mode="normal" in="SourceGraphic" in2="BackgroundImageFix" result="shape"/>
<feColorMatrix in="SourceAlpha" type="matrix" values="0 0 0 0 0 0 0 0 0 0 0 0 0 0 0 0 0 0 127 0" result="hardAlpha"/>
<feOffset dx="30" dy="4"/>
<feGaussianBlur stdDeviation="2"/>
<feComposite in2="hardAlpha" operator="arithmetic" k2="-1" k3="1"/>
<feColorMatrix type="matrix" values="0 0 0 0 0.0308334 0 0 0 0 0.925 0 0 0 0 0.925 0 0 0 0.58 0"/>
<feBlend mode="normal" in2="shape" result="effect1_innerShadow_1058_2420"/>
</filter>
<filter id="filter3_i_1058_2420" x="-3.8219" y="70.1289" width="25.5598" height="42.082" filterUnits="userSpaceOnUse" color-interpolation-filters="sRGB">
<feFlood flood-opacity="0" result="BackgroundImageFix"/>
<feBlend mode="normal" in="SourceGraphic" in2="BackgroundImageFix" result="shape"/>
<feColorMatrix in="SourceAlpha" type="matrix" values="0 0 0 0 0 0 0 0 0 0 0 0 0 0 0 0 0 0 127 0" result="hardAlpha"/>
<feOffset dx="-4" dy="4"/>
<feGaussianBlur stdDeviation="2"/>
<feComposite in2="hardAlpha" operator="arithmetic" k2="-1" k3="1"/>
<feColorMatrix type="matrix" values="0 0 0 0 0.0308334 0 0 0 0 0.925 0 0 0 0 0.925 0 0 0 0.58 0"/>
<feBlend mode="normal" in2="shape" result="effect1_innerShadow_1058_2420"/>
</filter>
<filter id="filter4_i_1058_2420" x="72.8925" y="0.916016" width="42.0878" height="25.4805" filterUnits="userSpaceOnUse" color-interpolation-filters="sRGB">
<feFlood flood-opacity="0" result="BackgroundImageFix"/>
<feBlend mode="normal" in="SourceGraphic" in2="BackgroundImageFix" result="shape"/>
<feColorMatrix in="SourceAlpha" type="matrix" values="0 0 0 0 0 0 0 0 0 0 0 0 0 0 0 0 0 0 127 0" result="hardAlpha"/>
<feOffset dx="15" dy="4"/>
<feGaussianBlur stdDeviation="2"/>
<feComposite in2="hardAlpha" operator="arithmetic" k2="-1" k3="1"/>
<feColorMatrix type="matrix" values="0 0 0 0 0.0308334 0 0 0 0 0.925 0 0 0 0 0.925 0 0 0 0.58 0"/>
<feBlend mode="normal" in2="shape" result="effect1_innerShadow_1058_2420"/>
</filter>
<linearGradient id="paint0_linear_1058_2420" x1="65.5001" y1="55" x2="123.5" y2="139" gradientUnits="userSpaceOnUse">
<stop stop-color="#27D6FD"/>
<stop offset="1" stop-color="#104CC0" stop-opacity="0.96"/>
</linearGradient>
</defs>
</svg>
