<svg width="516" height="513" viewBox="0 0 516 513" fill="none" xmlns="http://www.w3.org/2000/svg">
<g filter="url(#filter0_i_1354_4771)">
<path d="M361.564 102.076L414.172 49.4648L466.839 102.076H437.144V176.869H391.201V102.076H361.564Z" fill="#3C73E2" stroke="#1765EE" stroke-width="0.484982" stroke-linecap="round" stroke-linejoin="round"/>
<path d="M475.691 35.5141V28.2302H460.338L487.568 1L514.854 28.2302H499.501V56.3545H475.691V41.0041" fill="#1EEDF1"/>
<path d="M475.691 35.5141V28.2302H460.338L487.568 1L514.854 28.2302H499.501V56.3545H475.691V41.0041" stroke="#1765EE" stroke-width="0.484982" stroke-linecap="round" stroke-linejoin="round"/>
</g>
<g filter="url(#filter1_i_1354_4771)">
<path d="M515.303 303.344C375.048 565.094 321.24 359.475 202.256 359.475C-2.62987 730.117 0.00752079 325.007 0.00752079 232.411C0.00752079 139.814 96.4625 64.75 215.446 64.75C334.429 64.75 515.303 210.748 515.303 303.344Z" fill="url(#paint0_linear_1354_4771)"/>
</g>
<g filter="url(#filter2_i_1354_4771)">
<path d="M45.8506 254.479C45.8506 257.183 44.8258 259.65 43.147 261.509C41.2271 263.638 38.4492 264.974 35.356 264.974C29.5591 264.974 24.8613 260.276 24.8613 254.479C24.8613 253.041 25.1489 251.673 25.6729 250.421L35.356 254.479L34.8598 243.998C35.0221 243.989 35.189 243.984 35.356 243.984C41.1529 243.984 45.8506 248.682 45.8506 254.479Z" fill="#3208F4"/>
<path d="M33.8151 242.27C30.6801 242.413 27.9069 243.934 26.0797 246.244C25.4907 246.986 25.0038 247.811 24.6328 248.697L34.3113 252.75L33.8151 242.27Z" fill="#220DC9"/>
<path d="M45.8463 254.477C45.8463 257.181 44.8214 259.648 43.1427 261.508L35.3517 254.477L34.8555 243.996C35.0178 243.987 35.1847 243.982 35.3517 243.982C41.1485 243.982 45.8463 248.68 45.8463 254.477Z" fill="#19DFDF"/>
<path d="M142.469 269.086H118.912V370.087H142.469V269.086Z" fill="#3208F4"/>
<path d="M118.912 343.454C127.255 340.87 135.108 336.256 142.469 331.283V370.087H118.912V343.454Z" fill="#19DFDF"/>
<path d="M103.926 297.158H80.3691V370.087H103.926V297.158Z" fill="#3208F4"/>
<path d="M99.5747 345.158C101.047 345.387 102.487 345.518 103.926 345.551V370.09H80.3691V345.78C84.5244 344.406 90.6426 343.85 99.5747 345.158Z" fill="#19DFDF"/>
<path d="M180.975 238.924H157.418V370.091H180.975V238.924Z" fill="#3208F4"/>
<path d="M181.004 310.805V370.09H157.447V320.882C165.823 315.189 173.643 310.772 181.004 310.805Z" fill="#19DFDF"/>
<path d="M180.057 200.671L158.79 205.219L164.515 210.814L131.961 244.023L120.542 232.8L80.1351 273.992C78.5973 275.563 78.6301 278.082 80.2006 279.62C81.771 281.158 84.2903 281.125 85.8281 279.555L120.673 244.055L132.092 255.278L170.241 216.376L175.967 221.97L180.122 200.605L180.057 200.671Z" fill="#3208F4"/>
</g>
<g filter="url(#filter3_i_1354_4771)">
<path d="M286.394 278.634C291.743 278.634 296.619 276.788 300.596 273.805V316.504C300.596 321.711 296.335 325.972 291.128 325.972H215.387C210.18 325.972 205.92 321.711 205.92 316.504V259.699C205.92 254.492 210.18 250.231 215.387 250.231H263.199C262.915 251.746 262.725 253.356 262.725 254.965C262.725 261.971 265.802 268.172 270.631 272.527L253.258 283.368L221.541 263.533C221.094 263.223 220.588 263.007 220.055 262.899C219.521 262.79 218.972 262.79 218.438 262.9C217.905 263.01 217.4 263.227 216.953 263.538C216.506 263.849 216.127 264.247 215.839 264.709C215.55 265.17 215.358 265.686 215.275 266.223C215.191 266.761 215.217 267.311 215.352 267.838C215.487 268.365 215.728 268.86 216.059 269.292C216.391 269.723 216.806 270.083 217.281 270.35L250.749 291.273C252.264 292.22 254.252 292.22 255.767 291.273L278.347 277.166C280.903 278.066 283.554 278.634 286.394 278.634ZM272.193 254.965C272.193 262.823 278.536 269.166 286.394 269.166C294.252 269.166 300.596 262.823 300.596 254.965C300.596 247.107 294.252 240.764 286.394 240.764C278.536 240.764 272.193 247.107 272.193 254.965Z" fill="#19DFDF"/>
</g>
<g filter="url(#filter4_i_1354_4771)">
<path d="M382.127 360.454C374.469 360.454 367.232 358.982 360.414 356.038C353.597 353.095 347.642 349.079 342.551 343.991C337.463 338.903 333.447 332.951 330.504 326.133C327.56 319.316 326.09 312.078 326.094 304.42C326.094 296.669 327.566 289.407 330.509 282.634C333.453 275.862 337.469 269.933 342.556 264.849C347.644 259.758 353.595 255.742 360.409 252.802C367.222 249.862 374.462 248.39 382.127 248.387C389.879 248.387 397.14 249.859 403.913 252.802C410.686 255.746 416.614 259.762 421.698 264.849C426.79 269.937 430.805 275.867 433.745 282.64C436.685 289.413 438.157 296.673 438.161 304.42V312.545C438.161 318.055 436.271 322.749 432.49 326.626C428.71 330.504 424.063 332.441 418.549 332.437C415.187 332.437 412.058 331.69 409.163 330.196C406.268 328.701 403.887 326.74 402.019 324.312C399.498 326.834 396.532 328.819 393.121 330.268C389.71 331.718 386.046 332.441 382.127 332.437C374.376 332.437 367.768 329.704 362.303 324.239C356.837 318.774 354.107 312.168 354.111 304.42C354.111 296.669 356.843 290.061 362.308 284.596C367.773 279.13 374.38 276.4 382.127 276.403C389.879 276.403 396.487 279.136 401.952 284.601C407.417 290.066 410.148 296.673 410.144 304.42V312.545C410.144 315.253 410.985 317.377 412.666 318.916C414.347 320.455 416.308 321.227 418.549 321.23C420.79 321.23 422.752 320.459 424.433 318.916C426.114 317.373 426.954 315.25 426.954 312.545V304.42C426.954 292.186 422.54 281.656 413.713 272.829C404.886 264.001 394.357 259.59 382.127 259.593C369.893 259.593 359.363 264.007 350.536 272.834C341.708 281.661 337.297 292.19 337.3 304.42C337.3 316.654 341.714 327.185 350.541 336.012C359.368 344.839 369.897 349.251 382.127 349.247H404.541C406.128 349.247 407.46 349.785 408.536 350.861C409.612 351.937 410.148 353.266 410.144 354.85C410.144 356.438 409.606 357.77 408.53 358.846C407.454 359.921 406.125 360.457 404.541 360.454H382.127ZM382.127 321.23C386.797 321.23 390.766 319.596 394.034 316.327C397.303 313.059 398.937 309.09 398.937 304.42C398.937 299.751 397.303 295.782 394.034 292.513C390.766 289.244 386.797 287.61 382.127 287.61C377.458 287.61 373.489 289.244 370.22 292.513C366.952 295.782 365.317 299.751 365.317 304.42C365.317 309.09 366.952 313.059 370.22 316.327C373.489 319.596 377.458 321.23 382.127 321.23Z" fill="url(#paint1_linear_1354_4771)"/>
</g>
<defs>
<filter id="filter0_i_1354_4771" x="361.322" y="0.757812" width="154.743" height="177.323" filterUnits="userSpaceOnUse" color-interpolation-filters="sRGB">
<feFlood flood-opacity="0" result="BackgroundImageFix"/>
<feBlend mode="normal" in="SourceGraphic" in2="BackgroundImageFix" result="shape"/>
<feColorMatrix in="SourceAlpha" type="matrix" values="0 0 0 0 0 0 0 0 0 0 0 0 0 0 0 0 0 0 127 0" result="hardAlpha"/>
<feOffset dx="5.09231" dy="0.969964"/>
<feGaussianBlur stdDeviation="0.484982"/>
<feComposite in2="hardAlpha" operator="arithmetic" k2="-1" k3="1"/>
<feColorMatrix type="matrix" values="0 0 0 0 0 0 0 0 0 0 0 0 0 0 0 0 0 0 0.25 0"/>
<feBlend mode="normal" in2="shape" result="effect1_innerShadow_1354_4771"/>
</filter>
<filter id="filter1_i_1354_4771" x="0.00585938" y="64.75" width="519.662" height="452.615" filterUnits="userSpaceOnUse" color-interpolation-filters="sRGB">
<feFlood flood-opacity="0" result="BackgroundImageFix"/>
<feBlend mode="normal" in="SourceGraphic" in2="BackgroundImageFix" result="shape"/>
<feColorMatrix in="SourceAlpha" type="matrix" values="0 0 0 0 0 0 0 0 0 0 0 0 0 0 0 0 0 0 127 0" result="hardAlpha"/>
<feOffset dx="5.81979" dy="8.72968"/>
<feGaussianBlur stdDeviation="2.18242"/>
<feComposite in2="hardAlpha" operator="arithmetic" k2="-1" k3="1"/>
<feColorMatrix type="matrix" values="0 0 0 0 0 0 0 0 0 0 0 0 0 0 0 0 0 0 0.25 0"/>
<feBlend mode="normal" in2="shape" result="effect1_innerShadow_1354_4771"/>
</filter>
<filter id="filter2_i_1354_4771" x="24.6328" y="200.605" width="157.341" height="170.456" filterUnits="userSpaceOnUse" color-interpolation-filters="sRGB">
<feFlood flood-opacity="0" result="BackgroundImageFix"/>
<feBlend mode="normal" in="SourceGraphic" in2="BackgroundImageFix" result="shape"/>
<feColorMatrix in="SourceAlpha" type="matrix" values="0 0 0 0 0 0 0 0 0 0 0 0 0 0 0 0 0 0 127 0" result="hardAlpha"/>
<feOffset dx="3.63737" dy="0.969964"/>
<feGaussianBlur stdDeviation="0.484982"/>
<feComposite in2="hardAlpha" operator="arithmetic" k2="-1" k3="1"/>
<feColorMatrix type="matrix" values="0 0 0 0 0 0 0 0 0 0 0 0 0 0 0 0 0 0 0.25 0"/>
<feBlend mode="normal" in2="shape" result="effect1_innerShadow_1354_4771"/>
</filter>
<filter id="filter3_i_1354_4771" x="204.95" y="240.764" width="95.6457" height="86.1789" filterUnits="userSpaceOnUse" color-interpolation-filters="sRGB">
<feFlood flood-opacity="0" result="BackgroundImageFix"/>
<feBlend mode="normal" in="SourceGraphic" in2="BackgroundImageFix" result="shape"/>
<feColorMatrix in="SourceAlpha" type="matrix" values="0 0 0 0 0 0 0 0 0 0 0 0 0 0 0 0 0 0 127 0" result="hardAlpha"/>
<feOffset dx="-2.6674" dy="2.6674"/>
<feGaussianBlur stdDeviation="0.484982"/>
<feComposite in2="hardAlpha" operator="arithmetic" k2="-1" k3="1"/>
<feColorMatrix type="matrix" values="0 0 0 0 0 0 0 0 0 0 0 0 0 0 0 0 0 0 0.25 0"/>
<feBlend mode="normal" in2="shape" result="effect1_innerShadow_1354_4771"/>
</filter>
<filter id="filter4_i_1354_4771" x="326.094" y="248.387" width="113.036" height="113.036" filterUnits="userSpaceOnUse" color-interpolation-filters="sRGB">
<feFlood flood-opacity="0" result="BackgroundImageFix"/>
<feBlend mode="normal" in="SourceGraphic" in2="BackgroundImageFix" result="shape"/>
<feColorMatrix in="SourceAlpha" type="matrix" values="0 0 0 0 0 0 0 0 0 0 0 0 0 0 0 0 0 0 127 0" result="hardAlpha"/>
<feOffset dx="5.09231" dy="0.969964"/>
<feGaussianBlur stdDeviation="0.484982"/>
<feComposite in2="hardAlpha" operator="arithmetic" k2="-1" k3="1"/>
<feColorMatrix type="matrix" values="0 0 0 0 0 0 0 0 0 0 0 0 0 0 0 0 0 0 0.25 0"/>
<feBlend mode="normal" in2="shape" result="effect1_innerShadow_1354_4771"/>
</filter>
<linearGradient id="paint0_linear_1354_4771" x1="257.654" y1="64.75" x2="257.654" y2="513" gradientUnits="userSpaceOnUse">
<stop stop-color="#19DFDF"/>
<stop offset="1" stop-color="#6B7CFE"/>
</linearGradient>
<linearGradient id="paint1_linear_1354_4771" x1="382.127" y1="248.387" x2="382.127" y2="360.454" gradientUnits="userSpaceOnUse">
<stop stop-color="#1C0CF9"/>
<stop offset="1" stop-color="#0C43BC"/>
</linearGradient>
</defs>
</svg>
