<svg width="312" height="70" viewBox="0 0 312 70" fill="none" xmlns="http://www.w3.org/2000/svg">
<path d="M48.6985 58.7089H31.5456L36.5237 42.8316H43.3957L39.4998 30.1733H60.3864L74.7797 68.9664H52.2698L48.6985 58.6543V58.7089ZM118.447 0.000976562C131.271 0.000976562 141.822 10.5859 141.822 23.5714C141.822 36.557 131.325 47.1419 118.447 47.1419H107.029V69.1301H85.7641V29.9005H113.631C117.094 29.9005 119.908 27.0634 119.908 23.5714C119.908 20.0795 117.094 17.2423 113.631 17.2423L39.1751 17.2969L22.455 69.021H0.432129L25.4311 0.000976562H118.339H118.447Z" fill="white"/>
<path d="M159.949 45.1774H154.484L153.673 47.7417H148.261L154.268 30.8823H160.22L166.226 47.7417H160.815L160.003 45.1774H159.949ZM158.705 41.1944L157.244 36.5021L155.783 41.1944H158.759H158.705ZM175.641 47.7417L172.557 41.6854V47.7417H167.417V30.8823H175.1C176.453 30.8823 177.589 31.1006 178.509 31.5916C179.429 32.0827 180.187 32.7374 180.619 33.5558C181.106 34.3742 181.323 35.3563 181.323 36.393C181.323 37.5388 180.998 38.5209 180.403 39.3939C179.808 40.2668 178.888 40.9216 177.752 41.2489L181.323 47.6872H175.641V47.7417ZM172.503 38.1935H174.559C175.046 38.1935 175.425 38.0844 175.695 37.8661C175.966 37.6479 176.074 37.266 176.074 36.7749C176.074 36.3384 175.966 35.9565 175.695 35.7383C175.425 35.4655 175.046 35.3563 174.613 35.3563H172.557V38.1935H172.503ZM188.087 35.1381V37.2114H193.173V41.1944H188.087V43.5951H193.876V47.7963H182.892V30.9369H193.876V35.1381H188.087ZM215.629 30.9369V47.7963H210.488V39.3939L207.945 47.7963H203.508L200.965 39.3939V47.7963H195.824V30.9369H202.155L205.781 41.0853L209.298 30.9369H215.575H215.629ZM228.453 47.7963L225.423 43.4314L222.934 47.7963H217.036L222.447 39.1211L216.819 30.9369H222.934L225.856 35.1381L228.291 30.9369H234.189L228.886 39.4484L234.676 47.7963H228.561H228.453ZM251.504 30.9369L245.606 42.6675V47.7963H240.465V42.6675L234.567 30.9369H240.465L243.117 36.9386L245.768 30.9369H251.558H251.504ZM266.114 36.7204C266.114 37.757 265.897 38.7391 265.41 39.6121C264.923 40.4851 264.22 41.1398 263.3 41.6854C262.38 42.1765 261.244 42.4493 259.891 42.4493H257.835V47.7963H252.694V30.9369H259.891C261.893 30.9369 263.462 31.4825 264.545 32.5191C265.627 33.5558 266.168 34.9744 266.168 36.7204H266.114ZM259.296 38.2481C260.378 38.2481 260.919 37.757 260.919 36.7204C260.919 35.6837 260.378 35.1926 259.296 35.1926H257.835V38.3026H259.296V38.2481ZM272.932 43.7588H277.91V47.7417H267.791V30.8823H272.932V43.7588ZM284.565 30.8823V40.376C284.565 41.1398 284.728 41.7946 285.052 42.231C285.377 42.6675 285.918 42.8858 286.676 42.8858C287.433 42.8858 287.974 42.6675 288.299 42.231C288.678 41.7946 288.84 41.1398 288.84 40.376V30.8823H293.981V40.376C293.981 41.9582 293.656 43.3223 293.007 44.4681C292.357 45.6138 291.492 46.4323 290.355 47.0324C289.219 47.5781 287.974 47.9054 286.567 47.9054C285.161 47.9054 283.916 47.6326 282.834 47.0324C281.752 46.4868 280.94 45.6138 280.291 44.4681C279.695 43.3223 279.371 41.9582 279.371 40.3214V30.8277H284.511L284.565 30.8823ZM306.318 36.6658C306.101 36.3384 305.831 36.0656 305.452 35.9019C305.073 35.7383 304.64 35.6291 304.099 35.6291C303.125 35.6291 302.368 35.9565 301.772 36.6112C301.231 37.266 300.961 38.1935 300.961 39.3393C300.961 40.6488 301.285 41.6309 301.881 42.2856C302.476 42.9403 303.396 43.2677 304.694 43.2677C305.885 43.2677 306.859 42.7767 307.562 41.7946H303.45V38.0298H311.837V43.3223C311.134 44.5772 310.16 45.6684 308.861 46.5414C307.616 47.4144 305.993 47.9054 304.099 47.9054C302.422 47.9054 300.907 47.5235 299.662 46.8142C298.418 46.1049 297.444 45.0682 296.74 43.7588C296.091 42.4493 295.712 40.9761 295.712 39.2847C295.712 37.5933 296.037 36.1202 296.74 34.8107C297.39 33.5012 298.364 32.5191 299.608 31.7553C300.853 31.046 302.314 30.6641 304.045 30.6641C306.21 30.6641 307.941 31.2097 309.294 32.2463C310.647 33.283 311.458 34.7562 311.675 36.5567H306.264L306.318 36.6658Z" fill="white"/>
</svg>
