<svg width="120" height="39" viewBox="0 0 120 39" fill="none" xmlns="http://www.w3.org/2000/svg">
<g id="Group 12696">
<rect id="Rectangle 148725" x="0.938965" y="0.500977" width="118" height="38" rx="3.5" fill="black" stroke="white"/>
<g id="Group 12695">
<path id="Vector" d="M18.4362 19.0264L10.5101 27.3306C10.5991 27.6461 10.7591 27.937 10.9777 28.1812C11.1964 28.4253 11.468 28.6163 11.7717 28.7394C12.0755 28.8625 12.4034 28.9145 12.7303 28.8915C13.0573 28.8685 13.3746 28.771 13.6582 28.6065L22.5767 23.5271L18.4362 19.0264Z" fill="#EA4335"/>
<path id="Vector_2" d="M26.4511 17.6142L22.5943 15.4053L18.2531 19.215L22.6119 23.5146L26.4393 21.3293C26.7784 21.1518 27.0624 20.8848 27.2606 20.5574C27.4588 20.2299 27.5636 19.8545 27.5636 19.4717C27.5636 19.089 27.4588 18.7135 27.2606 18.3861C27.0624 18.0587 26.7784 17.7917 26.4393 17.6142H26.4511Z" fill="#FBBC04"/>
<path id="Vector_3" d="M10.5099 11.5715C10.462 11.7486 10.4381 11.9315 10.439 12.115V26.7862C10.4395 26.9697 10.4633 27.1523 10.5099 27.3296L18.7078 19.2382L10.5101 11.5713L10.5099 11.5715Z" fill="#4285F4"/>
<path id="Vector_4" d="M18.4953 19.451L22.5943 15.4053L13.6874 10.3024C13.3523 10.1061 12.9711 10.0021 12.5827 10.001C12.1138 10.0002 11.6575 10.1527 11.2834 10.4352C10.9092 10.7178 10.6377 11.115 10.5101 11.5662L18.4953 19.451Z" fill="#34A853"/>
</g>
<path id="Google Play" d="M38.1464 18.0606C38.0753 17.8305 37.9773 17.6246 37.8523 17.4427C37.7302 17.2581 37.5824 17.1004 37.4091 16.9697C37.2387 16.839 37.0427 16.741 36.8211 16.6757C36.5995 16.6075 36.358 16.5734 36.0966 16.5734C35.6279 16.5734 35.2103 16.6913 34.8438 16.9271C34.4773 17.1629 34.189 17.5095 33.9787 17.9669C33.7714 18.4214 33.6677 18.9754 33.6677 19.6288C33.6677 20.2879 33.7714 20.8461 33.9787 21.3035C34.1861 21.7609 34.4745 22.1089 34.8438 22.3476C35.2131 22.5834 35.6421 22.7013 36.1307 22.7013C36.5739 22.7013 36.9574 22.616 37.2813 22.4456C37.608 22.2751 37.8594 22.0336 38.0356 21.7211C38.2117 21.4058 38.2998 21.0365 38.2998 20.6132L38.6577 20.6686H36.2884V19.4328H39.8296V20.4811C39.8296 21.2282 39.6705 21.8746 39.3523 22.42C39.0341 22.9655 38.5966 23.3859 38.0398 23.6814C37.483 23.974 36.8438 24.1203 36.1222 24.1203C35.3182 24.1203 34.6123 23.9399 34.0043 23.5791C33.3992 23.2155 32.9262 22.6998 32.5853 22.0322C32.2472 21.3618 32.0782 20.5663 32.0782 19.6459C32.0782 18.9413 32.1776 18.3121 32.3765 17.7581C32.5782 17.2041 32.8594 16.7339 33.2202 16.3476C33.581 15.9584 34.0043 15.6629 34.4901 15.4612C34.9759 15.2567 35.5043 15.1544 36.0753 15.1544C36.5583 15.1544 37.0086 15.2254 37.4262 15.3675C37.8438 15.5067 38.2145 15.7055 38.5384 15.964C38.8651 16.2226 39.1336 16.5294 39.3438 16.8845C39.554 17.2396 39.6918 17.6317 39.7571 18.0606H38.1464ZM44.1453 24.1288C43.5061 24.1288 42.9521 23.9882 42.4834 23.7069C42.0146 23.4257 41.651 23.0322 41.3924 22.5265C41.1368 22.0209 41.0089 21.43 41.0089 20.7538C41.0089 20.0777 41.1368 19.4854 41.3924 18.9768C41.651 18.4683 42.0146 18.0734 42.4834 17.7922C42.9521 17.5109 43.5061 17.3703 44.1453 17.3703C44.7845 17.3703 45.3385 17.5109 45.8072 17.7922C46.276 18.0734 46.6382 18.4683 46.8939 18.9768C47.1524 19.4854 47.2816 20.0777 47.2816 20.7538C47.2816 21.43 47.1524 22.0209 46.8939 22.5265C46.6382 23.0322 46.276 23.4257 45.8072 23.7069C45.3385 23.9882 44.7845 24.1288 44.1453 24.1288ZM44.1538 22.893C44.5004 22.893 44.7902 22.7979 45.0231 22.6075C45.2561 22.4143 45.4294 22.1558 45.543 21.8319C45.6595 21.5081 45.7177 21.1473 45.7177 20.7496C45.7177 20.349 45.6595 19.9868 45.543 19.6629C45.4294 19.3362 45.2561 19.0763 45.0231 18.8831C44.7902 18.6899 44.5004 18.5933 44.1538 18.5933C43.7987 18.5933 43.5032 18.6899 43.2674 18.8831C43.0345 19.0763 42.8598 19.3362 42.7433 19.6629C42.6297 19.9868 42.5728 20.349 42.5728 20.7496C42.5728 21.1473 42.6297 21.5081 42.7433 21.8319C42.8598 22.1558 43.0345 22.4143 43.2674 22.6075C43.5032 22.7979 43.7987 22.893 44.1538 22.893ZM51.4461 24.1288C50.8069 24.1288 50.2529 23.9882 49.7841 23.7069C49.3154 23.4257 48.9517 23.0322 48.6932 22.5265C48.4375 22.0209 48.3097 21.43 48.3097 20.7538C48.3097 20.0777 48.4375 19.4854 48.6932 18.9768C48.9517 18.4683 49.3154 18.0734 49.7841 17.7922C50.2529 17.5109 50.8069 17.3703 51.4461 17.3703C52.0853 17.3703 52.6392 17.5109 53.108 17.7922C53.5767 18.0734 53.939 18.4683 54.1946 18.9768C54.4532 19.4854 54.5824 20.0777 54.5824 20.7538C54.5824 21.43 54.4532 22.0209 54.1946 22.5265C53.939 23.0322 53.5767 23.4257 53.108 23.7069C52.6392 23.9882 52.0853 24.1288 51.4461 24.1288ZM51.4546 22.893C51.8012 22.893 52.091 22.7979 52.3239 22.6075C52.5569 22.4143 52.7302 22.1558 52.8438 21.8319C52.9603 21.5081 53.0185 21.1473 53.0185 20.7496C53.0185 20.349 52.9603 19.9868 52.8438 19.6629C52.7302 19.3362 52.5569 19.0763 52.3239 18.8831C52.091 18.6899 51.8012 18.5933 51.4546 18.5933C51.0995 18.5933 50.804 18.6899 50.5682 18.8831C50.3353 19.0763 50.1606 19.3362 50.0441 19.6629C49.9304 19.9868 49.8736 20.349 49.8736 20.7496C49.8736 21.1473 49.9304 21.5081 50.0441 21.8319C50.1606 22.1558 50.3353 22.4143 50.5682 22.6075C50.804 22.7979 51.0995 22.893 51.4546 22.893ZM58.7383 26.5919C58.1843 26.5919 57.7085 26.5166 57.3108 26.366C56.913 26.2183 56.5934 26.0194 56.352 25.7694C56.1105 25.5194 55.9429 25.2425 55.8491 24.9385L57.2383 24.6018C57.3008 24.7297 57.3917 24.8561 57.5111 24.9811C57.6304 25.1089 57.7909 25.214 57.9926 25.2964C58.1971 25.3817 58.4542 25.4243 58.7639 25.4243C59.2014 25.4243 59.5636 25.3177 59.8505 25.1047C60.1375 24.8944 60.2809 24.5479 60.2809 24.0649V22.8248H60.2042C60.1247 22.9839 60.0082 23.1473 59.8548 23.3149C59.7042 23.4825 59.504 23.6231 59.254 23.7368C59.0068 23.8504 58.6957 23.9072 58.3207 23.9072C57.8179 23.9072 57.3619 23.7893 56.9528 23.5535C56.5466 23.3149 56.2227 22.9598 55.9812 22.4882C55.7426 22.0138 55.6233 21.42 55.6233 20.7069C55.6233 19.9882 55.7426 19.3817 55.9812 18.8873C56.2227 18.3902 56.548 18.0138 56.9571 17.7581C57.3662 17.4996 57.8221 17.3703 58.325 17.3703C58.7085 17.3703 59.0238 17.4356 59.271 17.5663C59.521 17.6942 59.7199 17.849 59.8676 18.0308C60.0153 18.2098 60.1275 18.3788 60.2042 18.5379H60.2895V17.4555H61.8108V24.1075C61.8108 24.6672 61.6772 25.1302 61.4102 25.4967C61.1432 25.8632 60.7781 26.1373 60.315 26.3192C59.852 26.501 59.3264 26.5919 58.7383 26.5919ZM58.7511 22.697C59.0778 22.697 59.3562 22.6175 59.5863 22.4584C59.8165 22.2993 59.9912 22.0706 60.1105 21.7723C60.2298 21.474 60.2895 21.116 60.2895 20.6984C60.2895 20.2865 60.2298 19.9257 60.1105 19.616C59.994 19.3064 59.8207 19.0663 59.5906 18.8959C59.3633 18.7226 59.0835 18.6359 58.7511 18.6359C58.4074 18.6359 58.1204 18.7254 57.8903 18.9044C57.6602 19.0834 57.4869 19.3291 57.3704 19.6416C57.254 19.9513 57.1957 20.3035 57.1957 20.6984C57.1957 21.099 57.254 21.4498 57.3704 21.751C57.4897 22.0493 57.6645 22.2822 57.8946 22.4498C58.1275 22.6146 58.413 22.697 58.7511 22.697ZM64.9343 15.2737V24.001H63.3917V15.2737H64.9343ZM69.4184 24.1288C68.7621 24.1288 68.1954 23.9925 67.7181 23.7197C67.2437 23.4442 66.8786 23.055 66.6229 22.5521C66.3672 22.0464 66.2394 21.4513 66.2394 20.7666C66.2394 20.0933 66.3672 19.5024 66.6229 18.9939C66.8814 18.4825 67.2422 18.0848 67.7053 17.8007C68.1684 17.5138 68.7124 17.3703 69.3374 17.3703C69.7408 17.3703 70.1215 17.4356 70.4794 17.5663C70.8402 17.6942 71.1584 17.893 71.434 18.1629C71.7124 18.4328 71.9312 18.7765 72.0902 19.1942C72.2493 19.6089 72.3289 20.1032 72.3289 20.6771V21.1501H66.9638V20.1104H70.8502C70.8473 19.8149 70.7834 19.5521 70.6584 19.322C70.5334 19.089 70.3587 18.9058 70.1343 18.7723C69.9127 18.6388 69.6542 18.572 69.3587 18.572C69.0434 18.572 68.7664 18.6487 68.5277 18.8021C68.2891 18.9527 68.103 19.1515 67.9695 19.3987C67.8388 19.643 67.7721 19.9115 67.7692 20.2041V21.1118C67.7692 21.4925 67.8388 21.8192 67.978 22.0919C68.1172 22.3618 68.3118 22.5692 68.5618 22.714C68.8118 22.8561 69.1044 22.9271 69.4397 22.9271C69.6641 22.9271 69.8672 22.8959 70.0491 22.8334C70.2309 22.768 70.3885 22.6729 70.5221 22.5479C70.6556 22.4229 70.7564 22.268 70.8246 22.0834L72.265 22.2453C72.1741 22.626 72.0008 22.9584 71.7451 23.2425C71.4922 23.5237 71.1684 23.7425 70.7735 23.8987C70.3786 24.0521 69.9269 24.1288 69.4184 24.1288ZM76.6787 24.001V15.2737H79.9514C80.6218 15.2737 81.1843 15.3987 81.6389 15.6487C82.0963 15.8987 82.4415 16.2425 82.6744 16.68C82.9102 17.1146 83.0281 17.6089 83.0281 18.1629C83.0281 18.7226 82.9102 19.2197 82.6744 19.6544C82.4386 20.089 82.0906 20.4314 81.6304 20.6814C81.1701 20.9285 80.6034 21.0521 79.9301 21.0521H77.7611V19.7524H79.717C80.1091 19.7524 80.4301 19.6842 80.6801 19.5479C80.9301 19.4115 81.1147 19.224 81.2341 18.9854C81.3562 18.7467 81.4173 18.4726 81.4173 18.1629C81.4173 17.8532 81.3562 17.5805 81.2341 17.3447C81.1147 17.1089 80.9287 16.9257 80.6758 16.795C80.4258 16.6615 80.1034 16.5947 79.7085 16.5947H78.2596V24.001H76.6787ZM85.8758 15.2737V24.001H84.3331V15.2737H85.8758ZM89.3456 24.1331C88.9308 24.1331 88.5572 24.0592 88.2248 23.9115C87.8953 23.7609 87.6339 23.5393 87.4407 23.2467C87.2504 22.9541 87.1552 22.5933 87.1552 22.1643C87.1552 21.795 87.2234 21.4896 87.3598 21.2481C87.4961 21.0067 87.6822 20.8135 87.918 20.6686C88.1538 20.5237 88.4194 20.4143 88.7149 20.3405C89.0132 20.2638 89.3214 20.2084 89.6396 20.1743C90.0231 20.1345 90.3342 20.099 90.5728 20.0677C90.8115 20.0336 90.9848 19.9825 91.0927 19.9143C91.2035 19.8433 91.2589 19.7339 91.2589 19.5862V19.5606C91.2589 19.2396 91.1638 18.991 90.9734 18.8149C90.7831 18.6388 90.5089 18.5507 90.151 18.5507C89.7731 18.5507 89.4734 18.6331 89.2518 18.7979C89.0331 18.9626 88.8853 19.1572 88.8086 19.3817L87.3683 19.1771C87.4819 18.7794 87.6694 18.447 87.9308 18.18C88.1922 17.9101 88.5118 17.7084 88.8896 17.5748C89.2674 17.4385 89.6851 17.3703 90.1424 17.3703C90.4578 17.3703 90.7717 17.4072 91.0842 17.4811C91.3967 17.555 91.6822 17.6771 91.9407 17.8476C92.1993 18.0152 92.4066 18.2439 92.5629 18.5336C92.722 18.8234 92.8015 19.1856 92.8015 19.6203V24.001H91.3186V23.1018H91.2674C91.1737 23.2836 91.0416 23.4541 90.8711 23.6132C90.7035 23.7694 90.4919 23.8959 90.2362 23.9925C89.9834 24.0862 89.6865 24.1331 89.3456 24.1331ZM89.7461 22.9996C90.0558 22.9996 90.3243 22.9385 90.5515 22.8163C90.7788 22.6913 90.9535 22.5265 91.0757 22.322C91.2007 22.1175 91.2632 21.8944 91.2632 21.653V20.8817C91.2149 20.9214 91.1325 20.9584 91.016 20.9925C90.9024 21.0265 90.7745 21.0564 90.6325 21.0819C90.4905 21.1075 90.3498 21.1302 90.2106 21.1501C90.0714 21.17 89.9507 21.1871 89.8484 21.2013C89.6183 21.2325 89.4123 21.2836 89.2305 21.3547C89.0487 21.4257 88.9052 21.5251 88.8001 21.653C88.695 21.778 88.6424 21.9399 88.6424 22.1388C88.6424 22.4229 88.7461 22.6373 88.9535 22.7822C89.1609 22.9271 89.4251 22.9996 89.7461 22.9996ZM95.0771 26.4555C94.8669 26.4555 94.6723 26.4385 94.4933 26.4044C94.3172 26.3731 94.1765 26.3362 94.0714 26.2936L94.4294 25.0919C94.6538 25.1572 94.8541 25.1885 95.0302 25.1856C95.2064 25.1828 95.3612 25.1274 95.4947 25.0194C95.6311 24.9143 95.7461 24.7382 95.8399 24.491L95.972 24.1373L93.5984 17.4555H95.2348L96.7433 22.3987H96.8115L98.3243 17.4555H99.9649L97.3441 24.7936C97.222 25.1402 97.0601 25.4371 96.8584 25.6842C96.6566 25.9342 96.4095 26.1246 96.1169 26.2552C95.8271 26.3888 95.4805 26.4555 95.0771 26.4555Z" fill="white"/>
<path id="GET IT ON" d="M34.9503 7.00098C34.9035 6.85751 34.8417 6.72896 34.765 6.61532C34.6897 6.50027 34.5995 6.40225 34.4944 6.32129C34.3907 6.24032 34.2728 6.17853 34.1407 6.13592C34.0086 6.09331 33.8637 6.072 33.706 6.072C33.4475 6.072 33.2124 6.13876 33.0008 6.27228C32.7891 6.40581 32.6208 6.60254 32.4958 6.86248C32.3708 7.12243 32.3083 7.44132 32.3083 7.81916C32.3083 8.197 32.3715 8.51589 32.4979 8.77583C32.6243 9.03578 32.7955 9.23251 33.0114 9.36603C33.2273 9.49956 33.4702 9.56632 33.7401 9.56632C33.9901 9.56632 34.2103 9.51305 34.4006 9.40652C34.5924 9.29856 34.7415 9.14657 34.8481 8.95055C34.956 8.75311 35.01 8.52086 35.01 8.25382L35.1719 8.28791H33.8594V7.81916H35.5214V8.28791C35.5214 8.64728 35.4446 8.95978 35.2912 9.22541C35.1392 9.49103 34.929 9.697 34.6606 9.84331C34.3935 9.98819 34.0867 10.0606 33.7401 10.0606C33.3537 10.0606 33.0142 9.96973 32.7216 9.78791C32.4304 9.60609 32.2032 9.34757 32.0398 9.01234C31.8779 8.67711 31.7969 8.27939 31.7969 7.81916C31.7969 7.47399 31.8431 7.16362 31.9354 6.88805C32.0292 6.61106 32.1613 6.37527 32.3317 6.18066C32.5022 5.98606 32.7039 5.83691 32.9368 5.73322C33.1698 5.62953 33.4262 5.57768 33.706 5.57768C33.9361 5.57768 34.1506 5.61248 34.3495 5.68208C34.5498 5.75027 34.728 5.84757 34.8843 5.97399C35.0419 6.09899 35.1733 6.24885 35.2785 6.42356C35.3836 6.59686 35.456 6.78933 35.4958 7.00098H34.9503ZM36.4264 10.001V5.63734H39.0599V6.10609H36.9548V7.58052H38.9235V8.04927H36.9548V9.53223H39.094V10.001H36.4264ZM39.7737 6.10609V5.63734H43.0464V6.10609H41.6742V10.001H41.1458V6.10609H39.7737ZM46.0778 5.63734V10.001H45.5494V5.63734H46.0778ZM46.8987 6.10609V5.63734H50.1714V6.10609H48.7992V10.001H48.2708V6.10609H46.8987ZM56.3562 7.81916C56.3562 8.27939 56.2731 8.67711 56.1069 9.01234C55.9407 9.34757 55.7128 9.60609 55.423 9.78791C55.1332 9.96973 54.8022 10.0606 54.4301 10.0606C54.0579 10.0606 53.727 9.96973 53.4372 9.78791C53.1474 9.60609 52.9194 9.34757 52.7532 9.01234C52.587 8.67711 52.504 8.27939 52.504 7.81916C52.504 7.35893 52.587 6.9612 52.7532 6.62598C52.9194 6.29075 53.1474 6.03223 53.4372 5.85041C53.727 5.66859 54.0579 5.57768 54.4301 5.57768C54.8022 5.57768 55.1332 5.66859 55.423 5.85041C55.7128 6.03223 55.9407 6.29075 56.1069 6.62598C56.2731 6.9612 56.3562 7.35893 56.3562 7.81916ZM55.8449 7.81916C55.8449 7.44132 55.7816 7.12243 55.6552 6.86248C55.5302 6.60254 55.3605 6.40581 55.146 6.27228C54.9329 6.13876 54.6943 6.072 54.4301 6.072C54.1659 6.072 53.9265 6.13876 53.712 6.27228C53.499 6.40581 53.3292 6.60254 53.2028 6.86248C53.0778 7.12243 53.0153 7.44132 53.0153 7.81916C53.0153 8.197 53.0778 8.51589 53.2028 8.77583C53.3292 9.03578 53.499 9.23251 53.712 9.36603C53.9265 9.49956 54.1659 9.56632 54.4301 9.56632C54.6943 9.56632 54.9329 9.49956 55.146 9.36603C55.3605 9.23251 55.5302 9.03578 55.6552 8.77583C55.7816 8.51589 55.8449 8.197 55.8449 7.81916ZM60.7049 5.63734V10.001H60.1936L57.8157 6.57484H57.7731V10.001H57.2447V5.63734H57.7561L60.1424 9.072H60.1851V5.63734H60.7049Z" fill="white"/>
</g>
</svg>
