<svg width="120" height="39" viewBox="0 0 120 39" fill="none" xmlns="http://www.w3.org/2000/svg">
<rect x="0.938965" y="0.500977" width="118" height="38" rx="3.5" fill="black" stroke="white"/>
<path d="M29.9502 32.6807C28.4371 34.1474 26.785 33.9158 25.1947 33.2211C23.5118 32.5108 21.9679 32.48 20.1923 33.2211C17.969 34.1783 16.7956 33.9004 15.4678 32.6807C7.93323 24.9145 9.04489 13.0878 17.5984 12.6555C19.6828 12.7635 21.1341 13.798 22.3539 13.8906C24.1757 13.5201 25.9204 12.4547 27.8658 12.5937C30.1972 12.779 31.9573 13.7054 33.1153 15.3728C28.2981 18.26 29.4406 24.6057 33.8564 26.3813C32.9763 28.6972 31.8338 30.9977 29.9347 32.6961L29.9502 32.6807ZM22.1995 12.5628C21.9679 9.11978 24.7624 6.27889 27.9739 6.00098C28.4216 9.9844 24.361 12.9488 22.1995 12.5628Z" fill="white"/>
<path d="M44.4205 28.001H42.733L45.8054 19.2737H47.7571L50.8339 28.001H49.1464L46.8154 21.0635H46.7472L44.4205 28.001ZM44.4759 24.5791H49.0782V25.849H44.4759V24.5791ZM51.9152 30.4555V21.4555H53.4322V22.5379H53.5217C53.6013 22.3788 53.7135 22.2098 53.8584 22.0308C54.0032 21.849 54.1993 21.6942 54.4464 21.5663C54.6936 21.4356 55.0089 21.3703 55.3924 21.3703C55.8981 21.3703 56.3541 21.4996 56.7603 21.7581C57.1694 22.0138 57.4933 22.393 57.7319 22.8959C57.9734 23.3959 58.0941 24.0095 58.0941 24.7368C58.0941 25.4555 57.9763 26.0663 57.7405 26.5692C57.5047 27.072 57.1836 27.4555 56.7774 27.7197C56.3711 27.9839 55.9109 28.116 55.3967 28.116C55.0217 28.116 54.7106 28.0535 54.4635 27.9285C54.2163 27.8035 54.0174 27.653 53.8669 27.4768C53.7191 27.2979 53.6041 27.1288 53.5217 26.9697H53.4578V30.4555H51.9152ZM53.428 24.7282C53.428 25.1515 53.4876 25.5223 53.6069 25.8405C53.7291 26.1586 53.9038 26.4072 54.1311 26.5862C54.3612 26.7623 54.6396 26.8504 54.9663 26.8504C55.3072 26.8504 55.5927 26.7595 55.8228 26.5777C56.053 26.393 56.2263 26.1416 56.3427 25.8234C56.462 25.5024 56.5217 25.1373 56.5217 24.7282C56.5217 24.322 56.4635 23.9612 56.347 23.6459C56.2305 23.3305 56.0572 23.0834 55.8271 22.9044C55.597 22.7254 55.3101 22.6359 54.9663 22.6359C54.6368 22.6359 54.3569 22.7226 54.1268 22.8959C53.8967 23.0692 53.722 23.3121 53.6027 23.6246C53.4862 23.9371 53.428 24.305 53.428 24.7282ZM59.4152 30.4555V21.4555H60.9322V22.5379H61.0217C61.1013 22.3788 61.2135 22.2098 61.3584 22.0308C61.5032 21.849 61.6993 21.6942 61.9464 21.5663C62.1936 21.4356 62.5089 21.3703 62.8924 21.3703C63.3981 21.3703 63.8541 21.4996 64.2603 21.7581C64.6694 22.0138 64.9933 22.393 65.2319 22.8959C65.4734 23.3959 65.5941 24.0095 65.5941 24.7368C65.5941 25.4555 65.4763 26.0663 65.2405 26.5692C65.0047 27.072 64.6836 27.4555 64.2774 27.7197C63.8711 27.9839 63.4109 28.116 62.8967 28.116C62.5217 28.116 62.2106 28.0535 61.9635 27.9285C61.7163 27.8035 61.5174 27.653 61.3669 27.4768C61.2191 27.2979 61.1041 27.1288 61.0217 26.9697H60.9578V30.4555H59.4152ZM60.928 24.7282C60.928 25.1515 60.9876 25.5223 61.1069 25.8405C61.2291 26.1586 61.4038 26.4072 61.6311 26.5862C61.8612 26.7623 62.1396 26.8504 62.4663 26.8504C62.8072 26.8504 63.0927 26.7595 63.3228 26.5777C63.553 26.393 63.7263 26.1416 63.8427 25.8234C63.962 25.5024 64.0217 25.1373 64.0217 24.7282C64.0217 24.322 63.9635 23.9612 63.847 23.6459C63.7305 23.3305 63.5572 23.0834 63.3271 22.9044C63.097 22.7254 62.8101 22.6359 62.4663 22.6359C62.1368 22.6359 61.8569 22.7226 61.6268 22.8959C61.3967 23.0692 61.222 23.3121 61.1027 23.6246C60.9862 23.9371 60.928 24.305 60.928 24.7282ZM74.7028 21.6729C74.663 21.3007 74.4954 21.0109 74.2 20.8035C73.9074 20.5961 73.5267 20.4925 73.0579 20.4925C72.7284 20.4925 72.4457 20.5422 72.2099 20.6416C71.9741 20.741 71.7937 20.876 71.6687 21.0464C71.5437 21.2169 71.4798 21.4115 71.477 21.6302C71.477 21.8121 71.5182 21.9697 71.6005 22.1032C71.6858 22.2368 71.8008 22.3504 71.9457 22.4442C72.0906 22.5351 72.2511 22.6118 72.4272 22.6743C72.6034 22.7368 72.7809 22.7893 72.9599 22.8319L73.7781 23.0365C74.1076 23.1132 74.4244 23.2169 74.7284 23.3476C75.0352 23.4782 75.3093 23.643 75.5508 23.8419C75.7951 24.0407 75.9883 24.2808 76.1304 24.5621C76.2724 24.8433 76.3434 25.1729 76.3434 25.5507C76.3434 26.0621 76.2128 26.5123 75.9514 26.9015C75.69 27.2879 75.3122 27.5905 74.8179 27.8092C74.3264 28.0251 73.7312 28.1331 73.0324 28.1331C72.3534 28.1331 71.7639 28.028 71.2639 27.8177C70.7667 27.6075 70.3775 27.3007 70.0963 26.8973C69.8179 26.4939 69.6673 26.0024 69.6446 25.4229H71.2C71.2227 25.7268 71.3165 25.9797 71.4812 26.1814C71.646 26.3831 71.8605 26.5336 72.1247 26.6331C72.3917 26.7325 72.69 26.7822 73.0196 26.7822C73.3633 26.7822 73.6645 26.7311 73.923 26.6288C74.1843 26.5237 74.3889 26.3788 74.5366 26.1942C74.6843 26.0067 74.7596 25.7879 74.7625 25.5379C74.7596 25.3106 74.6929 25.1231 74.5622 24.9754C74.4315 24.8248 74.2483 24.6998 74.0125 24.6004C73.7795 24.4981 73.5068 24.4072 73.1943 24.3277L72.2014 24.072C71.4826 23.8873 70.9145 23.6075 70.4968 23.2325C70.0821 22.8547 69.8747 22.3532 69.8747 21.7282C69.8747 21.214 70.0139 20.7638 70.2923 20.3774C70.5736 19.991 70.9557 19.6913 71.4386 19.4782C71.9216 19.2623 72.4684 19.1544 73.0792 19.1544C73.6986 19.1544 74.2412 19.2623 74.7071 19.4782C75.1758 19.6913 75.5437 19.9882 75.8108 20.3689C76.0778 20.7467 76.2156 21.1814 76.2241 21.6729H74.7028ZM80.9532 21.4555V22.6487H77.1904V21.4555H80.9532ZM78.1194 19.8873H79.662V26.0322C79.662 26.2396 79.6932 26.3987 79.7557 26.5095C79.8211 26.6175 79.9063 26.6913 80.0114 26.7311C80.1165 26.7709 80.233 26.7907 80.3608 26.7907C80.4574 26.7907 80.5455 26.7836 80.625 26.7694C80.7074 26.7552 80.7699 26.7425 80.8125 26.7311L81.0725 27.9371C80.9901 27.9655 80.8722 27.9967 80.7188 28.0308C80.5682 28.0649 80.3836 28.0848 80.1648 28.0905C79.7785 28.1018 79.4304 28.0436 79.1208 27.9157C78.8111 27.7851 78.5654 27.5834 78.3836 27.3106C78.2046 27.0379 78.1165 26.697 78.1194 26.2879V19.8873ZM85.0281 28.1288C84.3889 28.1288 83.8349 27.9882 83.3662 27.7069C82.8974 27.4257 82.5338 27.0322 82.2753 26.5265C82.0196 26.0209 81.8917 25.43 81.8917 24.7538C81.8917 24.0777 82.0196 23.4854 82.2753 22.9768C82.5338 22.4683 82.8974 22.0734 83.3662 21.7922C83.8349 21.5109 84.3889 21.3703 85.0281 21.3703C85.6673 21.3703 86.2213 21.5109 86.69 21.7922C87.1588 22.0734 87.521 22.4683 87.7767 22.9768C88.0352 23.4854 88.1645 24.0777 88.1645 24.7538C88.1645 25.43 88.0352 26.0209 87.7767 26.5265C87.521 27.0322 87.1588 27.4257 86.69 27.7069C86.2213 27.9882 85.6673 28.1288 85.0281 28.1288ZM85.0366 26.893C85.3832 26.893 85.673 26.7979 85.9059 26.6075C86.1389 26.4143 86.3122 26.1558 86.4258 25.8319C86.5423 25.5081 86.6005 25.1473 86.6005 24.7496C86.6005 24.349 86.5423 23.9868 86.4258 23.6629C86.3122 23.3362 86.1389 23.0763 85.9059 22.8831C85.673 22.6899 85.3832 22.5933 85.0366 22.5933C84.6815 22.5933 84.3861 22.6899 84.1503 22.8831C83.9173 23.0763 83.7426 23.3362 83.6261 23.6629C83.5125 23.9868 83.4557 24.349 83.4557 24.7496C83.4557 25.1473 83.5125 25.5081 83.6261 25.8319C83.7426 26.1558 83.9173 26.4143 84.1503 26.6075C84.3861 26.7979 84.6815 26.893 85.0366 26.893ZM89.4738 28.001V21.4555H90.9695V22.5464H91.0377C91.157 22.1686 91.3616 21.8774 91.6513 21.6729C91.9439 21.4655 92.2777 21.3618 92.6527 21.3618C92.738 21.3618 92.8331 21.366 92.9383 21.3746C93.0462 21.3802 93.1357 21.3902 93.2067 21.4044V22.8234C93.1414 22.8007 93.0377 22.7808 92.8956 22.7638C92.7564 22.7439 92.6215 22.7339 92.4908 22.7339C92.2096 22.7339 91.9567 22.795 91.7323 22.9172C91.5107 23.0365 91.336 23.2027 91.2081 23.4157C91.0803 23.6288 91.0164 23.8746 91.0164 24.153V28.001H89.4738ZM96.8598 28.1288C96.2035 28.1288 95.6368 27.9925 95.1595 27.7197C94.6851 27.4442 94.32 27.055 94.0643 26.5521C93.8086 26.0464 93.6808 25.4513 93.6808 24.7666C93.6808 24.0933 93.8086 23.5024 94.0643 22.9939C94.3228 22.4825 94.6836 22.0848 95.1467 21.8007C95.6098 21.5138 96.1538 21.3703 96.7788 21.3703C97.1822 21.3703 97.5629 21.4356 97.9209 21.5663C98.2816 21.6942 98.5998 21.893 98.8754 22.1629C99.1538 22.4328 99.3726 22.7765 99.5316 23.1942C99.6907 23.6089 99.7703 24.1032 99.7703 24.6771V25.1501H94.4052V24.1104H98.2916C98.2888 23.8149 98.2248 23.5521 98.0998 23.322C97.9748 23.089 97.8001 22.9058 97.5757 22.7723C97.3541 22.6388 97.0956 22.572 96.8001 22.572C96.4848 22.572 96.2078 22.6487 95.9691 22.8021C95.7305 22.9527 95.5444 23.1515 95.4109 23.3987C95.2802 23.643 95.2135 23.9115 95.2106 24.2041V25.1118C95.2106 25.4925 95.2802 25.8192 95.4194 26.0919C95.5586 26.3618 95.7532 26.5692 96.0032 26.714C96.2532 26.8561 96.5459 26.9271 96.8811 26.9271C97.1055 26.9271 97.3086 26.8959 97.4905 26.8334C97.6723 26.768 97.8299 26.6729 97.9635 26.5479C98.097 26.4229 98.1978 26.268 98.266 26.0834L99.7064 26.2453C99.6155 26.626 99.4422 26.9584 99.1865 27.2425C98.9336 27.5237 98.6098 27.7425 98.2149 27.8987C97.82 28.0521 97.3683 28.1288 96.8598 28.1288Z" fill="white"/>
<path d="M40.939 14.001H39.1435V8.18279H41.0185C41.5829 8.18279 42.0659 8.29927 42.4674 8.53223C42.8689 8.76329 43.1767 9.09567 43.3907 9.52939C43.6047 9.9612 43.7117 10.4782 43.7117 11.0805C43.7117 11.6866 43.6037 12.2084 43.3878 12.6459C43.1719 13.0815 42.8575 13.4167 42.4446 13.6515C42.0318 13.8845 41.5299 14.001 40.939 14.001ZM39.8481 13.376H40.8935C41.3746 13.376 41.7732 13.2832 42.0895 13.0976C42.4058 12.912 42.6416 12.6478 42.7969 12.305C42.9522 11.9622 43.0299 11.554 43.0299 11.0805C43.0299 10.6108 42.9532 10.2065 42.7998 9.86745C42.6464 9.52654 42.4172 9.26518 42.1123 9.08336C41.8073 8.89965 41.4276 8.80779 40.9731 8.80779H39.8481V13.376ZM46.5753 14.0919C46.1814 14.0919 45.8357 13.9981 45.5384 13.8106C45.2429 13.6231 45.0119 13.3608 44.8452 13.0237C44.6804 12.6866 44.5981 12.2926 44.5981 11.8419C44.5981 11.3873 44.6804 10.9906 44.8452 10.6515C45.0119 10.3125 45.2429 10.0493 45.5384 9.86177C45.8357 9.67427 46.1814 9.58052 46.5753 9.58052C46.9693 9.58052 47.314 9.67427 47.6094 9.86177C47.9068 10.0493 48.1378 10.3125 48.3026 10.6515C48.4693 10.9906 48.5526 11.3873 48.5526 11.8419C48.5526 12.2926 48.4693 12.6866 48.3026 13.0237C48.1378 13.3608 47.9068 13.6231 47.6094 13.8106C47.314 13.9981 46.9693 14.0919 46.5753 14.0919ZM46.5753 13.4896C46.8746 13.4896 47.1208 13.4129 47.314 13.2595C47.5071 13.1061 47.6501 12.9044 47.7429 12.6544C47.8357 12.4044 47.8821 12.1336 47.8821 11.8419C47.8821 11.5502 47.8357 11.2784 47.7429 11.0265C47.6501 10.7747 47.5071 10.5711 47.314 10.4157C47.1208 10.2604 46.8746 10.1828 46.5753 10.1828C46.2761 10.1828 46.0299 10.2604 45.8367 10.4157C45.6435 10.5711 45.5005 10.7747 45.4077 11.0265C45.3149 11.2784 45.2685 11.5502 45.2685 11.8419C45.2685 12.1336 45.3149 12.4044 45.4077 12.6544C45.5005 12.9044 45.6435 13.1061 45.8367 13.2595C46.0299 13.4129 46.2761 13.4896 46.5753 13.4896ZM50.4162 14.001L49.0867 9.63734H49.7912L50.7344 12.9782H50.7799L51.7117 9.63734H52.4276L53.3481 12.9669H53.3935L54.3367 9.63734H55.0412L53.7117 14.001H53.0526L52.0981 10.6487H52.0299L51.0753 14.001H50.4162ZM56.5981 11.376V14.001H55.9276V9.63734H56.5753V10.3192H56.6321C56.7344 10.0976 56.8897 9.91954 57.0981 9.78507C57.3064 9.6487 57.5753 9.58052 57.9049 9.58052C58.2003 9.58052 58.4589 9.64113 58.6804 9.76234C58.902 9.88166 59.0744 10.0635 59.1975 10.3078C59.3206 10.5502 59.3821 10.857 59.3821 11.2282V14.001H58.7117V11.2737C58.7117 10.9309 58.6227 10.6639 58.4446 10.4726C58.2666 10.2794 58.0223 10.1828 57.7117 10.1828C57.4977 10.1828 57.3064 10.2292 57.1378 10.322C56.9712 10.4148 56.8395 10.5502 56.7429 10.7282C56.6464 10.9063 56.5981 11.1222 56.5981 11.376ZM61.2777 8.18279V14.001H60.6073V8.18279H61.2777ZM64.2785 14.0919C63.8845 14.0919 63.5389 13.9981 63.2415 13.8106C62.9461 13.6231 62.715 13.3608 62.5483 13.0237C62.3836 12.6866 62.3012 12.2926 62.3012 11.8419C62.3012 11.3873 62.3836 10.9906 62.5483 10.6515C62.715 10.3125 62.9461 10.0493 63.2415 9.86177C63.5389 9.67427 63.8845 9.58052 64.2785 9.58052C64.6724 9.58052 65.0171 9.67427 65.3125 9.86177C65.6099 10.0493 65.841 10.3125 66.0057 10.6515C66.1724 10.9906 66.2557 11.3873 66.2557 11.8419C66.2557 12.2926 66.1724 12.6866 66.0057 13.0237C65.841 13.3608 65.6099 13.6231 65.3125 13.8106C65.0171 13.9981 64.6724 14.0919 64.2785 14.0919ZM64.2785 13.4896C64.5777 13.4896 64.8239 13.4129 65.0171 13.2595C65.2103 13.1061 65.3533 12.9044 65.4461 12.6544C65.5389 12.4044 65.5853 12.1336 65.5853 11.8419C65.5853 11.5502 65.5389 11.2784 65.4461 11.0265C65.3533 10.7747 65.2103 10.5711 65.0171 10.4157C64.8239 10.2604 64.5777 10.1828 64.2785 10.1828C63.9792 10.1828 63.733 10.2604 63.5398 10.4157C63.3466 10.5711 63.2036 10.7747 63.1108 11.0265C63.018 11.2784 62.9716 11.5502 62.9716 11.8419C62.9716 12.1336 63.018 12.4044 63.1108 12.6544C63.2036 12.9044 63.3466 13.1061 63.5398 13.2595C63.733 13.4129 63.9792 13.4896 64.2785 13.4896ZM68.5633 14.1032C68.2867 14.1032 68.0358 14.0512 67.8104 13.947C67.585 13.8409 67.4061 13.6885 67.2735 13.4896C67.1409 13.2889 67.0746 13.0464 67.0746 12.7623C67.0746 12.5123 67.1239 12.3097 67.2223 12.1544C67.3208 11.9972 67.4525 11.8741 67.6172 11.7851C67.782 11.6961 67.9638 11.6298 68.1627 11.5862C68.3634 11.5407 68.5651 11.5048 68.7678 11.4782C69.033 11.4442 69.2479 11.4186 69.4127 11.4015C69.5794 11.3826 69.7006 11.3514 69.7763 11.3078C69.854 11.2642 69.8928 11.1885 69.8928 11.0805V11.0578C69.8928 10.7775 69.8161 10.5597 69.6627 10.4044C69.5112 10.2491 69.2811 10.1714 68.9723 10.1714C68.6523 10.1714 68.4013 10.2415 68.2195 10.3817C68.0377 10.5218 67.9098 10.6714 67.836 10.8305L67.1996 10.6032C67.3133 10.3381 67.4648 10.1317 67.6542 9.98393C67.8455 9.83431 68.0538 9.73014 68.2792 9.67143C68.5064 9.61083 68.7299 9.58052 68.9496 9.58052C69.0898 9.58052 69.2508 9.59757 69.4326 9.63166C69.6163 9.66386 69.7934 9.73109 69.9638 9.83336C70.1362 9.93564 70.2792 10.09 70.3928 10.2964C70.5064 10.5029 70.5633 10.7794 70.5633 11.126V14.001H69.8928V13.4101H69.8587C69.8133 13.5048 69.7375 13.6061 69.6314 13.714C69.5254 13.822 69.3843 13.9139 69.2081 13.9896C69.032 14.0654 68.817 14.1032 68.5633 14.1032ZM68.6655 13.501C68.9307 13.501 69.1542 13.4489 69.336 13.3447C69.5197 13.2406 69.658 13.1061 69.7508 12.9413C69.8455 12.7765 69.8928 12.6032 69.8928 12.4214V11.8078C69.8644 11.8419 69.8019 11.8731 69.7053 11.9015C69.6106 11.9281 69.5008 11.9517 69.3758 11.9726C69.2526 11.9915 69.1324 12.0086 69.015 12.0237C68.8994 12.037 68.8057 12.0483 68.7337 12.0578C68.5595 12.0805 68.3966 12.1175 68.2451 12.1686C68.0955 12.2178 67.9742 12.2926 67.8814 12.393C67.7905 12.4915 67.7451 12.626 67.7451 12.7964C67.7451 13.0294 67.8312 13.2055 68.0036 13.3248C68.1778 13.4423 68.3985 13.501 68.6655 13.501ZM73.4347 14.0919C73.0711 14.0919 72.75 14 72.4716 13.8163C72.1932 13.6307 71.9754 13.3693 71.8182 13.0322C71.661 12.6932 71.5824 12.2926 71.5824 11.8305C71.5824 11.3722 71.661 10.9745 71.8182 10.6373C71.9754 10.3002 72.1942 10.0398 72.4745 9.85609C72.7548 9.67238 73.0786 9.58052 73.4461 9.58052C73.7302 9.58052 73.9546 9.62787 74.1194 9.72257C74.286 9.81537 74.4129 9.92143 74.5 10.0407C74.5891 10.1582 74.6582 10.2548 74.7074 10.3305H74.7642V8.18279H75.4347V14.001H74.787V13.3305H74.7074C74.6582 13.4101 74.5881 13.5104 74.4972 13.6317C74.4063 13.751 74.2766 13.858 74.108 13.9527C73.9394 14.0455 73.715 14.0919 73.4347 14.0919ZM73.5256 13.4896C73.7946 13.4896 74.0218 13.4195 74.2074 13.2794C74.393 13.1373 74.5341 12.9413 74.6307 12.6913C74.7273 12.4394 74.7756 12.1487 74.7756 11.8192C74.7756 11.4934 74.7283 11.2084 74.6336 10.964C74.5389 10.7178 74.3987 10.5265 74.2131 10.3902C74.0275 10.2519 73.7983 10.1828 73.5256 10.1828C73.2415 10.1828 73.0048 10.2557 72.8154 10.4015C72.6279 10.5455 72.4868 10.7415 72.3921 10.9896C72.2993 11.2358 72.2529 11.5123 72.2529 11.8192C72.2529 12.1298 72.3002 12.412 72.3949 12.6657C72.4915 12.9176 72.6336 13.1184 72.8211 13.268C73.0105 13.4157 73.2453 13.4896 73.5256 13.4896ZM80.7785 14.0919C80.3845 14.0919 80.0389 13.9981 79.7415 13.8106C79.4461 13.6231 79.215 13.3608 79.0483 13.0237C78.8836 12.6866 78.8012 12.2926 78.8012 11.8419C78.8012 11.3873 78.8836 10.9906 79.0483 10.6515C79.215 10.3125 79.4461 10.0493 79.7415 9.86177C80.0389 9.67427 80.3845 9.58052 80.7785 9.58052C81.1724 9.58052 81.5171 9.67427 81.8125 9.86177C82.1099 10.0493 82.341 10.3125 82.5057 10.6515C82.6724 10.9906 82.7557 11.3873 82.7557 11.8419C82.7557 12.2926 82.6724 12.6866 82.5057 13.0237C82.341 13.3608 82.1099 13.6231 81.8125 13.8106C81.5171 13.9981 81.1724 14.0919 80.7785 14.0919ZM80.7785 13.4896C81.0777 13.4896 81.3239 13.4129 81.5171 13.2595C81.7103 13.1061 81.8533 12.9044 81.9461 12.6544C82.0389 12.4044 82.0853 12.1336 82.0853 11.8419C82.0853 11.5502 82.0389 11.2784 81.9461 11.0265C81.8533 10.7747 81.7103 10.5711 81.5171 10.4157C81.3239 10.2604 81.0777 10.1828 80.7785 10.1828C80.4792 10.1828 80.233 10.2604 80.0398 10.4157C79.8466 10.5711 79.7036 10.7747 79.6108 11.0265C79.518 11.2784 79.4716 11.5502 79.4716 11.8419C79.4716 12.1336 79.518 12.4044 79.6108 12.6544C79.7036 12.9044 79.8466 13.1061 80.0398 13.2595C80.233 13.4129 80.4792 13.4896 80.7785 13.4896ZM84.4496 11.376V14.001H83.7792V9.63734H84.4269V10.3192H84.4837C84.586 10.0976 84.7413 9.91954 84.9496 9.78507C85.158 9.6487 85.4269 9.58052 85.7564 9.58052C86.0519 9.58052 86.3104 9.64113 86.532 9.76234C86.7536 9.88166 86.9259 10.0635 87.0491 10.3078C87.1722 10.5502 87.2337 10.857 87.2337 11.2282V14.001H86.5633V11.2737C86.5633 10.9309 86.4742 10.6639 86.2962 10.4726C86.1182 10.2794 85.8739 10.1828 85.5633 10.1828C85.3492 10.1828 85.158 10.2292 84.9894 10.322C84.8227 10.4148 84.6911 10.5502 84.5945 10.7282C84.4979 10.9063 84.4496 11.1222 84.4496 11.376ZM92.6066 9.63734V10.2055H90.3452V9.63734H92.6066ZM91.0043 8.59189H91.6748V12.751C91.6748 12.9404 91.7022 13.0824 91.7571 13.1771C91.814 13.2699 91.8859 13.3324 91.9731 13.3646C92.0621 13.3949 92.1558 13.4101 92.2543 13.4101C92.3282 13.4101 92.3888 13.4063 92.4361 13.3987C92.4835 13.3892 92.5214 13.3817 92.5498 13.376L92.6861 13.9782C92.6407 13.9953 92.5772 14.0123 92.4958 14.0294C92.4143 14.0483 92.3111 14.0578 92.1861 14.0578C91.9967 14.0578 91.8111 14.0171 91.6293 13.9356C91.4494 13.8542 91.2998 13.7301 91.1804 13.5635C91.063 13.3968 91.0043 13.1866 91.0043 12.9328V8.59189ZM94.3793 11.376V14.001H93.7089V8.18279H94.3793V10.3192H94.4361C94.5384 10.0938 94.6918 9.9148 94.8964 9.78223C95.1028 9.64776 95.3774 9.58052 95.7202 9.58052C96.0176 9.58052 96.278 9.64018 96.5015 9.7595C96.7249 9.87692 96.8982 10.0578 97.0214 10.3021C97.1464 10.5445 97.2089 10.8532 97.2089 11.2282V14.001H96.5384V11.2737C96.5384 10.9271 96.4484 10.6591 96.2685 10.4697C96.0905 10.2784 95.8433 10.1828 95.527 10.1828C95.3073 10.1828 95.1104 10.2292 94.9361 10.322C94.7638 10.4148 94.6274 10.5502 94.527 10.7282C94.4285 10.9063 94.3793 11.1222 94.3793 11.376ZM100.265 14.0919C99.8445 14.0919 99.4818 13.9991 99.1769 13.8135C98.8739 13.626 98.64 13.3646 98.4752 13.0294C98.3123 12.6923 98.2309 12.3002 98.2309 11.8532C98.2309 11.4063 98.3123 11.0123 98.4752 10.6714C98.64 10.3286 98.8691 10.0616 99.1627 9.87029C99.4581 9.67711 99.8028 9.58052 100.197 9.58052C100.424 9.58052 100.648 9.6184 100.87 9.69416C101.092 9.76992 101.293 9.89302 101.475 10.0635C101.657 10.232 101.802 10.4555 101.91 10.7339C102.018 11.0123 102.072 11.3551 102.072 11.7623V12.0464H98.7081V11.4669H101.39C101.39 11.2207 101.341 11.001 101.242 10.8078C101.146 10.6146 101.007 10.4622 100.827 10.3504C100.649 10.2387 100.439 10.1828 100.197 10.1828C99.9297 10.1828 99.6987 10.2491 99.5036 10.3817C99.3104 10.5123 99.1617 10.6828 99.0576 10.893C98.9534 11.1032 98.9013 11.3286 98.9013 11.5692V11.9555C98.9013 12.2851 98.9581 12.5644 99.0718 12.7936C99.1873 13.0209 99.3473 13.1942 99.5519 13.3135C99.7564 13.4309 99.9941 13.4896 100.265 13.4896C100.441 13.4896 100.6 13.465 100.742 13.4157C100.886 13.3646 101.01 13.2889 101.114 13.1885C101.219 13.0862 101.299 12.9593 101.356 12.8078L102.004 12.9896C101.935 13.2093 101.821 13.4025 101.66 13.5692C101.499 13.7339 101.3 13.8627 101.063 13.9555C100.827 14.0464 100.56 14.0919 100.265 14.0919Z" fill="white"/>
</svg>
