<svg width="165" height="26" viewBox="0 0 165 26" fill="none" xmlns="http://www.w3.org/2000/svg">
<path d="M17.1974 21.6822H11.1277L12.9261 16.0491H15.399L14.0501 11.5427H21.4686L26.6391 25.2874H18.6586L17.4222 21.6822H17.1974ZM42.038 0.839844C46.6465 0.839844 50.3557 4.55767 50.3557 9.17678C50.3557 13.7959 46.6465 17.5137 42.038 17.5137H37.9916V25.2874H30.4607V11.43H40.352C41.5884 11.43 42.6 10.4161 42.6 9.17678C42.6 7.93751 41.5884 6.92356 40.352 6.92356H13.8253L7.86808 25.2874H0L8.87969 0.839844H42.038Z" fill="#04177F"/>
<path d="M60.8899 17.8217H57.1723L56.5695 19.5737H52.8519L56.9714 7.92773H60.9904L65.1098 19.5737H61.3923L60.7894 17.8217H60.8899ZM60.0861 15.039L59.0814 11.8441L58.0766 15.039H60.0861ZM71.6407 19.5737L69.5307 15.3482V19.5737H66.0141V7.92773H71.2388C72.1431 7.92773 72.9469 8.13386 73.5497 8.44304C74.1526 8.75223 74.6549 9.26754 74.9564 9.78285C75.2578 10.4012 75.4587 11.0196 75.4587 11.741C75.4587 12.5655 75.2578 13.1839 74.8559 13.8023C74.454 14.4206 73.8511 14.8329 73.0473 15.1421L75.4587 19.5737H71.6407ZM69.5307 12.9778H70.9374C71.2388 12.9778 71.5402 12.8747 71.7412 12.7717C71.9421 12.5655 72.0426 12.3594 72.0426 12.0502C72.0426 11.741 71.9421 11.5349 71.7412 11.3288C71.5402 11.1227 71.3393 11.0196 71.0378 11.0196H69.6312V12.9778H69.5307ZM80.0806 10.8135V12.2563H83.5972V15.039H80.0806V16.688H83.9991V19.5737H76.564V7.92773H83.9991V10.8135H80.0806ZM98.7689 7.92773V19.5737H95.2522V13.8023L93.5442 19.5737H90.5299L88.8219 13.8023V19.5737H85.3053V7.92773H89.6257L92.1375 14.936L94.5489 7.92773H98.8693H98.7689ZM107.51 19.5737L105.501 16.5849L103.793 19.5737H99.7736L103.491 13.5961L99.6731 7.92773H103.793L105.802 10.8135L107.41 7.92773H111.429L107.812 13.8023L111.73 19.5737H107.611H107.51ZM123.184 7.92773L119.165 16.0696V19.5737H115.649V16.0696L111.63 7.92773H115.649L117.457 12.0502L119.266 7.92773H123.184ZM133.131 11.9472C133.131 12.6686 132.93 13.39 132.629 13.9053C132.327 14.5237 131.825 14.936 131.222 15.3482C130.619 15.6574 129.816 15.8635 128.911 15.8635H127.505V19.5737H123.988V7.92773H128.911C130.318 7.92773 131.323 8.33998 132.026 9.06142C132.729 9.78285 133.131 10.7104 133.131 11.9472ZM128.509 12.9778C129.213 12.9778 129.615 12.6686 129.615 11.9472C129.615 11.2257 129.213 10.9165 128.509 10.9165H127.505V13.0808H128.509V12.9778ZM137.753 16.7911H141.169V19.5737H134.236V7.92773H137.753V16.7911ZM145.691 7.92773V14.5237C145.691 15.039 145.791 15.4513 145.992 15.7605C146.193 16.0696 146.595 16.2758 147.097 16.2758C147.6 16.2758 148.001 16.0696 148.202 15.7605C148.403 15.4513 148.604 15.039 148.604 14.5237V7.92773H152.121V14.5237C152.121 15.6574 151.92 16.5849 151.418 17.4094C151.016 18.2339 150.413 18.7492 149.609 19.1615C148.805 19.5737 148.001 19.7799 146.997 19.7799C146.092 19.7799 145.188 19.5737 144.485 19.1615C143.782 18.7492 143.179 18.1309 142.777 17.4094C142.375 16.5849 142.174 15.6574 142.174 14.5237V7.92773H145.691ZM160.46 11.9472C160.36 11.741 160.159 11.5349 159.857 11.4318C159.556 11.3288 159.255 11.2257 158.953 11.2257C158.25 11.2257 157.747 11.4318 157.346 11.9472C156.944 12.3594 156.743 12.9778 156.743 13.8023C156.743 14.7298 156.944 15.3482 157.346 15.8635C157.747 16.2758 158.35 16.5849 159.255 16.5849C160.058 16.5849 160.762 16.2758 161.164 15.5543H158.35V12.9778H164.077V16.5849C163.575 17.4094 162.972 18.2339 162.068 18.8523C161.264 19.4707 160.159 19.7799 158.853 19.7799C157.647 19.7799 156.642 19.5737 155.838 19.0584C154.934 18.5431 154.331 17.8217 153.829 16.9972C153.327 16.0696 153.126 15.039 153.126 13.9053C153.126 12.7717 153.327 11.741 153.829 10.8135C154.331 9.88591 154.934 9.16448 155.838 8.75223C156.642 8.23692 157.647 8.0308 158.853 8.0308C160.36 8.0308 161.465 8.44304 162.47 9.16448C163.374 9.88591 163.977 10.9165 164.077 12.1533H160.36L160.46 11.9472Z" fill="#04177F"/>
</svg>
