<svg width="668" height="426" viewBox="0 0 668 426" fill="none" xmlns="http://www.w3.org/2000/svg">
<g filter="url(#filter0_ii_1611_3867)">
<path fill-rule="evenodd" clip-rule="evenodd" d="M102.851 91.0876C102.851 102.024 105.248 112.511 109.643 122.226C78.8905 142.649 61.0005 170.82 61.0005 207C-87.9091 424.881 70.0494 408.879 205.495 395.157C236.861 391.98 267.02 388.925 291.881 388.925C484.469 471.076 524.278 401.942 531.159 324.506C538.749 325.795 546.618 326.473 554.685 326.473C617.245 326.473 667.96 285.691 667.96 235.385C667.96 185.079 617.245 144.298 554.685 144.298C551.202 144.298 547.757 144.424 544.355 144.671C553.542 71.8318 536.593 7.14996 326.433 70.2774C314.727 29.9992 269.783 0 216.127 0C153.566 0 102.851 40.7813 102.851 91.0876Z" fill="url(#paint0_linear_1611_3867)"/>
</g>
<g filter="url(#filter1_i_1611_3867)">
<path d="M424.64 184.31C422.751 184.31 421.134 183.731 419.789 182.574C418.444 181.416 417.771 180.025 417.771 178.4V171.751C417.771 170.717 418.186 169.843 419.016 169.129C419.846 168.414 420.862 168.057 422.064 168.057C423.266 168.057 424.282 168.414 425.112 169.129C425.942 169.843 426.357 170.717 426.357 171.751V178.4H422.923V171.751C422.923 171.554 422.837 171.382 422.665 171.234C422.493 171.086 422.293 171.012 422.064 171.012C421.835 171.012 421.635 171.086 421.463 171.234C421.291 171.382 421.205 171.554 421.205 171.751V178.4C421.205 179.213 421.542 179.908 422.215 180.488C422.888 181.067 423.696 181.356 424.64 181.355C425.584 181.355 426.393 181.065 427.066 180.486C427.739 179.907 428.075 179.212 428.074 178.4V172.49H431.508V178.4C431.508 180.025 430.835 181.416 429.49 182.574C428.145 183.731 426.528 184.31 424.64 184.31ZM397.167 178.4C396.222 178.4 395.413 178.11 394.74 177.531C394.067 176.952 393.731 176.257 393.732 175.445V157.715C393.732 156.902 394.069 156.206 394.742 155.627C395.415 155.048 396.223 154.759 397.167 154.76H424.64C425.584 154.76 426.393 155.049 427.066 155.629C427.739 156.208 428.075 156.903 428.074 157.715V166.58H422.064C420.404 166.58 418.988 167.085 417.814 168.094C416.641 169.104 416.054 170.323 416.054 171.751V178.4H397.167ZM410.903 168.057L424.64 160.67V157.715L410.903 165.102L397.167 157.715V160.67L410.903 168.057Z" fill="#59EBFF"/>
</g>
<path d="M364.645 345.535C364.645 345.535 377.507 371.983 380.66 381.727C383.813 391.466 354.954 351.046 354.954 351.046L364.645 345.535Z" fill="white"/>
<g filter="url(#filter2_i_1611_3867)">
<path d="M235.718 348.258L194.443 311.686L183.321 326.287C183.321 326.287 217.738 385.75 231.841 385.881C242.589 385.982 261.858 369.641 261.858 369.641L235.718 348.258Z" fill="white"/>
</g>
<g filter="url(#filter3_ii_1611_3867)">
<path d="M264.642 328.777C256.596 319.045 253.693 305.292 257.113 293.137C260.533 280.982 270.568 271.095 282.504 266.986C280.069 254.231 284.784 240.354 294.475 231.714C308.768 218.983 333.209 219.369 347.846 231.512C354.983 237.432 359.455 246.963 357.887 256.102C369.609 264.931 377.168 279.105 376.942 293.778C376.716 308.451 369.128 322.827 357.139 331.295L264.636 328.783L264.642 328.777Z" fill="#92ABFE"/>
</g>
<g filter="url(#filter4_i_1611_3867)">
<path d="M373.236 348.545C373.236 348.545 354.953 314.36 341.818 307.288C334.301 303.238 308.269 300.887 308.269 300.887C308.269 300.887 284.73 301.754 281.791 302.894C276.358 305.014 235.712 348.26 235.712 348.26L261.851 374.055L270.604 366.157C272.189 369.376 272.581 369.15 272.753 371.139C273.098 375.064 271.376 399.749 271.376 399.749H353.213L343.065 361.935L373.23 348.551L373.236 348.545Z" fill="#367CFF"/>
</g>
<path d="M269.755 364.386C269.541 364.386 269.333 364.291 269.191 364.107C265.889 359.838 264.565 355.099 265.26 350.04C266.186 343.294 270.586 337.161 274.119 333.206C277.919 328.942 281.453 326.3 281.601 326.187C281.916 325.955 282.361 326.015 282.599 326.335C282.836 326.65 282.771 327.096 282.45 327.333C282.308 327.44 268.347 337.974 266.667 350.242C266.026 354.909 267.255 359.286 270.313 363.24C270.556 363.549 270.497 364 270.182 364.238C270.052 364.339 269.897 364.386 269.749 364.386H269.755Z" fill="#BDD8F3"/>
<g filter="url(#filter5_ii_1611_3867)">
<path d="M330.121 304.603L338.909 276.914C338.909 276.914 350.667 282.751 352.947 272.823C354.978 263.975 345.317 262.021 340.079 265.62C340.079 265.62 352.591 235.431 325.84 229.41C299.089 223.389 293.988 260.442 292.712 269.402C290.467 285.186 300.823 294.253 308.917 296.106L307.022 305.713C307.022 305.713 305.265 314.11 313.192 315.47C317.301 316.176 320.632 315.137 323.168 313.599C326.511 311.574 328.934 308.32 330.115 304.597L330.121 304.603Z" fill="white"/>
</g>
<path d="M303.074 254.059C301.203 251.743 308.976 250.793 309.059 252.295C309.142 253.792 304.178 255.425 303.074 254.059Z" fill="#0063F8"/>
<path d="M323.725 263.689C323.743 265.31 322.443 266.64 320.822 266.658C319.201 266.676 317.871 265.375 317.853 263.754C317.835 262.133 319.135 260.803 320.756 260.785C322.377 260.768 323.708 262.068 323.725 263.689Z" fill="#05E2FF"/>
<path d="M309.432 261.666C309.45 263.287 308.15 264.617 306.529 264.635C304.908 264.652 303.578 263.352 303.56 261.731C303.542 260.11 304.842 258.78 306.463 258.762C308.085 258.744 309.415 260.045 309.432 261.666Z" fill="#05E2FF"/>
<path d="M341.51 272.937C341.462 272.937 341.415 272.937 341.367 272.919C341.005 272.842 340.774 272.48 340.851 272.118C341.237 270.348 342.513 268.816 344.176 268.109C345.845 267.403 347.828 267.557 349.372 268.507C349.687 268.703 349.787 269.119 349.592 269.434C349.396 269.748 348.98 269.843 348.665 269.653C347.489 268.923 345.975 268.81 344.705 269.351C343.434 269.891 342.466 271.061 342.169 272.409C342.098 272.723 341.819 272.937 341.51 272.937Z" fill="#0063F8"/>
<path d="M308.923 296.114C318.542 297.789 325.306 294.137 325.306 294.137C325.306 294.137 321.054 298.733 308.649 297.854L308.923 296.114Z" fill="white"/>
<path d="M322.188 271.215C322.39 272.385 323.494 273.168 324.664 272.967C325.834 272.765 326.618 271.66 326.416 270.49C326.214 269.321 325.109 268.537 323.94 268.739C322.77 268.941 321.986 270.045 322.188 271.215Z" fill="#0063F8"/>
<path d="M296.518 269.656C296.72 270.826 297.824 271.61 298.994 271.408C300.164 271.206 300.948 270.102 300.746 268.932C300.544 267.762 299.44 266.978 298.27 267.18C297.1 267.382 296.316 268.486 296.518 269.656Z" fill="#0063F8"/>
<g filter="url(#filter6_i_1611_3867)">
<path d="M194.978 312.811C194.978 312.811 192.888 308.452 190.952 304.034C189.016 299.616 186.142 288.126 183.47 288.097C180.798 288.067 183.523 302.128 183.523 302.128C183.523 302.128 164.112 286.256 161.493 287.687C158.388 289.385 171.469 300.002 171.469 300.002C171.469 300.002 155.419 291.279 153.548 292.948C151.678 294.617 166.832 303.904 166.832 303.904C166.832 303.904 149.267 296.98 147.652 298.607C146.037 300.228 162.188 308.25 162.188 308.25C162.188 308.25 147.586 302.591 146.44 304.705C145.294 306.819 183.333 326.278 183.333 326.278L194.99 312.799L194.978 312.811Z" fill="white"/>
</g>
<path d="M184.948 316.291C184.8 316.291 184.645 316.243 184.521 316.148C180.542 313.155 175.121 312.223 170.365 313.713C169.99 313.832 169.587 313.624 169.474 313.244C169.355 312.87 169.563 312.466 169.943 312.354C174.254 311 179.082 311.481 183.078 313.559C182.33 311.914 181.7 310.062 181.29 308.256C181.201 307.87 181.445 307.49 181.825 307.401C182.211 307.318 182.591 307.556 182.68 307.936C183.262 310.501 184.366 313.286 185.554 315.192C185.738 315.483 185.685 315.863 185.429 316.095C185.293 316.219 185.12 316.285 184.948 316.285V316.291Z" fill="#CBC5C5"/>
<g filter="url(#filter7_i_1611_3867)">
<path d="M379.905 380.66C376.366 374.953 353.469 345.24 353.469 345.24C353.469 345.24 356.29 343.161 355.945 340.252C355.601 337.342 353.22 337.865 353.22 337.865C353.22 337.865 356.456 332.74 354.597 330.941C353.671 330.038 351.224 330.638 349.016 331.457C352.679 326.321 359.502 316.292 357.525 315.454C354.853 314.326 338.873 330.608 338.873 330.608C338.873 330.608 332.027 327.449 330.228 327.532C328.423 327.616 324.687 332.057 324.159 340.085C323.631 348.108 327.734 348.707 329.082 352.074C330.43 355.441 333.226 365.708 343.113 385.862C353 406.015 364.14 411.65 373.498 406.354C382.856 401.057 383.438 386.372 379.899 380.666L379.905 380.66Z" fill="white"/>
</g>
<path d="M338.161 349.53C337.282 349.53 336.528 349.405 336.006 349.096C335.537 348.817 335.246 348.396 335.162 347.885C335.062 347.244 335.287 345.118 341.065 341.686C337.858 342.084 334.165 342.155 333.351 340.581C333.227 340.344 333.12 339.952 333.304 339.447C334.26 336.876 344.105 332.838 346.071 332.054C346.433 331.906 346.849 332.084 346.997 332.452C347.145 332.82 346.967 333.23 346.599 333.378C340.216 335.926 334.735 338.948 334.634 339.982C335.085 340.825 339.99 340.653 345.121 339.554C345.471 339.483 345.827 339.679 345.94 340.017C346.059 340.356 345.904 340.73 345.578 340.89C341.077 343.081 336.356 346.288 336.576 347.653C336.588 347.719 336.605 347.79 336.742 347.867C338.001 348.627 342.977 347.458 346.1 346.383C346.474 346.252 346.878 346.454 347.003 346.828C347.128 347.202 346.932 347.606 346.558 347.731C345.507 348.093 341.136 349.524 338.155 349.524L338.161 349.53Z" fill="#C7C7C7"/>
<path d="M312.397 271.021C312.266 271.021 312.141 270.985 312.023 270.914C311.773 270.759 309.553 269.334 309.321 267.446C309.113 265.724 311.595 260.469 312.094 259.43C312.266 259.073 312.694 258.925 313.044 259.097C313.4 259.269 313.549 259.697 313.377 260.047C312.207 262.47 310.615 266.306 310.734 267.268C310.859 268.295 312.248 269.37 312.771 269.696C313.103 269.904 313.204 270.344 313.002 270.676C312.866 270.896 312.634 271.015 312.397 271.015V271.021Z" fill="#122030"/>
<path d="M316.861 270.082C315.116 272.98 311.672 274.761 308.299 274.512C310.003 276.822 313.982 277.902 316.315 276.228C318.649 274.553 318.506 272.439 316.867 270.082H316.861Z" fill="#0063F8"/>
<path d="M289.101 266.589C289.101 266.589 285.681 234.327 309.225 225.082C320.685 220.581 342.929 223.764 350.886 235.96C358.843 248.163 352.584 265.134 352.584 265.134C352.584 265.134 347.228 264.047 343.511 266.607C339.794 269.166 334.764 276.28 331.801 276.867C328.838 277.455 334.539 264.415 334.539 264.415C334.539 264.415 315.371 260.983 304.855 242.7C304.855 242.7 291.405 250.699 289.113 266.589H289.101Z" fill="#92ABFE"/>
<g filter="url(#filter8_i_1611_3867)">
<path d="M427.686 308.033C427.144 308.033 426.602 307.924 426.059 307.708C425.517 307.491 425.029 307.166 424.596 306.732L404.755 286.891C403.888 286.024 403.463 284.984 403.482 283.773C403.501 282.561 403.961 281.595 404.863 280.874C408.116 278.272 411.694 276.302 415.597 274.965C419.5 273.628 423.53 272.959 427.686 272.959C431.842 272.959 435.871 273.628 439.775 274.965C443.678 276.302 447.256 278.272 450.508 280.874C451.412 281.596 451.873 282.564 451.892 283.775C451.91 284.986 451.485 286.025 450.617 286.891L430.776 306.732C430.342 307.166 429.854 307.491 429.312 307.708C428.77 307.924 428.228 308.033 427.686 308.033ZM427.686 296.811C428.3 296.811 428.815 296.603 429.232 296.187C429.648 295.771 429.856 295.256 429.854 294.643V288.138C429.854 287.523 429.646 287.008 429.23 286.592C428.813 286.175 428.299 285.968 427.686 285.969C427.071 285.969 426.556 286.178 426.14 286.594C425.723 287.01 425.516 287.525 425.517 288.138V294.643C425.517 295.257 425.726 295.773 426.142 296.189C426.558 296.605 427.073 296.813 427.686 296.811ZM427.686 283.801C428.3 283.801 428.815 283.593 429.232 283.176C429.648 282.76 429.856 282.246 429.854 281.633C429.854 281.018 429.646 280.503 429.23 280.087C428.813 279.67 428.299 279.463 427.686 279.464C427.071 279.464 426.556 279.672 426.14 280.089C425.723 280.505 425.516 281.02 425.517 281.633C425.517 282.247 425.726 282.762 426.142 283.179C426.558 283.595 427.073 283.802 427.686 283.801Z" fill="#0063F8"/>
</g>
<g filter="url(#filter9_i_1611_3867)">
<path d="M174.444 266.629C171.378 266.629 168.772 265.556 166.626 263.41C164.48 261.264 163.407 258.658 163.407 255.592C163.407 252.649 164.419 250.119 166.442 248.002C168.466 245.886 170.949 244.767 173.892 244.647C174.935 242.44 176.484 240.646 178.539 239.265C180.594 237.884 182.908 237.195 185.481 237.197C188.731 237.197 191.537 238.256 193.898 240.372C196.26 242.489 197.685 245.11 198.173 248.234C200.749 248.234 202.956 249.123 204.796 250.901C206.635 252.68 207.555 254.826 207.555 257.34C207.555 259.915 206.666 262.108 204.888 263.918C203.109 265.728 200.933 266.631 198.357 266.629H174.444ZM137.655 266.629C136.612 266.629 135.738 266.276 135.031 265.569C134.325 264.863 133.973 263.99 133.976 262.95C133.976 261.908 134.329 261.033 135.035 260.327C135.741 259.621 136.615 259.269 137.655 259.271H144.001C140.874 256.573 138.421 253.323 136.643 249.522C134.865 245.72 133.976 241.612 133.976 237.197C133.976 231.372 135.493 226.114 138.526 221.422C141.56 216.73 145.531 213.19 150.439 210.801C151.849 210.126 153.137 210.126 154.302 210.801C155.467 211.475 156.049 212.61 156.049 214.204C156.049 214.94 155.835 215.569 155.406 216.091C154.976 216.614 154.455 217.027 153.842 217.331C150.163 219.109 147.159 221.762 144.829 225.289C142.499 228.815 141.334 232.785 141.334 237.197C141.334 240.508 141.992 243.559 143.309 246.351C144.626 249.142 146.42 251.548 148.691 253.569V248.234C148.691 247.192 149.045 246.317 149.751 245.611C150.457 244.905 151.33 244.553 152.37 244.555C153.413 244.555 154.287 244.908 154.993 245.615C155.7 246.321 156.052 247.194 156.049 248.234V262.95C156.049 263.992 155.696 264.867 154.99 265.573C154.283 266.279 153.41 266.631 152.37 266.629H137.655ZM185.113 233.518C184.684 231.004 183.856 228.674 182.63 226.528C181.404 224.382 179.901 222.481 178.123 220.826V226.16C178.123 227.203 177.77 228.077 177.064 228.784C176.357 229.49 175.484 229.842 174.444 229.839C173.402 229.839 172.527 229.486 171.821 228.78C171.115 228.073 170.763 227.2 170.765 226.16V211.445C170.765 210.402 171.118 209.528 171.825 208.821C172.531 208.115 173.404 207.763 174.444 207.766H189.16C190.202 207.766 191.077 208.119 191.783 208.825C192.489 209.532 192.841 210.405 192.839 211.445C192.839 212.487 192.486 213.361 191.779 214.068C191.073 214.774 190.2 215.126 189.16 215.124H182.814C185.45 217.454 187.612 220.182 189.3 223.309C190.987 226.436 192.074 229.839 192.559 233.518H185.113Z" fill="#5790FD"/>
</g>
<g filter="url(#filter10_i_1611_3867)">
<path d="M120.051 366.77C120.933 366.879 121.783 367.171 122.545 367.629H122.613C123.404 363.885 123.121 359.993 121.794 356.404C121.745 356.225 121.659 356.059 121.541 355.915C121.424 355.771 121.278 355.654 121.113 355.569C120.948 355.485 120.768 355.435 120.583 355.424C120.397 355.413 120.212 355.441 120.038 355.505C119.864 355.569 119.705 355.669 119.572 355.797C119.438 355.926 119.333 356.081 119.262 356.252C119.192 356.424 119.157 356.608 119.162 356.793C119.166 356.978 119.208 357.161 119.287 357.329C120.395 360.348 120.659 363.612 120.051 366.77ZM113.976 377.016C111.639 378.966 108.832 380.27 105.835 380.798C105.659 380.813 105.488 380.863 105.331 380.944C105.174 381.025 105.034 381.136 104.921 381.272C104.807 381.407 104.72 381.563 104.667 381.731C104.613 381.9 104.593 382.077 104.608 382.253C104.623 382.429 104.673 382.601 104.754 382.758C104.835 382.915 104.947 383.054 105.082 383.168C105.217 383.282 105.373 383.368 105.542 383.422C105.71 383.475 105.887 383.495 106.063 383.48H106.305C109.877 382.85 113.215 381.276 115.974 378.921V378.827C115.185 378.374 114.504 377.757 113.976 377.016ZM99.6127 380.718C97.5843 380.337 95.6375 379.606 93.8594 378.559C93.0991 378.111 92.3689 377.613 91.6735 377.07C91.1621 377.821 90.4941 378.452 89.7155 378.921C90.5863 379.655 91.5146 380.319 92.4915 380.905C94.5398 382.112 96.7811 382.956 99.1165 383.4H99.3713C99.727 383.432 100.081 383.321 100.355 383.092C100.629 382.864 100.801 382.535 100.833 382.18C100.865 381.824 100.755 381.47 100.526 381.196C100.297 380.922 99.9684 380.75 99.6127 380.718ZM84.7802 367.052C85.0484 367.052 85.3167 367.012 85.5849 366.931C84.9456 363.769 85.1963 360.491 86.3091 357.463C86.4318 357.129 86.4166 356.759 86.267 356.436C86.1174 356.113 85.8455 355.863 85.5111 355.74C85.1768 355.617 84.8074 355.632 84.4842 355.782C84.161 355.932 83.9105 356.203 83.7878 356.538C82.4594 360.156 82.1988 364.081 83.0368 367.843C83.575 367.493 84.1627 367.227 84.7802 367.052Z" fill="#05E2FF"/>
<path d="M121.445 369.532C120.966 369.227 120.432 369.021 119.872 368.924C119.313 368.827 118.74 368.843 118.187 368.969C117.486 369.156 116.842 369.51 116.309 370.002L111.119 366.998C111.936 364.978 112.012 362.734 111.332 360.665C110.652 358.595 109.26 356.833 107.404 355.692L107.257 355.598C106.254 355.032 105.152 354.664 104.011 354.512V349.416C105.079 349.095 105.982 348.374 106.532 347.404C107.125 346.401 107.298 345.205 107.014 344.075C106.731 342.946 106.013 341.973 105.017 341.369C104.532 341.085 103.995 340.901 103.437 340.827C102.88 340.754 102.314 340.792 101.771 340.94C101.212 341.083 100.687 341.335 100.227 341.683C99.7662 342.03 99.3795 342.466 99.0893 342.965C98.5136 343.963 98.3498 345.146 98.6328 346.263C98.9158 347.38 99.6232 348.343 100.605 348.946C100.913 349.147 101.246 349.305 101.597 349.416V354.512C100.246 354.696 98.9558 355.189 97.8256 355.952C96.6954 356.714 95.7558 357.727 95.0794 358.911C94.3795 360.121 93.965 361.474 93.8674 362.869C93.7698 364.263 93.9917 365.662 94.5162 366.957L89.1518 370.028C88.9636 369.848 88.7619 369.682 88.5483 369.532C88.0572 369.253 87.5158 369.073 86.9551 369.004C86.3944 368.934 85.8255 368.976 85.281 369.126C84.7365 369.277 84.2271 369.534 83.7821 369.882C83.337 370.23 82.9651 370.663 82.6877 371.155C82.1084 372.148 81.9384 373.328 82.2137 374.444C82.4891 375.561 83.1881 376.526 84.1629 377.136C84.831 377.539 85.5958 377.752 86.3757 377.753C86.7288 377.756 87.0807 377.711 87.4218 377.619C88.5367 377.331 89.4926 376.614 90.0806 375.624C90.6686 374.634 90.8409 373.452 90.5599 372.335V372.107L95.7634 369.103C96.4608 370.016 97.3199 370.793 98.298 371.396C100.173 372.579 102.428 373.001 104.604 372.577C106.779 372.154 108.712 370.916 110.006 369.116L115.142 372.08C114.9 372.995 114.958 373.963 115.309 374.842C115.659 375.721 116.282 376.464 117.087 376.962C118.062 377.534 119.223 377.695 120.317 377.411C121.411 377.127 122.347 376.42 122.921 375.446C123.479 374.459 123.638 373.295 123.363 372.195C123.089 371.094 122.402 370.141 121.445 369.532ZM89.4602 352.098C91.3815 349.828 93.8514 348.088 96.6351 347.042C96.3656 346.143 96.2879 345.197 96.4071 344.266C92.9199 345.432 89.8144 347.522 87.4218 350.314C87.1852 350.585 87.0658 350.938 87.0897 351.296C87.1136 351.655 87.2788 351.989 87.5492 352.225C87.8195 352.462 88.1727 352.581 88.5311 352.557C88.8895 352.534 89.2237 352.368 89.4602 352.098Z" fill="#05E2FF"/>
<path d="M111.75 348.385C113.401 349.376 114.878 350.631 116.122 352.1C116.236 352.234 116.376 352.344 116.533 352.424C116.69 352.503 116.861 352.552 117.037 352.565C117.212 352.579 117.389 352.558 117.556 352.503C117.724 352.449 117.879 352.362 118.013 352.247C118.146 352.133 118.256 351.993 118.336 351.836C118.416 351.679 118.464 351.508 118.478 351.332C118.492 351.157 118.471 350.98 118.416 350.813C118.362 350.645 118.275 350.49 118.16 350.356C116.728 348.657 115.024 347.207 113.118 346.065C111.867 345.338 110.546 344.74 109.175 344.281C109.309 345.206 109.241 346.149 108.974 347.044C109.934 347.415 110.862 347.863 111.75 348.385Z" fill="#05E2FF"/>
</g>
<g filter="url(#filter11_i_1611_3867)">
<path d="M510.749 284.502C507.64 284.502 504.977 283.394 502.762 281.178C500.546 278.962 499.44 276.301 499.443 273.196V171.446C499.443 168.337 500.551 165.675 502.767 163.459C504.983 161.243 507.644 160.137 510.749 160.141H567.277C570.386 160.141 573.048 161.249 575.264 163.464C577.48 165.68 578.586 168.341 578.582 171.446V194.057H567.277V188.405H510.749V256.238H567.277V250.585H578.582V273.196C578.582 276.305 577.474 278.968 575.258 281.184C573.043 283.399 570.382 284.506 567.277 284.502H510.749ZM561.341 244.932L537.317 220.908L545.231 212.994L561.341 229.105L593.28 197.166L601.193 205.08L561.341 244.932Z" fill="#19DFDF"/>
</g>
<g filter="url(#filter12_i_1611_3867)">
<path d="M316.471 173.648C309.037 173.648 301.79 171.99 294.729 168.675C287.668 165.361 281.416 160.981 275.971 155.536C270.526 150.092 266.147 143.839 262.832 136.778C259.517 129.718 257.861 122.472 257.863 115.04V111.409H278.264L281.462 128.698L271.694 138.725C274.114 142.874 277.14 146.764 280.77 150.395C284.401 154.025 288.406 157.166 292.786 159.817L302.813 149.79L320.101 153.247V173.648H316.471ZM309.728 139.071C304.945 139.071 300.868 137.385 297.495 134.012C294.123 130.64 292.438 126.563 292.44 121.783C292.44 116.999 294.126 112.922 297.499 109.549C300.871 106.177 304.948 104.492 309.728 104.494C314.511 104.494 318.589 106.18 321.962 109.553C325.334 112.925 327.019 117.002 327.017 121.783C327.017 126.566 325.331 130.643 321.958 134.016C318.586 137.388 314.509 139.073 309.728 139.071ZM308 132.156H311.457V118.325H308V132.156ZM309.728 114.867C310.189 114.867 310.593 114.694 310.939 114.349C311.284 114.003 311.457 113.599 311.457 113.138C311.457 112.677 311.284 112.274 310.939 111.928C310.593 111.582 310.189 111.409 309.728 111.409C309.267 111.409 308.864 111.582 308.518 111.928C308.172 112.274 308 112.677 308 113.138C308 113.599 308.172 114.003 308.518 114.349C308.864 114.694 309.267 114.867 309.728 114.867Z" fill="#2110BD"/>
</g>
<defs>
<filter id="filter0_ii_1611_3867" x="-0.890905" y="0" width="680.851" height="427.723" filterUnits="userSpaceOnUse" color-interpolation-filters="sRGB">
<feFlood flood-opacity="0" result="BackgroundImageFix"/>
<feBlend mode="normal" in="SourceGraphic" in2="BackgroundImageFix" result="shape"/>
<feColorMatrix in="SourceAlpha" type="matrix" values="0 0 0 0 0 0 0 0 0 0 0 0 0 0 0 0 0 0 127 0" result="hardAlpha"/>
<feOffset dx="12" dy="0.382875"/>
<feGaussianBlur stdDeviation="7.5"/>
<feComposite in2="hardAlpha" operator="arithmetic" k2="-1" k3="1"/>
<feColorMatrix type="matrix" values="0 0 0 0 0 0 0 0 0 0 0 0 0 0 0 0 0 0 0.25 0"/>
<feBlend mode="normal" in2="shape" result="effect1_innerShadow_1611_3867"/>
<feColorMatrix in="SourceAlpha" type="matrix" values="0 0 0 0 0 0 0 0 0 0 0 0 0 0 0 0 0 0 127 0" result="hardAlpha"/>
<feOffset dx="-3.063" dy="3.44587"/>
<feGaussianBlur stdDeviation="0.861468"/>
<feComposite in2="hardAlpha" operator="arithmetic" k2="-1" k3="1"/>
<feColorMatrix type="matrix" values="0 0 0 0 0 0 0 0 0 0 0 0 0 0 0 0 0 0 0.25 0"/>
<feBlend mode="normal" in2="effect1_innerShadow_1611_3867" result="effect2_innerShadow_1611_3867"/>
</filter>
<filter id="filter1_i_1611_3867" x="393.732" y="154.76" width="38.5411" height="29.9337" filterUnits="userSpaceOnUse" color-interpolation-filters="sRGB">
<feFlood flood-opacity="0" result="BackgroundImageFix"/>
<feBlend mode="normal" in="SourceGraphic" in2="BackgroundImageFix" result="shape"/>
<feColorMatrix in="SourceAlpha" type="matrix" values="0 0 0 0 0 0 0 0 0 0 0 0 0 0 0 0 0 0 127 0" result="hardAlpha"/>
<feOffset dx="0.861468" dy="0.382875"/>
<feGaussianBlur stdDeviation="0.382875"/>
<feComposite in2="hardAlpha" operator="arithmetic" k2="-1" k3="1"/>
<feColorMatrix type="matrix" values="0 0 0 0 0 0 0 0 0 0 0 0 0 0 0 0 0 0 0.25 0"/>
<feBlend mode="normal" in2="shape" result="effect1_innerShadow_1611_3867"/>
</filter>
<filter id="filter2_i_1611_3867" x="183.321" y="311.686" width="78.919" height="74.5782" filterUnits="userSpaceOnUse" color-interpolation-filters="sRGB">
<feFlood flood-opacity="0" result="BackgroundImageFix"/>
<feBlend mode="normal" in="SourceGraphic" in2="BackgroundImageFix" result="shape"/>
<feColorMatrix in="SourceAlpha" type="matrix" values="0 0 0 0 0 0 0 0 0 0 0 0 0 0 0 0 0 0 127 0" result="hardAlpha"/>
<feOffset dx="1.14862" dy="0.382875"/>
<feGaussianBlur stdDeviation="0.191437"/>
<feComposite in2="hardAlpha" operator="arithmetic" k2="-1" k3="1"/>
<feColorMatrix type="matrix" values="0 0 0 0 0 0 0 0 0 0 0 0 0 0 0 0 0 0 0.25 0"/>
<feBlend mode="normal" in2="shape" result="effect1_innerShadow_1611_3867"/>
</filter>
<filter id="filter3_ii_1611_3867" x="255.318" y="222.285" width="122.012" height="109.393" filterUnits="userSpaceOnUse" color-interpolation-filters="sRGB">
<feFlood flood-opacity="0" result="BackgroundImageFix"/>
<feBlend mode="normal" in="SourceGraphic" in2="BackgroundImageFix" result="shape"/>
<feColorMatrix in="SourceAlpha" type="matrix" values="0 0 0 0 0 0 0 0 0 0 0 0 0 0 0 0 0 0 127 0" result="hardAlpha"/>
<feOffset dx="0.382875" dy="0.382875"/>
<feGaussianBlur stdDeviation="0.287156"/>
<feComposite in2="hardAlpha" operator="arithmetic" k2="-1" k3="1"/>
<feColorMatrix type="matrix" values="0 0 0 0 0 0 0 0 0 0 0 0 0 0 0 0 0 0 0.25 0"/>
<feBlend mode="normal" in2="shape" result="effect1_innerShadow_1611_3867"/>
<feColorMatrix in="SourceAlpha" type="matrix" values="0 0 0 0 0 0 0 0 0 0 0 0 0 0 0 0 0 0 127 0" result="hardAlpha"/>
<feOffset dx="-0.382875" dy="0.382875"/>
<feGaussianBlur stdDeviation="0.239297"/>
<feComposite in2="hardAlpha" operator="arithmetic" k2="-1" k3="1"/>
<feColorMatrix type="matrix" values="0 0 0 0 0 0 0 0 0 0 0 0 0 0 0 0 0 0 0.25 0"/>
<feBlend mode="normal" in2="effect1_innerShadow_1611_3867" result="effect2_innerShadow_1611_3867"/>
</filter>
<filter id="filter4_i_1611_3867" x="235.712" y="300.887" width="138.673" height="99.2442" filterUnits="userSpaceOnUse" color-interpolation-filters="sRGB">
<feFlood flood-opacity="0" result="BackgroundImageFix"/>
<feBlend mode="normal" in="SourceGraphic" in2="BackgroundImageFix" result="shape"/>
<feColorMatrix in="SourceAlpha" type="matrix" values="0 0 0 0 0 0 0 0 0 0 0 0 0 0 0 0 0 0 127 0" result="hardAlpha"/>
<feOffset dx="2.29725" dy="0.382875"/>
<feGaussianBlur stdDeviation="0.574312"/>
<feComposite in2="hardAlpha" operator="arithmetic" k2="-1" k3="1"/>
<feColorMatrix type="matrix" values="0 0 0 0 0 0 0 0 0 0 0 0 0 0 0 0 0 0 0.25 0"/>
<feBlend mode="normal" in2="shape" result="effect1_innerShadow_1611_3867"/>
</filter>
<filter id="filter5_ii_1611_3867" x="291.443" y="228.752" width="62.1623" height="87.3262" filterUnits="userSpaceOnUse" color-interpolation-filters="sRGB">
<feFlood flood-opacity="0" result="BackgroundImageFix"/>
<feBlend mode="normal" in="SourceGraphic" in2="BackgroundImageFix" result="shape"/>
<feColorMatrix in="SourceAlpha" type="matrix" values="0 0 0 0 0 0 0 0 0 0 0 0 0 0 0 0 0 0 127 0" result="hardAlpha"/>
<feOffset dx="0.382875" dy="0.382875"/>
<feGaussianBlur stdDeviation="0.287156"/>
<feComposite in2="hardAlpha" operator="arithmetic" k2="-1" k3="1"/>
<feColorMatrix type="matrix" values="0 0 0 0 0 0 0 0 0 0 0 0 0 0 0 0 0 0 0.25 0"/>
<feBlend mode="normal" in2="shape" result="effect1_innerShadow_1611_3867"/>
<feColorMatrix in="SourceAlpha" type="matrix" values="0 0 0 0 0 0 0 0 0 0 0 0 0 0 0 0 0 0 127 0" result="hardAlpha"/>
<feOffset dx="-0.957187" dy="0.382875"/>
<feGaussianBlur stdDeviation="0.574312"/>
<feComposite in2="hardAlpha" operator="arithmetic" k2="-1" k3="1"/>
<feColorMatrix type="matrix" values="0 0 0 0 0 0 0 0 0 0 0 0 0 0 0 0 0 0 0.25 0"/>
<feBlend mode="normal" in2="effect1_innerShadow_1611_3867" result="effect2_innerShadow_1611_3867"/>
</filter>
<filter id="filter6_i_1611_3867" x="146.415" y="285.596" width="52.5742" height="40.6816" filterUnits="userSpaceOnUse" color-interpolation-filters="sRGB">
<feFlood flood-opacity="0" result="BackgroundImageFix"/>
<feBlend mode="normal" in="SourceGraphic" in2="BackgroundImageFix" result="shape"/>
<feColorMatrix in="SourceAlpha" type="matrix" values="0 0 0 0 0 0 0 0 0 0 0 0 0 0 0 0 0 0 127 0" result="hardAlpha"/>
<feOffset dx="4" dy="-2"/>
<feGaussianBlur stdDeviation="5"/>
<feComposite in2="hardAlpha" operator="arithmetic" k2="-1" k3="1"/>
<feColorMatrix type="matrix" values="0 0 0 0 0 0 0 0 0 0 0 0 0 0 0 0 0 0 0.25 0"/>
<feBlend mode="normal" in2="shape" result="effect1_innerShadow_1611_3867"/>
</filter>
<filter id="filter7_i_1611_3867" x="324.112" y="315.398" width="58.1729" height="93.2149" filterUnits="userSpaceOnUse" color-interpolation-filters="sRGB">
<feFlood flood-opacity="0" result="BackgroundImageFix"/>
<feBlend mode="normal" in="SourceGraphic" in2="BackgroundImageFix" result="shape"/>
<feColorMatrix in="SourceAlpha" type="matrix" values="0 0 0 0 0 0 0 0 0 0 0 0 0 0 0 0 0 0 127 0" result="hardAlpha"/>
<feOffset dx="1.34006" dy="0.382875"/>
<feGaussianBlur stdDeviation="0.191437"/>
<feComposite in2="hardAlpha" operator="arithmetic" k2="-1" k3="1"/>
<feColorMatrix type="matrix" values="0 0 0 0 0 0 0 0 0 0 0 0 0 0 0 0 0 0 0.25 0"/>
<feBlend mode="normal" in2="shape" result="effect1_innerShadow_1611_3867"/>
</filter>
<filter id="filter8_i_1611_3867" x="403.481" y="272.959" width="48.794" height="35.4571" filterUnits="userSpaceOnUse" color-interpolation-filters="sRGB">
<feFlood flood-opacity="0" result="BackgroundImageFix"/>
<feBlend mode="normal" in="SourceGraphic" in2="BackgroundImageFix" result="shape"/>
<feColorMatrix in="SourceAlpha" type="matrix" values="0 0 0 0 0 0 0 0 0 0 0 0 0 0 0 0 0 0 127 0" result="hardAlpha"/>
<feOffset dx="1.24434" dy="0.382875"/>
<feGaussianBlur stdDeviation="0.191437"/>
<feComposite in2="hardAlpha" operator="arithmetic" k2="-1" k3="1"/>
<feColorMatrix type="matrix" values="0 0 0 0 0 0 0 0 0 0 0 0 0 0 0 0 0 0 0.25 0"/>
<feBlend mode="normal" in2="shape" result="effect1_innerShadow_1611_3867"/>
</filter>
<filter id="filter9_i_1611_3867" x="133.976" y="207.766" width="73.962" height="59.2462" filterUnits="userSpaceOnUse" color-interpolation-filters="sRGB">
<feFlood flood-opacity="0" result="BackgroundImageFix"/>
<feBlend mode="normal" in="SourceGraphic" in2="BackgroundImageFix" result="shape"/>
<feColorMatrix in="SourceAlpha" type="matrix" values="0 0 0 0 0 0 0 0 0 0 0 0 0 0 0 0 0 0 127 0" result="hardAlpha"/>
<feOffset dx="2.20153" dy="0.382875"/>
<feGaussianBlur stdDeviation="0.191437"/>
<feComposite in2="hardAlpha" operator="arithmetic" k2="-1" k3="1"/>
<feColorMatrix type="matrix" values="0 0 0 0 0 0 0 0 0 0 0 0 0 0 0 0 0 0 0.25 0"/>
<feBlend mode="normal" in2="shape" result="effect1_innerShadow_1611_3867"/>
</filter>
<filter id="filter10_i_1611_3867" x="82.085" y="340.791" width="41.793" height="43.0762" filterUnits="userSpaceOnUse" color-interpolation-filters="sRGB">
<feFlood flood-opacity="0" result="BackgroundImageFix"/>
<feBlend mode="normal" in="SourceGraphic" in2="BackgroundImageFix" result="shape"/>
<feColorMatrix in="SourceAlpha" type="matrix" values="0 0 0 0 0 0 0 0 0 0 0 0 0 0 0 0 0 0 127 0" result="hardAlpha"/>
<feOffset dx="1.24434" dy="0.382875"/>
<feGaussianBlur stdDeviation="0.191437"/>
<feComposite in2="hardAlpha" operator="arithmetic" k2="-1" k3="1"/>
<feColorMatrix type="matrix" values="0 0 0 0 0 0 0 0 0 0 0 0 0 0 0 0 0 0 0.25 0"/>
<feBlend mode="normal" in2="shape" result="effect1_innerShadow_1611_3867"/>
</filter>
<filter id="filter11_i_1611_3867" x="499.443" y="160.141" width="102.803" height="124.744" filterUnits="userSpaceOnUse" color-interpolation-filters="sRGB">
<feFlood flood-opacity="0" result="BackgroundImageFix"/>
<feBlend mode="normal" in="SourceGraphic" in2="BackgroundImageFix" result="shape"/>
<feColorMatrix in="SourceAlpha" type="matrix" values="0 0 0 0 0 0 0 0 0 0 0 0 0 0 0 0 0 0 127 0" result="hardAlpha"/>
<feOffset dx="2.87156" dy="0.382875"/>
<feGaussianBlur stdDeviation="0.526453"/>
<feComposite in2="hardAlpha" operator="arithmetic" k2="-1" k3="1"/>
<feColorMatrix type="matrix" values="0 0 0 0 0 0 0 0 0 0 0 0 0 0 0 0 0 0 0.25 0"/>
<feBlend mode="normal" in2="shape" result="effect1_innerShadow_1611_3867"/>
</filter>
<filter id="filter12_i_1611_3867" x="257.863" y="104.494" width="69.5362" height="69.5372" filterUnits="userSpaceOnUse" color-interpolation-filters="sRGB">
<feFlood flood-opacity="0" result="BackgroundImageFix"/>
<feBlend mode="normal" in="SourceGraphic" in2="BackgroundImageFix" result="shape"/>
<feColorMatrix in="SourceAlpha" type="matrix" values="0 0 0 0 0 0 0 0 0 0 0 0 0 0 0 0 0 0 127 0" result="hardAlpha"/>
<feOffset dx="2.48869" dy="0.382875"/>
<feGaussianBlur stdDeviation="0.191437"/>
<feComposite in2="hardAlpha" operator="arithmetic" k2="-1" k3="1"/>
<feColorMatrix type="matrix" values="0 0 0 0 1 0 0 0 0 1 0 0 0 0 1 0 0 0 0.25 0"/>
<feBlend mode="normal" in2="shape" result="effect1_innerShadow_1611_3867"/>
</filter>
<linearGradient id="paint0_linear_1611_3867" x1="334.396" y1="0" x2="334.396" y2="426.001" gradientUnits="userSpaceOnUse">
<stop stop-color="#05E2FF"/>
<stop offset="1" stop-color="#5790FD"/>
</linearGradient>
</defs>
</svg>
