<svg width="631" height="361" viewBox="0 0 631 361" fill="none" xmlns="http://www.w3.org/2000/svg">
<g filter="url(#filter0_i_1113_2892)">
<path d="M19.8755 105.545V141.297" stroke="#62C7FF" stroke-width="3.696" stroke-linecap="round"/>
</g>
<g filter="url(#filter1_dii_1113_2892)">
<path d="M589.581 256.643C589.581 364.476 469.88 295.295 322.221 295.295C226.124 401.17 54.8613 364.476 54.8613 256.643C54.8613 148.81 329.173 0.435547 476.831 0.435547C624.49 0.435547 589.581 148.81 589.581 256.643Z" fill="url(#paint0_radial_1113_2892)"/>
</g>
<rect x="129.104" y="107.985" width="126.241" height="241.401" rx="5.77408" fill="#81F0FF"/>
<g filter="url(#filter2_i_1113_2892)">
<rect x="162.338" y="184.588" width="55.423" height="60.5614" rx="6.92889" fill="white"/>
<path d="M182.035 198.292C181.419 197.368 180.265 196.949 179.198 197.273C178.131 197.597 177.404 198.577 177.404 199.691V214.865H174.875C173.476 214.865 172.346 215.995 172.346 217.394C172.346 218.793 173.476 219.923 174.875 219.923H177.404V230.039C177.404 231.438 178.534 232.568 179.933 232.568C181.332 232.568 182.462 231.438 182.462 230.039V219.923H190.381L198.063 231.446C198.68 232.371 199.833 232.79 200.9 232.466C201.967 232.142 202.694 231.162 202.694 230.047V219.923H205.223C206.622 219.923 207.752 218.793 207.752 217.394C207.752 215.995 206.622 214.865 205.223 214.865H202.694V199.691C202.694 198.292 201.564 197.162 200.165 197.162C198.767 197.162 197.636 198.292 197.636 199.691V214.865H193.092L182.035 198.292ZM196.459 219.923H197.636V221.686L196.459 219.923ZM187.007 214.865H182.462V208.045L187.007 214.865Z" fill="#AFD8FF"/>
</g>
<rect x="129.104" y="107.985" width="126.241" height="241.401" rx="5.77408" stroke="#2110BD" stroke-width="4.87589"/>
<path fill-rule="evenodd" clip-rule="evenodd" d="M422.993 95.7678C423.076 92.9495 421.807 90.1389 419.025 88.4427C417.948 87.7859 416.672 87.5467 415.416 87.348C420.521 87.1896 422.293 82.3577 423.003 78.6172C422.757 81.972 424.696 85.5956 428.66 85.93C424.714 88.0292 423.36 91.8811 422.993 95.7678Z" fill="white" stroke="black" stroke-width="0.088305" stroke-miterlimit="1.5" stroke-linecap="round"/>
<path opacity="0.5" fill-rule="evenodd" clip-rule="evenodd" d="M425.364 108.362C425.399 107.196 424.859 106.033 423.675 105.331C423.216 105.06 422.673 104.961 422.138 104.878C424.312 104.813 425.066 102.813 425.369 101.266C425.264 102.654 426.09 104.153 427.777 104.292C426.097 105.16 425.521 106.754 425.364 108.362Z" fill="white" stroke="black" stroke-width="0.0341826" stroke-miterlimit="1.5" stroke-linecap="round"/>
<path opacity="0.2" fill-rule="evenodd" clip-rule="evenodd" d="M406.273 92.7839C406.343 90.4559 405.265 88.1344 402.9 86.7333C401.985 86.1907 400.9 85.9932 399.832 85.829C404.171 85.6982 405.678 81.7069 406.282 78.6172C406.072 81.3883 407.721 84.3815 411.09 84.6577C407.736 86.3916 406.585 89.5735 406.273 92.7839Z" fill="white" stroke="black" stroke-width="0.0682357" stroke-miterlimit="1.5" stroke-linecap="round"/>
<path fill-rule="evenodd" clip-rule="evenodd" d="M411.015 113.685C411.077 111.644 410.126 109.609 408.039 108.381C407.232 107.905 406.275 107.732 405.332 107.588C409.161 107.473 410.49 103.974 411.023 101.266C410.838 103.695 412.293 106.319 415.265 106.561C412.306 108.081 411.29 110.871 411.015 113.685Z" fill="white" stroke="black" stroke-width="0.088305" stroke-miterlimit="1.5" stroke-linecap="round"/>
<g filter="url(#filter3_i_1113_2892)">
<rect x="266.305" y="262.904" width="147.888" height="91.3606" rx="6.19149" fill="#4ABEFF"/>
<rect x="266.305" y="262.904" width="147.888" height="91.3606" rx="6.19149" stroke="black"/>
<g filter="url(#filter4_i_1113_2892)">
<rect x="266.305" y="278.791" width="147.888" height="17.111" fill="white"/>
</g>
<g style="mix-blend-mode:overlay">
<rect x="274.25" y="318.211" width="32.9998" height="4.58331" rx="2.29166" fill="#D9D9D9"/>
<rect x="274.25" y="318.211" width="32.9998" height="4.58331" rx="2.29166" stroke="black"/>
</g>
<g style="mix-blend-mode:overlay">
<rect x="274.25" y="328.904" width="40.6387" height="4.58331" rx="2.29166" fill="#D9D9D9"/>
<rect x="274.25" y="328.904" width="40.6387" height="4.58331" rx="2.29166" stroke="black"/>
</g>
</g>
<g filter="url(#filter5_i_1113_2892)">
<rect x="445.97" y="253.434" width="123.749" height="80.0552" rx="3.53799" fill="#274AC5"/>
</g>
<g filter="url(#filter6_di_1113_2892)">
<rect x="453.303" y="255.268" width="123.749" height="80.0552" rx="3.53799" fill="#36F8F8"/>
</g>
<g filter="url(#filter7_d_1113_2892)">
<rect x="549.247" y="286.434" width="39.722" height="21.0832" rx="4.12766" fill="#274AC4"/>
</g>
<g filter="url(#filter8_i_1113_2892)">
<rect x="551.997" y="286.738" width="39.722" height="21.0832" rx="4.12766" fill="white"/>
</g>
<rect x="552.071" y="286.812" width="39.5746" height="20.9358" rx="4.05395" stroke="#6D63E6" stroke-width="0.147416" stroke-dasharray="1.47 1.47"/>
<g filter="url(#filter9_i_1113_2892)">
<circle cx="561.163" cy="297.433" r="4.58331" fill="#517CEB"/>
</g>
<g filter="url(#filter10_di_1113_2892)">
<circle cx="468.581" cy="337.155" r="15.2777" fill="white"/>
<circle cx="468.581" cy="337.155" r="15.2187" stroke="black" stroke-width="0.117933"/>
</g>
<circle cx="468.581" cy="337.154" r="6.11108" fill="#8DF1FF"/>
<path d="M466.79 270.789H467.703L468.42 272.499H467.429L467.257 272.059L467.12 272.085V271.968H466.327L466.513 271.443H466.81H467.017L466.949 271.247L466.79 270.789ZM470.376 271.518V272.507H469.43V270.775H470.908C471.176 270.775 471.422 270.577 471.422 270.3C471.422 270.023 471.176 269.826 470.908 269.826L470.908 269.826L466.564 269.828L466.461 269.828L466.425 269.925L465.485 272.501H464.523L465.861 269.229H471.183H471.189C471.872 269.229 472.406 269.726 472.406 270.3C472.406 270.875 471.875 271.371 471.189 271.371H470.523H470.376V271.518Z" fill="#0E0073" stroke="black" stroke-width="0.294833"/>
<g filter="url(#filter11_di_1113_2892)">
<circle cx="500.054" cy="343.262" r="15.2777" fill="white"/>
<circle cx="500.054" cy="343.262" r="15.2187" stroke="black" stroke-width="0.117933"/>
</g>
<circle cx="500.054" cy="343.263" r="6.11108" fill="#8DF1FF"/>
<path d="M498.263 276.244H499.177L499.893 277.954H498.902L498.73 277.514L498.593 277.54V277.424H497.8L497.986 276.898H498.283H498.491L498.422 276.702L498.263 276.244ZM501.849 276.973V277.962H500.903V276.23H502.381C502.649 276.23 502.895 276.032 502.895 275.755C502.895 275.478 502.649 275.281 502.381 275.281L502.381 275.281L498.037 275.284L497.934 275.284L497.898 275.38L496.958 277.956H495.996L497.334 274.685H502.656H502.662C503.346 274.685 503.879 275.181 503.879 275.755C503.879 276.33 503.349 276.826 502.662 276.826H501.996H501.849V276.973Z" fill="#0E0073" stroke="black" stroke-width="0.294833"/>
<g filter="url(#filter12_di_1113_2892)">
<circle cx="438.026" cy="278.182" r="15.2777" fill="white"/>
<circle cx="438.026" cy="278.182" r="15.2187" stroke="black" stroke-width="0.117933"/>
</g>
<circle cx="438.027" cy="278.181" r="6.11108" fill="#0063F8"/>
<path d="M436.235 218.123H437.149L437.865 219.833H436.874L436.702 219.393L436.565 219.419V219.302H435.773L435.959 218.777H436.255H436.463L436.395 218.581L436.235 218.123ZM439.821 218.852V219.841H438.875V218.109H440.354C440.621 218.109 440.867 217.911 440.867 217.634C440.867 217.357 440.621 217.16 440.354 217.16L440.353 217.16L436.009 217.162L435.906 217.162L435.871 217.259L434.93 219.835H433.968L435.306 216.563H440.628H440.635C441.318 216.563 441.851 217.06 441.851 217.634C441.851 218.208 441.321 218.705 440.635 218.705H439.968H439.821V218.852Z" fill="#0E0073" stroke="black" stroke-width="0.294833"/>
<g filter="url(#filter13_i_1113_2892)">
<path d="M37.752 123.42L2.00017 123.497" stroke="#62C7FF" stroke-width="3.696" stroke-linecap="round"/>
</g>
<g filter="url(#filter14_i_1113_2892)">
<path d="M611.125 12.6582V48.4101" stroke="#62C7FF" stroke-width="3.696" stroke-linecap="round"/>
</g>
<g filter="url(#filter15_i_1113_2892)">
<path d="M629 30.5332L593.248 30.6102" stroke="#62C7FF" stroke-width="3.696" stroke-linecap="round"/>
</g>
<defs>
<filter id="filter0_i_1113_2892" x="18.0273" y="103.697" width="3.69629" height="40.2686" filterUnits="userSpaceOnUse" color-interpolation-filters="sRGB">
<feFlood flood-opacity="0" result="BackgroundImageFix"/>
<feBlend mode="normal" in="SourceGraphic" in2="BackgroundImageFix" result="shape"/>
<feColorMatrix in="SourceAlpha" type="matrix" values="0 0 0 0 0 0 0 0 0 0 0 0 0 0 0 0 0 0 127 0" result="hardAlpha"/>
<feOffset dy="0.821334"/>
<feGaussianBlur stdDeviation="0.410667"/>
<feComposite in2="hardAlpha" operator="arithmetic" k2="-1" k3="1"/>
<feColorMatrix type="matrix" values="0 0 0 0 0 0 0 0 0 0 0 0 0 0 0 0 0 0 0.25 0"/>
<feBlend mode="normal" in2="shape" result="effect1_innerShadow_1113_2892"/>
</filter>
<filter id="filter1_dii_1113_2892" x="53.682" y="0.435547" width="545.688" height="362.245" filterUnits="userSpaceOnUse" color-interpolation-filters="sRGB">
<feFlood flood-opacity="0" result="BackgroundImageFix"/>
<feColorMatrix in="SourceAlpha" type="matrix" values="0 0 0 0 0 0 0 0 0 0 0 0 0 0 0 0 0 0 127 0" result="hardAlpha"/>
<feOffset dy="1.17933"/>
<feGaussianBlur stdDeviation="0.589666"/>
<feComposite in2="hardAlpha" operator="out"/>
<feColorMatrix type="matrix" values="0 0 0 0 0 0 0 0 0 0 0 0 0 0 0 0 0 0 0.25 0"/>
<feBlend mode="normal" in2="BackgroundImageFix" result="effect1_dropShadow_1113_2892"/>
<feBlend mode="normal" in="SourceGraphic" in2="effect1_dropShadow_1113_2892" result="shape"/>
<feColorMatrix in="SourceAlpha" type="matrix" values="0 0 0 0 0 0 0 0 0 0 0 0 0 0 0 0 0 0 127 0" result="hardAlpha"/>
<feOffset dx="12.6778" dy="1.17933"/>
<feGaussianBlur stdDeviation="3.09574"/>
<feComposite in2="hardAlpha" operator="arithmetic" k2="-1" k3="1"/>
<feColorMatrix type="matrix" values="0 0 0 0 0 0 0 0 0 0 0 0 0 0 0 0 0 0 0.25 0"/>
<feBlend mode="normal" in2="shape" result="effect2_innerShadow_1113_2892"/>
<feColorMatrix in="SourceAlpha" type="matrix" values="0 0 0 0 0 0 0 0 0 0 0 0 0 0 0 0 0 0 127 0" result="hardAlpha"/>
<feOffset dx="3.53799" dy="4.12766"/>
<feGaussianBlur stdDeviation="2.50608"/>
<feComposite in2="hardAlpha" operator="arithmetic" k2="-1" k3="1"/>
<feColorMatrix type="matrix" values="0 0 0 0 1 0 0 0 0 1 0 0 0 0 1 0 0 0 0.25 0"/>
<feBlend mode="normal" in2="effect2_innerShadow_1113_2892" result="effect3_innerShadow_1113_2892"/>
</filter>
<filter id="filter2_i_1113_2892" x="162.338" y="184.588" width="56.4494" height="61.587" filterUnits="userSpaceOnUse" color-interpolation-filters="sRGB">
<feFlood flood-opacity="0" result="BackgroundImageFix"/>
<feBlend mode="normal" in="SourceGraphic" in2="BackgroundImageFix" result="shape"/>
<feColorMatrix in="SourceAlpha" type="matrix" values="0 0 0 0 0 0 0 0 0 0 0 0 0 0 0 0 0 0 127 0" result="hardAlpha"/>
<feOffset dx="4.10601" dy="1.0265"/>
<feGaussianBlur stdDeviation="0.513251"/>
<feComposite in2="hardAlpha" operator="arithmetic" k2="-1" k3="1"/>
<feColorMatrix type="matrix" values="0 0 0 0 0.129429 0 0 0 0 0.0630417 0 0 0 0 0.741667 0 0 0 1 0"/>
<feBlend mode="normal" in2="shape" result="effect1_innerShadow_1113_2892"/>
</filter>
<filter id="filter3_i_1113_2892" x="266.305" y="262.904" width="150.542" height="92.5407" filterUnits="userSpaceOnUse" color-interpolation-filters="sRGB">
<feFlood flood-opacity="0" result="BackgroundImageFix"/>
<feBlend mode="normal" in="SourceGraphic" in2="BackgroundImageFix" result="shape"/>
<feColorMatrix in="SourceAlpha" type="matrix" values="0 0 0 0 0 0 0 0 0 0 0 0 0 0 0 0 0 0 127 0" result="hardAlpha"/>
<feOffset dx="4.42249" dy="1.17933"/>
<feGaussianBlur stdDeviation="1.32675"/>
<feComposite in2="hardAlpha" operator="arithmetic" k2="-1" k3="1"/>
<feColorMatrix type="matrix" values="0 0 0 0 0 0 0 0 0 0 0 0 0 0 0 0 0 0 0.25 0"/>
<feBlend mode="normal" in2="shape" result="effect1_innerShadow_1113_2892"/>
</filter>
<filter id="filter4_i_1113_2892" x="266.305" y="278.791" width="149.068" height="18.2907" filterUnits="userSpaceOnUse" color-interpolation-filters="sRGB">
<feFlood flood-opacity="0" result="BackgroundImageFix"/>
<feBlend mode="normal" in="SourceGraphic" in2="BackgroundImageFix" result="shape"/>
<feColorMatrix in="SourceAlpha" type="matrix" values="0 0 0 0 0 0 0 0 0 0 0 0 0 0 0 0 0 0 127 0" result="hardAlpha"/>
<feOffset dx="1.47416" dy="1.17933"/>
<feGaussianBlur stdDeviation="0.589666"/>
<feComposite in2="hardAlpha" operator="arithmetic" k2="-1" k3="1"/>
<feColorMatrix type="matrix" values="0 0 0 0 0 0 0 0 0 0 0 0 0 0 0 0 0 0 0.25 0"/>
<feBlend mode="normal" in2="shape" result="effect1_innerShadow_1113_2892"/>
</filter>
<filter id="filter5_i_1113_2892" x="445.97" y="253.434" width="126.403" height="81.234" filterUnits="userSpaceOnUse" color-interpolation-filters="sRGB">
<feFlood flood-opacity="0" result="BackgroundImageFix"/>
<feBlend mode="normal" in="SourceGraphic" in2="BackgroundImageFix" result="shape"/>
<feColorMatrix in="SourceAlpha" type="matrix" values="0 0 0 0 0 0 0 0 0 0 0 0 0 0 0 0 0 0 127 0" result="hardAlpha"/>
<feOffset dx="3.53799" dy="1.17933"/>
<feGaussianBlur stdDeviation="1.32675"/>
<feComposite in2="hardAlpha" operator="arithmetic" k2="-1" k3="1"/>
<feColorMatrix type="matrix" values="0 0 0 0 1 0 0 0 0 1 0 0 0 0 1 0 0 0 0.25 0"/>
<feBlend mode="normal" in2="shape" result="effect1_innerShadow_1113_2892"/>
</filter>
<filter id="filter6_di_1113_2892" x="452.124" y="255.268" width="127.877" height="83.003" filterUnits="userSpaceOnUse" color-interpolation-filters="sRGB">
<feFlood flood-opacity="0" result="BackgroundImageFix"/>
<feColorMatrix in="SourceAlpha" type="matrix" values="0 0 0 0 0 0 0 0 0 0 0 0 0 0 0 0 0 0 127 0" result="hardAlpha"/>
<feOffset dy="1.17933"/>
<feGaussianBlur stdDeviation="0.589666"/>
<feComposite in2="hardAlpha" operator="out"/>
<feColorMatrix type="matrix" values="0 0 0 0 0 0 0 0 0 0 0 0 0 0 0 0 0 0 0.25 0"/>
<feBlend mode="normal" in2="BackgroundImageFix" result="effect1_dropShadow_1113_2892"/>
<feBlend mode="normal" in="SourceGraphic" in2="effect1_dropShadow_1113_2892" result="shape"/>
<feColorMatrix in="SourceAlpha" type="matrix" values="0 0 0 0 0 0 0 0 0 0 0 0 0 0 0 0 0 0 127 0" result="hardAlpha"/>
<feOffset dx="8.55015" dy="4.71733"/>
<feGaussianBlur stdDeviation="1.47416"/>
<feComposite in2="hardAlpha" operator="arithmetic" k2="-1" k3="1"/>
<feColorMatrix type="matrix" values="0 0 0 0 1 0 0 0 0 1 0 0 0 0 1 0 0 0 0.15 0"/>
<feBlend mode="normal" in2="shape" result="effect2_innerShadow_1113_2892"/>
</filter>
<filter id="filter7_d_1113_2892" x="548.068" y="286.434" width="42.0803" height="23.4426" filterUnits="userSpaceOnUse" color-interpolation-filters="sRGB">
<feFlood flood-opacity="0" result="BackgroundImageFix"/>
<feColorMatrix in="SourceAlpha" type="matrix" values="0 0 0 0 0 0 0 0 0 0 0 0 0 0 0 0 0 0 127 0" result="hardAlpha"/>
<feOffset dy="1.17933"/>
<feGaussianBlur stdDeviation="0.589666"/>
<feComposite in2="hardAlpha" operator="out"/>
<feColorMatrix type="matrix" values="0 0 0 0 0 0 0 0 0 0 0 0 0 0 0 0 0 0 0.25 0"/>
<feBlend mode="normal" in2="BackgroundImageFix" result="effect1_dropShadow_1113_2892"/>
<feBlend mode="normal" in="SourceGraphic" in2="effect1_dropShadow_1113_2892" result="shape"/>
</filter>
<filter id="filter8_i_1113_2892" x="551.997" y="286.738" width="39.7217" height="22.2633" filterUnits="userSpaceOnUse" color-interpolation-filters="sRGB">
<feFlood flood-opacity="0" result="BackgroundImageFix"/>
<feBlend mode="normal" in="SourceGraphic" in2="BackgroundImageFix" result="shape"/>
<feColorMatrix in="SourceAlpha" type="matrix" values="0 0 0 0 0 0 0 0 0 0 0 0 0 0 0 0 0 0 127 0" result="hardAlpha"/>
<feOffset dy="1.17933"/>
<feGaussianBlur stdDeviation="0.589666"/>
<feComposite in2="hardAlpha" operator="arithmetic" k2="-1" k3="1"/>
<feColorMatrix type="matrix" values="0 0 0 0 0 0 0 0 0 0 0 0 0 0 0 0 0 0 0.25 0"/>
<feBlend mode="normal" in2="shape" result="effect1_innerShadow_1113_2892"/>
</filter>
<filter id="filter9_i_1113_2892" x="556.58" y="292.85" width="11.5257" height="11.5247" filterUnits="userSpaceOnUse" color-interpolation-filters="sRGB">
<feFlood flood-opacity="0" result="BackgroundImageFix"/>
<feBlend mode="normal" in="SourceGraphic" in2="BackgroundImageFix" result="shape"/>
<feColorMatrix in="SourceAlpha" type="matrix" values="0 0 0 0 0 0 0 0 0 0 0 0 0 0 0 0 0 0 127 0" result="hardAlpha"/>
<feOffset dx="2.35866" dy="2.35866"/>
<feGaussianBlur stdDeviation="1.32675"/>
<feComposite in2="hardAlpha" operator="arithmetic" k2="-1" k3="1"/>
<feColorMatrix type="matrix" values="0 0 0 0 0 0 0 0 0 0 0 0 0 0 0 0 0 0 0.25 0"/>
<feBlend mode="normal" in2="shape" result="effect1_innerShadow_1113_2892"/>
</filter>
<filter id="filter10_di_1113_2892" x="449.766" y="321.877" width="35.2725" height="32.9134" filterUnits="userSpaceOnUse" color-interpolation-filters="sRGB">
<feFlood flood-opacity="0" result="BackgroundImageFix"/>
<feColorMatrix in="SourceAlpha" type="matrix" values="0 0 0 0 0 0 0 0 0 0 0 0 0 0 0 0 0 0 127 0" result="hardAlpha"/>
<feOffset dx="-2.35866" dy="1.17933"/>
<feGaussianBlur stdDeviation="0.589666"/>
<feComposite in2="hardAlpha" operator="out"/>
<feColorMatrix type="matrix" values="0 0 0 0 0 0 0 0 0 0.388333 0 0 0 0 0.970833 0 0 0 1 0"/>
<feBlend mode="normal" in2="BackgroundImageFix" result="effect1_dropShadow_1113_2892"/>
<feBlend mode="normal" in="SourceGraphic" in2="effect1_dropShadow_1113_2892" result="shape"/>
<feColorMatrix in="SourceAlpha" type="matrix" values="0 0 0 0 0 0 0 0 0 0 0 0 0 0 0 0 0 0 127 0" result="hardAlpha"/>
<feOffset dx="1.769" dy="1.17933"/>
<feGaussianBlur stdDeviation="0.589666"/>
<feComposite in2="hardAlpha" operator="arithmetic" k2="-1" k3="1"/>
<feColorMatrix type="matrix" values="0 0 0 0 0 0 0 0 0 0 0 0 0 0 0 0 0 0 0.25 0"/>
<feBlend mode="normal" in2="shape" result="effect2_innerShadow_1113_2892"/>
</filter>
<filter id="filter11_di_1113_2892" x="481.238" y="327.984" width="35.273" height="32.9134" filterUnits="userSpaceOnUse" color-interpolation-filters="sRGB">
<feFlood flood-opacity="0" result="BackgroundImageFix"/>
<feColorMatrix in="SourceAlpha" type="matrix" values="0 0 0 0 0 0 0 0 0 0 0 0 0 0 0 0 0 0 127 0" result="hardAlpha"/>
<feOffset dx="-2.35866" dy="1.17933"/>
<feGaussianBlur stdDeviation="0.589666"/>
<feComposite in2="hardAlpha" operator="out"/>
<feColorMatrix type="matrix" values="0 0 0 0 0 0 0 0 0 0.388333 0 0 0 0 0.970833 0 0 0 1 0"/>
<feBlend mode="normal" in2="BackgroundImageFix" result="effect1_dropShadow_1113_2892"/>
<feBlend mode="normal" in="SourceGraphic" in2="effect1_dropShadow_1113_2892" result="shape"/>
<feColorMatrix in="SourceAlpha" type="matrix" values="0 0 0 0 0 0 0 0 0 0 0 0 0 0 0 0 0 0 127 0" result="hardAlpha"/>
<feOffset dx="1.769" dy="1.17933"/>
<feGaussianBlur stdDeviation="0.589666"/>
<feComposite in2="hardAlpha" operator="arithmetic" k2="-1" k3="1"/>
<feColorMatrix type="matrix" values="0 0 0 0 0 0 0 0 0 0 0 0 0 0 0 0 0 0 0.25 0"/>
<feBlend mode="normal" in2="shape" result="effect2_innerShadow_1113_2892"/>
</filter>
<filter id="filter12_di_1113_2892" x="419.211" y="262.904" width="35.2725" height="32.9134" filterUnits="userSpaceOnUse" color-interpolation-filters="sRGB">
<feFlood flood-opacity="0" result="BackgroundImageFix"/>
<feColorMatrix in="SourceAlpha" type="matrix" values="0 0 0 0 0 0 0 0 0 0 0 0 0 0 0 0 0 0 127 0" result="hardAlpha"/>
<feOffset dx="-2.35866" dy="1.17933"/>
<feGaussianBlur stdDeviation="0.589666"/>
<feComposite in2="hardAlpha" operator="out"/>
<feColorMatrix type="matrix" values="0 0 0 0 0 0 0 0 0 0.388333 0 0 0 0 0.970833 0 0 0 1 0"/>
<feBlend mode="normal" in2="BackgroundImageFix" result="effect1_dropShadow_1113_2892"/>
<feBlend mode="normal" in="SourceGraphic" in2="effect1_dropShadow_1113_2892" result="shape"/>
<feColorMatrix in="SourceAlpha" type="matrix" values="0 0 0 0 0 0 0 0 0 0 0 0 0 0 0 0 0 0 127 0" result="hardAlpha"/>
<feOffset dx="1.769" dy="1.17933"/>
<feGaussianBlur stdDeviation="0.589666"/>
<feComposite in2="hardAlpha" operator="arithmetic" k2="-1" k3="1"/>
<feColorMatrix type="matrix" values="0 0 0 0 0 0 0 0 0 0 0 0 0 0 0 0 0 0 0.25 0"/>
<feBlend mode="normal" in2="shape" result="effect2_innerShadow_1113_2892"/>
</filter>
<filter id="filter13_i_1113_2892" x="0.152344" y="121.572" width="39.4478" height="4.59477" filterUnits="userSpaceOnUse" color-interpolation-filters="sRGB">
<feFlood flood-opacity="0" result="BackgroundImageFix"/>
<feBlend mode="normal" in="SourceGraphic" in2="BackgroundImageFix" result="shape"/>
<feColorMatrix in="SourceAlpha" type="matrix" values="0 0 0 0 0 0 0 0 0 0 0 0 0 0 0 0 0 0 127 0" result="hardAlpha"/>
<feOffset dy="0.821334"/>
<feGaussianBlur stdDeviation="0.410667"/>
<feComposite in2="hardAlpha" operator="arithmetic" k2="-1" k3="1"/>
<feColorMatrix type="matrix" values="0 0 0 0 0 0 0 0 0 0 0 0 0 0 0 0 0 0 0.25 0"/>
<feBlend mode="normal" in2="shape" result="effect1_innerShadow_1113_2892"/>
</filter>
<filter id="filter14_i_1113_2892" x="609.277" y="10.8105" width="3.69531" height="40.2686" filterUnits="userSpaceOnUse" color-interpolation-filters="sRGB">
<feFlood flood-opacity="0" result="BackgroundImageFix"/>
<feBlend mode="normal" in="SourceGraphic" in2="BackgroundImageFix" result="shape"/>
<feColorMatrix in="SourceAlpha" type="matrix" values="0 0 0 0 0 0 0 0 0 0 0 0 0 0 0 0 0 0 127 0" result="hardAlpha"/>
<feOffset dy="0.821334"/>
<feGaussianBlur stdDeviation="0.410667"/>
<feComposite in2="hardAlpha" operator="arithmetic" k2="-1" k3="1"/>
<feColorMatrix type="matrix" values="0 0 0 0 0 0 0 0 0 0 0 0 0 0 0 0 0 0 0.25 0"/>
<feBlend mode="normal" in2="shape" result="effect1_innerShadow_1113_2892"/>
</filter>
<filter id="filter15_i_1113_2892" x="591.4" y="28.6855" width="39.4473" height="4.59477" filterUnits="userSpaceOnUse" color-interpolation-filters="sRGB">
<feFlood flood-opacity="0" result="BackgroundImageFix"/>
<feBlend mode="normal" in="SourceGraphic" in2="BackgroundImageFix" result="shape"/>
<feColorMatrix in="SourceAlpha" type="matrix" values="0 0 0 0 0 0 0 0 0 0 0 0 0 0 0 0 0 0 127 0" result="hardAlpha"/>
<feOffset dy="0.821334"/>
<feGaussianBlur stdDeviation="0.410667"/>
<feComposite in2="hardAlpha" operator="arithmetic" k2="-1" k3="1"/>
<feColorMatrix type="matrix" values="0 0 0 0 0 0 0 0 0 0 0 0 0 0 0 0 0 0 0.25 0"/>
<feBlend mode="normal" in2="shape" result="effect1_innerShadow_1113_2892"/>
</filter>
<radialGradient id="paint0_radial_1113_2892" cx="0" cy="0" r="1" gradientUnits="userSpaceOnUse" gradientTransform="translate(523.276 137.477) rotate(159.429) scale(480.897 722.878)">
<stop stop-color="#2AA5FF"/>
<stop offset="1" stop-color="#24F3F3"/>
</radialGradient>
</defs>
</svg>
