<svg width="475" height="425" viewBox="0 0 475 425" fill="none" xmlns="http://www.w3.org/2000/svg">
<g filter="url(#filter0_ii_1536_3591)">
<path d="M46.673 114.7C-2.11413 145.043 35.1742 189.812 31.852 241.537C28.5298 293.267 67.6276 304.114 67.6276 304.114L457.968 302.937C480.144 262.443 477.678 214.882 460.721 163.045C446.542 119.696 393.932 53.3686 309.331 97.7828C278.672 113.878 230.152 104.909 213.074 65.8013C213.074 65.8013 200.146 9.7666 155.547 1.15711C119.134 -5.87641 83.7668 20.2682 78.3287 49.414C72.8906 78.5598 77.9833 98.4881 46.673 114.695" fill="#367CFF"/>
</g>
<g filter="url(#filter1_di_1536_3591)">
<path d="M410.678 76.1211H111.88C107.966 76.1211 104.793 79.2941 104.793 83.2081V275.997C104.793 279.912 107.966 283.085 111.88 283.085H410.678C414.592 283.085 417.765 279.912 417.765 275.997V83.2081C417.765 79.2941 414.592 76.1211 410.678 76.1211Z" fill="#0150AB"/>
<path d="M92.5586 269.719H431.636V279.17C431.636 283.946 427.76 287.828 422.978 287.828H101.217C96.4402 287.828 92.5586 283.951 92.5586 279.17V269.719Z" fill="#0150AB"/>
<path d="M408.482 84.3418H113.191V259.119H408.482V84.3418Z" fill="white"/>
<path d="M230.422 267.777L234.629 274.47H293.84L297.746 267.777H230.422Z" fill="#0063F8"/>
<path d="M120.868 90.2598H401.416C402.296 90.2598 403.006 90.9748 403.006 91.8503V256.968C403.006 257.848 402.291 258.558 401.416 258.558H120.868C119.988 258.558 119.277 257.843 119.277 256.968V91.8503C119.277 90.9699 119.992 90.2598 120.868 90.2598Z" fill="#EBEBEB"/>
<g filter="url(#filter2_ii_1536_3591)">
<path d="M402.704 258.806H118.971L119.272 102.838H402.704V258.806Z" fill="#8CFFFF"/>
</g>
<path d="M142.547 96.7589C142.547 98.0089 141.53 99.0256 140.28 99.0256C139.03 99.0256 138.014 98.0089 138.014 96.7589C138.014 95.5088 139.03 94.4922 140.28 94.4922C141.53 94.4922 142.547 95.5039 142.547 96.7589Z" fill="#2C00FF"/>
<path d="M128.811 96.7589C128.811 98.0089 127.794 99.0256 126.544 99.0256C125.294 99.0256 124.277 98.0089 124.277 96.7589C124.277 95.5088 125.294 94.4922 126.544 94.4922C127.794 94.4922 128.811 95.5039 128.811 96.7589Z" fill="#2C00FF"/>
<path d="M135.403 96.7589C135.403 98.0089 134.386 99.0256 133.136 99.0256C131.886 99.0256 130.869 98.0089 130.869 96.7589C130.869 95.5088 131.886 94.4922 133.136 94.4922C134.386 94.4922 135.403 95.5039 135.403 96.7589Z" fill="#2C00FF"/>
<path d="M415.068 267.777C415.068 267.888 345.604 267.981 259.937 267.981C174.27 267.981 104.791 267.888 104.791 267.777C104.791 267.665 174.241 267.572 259.937 267.572C345.633 267.572 415.068 267.665 415.068 267.777Z" fill="#E1F5FF"/>
</g>
<g filter="url(#filter3_i_1536_3591)">
<path d="M125.047 175.769C122.722 178.152 119.103 180.774 116.559 182.968C114.025 185.166 111.408 187.214 108.801 188.955C107.497 189.826 106.184 190.595 104.915 191.251C103.65 191.903 102.414 192.419 101.335 192.715C100.26 193.017 99.3646 193.085 98.9268 192.998C98.703 192.959 98.596 192.895 98.5571 192.837C98.5133 192.783 98.5328 192.745 98.5085 192.681C98.4939 192.652 98.4744 192.608 98.4355 192.555C98.4258 192.535 98.4209 192.531 98.4015 192.506L98.2993 192.394L98.0464 192.122C97.6718 191.709 97.2098 191.173 96.7477 190.599C95.8089 189.437 94.8312 188.114 93.8633 186.757C92.8856 185.405 91.9079 183.999 90.9399 182.579C89.972 181.153 89.0137 179.699 88.0506 178.25C87.0875 176.795 86.1342 175.321 85.1808 173.847C84.2226 172.379 83.2692 170.895 82.3207 169.407L78.8769 164.396C75.1218 170.661 71.7412 177.14 68.4434 183.663C68.492 183.731 68.5358 183.799 68.5844 183.868C68.7644 184.13 68.9395 184.388 69.1195 184.646C69.1632 184.704 69.2022 184.763 69.2411 184.821C70.2528 186.266 71.284 187.705 72.3249 189.145C73.4048 190.648 74.5186 192.132 75.6568 193.62C76.795 195.109 77.9527 196.597 79.1736 198.085C80.4042 199.574 81.6689 201.057 83.1038 202.594C83.8286 203.368 84.5874 204.151 85.497 204.997C85.604 205.099 85.7353 205.211 85.852 205.318C85.9736 205.43 86.0855 205.532 86.2217 205.649L86.6206 205.99L87.0973 206.374C87.7588 206.889 88.4641 207.371 89.218 207.809C90.721 208.689 92.4089 209.365 94.1065 209.759C95.8089 210.168 97.4967 210.294 99.0727 210.241C100.649 210.182 102.108 209.944 103.45 209.618C104.798 209.287 106.024 208.855 107.171 208.378C109.462 207.415 111.432 206.277 113.247 205.075C115.056 203.874 116.691 202.585 118.237 201.267C121.326 198.63 124.035 195.819 126.57 192.929C129.089 190.026 131.906 185.536 132.869 180.545C130.227 179.349 127.761 177.617 125.042 175.759L125.047 175.769Z" fill="#92ABFE"/>
<path d="M129.551 189.131C129.765 189.082 129.926 188.897 129.935 188.669C129.945 188.396 129.731 188.163 129.459 188.153C122.236 187.871 120.523 180.473 120.504 180.395C120.446 180.127 120.183 179.957 119.915 180.015C119.653 180.079 119.482 180.341 119.541 180.604C119.56 180.687 121.448 188.824 129.425 189.136C129.468 189.136 129.512 189.136 129.556 189.121L129.551 189.131Z" fill="#0063F8"/>
<path d="M126.006 188.347C126.113 188.322 126.215 188.259 126.288 188.167L129.897 183.497C130.062 183.283 130.024 182.972 129.81 182.802C129.591 182.636 129.284 182.675 129.114 182.889L125.505 187.559C125.339 187.773 125.378 188.084 125.592 188.254C125.714 188.347 125.865 188.376 126.006 188.347Z" fill="#0063F8"/>
<path d="M123.286 182.253C123.393 182.715 123.855 183.002 124.317 182.895C124.779 182.788 125.066 182.326 124.959 181.864C124.852 181.402 124.39 181.115 123.928 181.222C123.466 181.329 123.179 181.791 123.286 182.253Z" fill="#0063F8"/>
<path d="M95.9396 198.465C96.0855 198.431 96.2169 198.333 96.2801 198.183C96.2947 198.153 97.5691 195.288 98.9165 193.771C99.0964 193.567 99.077 193.255 98.8727 193.07C98.6684 192.89 98.3571 192.91 98.1722 193.114C96.7276 194.749 95.4289 197.657 95.3754 197.779C95.2635 198.027 95.3754 198.324 95.6283 198.431C95.7305 198.474 95.8375 198.484 95.9396 198.46V198.465Z" fill="#0063F8"/>
<path d="M99.3359 198.192C99.37 198.182 99.404 198.173 99.4381 198.158C99.6861 198.041 99.7883 197.745 99.6715 197.497C99.6618 197.477 98.7425 195.522 98.8301 193.873C98.8447 193.6 98.6355 193.367 98.3631 193.352C98.0907 193.338 97.8572 193.547 97.8426 193.819C97.7454 195.721 98.7376 197.832 98.7765 197.92C98.8787 198.134 99.1122 198.241 99.3359 198.187V198.192Z" fill="#0063F8"/>
<g filter="url(#filter4_i_1536_3591)">
<path d="M139.118 175.876C139.118 175.876 143.019 173.97 144.556 171.392C146.093 168.814 151.828 165.38 150.31 163.843C149.031 162.549 141.7 170.521 138.422 172.005C134.969 173.571 139.118 175.876 139.118 175.876Z" fill="#6B7CFE"/>
<path d="M135.748 173.172C135.748 173.172 142.276 172.374 144.63 170.312C146.984 168.254 152.51 166.484 152.631 165.336C152.753 164.188 148.56 165.039 145.214 167.141C141.867 169.242 135.748 173.172 135.748 173.172Z" fill="white"/>
<path d="M129.37 181.713C128.582 181.582 127.901 181.383 127.322 181.139C126.641 180.848 126.092 180.42 125.683 179.909C124.511 178.445 124.462 176.3 125.591 174.758C125.591 174.758 125.596 174.748 125.601 174.743C126.121 174.155 126.831 173.605 127.75 173.119C127.794 173.094 127.838 173.075 127.882 173.05C128.057 172.963 128.227 172.885 128.397 172.802C132.016 171.187 136.944 171.883 136.944 171.883C136.944 171.883 144.002 169.018 147.012 167.758C150.028 166.498 154.591 165.482 154.017 166.863C153.443 168.245 146.482 171.494 143.403 174.996C140.324 178.498 129.365 181.709 129.365 181.709L129.37 181.713Z" fill="white"/>
</g>
</g>
<g filter="url(#filter5_i_1536_3591)">
<path d="M47.6152 400.848L48.6026 408.582L58.4671 408.562L59.0216 400.42L47.6152 400.848Z" fill="white"/>
<path d="M73.9785 399.545L75.1945 408.529L85.059 408.509L84.6601 399.258L73.9785 399.545Z" fill="white"/>
<path d="M109.427 424.04L72.1242 424.113C71.8469 423.607 71.6913 422.897 71.628 422.041C71.3897 418.884 72.3868 413.849 72.8732 410.673C72.9316 410.304 72.9851 409.958 73.024 409.642C73.0921 409.112 73.131 408.669 73.131 408.343C73.1262 405.751 75.4221 406.193 75.4221 406.193C79.2063 409.885 83.4673 404.33 85.9675 406.145C85.9675 406.145 87.0424 406.913 90.0095 409.574C92.9767 412.235 98.0159 413.981 102.306 415.766C107.846 418.067 109.422 420.377 109.729 421.968C109.972 423.227 109.427 424.04 109.427 424.04Z" fill="url(#paint0_linear_1536_3591)"/>
<path d="M109.428 424.039L72.1251 424.112C71.8478 423.606 71.6921 422.896 71.6289 422.04L109.73 421.967C109.973 423.227 109.428 424.039 109.428 424.039Z" fill="#92ABFE"/>
<path d="M75.9141 424.084H74.8051C75.9092 422.819 76.9453 420.883 76.8091 418.111C76.6291 414.424 74.416 411.938 72.8789 410.644C72.9373 410.275 72.9908 409.929 73.0297 409.613C74.6884 410.878 77.4755 413.65 77.6944 418.062C77.8208 420.708 76.955 422.683 75.9093 424.079L75.9141 424.084Z" fill="#F9F9FA"/>
<path d="M89.3865 411.781C89.1093 411.781 88.8612 411.597 88.7882 411.314C88.7055 410.984 88.905 410.653 89.2357 410.57L91.5656 409.991C91.8964 409.909 92.2272 410.108 92.3098 410.439C92.3925 410.77 92.1931 411.1 91.8623 411.183L89.5324 411.762C89.4838 411.776 89.4351 411.781 89.3816 411.781H89.3865Z" fill="#F9F9FA"/>
<path d="M87.072 409.842C86.7948 409.842 86.5467 409.657 86.4738 409.375C86.3911 409.044 86.5905 408.713 86.9213 408.631L89.2512 408.052C89.5819 407.969 89.9127 408.169 89.9954 408.499C90.0781 408.83 89.8786 409.161 89.5479 409.244L87.218 409.822C87.1693 409.837 87.1207 409.842 87.0672 409.842H87.072Z" fill="#F9F9FA"/>
<path d="M91.7166 413.135C91.4393 413.135 91.1913 412.95 91.1183 412.668C91.0356 412.337 91.235 412.006 91.5658 411.924L93.8957 411.345C94.2265 411.262 94.5572 411.462 94.6399 411.792C94.7226 412.123 94.5232 412.454 94.1924 412.537L91.8625 413.115C91.8139 413.13 91.7652 413.135 91.7117 413.135H91.7166Z" fill="#F9F9FA"/>
<path d="M94.0466 414.438C93.7694 414.438 93.5213 414.253 93.4484 413.971C93.3657 413.64 93.5651 413.309 93.8959 413.226L96.2258 412.648C96.5565 412.565 96.8873 412.764 96.97 413.095C97.0527 413.426 96.8532 413.757 96.5225 413.839L94.1926 414.418C94.1439 414.433 94.0953 414.438 94.0418 414.438H94.0466Z" fill="#F9F9FA"/>
<path d="M96.5857 415.639C96.3085 415.639 96.0604 415.454 95.9874 415.172C95.9047 414.841 96.1042 414.51 96.4349 414.428L98.7648 413.849C99.0956 413.766 99.4264 413.965 99.5091 414.296C99.5917 414.627 99.3923 414.958 99.0615 415.04L96.7316 415.619C96.683 415.634 96.6344 415.639 96.5809 415.639H96.5857Z" fill="#F9F9FA"/>
<path d="M99.3435 416.642C99.0663 416.642 98.8182 416.457 98.7452 416.175C98.6626 415.844 98.862 415.513 99.1928 415.431L101.523 414.847C101.853 414.764 102.184 414.964 102.267 415.294C102.35 415.625 102.15 415.956 101.819 416.039L99.4895 416.622C99.4408 416.637 99.3922 416.642 99.3387 416.642H99.3435Z" fill="#F9F9FA"/>
<path d="M32.0348 267.96C32.1321 268.349 32.2391 268.729 32.3509 269.098C32.3509 269.113 32.3607 269.128 32.3607 269.142C32.5163 269.643 32.6914 270.13 32.8763 270.587C34.5544 274.673 47.4686 275.251 60.1786 273.802C70.0381 272.678 79.7712 270.339 84.0419 267.474C88.0548 264.784 79.4502 240.064 79.4502 240.064L31.2371 250.279C31.2371 250.279 30.1718 260.567 32.0202 267.955L32.0348 267.96Z" fill="#0063F8"/>
<path d="M61.1028 273.694L69.1334 341.884C67.3386 353.364 72.3243 400.346 72.3243 400.346L86.5275 399.889L90.5307 337.633C90.3994 319.612 88.4586 294.702 85.6082 267.531C85.5644 267.113 85.5206 266.7 85.4769 266.281C85.3309 264.895 85.185 263.499 85.0294 262.103C84.9905 261.729 84.9467 261.359 84.9078 260.984L80.2674 263.129L79.1292 263.655L60.9082 272.089L61.0979 273.694H61.1028Z" fill="#0063F8"/>
<path d="M74.5819 398.392C74.5819 398.392 74.6305 398.392 74.6549 398.392C74.9808 398.353 75.2094 398.057 75.1705 397.731C70.0388 356.692 73.2832 339.814 73.3172 339.648C73.3318 339.585 73.3318 339.517 73.3221 339.454L64.6737 274.42C64.6299 274.094 64.3332 273.866 64.0073 273.91C63.6814 273.953 63.4577 274.25 63.4966 274.576L72.1304 339.512C71.8677 340.981 69.0368 358.254 73.9885 397.877C74.0274 398.178 74.2803 398.397 74.577 398.397L74.5819 398.392Z" fill="#00B5E2"/>
<path d="M73.9824 253.032C74.0408 253.339 75.2179 259.38 79.1287 263.656C79.9215 264.522 80.8214 265.31 81.8477 265.966C82.6503 266.482 83.4869 266.886 84.3673 267.182C84.771 267.323 85.1845 267.44 85.6028 267.528C85.559 267.109 85.5153 266.696 85.4715 266.277C85.2721 266.229 85.0726 266.17 84.8781 266.107C84.0414 265.835 83.2437 265.455 82.4849 264.974C81.6629 264.449 80.9235 263.821 80.2669 263.13C76.361 259.069 75.1595 252.887 75.145 252.814C75.0866 252.493 74.7753 252.283 74.4542 252.342C74.1332 252.405 73.9241 252.711 73.9824 253.032Z" fill="#00B5E2"/>
<path d="M64.2679 271.23C64.2825 271.493 64.0733 271.716 63.8009 271.731C63.5285 271.745 63.2999 271.541 63.2853 271.279C63.1929 269.493 63.0859 267.669 62.9692 265.845C62.9497 265.524 62.9303 265.203 62.9059 264.882C62.5071 258.924 62.0012 253.072 61.6218 248.938C61.5926 248.602 61.5634 248.281 61.5294 247.97C61.4467 247.065 61.3689 246.258 61.3008 245.577C61.6267 245.523 61.9526 245.47 62.2785 245.416C62.3417 246.097 62.4195 246.909 62.5071 247.824C62.5363 248.135 62.5654 248.461 62.5995 248.792C62.974 252.887 63.475 258.685 63.8739 264.61C63.8982 264.936 63.9177 265.266 63.942 265.592C64.0636 267.485 64.1755 269.377 64.2728 271.225L64.2679 271.23Z" fill="#00B5E2"/>
<path d="M65.6661 264.935C65.5105 265.008 64.8197 265.334 63.9442 265.597C63.6378 265.689 63.307 265.777 62.9714 265.845C62.6649 265.903 62.3488 265.952 62.0375 265.966C61.4392 266 60.8652 265.937 60.3837 265.708C59.7854 265.422 59.3963 264.901 59.2601 264.205C58.9001 262.367 58.1316 254.774 57.616 249.404C57.5819 249.073 57.5527 248.752 57.5236 248.441C57.4409 247.58 57.3679 246.802 57.3047 246.135C57.6306 246.096 57.9565 246.057 58.2872 246.014C58.3505 246.68 58.4234 247.473 58.5061 248.344C58.5353 248.655 58.5645 248.976 58.5985 249.307C59.119 254.662 59.8827 262.245 60.2329 264.026C60.3107 264.439 60.5004 264.702 60.8263 264.857C61.3468 265.105 62.1299 265.052 62.9081 264.882C63.2389 264.809 63.5697 264.716 63.8761 264.614C64.4403 264.429 64.9316 264.225 65.2283 264.079C65.4715 263.962 65.7683 264.055 65.8899 264.293C66.0115 264.527 65.9093 264.813 65.6661 264.93V264.935Z" fill="#00B5E2"/>
<path d="M31.3398 258.241C31.3398 258.241 31.6901 262.079 32.2446 267.96C32.2786 268.325 32.3175 268.699 32.3516 269.088C32.3516 269.088 32.3516 269.098 32.3516 269.103C32.3516 269.117 32.3516 269.132 32.3564 269.147C32.3954 269.531 32.4294 269.92 32.4683 270.319C33.874 285.13 36.2818 309.728 37.8578 321.558C37.8578 321.558 37.6681 343.821 38.529 361.001C39.3219 376.965 44.8621 396.105 45.6501 400.833L60.2911 400.804L60.4321 398.702L60.1792 265.97C60.1792 265.97 53.5932 262.843 46.5159 260.45C46.1316 260.318 45.7522 260.192 45.3631 260.07C44.6335 259.837 43.899 259.608 43.1742 259.394C42.7851 259.282 42.4008 259.17 42.0166 259.068C37.6583 257.881 33.6114 257.298 31.3447 258.246L31.3398 258.241Z" fill="#0063F8"/>
<path d="M47.2451 400.186C47.284 400.186 47.318 400.186 47.3569 400.177C47.678 400.113 47.8871 399.802 47.8239 399.481C47.785 399.272 43.738 378.507 41.9821 366.746C40.231 355.018 41.019 322.025 41.0287 321.694C41.0287 321.665 41.0287 321.636 41.0287 321.611C39.7106 310.58 36.9818 272.484 36.9526 272.1C36.9283 271.774 36.6462 271.53 36.3203 271.55C35.9944 271.574 35.7512 271.856 35.7706 272.182C35.7998 272.567 38.5188 310.594 39.8467 321.709C39.8127 323.08 39.0782 355.291 40.8147 366.921C42.5755 378.711 46.6273 399.501 46.6662 399.71C46.7198 399.992 46.9678 400.186 47.2499 400.186H47.2451Z" fill="#00B5E2"/>
<path d="M62.6105 421.739C62.6105 421.826 62.6105 421.914 62.6105 421.997C62.6008 422.391 62.5862 422.746 62.5716 423.052C62.5327 423.723 62.484 424.132 62.484 424.132L40.2647 424.176C40.2647 424.176 40.1528 423.315 40.2355 422.04C40.3766 419.769 41.1257 416.184 44.1901 413.806C48.3829 410.551 46.7632 411.232 47.6241 409.749C47.7214 409.583 48.4705 407.069 48.5532 406.894C49.2731 405.357 49.9346 404.627 53.9183 404.617C59.1959 404.607 59.6677 407.166 60.2319 408.518C60.4654 409.078 60.7864 410.255 61.1172 411.651C61.2534 412.21 61.3847 412.813 61.5161 413.421C61.842 414.953 62.1533 416.549 62.3624 417.823C62.5862 419.19 62.6348 420.596 62.6202 421.734L62.6105 421.739Z" fill="url(#paint1_linear_1536_3591)"/>
<path d="M62.6096 421.74C62.6096 421.827 62.6096 421.915 62.6096 421.997C62.5999 422.391 62.5853 422.746 62.5707 423.053C61.486 422.294 60.7126 421.292 60.2554 420.066C58.874 416.326 60.9802 411.826 61.0677 411.637L61.1115 411.656C61.2477 412.216 61.379 412.819 61.5103 413.427C61.0142 414.959 60.4402 417.527 61.2477 419.701C61.5395 420.494 61.9968 421.175 62.6145 421.74H62.6096Z" fill="#F9F9FA"/>
<path d="M62.6046 421.998C62.5754 423.263 62.4782 424.133 62.4782 424.133L40.2589 424.177C40.2589 424.177 40.147 423.316 40.2297 422.042L62.6046 421.998Z" fill="#92ABFE"/>
<path d="M54.6519 411.543C54.5984 411.543 54.5449 411.538 54.4914 411.523C51.6653 410.799 49.3646 411.421 49.3403 411.426C49.0046 411.519 48.6544 411.324 48.562 410.983C48.4696 410.648 48.6642 410.298 49.0046 410.205C49.1117 410.176 51.6604 409.485 54.8124 410.293C55.1529 410.38 55.3572 410.726 55.2696 411.066C55.1967 411.353 54.9389 411.543 54.6568 411.543H54.6519Z" fill="#F9F9FA"/>
<path d="M54.9937 409.15C54.9402 409.15 54.8867 409.145 54.8332 409.131C52.0071 408.406 49.7064 409.029 49.6821 409.034C49.3464 409.126 48.9962 408.931 48.9038 408.591C48.8114 408.255 49.0059 407.905 49.3464 407.813C49.4534 407.783 52.0022 407.093 55.1542 407.9C55.4947 407.988 55.699 408.333 55.6114 408.674C55.5385 408.961 55.2807 409.15 54.9985 409.15H54.9937Z" fill="#F9F9FA"/>
<path d="M53.7046 413.553C53.6511 413.553 53.5976 413.548 53.5441 413.533C50.7327 412.813 48.4125 413.431 48.393 413.436C48.0574 413.528 47.7072 413.329 47.6148 412.993C47.5223 412.658 47.7169 412.307 48.0525 412.215C48.1596 412.186 50.7083 411.495 53.8603 412.303C54.2008 412.39 54.4051 412.735 54.3175 413.076C54.2446 413.363 53.9868 413.553 53.7046 413.553Z" fill="#F9F9FA"/>
<path d="M52.5953 415.838C52.5418 415.838 52.4883 415.833 52.4348 415.818C49.6233 415.098 47.3031 415.716 47.2837 415.721C46.948 415.813 46.5978 415.614 46.5054 415.278C46.413 414.943 46.6075 414.593 46.9432 414.5C47.0502 414.471 49.599 413.78 52.7509 414.588C53.0914 414.675 53.2957 415.021 53.2081 415.361C53.1352 415.648 52.8774 415.838 52.5953 415.838Z" fill="#F9F9FA"/>
<path d="M32.3516 269.083C32.3516 269.083 32.3516 269.093 32.3516 269.098C32.3516 269.113 32.3516 269.127 32.3564 269.142C32.3953 269.526 32.4294 269.915 32.4683 270.314C34.1464 270.596 35.7905 270.445 37.3811 269.867C40.4114 268.762 42.7802 266.282 44.5021 263.806C45.3193 262.634 45.9857 261.466 46.511 260.445C47.3963 258.718 47.8632 257.424 47.9167 257.283C48.0238 256.972 47.8632 256.636 47.5568 256.529C47.2455 256.417 46.9099 256.583 46.8029 256.889C46.7883 256.923 46.3067 258.271 45.3631 260.065C44.8669 261.014 44.2443 262.089 43.4904 263.164C41.8804 265.469 39.7013 267.765 36.9773 268.758C35.4938 269.298 33.947 269.409 32.3564 269.088L32.3516 269.083Z" fill="#00B5E2"/>
</g>
<g filter="url(#filter6_i_1536_3591)">
<path d="M24.0381 214.985C24.1208 216.245 24.2278 217.505 24.3592 218.76C25.011 225.073 27.4333 246.188 29.6075 252.103C37.6382 255.995 46.6368 257.41 55.2123 257.035C56.8466 256.963 58.4664 256.826 60.0618 256.632C61.4724 256.457 62.8635 256.238 64.2304 255.97C73.1463 254.243 80.9483 250.654 85.7881 246.12C83.502 237.258 80.8267 221.192 79.8296 214.299C79.6399 213.015 79.4745 211.765 79.3286 210.544C79.1827 209.353 79.0513 208.19 78.9346 207.061C78.8033 205.773 78.6914 204.513 78.599 203.292C78.4968 201.983 78.419 200.714 78.3606 199.488C78.2974 198.18 78.2536 196.915 78.2293 195.699C77.8791 179.107 80.9094 170.916 80.1068 166.942C78.9054 160.959 73.3652 161.042 68.3259 159.165C68.0341 159.058 67.7374 158.941 67.4455 158.814C67.251 158.727 67.0564 158.639 66.8667 158.552C65.1351 157.73 63.5299 156.562 62.2507 154.709L47.4491 154.738C47.4491 154.738 46.238 155.721 44.1026 156.82C43.9032 156.927 43.694 157.029 43.4752 157.131C42.945 157.384 42.3613 157.637 41.7241 157.88C40.187 158.469 38.3338 159.009 36.1547 159.354C29.52 160.424 25.7114 167.482 25.0158 178.927C24.6656 184.706 24.2862 190.154 24.0381 195.407C24.0235 195.757 24.0041 196.103 23.9895 196.453C23.7074 202.835 23.6344 208.934 24.0479 214.99L24.0381 214.985Z" fill="white"/>
<path d="M64.9439 223.384L62.4097 229.537L61.2764 232.3L58.0612 240.107L56.4949 237.101L55.9404 236.036L54.6855 233.618L54.131 232.553L52.876 230.14L52.3215 229.075L51.0666 226.663L50.5072 225.597L49.3301 223.331L49.3544 223.083L49.5344 221.283L49.943 217.197L50.1229 215.397L50.5315 211.311L50.7115 209.512L51.1152 205.426L51.2952 203.626L51.7038 199.54L51.8837 197.74L52.2923 193.655L52.4723 191.855L52.8809 187.769L53.0609 185.969L53.4694 181.888L53.6494 180.084L54.058 175.998L54.238 174.198L54.6563 169.976L57.7742 169.85L57.8666 170.55L58.0612 171.98L58.4941 175.22L58.6838 176.645L59.1216 179.884L59.3112 181.314L59.7442 184.554L59.9339 185.984L60.3716 189.223L60.5613 190.649L60.9942 193.893L61.1888 195.318L61.6217 198.558L61.8114 199.988L62.2443 203.227L62.4389 204.657L62.8718 207.897L63.0615 209.322L63.4944 212.561L63.689 213.991L64.1219 217.231L64.3116 218.661L64.7445 221.901L64.939 223.331L64.9439 223.384Z" fill="#00B5E2"/>
<path d="M24.0381 214.986C24.1208 216.245 24.2278 217.505 24.3591 218.76C25.0109 225.074 27.4333 246.189 29.6075 252.104C37.6382 255.995 46.6368 257.41 55.2122 257.036L59.7164 249.91L64.2254 255.971C73.1414 254.244 80.9434 250.654 85.7832 246.121C84.9563 242.911 84.0759 238.752 83.2442 234.428C83.0447 233.391 82.8453 232.341 82.6556 231.295C81.4347 224.67 80.3792 218.094 79.8247 214.3C79.635 213.016 79.4696 211.766 79.3237 210.545C79.1778 209.353 79.0464 208.19 78.9297 207.062C78.7984 205.773 78.6865 204.513 78.5941 203.292C78.4919 201.984 78.4141 200.714 78.3557 199.489C78.2925 198.18 78.2487 196.915 78.2244 195.699C77.8742 179.108 80.9045 170.917 80.1019 166.943C78.9005 160.96 73.3603 161.043 68.321 159.165C68.2383 159.204 68.1557 159.248 68.0681 159.291L57.0703 207.962L41.9916 157.944C41.9916 157.944 41.8943 157.92 41.7143 157.881C40.1772 158.469 38.324 159.009 36.1449 159.355C29.5102 160.425 25.7016 167.483 25.0061 178.928C24.6558 184.706 24.2764 190.154 24.0284 195.408C24.0138 195.758 23.9943 196.103 23.9797 196.453C23.6976 202.835 23.6246 208.935 24.0381 214.99V214.986Z" fill="#92ABFE"/>
<path d="M70.5879 230.513C74.771 232.21 80.0972 233.601 83.6724 234.433C83.4729 233.397 83.2735 232.346 83.0838 231.301C77.6117 229.958 71.2689 227.949 71.2689 227.949L70.5879 230.513Z" fill="#0063F8"/>
<path d="M44.5158 230.54C44.5158 230.54 33.7418 237.009 28.8145 238.858L30.3126 241.479C30.3126 241.479 39.6809 237.223 45.7756 232.87L44.5158 230.535V230.54Z" fill="#0063F8"/>
<path d="M68.0632 159.286C68.0632 159.286 71.901 157.292 74.7271 161.139L72.261 177.089L66.6867 180.401L70.4661 182.658L66.2343 201.195L57.0703 207.952L68.0681 159.281L68.0632 159.286Z" fill="#0063F8"/>
<path d="M44.1513 157.869C44.1513 157.869 40.0849 155.286 37.2734 159.148L40.7513 177.15L46.3402 180.443L42.5656 182.715L46.8655 201.238L57.0655 207.96L44.1464 157.874L44.1513 157.869Z" fill="#0063F8"/>
<path d="M60.6219 244.975C60.5684 245.588 60.0285 246.046 59.4156 245.997C58.8028 245.943 58.3455 245.404 58.3942 244.791C58.4477 244.178 58.9876 243.721 59.6005 243.769C60.2134 243.823 60.6706 244.363 60.6219 244.975Z" fill="#0063F8"/>
<path d="M60.1454 236.702C60.0919 237.315 59.552 237.772 58.9391 237.723C58.3262 237.67 57.869 237.13 57.9176 236.517C57.9711 235.904 58.511 235.447 59.1239 235.496C59.7368 235.549 60.194 236.089 60.1454 236.702Z" fill="#0063F8"/>
<path d="M59.6727 228.429C59.6192 229.041 59.0793 229.499 58.4664 229.45C57.8535 229.397 57.3963 228.857 57.445 228.244C57.4985 227.631 58.0384 227.174 58.6513 227.222C59.2641 227.271 59.7214 227.816 59.6727 228.429Z" fill="#0063F8"/>
<path d="M59.202 220.159C59.1485 220.772 58.6086 221.229 57.9957 221.181C57.3828 221.127 56.9256 220.587 56.9743 219.974C57.0278 219.361 57.5677 218.904 58.1806 218.953C58.7934 219.006 59.2507 219.546 59.202 220.159Z" fill="#0063F8"/>
<path d="M58.7254 211.886C58.6719 212.499 58.132 212.956 57.5192 212.907C56.9063 212.858 56.449 212.314 56.4977 211.701C56.5512 211.088 57.0911 210.631 57.704 210.679C58.3169 210.733 58.7741 211.273 58.7254 211.886Z" fill="#0063F8"/>
<path d="M77.806 196.292C78.1027 196.569 78.594 196.355 78.594 195.946C78.594 192.303 78.7302 188.387 78.9977 184.263C79.0123 184.073 79.022 183.927 79.0269 183.815C79.0415 183.553 78.8421 183.324 78.5794 183.309C78.307 183.295 78.0881 183.494 78.0735 183.757C78.0687 183.864 78.0589 184.015 78.0443 184.199C77.7719 188.339 77.6406 192.269 77.6406 195.932C77.6406 196.063 77.699 196.19 77.7963 196.282L77.806 196.292Z" fill="#0063F8"/>
<g filter="url(#filter7_i_1536_3591)">
<path d="M49.1734 141.488C49.1734 141.488 44.0223 137.626 43.2732 130.806C42.5242 123.987 47.4223 121.53 47.4223 121.53C47.4223 121.53 44.7957 114.837 53.7797 115.066C62.7638 115.294 68.3916 111.442 72.7206 112.089C77.0497 112.736 72.9979 122.96 67.6036 122.518C62.2044 122.075 47.4369 130.091 49.1734 141.488Z" fill="#729AFE"/>
<path d="M62.8407 152.408L62.8504 156.26C62.398 156.625 61.9457 156.941 61.4884 157.219C54.8051 161.251 47.5771 156.289 47.5771 156.289L47.5527 142.928L61.0215 151.275L62.8455 152.403L62.8407 152.408Z" fill="white"/>
<path d="M62.8407 152.407L62.8504 156.259C62.3981 156.624 61.9457 156.94 61.4885 157.217C55.7877 154.975 51.6289 149.002 51.6289 149.002L61.0215 151.273L62.8456 152.402L62.8407 152.407Z" fill="#0063F8"/>
<path d="M63.5911 121.033C63.5911 121.033 72.9059 121.889 69.5594 131.637C69.5594 131.637 63.382 123.577 63.5911 121.033Z" fill="#729AFE"/>
<path d="M67.627 135.32C67.627 135.32 69.8109 132.732 71.0513 135.315C72.2916 137.897 71.3529 143.131 68.0209 142.285L67.627 135.324V135.32Z" fill="white"/>
<path d="M69.9783 144.387C69.9783 144.387 70.0075 152.354 61.719 152.349C53.4841 152.349 47.8611 145.894 47.5644 145.593C47.5596 145.588 47.5547 145.583 47.5547 145.583L47.4623 143.91L46.9759 135.218L46.7181 130.572C46.7181 130.572 45.648 122.211 53.5959 120.669C59.4037 119.541 64.8515 120.499 67.6046 123.519C68.6163 124.633 69.2681 126.034 69.4335 127.712L69.7059 136.054L69.774 138.097L69.9783 144.372V144.387Z" fill="white"/>
<path d="M51.1522 135.373C51.1522 135.373 53.3167 139.809 55.8509 139.041C58.3851 138.272 61.3133 137.956 63.6189 139.026C63.6189 139.026 67.4907 137.581 69.8012 139.167C71.3528 140.232 70.487 150.807 65.0392 152.339C59.5914 153.871 52.2466 151.974 50.4663 146.838C48.686 141.701 48.7882 137.328 48.7882 137.328L51.1473 135.373H51.1522Z" fill="#729AFE"/>
<path d="M58.8965 137.11C58.8965 137.689 57.7048 138.161 56.2309 138.166C54.7571 138.171 53.5605 137.699 53.5605 137.12C53.5605 136.541 54.7523 136.069 56.2261 136.064C57.6999 136.064 58.8965 136.531 58.8965 137.11Z" fill="white"/>
<path d="M69.7734 138.106C69.5691 138.126 69.3502 138.14 69.1313 138.14C67.6575 138.14 66.4609 137.673 66.4609 137.095C66.4609 136.516 67.6527 136.044 69.1265 136.039C69.3259 136.039 69.5205 136.049 69.7053 136.063L69.7734 138.106Z" fill="white"/>
<path d="M58.8053 133.92C58.8053 134.718 58.4454 135.365 58.0028 135.365C57.5553 135.365 57.1953 134.723 57.1953 133.925C57.1953 133.127 57.5553 132.48 57.9979 132.48C58.4454 132.48 58.8053 133.123 58.8102 133.92H58.8053Z" fill="#729AFE"/>
<path d="M66.6842 133.905C66.6842 134.702 66.3243 135.349 65.8816 135.349C65.439 135.349 65.0742 134.707 65.0742 133.909C65.0742 133.112 65.4342 132.465 65.8768 132.465C66.3243 132.465 66.6842 133.107 66.6842 133.905Z" fill="#729AFE"/>
<path d="M62.6408 137.922C62.4609 137.922 62.3149 137.777 62.3101 137.597C62.3101 137.417 62.456 137.271 62.636 137.271C63.8423 137.271 64.4016 136.633 64.5913 136.356C63.278 133.662 61.9744 130.952 61.9599 130.923C61.882 130.758 61.9501 130.563 62.1155 130.485C62.2809 130.407 62.4755 130.476 62.5533 130.641C62.5679 130.67 63.9201 133.486 65.2577 136.23C65.3015 136.317 65.3015 136.424 65.2577 136.512C65.2285 136.57 64.5768 137.927 62.636 137.932L62.6408 137.922Z" fill="#729AFE"/>
<path d="M54.8104 130.27C54.9904 129.429 55.6908 127.848 58.3758 127.721C58.7017 127.707 58.9984 127.921 59.086 128.237C59.1978 128.636 58.9449 129.044 58.5363 129.117C57.8213 129.244 56.7901 129.638 56.2015 130.805C56.0167 131.17 55.5546 131.287 55.2044 131.073L55.1217 131.024C54.8639 130.864 54.7423 130.562 54.8055 130.27H54.8104Z" fill="#729AFE"/>
<path d="M68.5892 130.242C68.4043 129.4 67.7039 127.824 65.0141 127.708C64.6833 127.693 64.3914 127.912 64.3039 128.228C64.1969 128.627 64.4498 129.036 64.8535 129.109C65.5686 129.235 66.6046 129.624 67.198 130.787C67.3829 131.152 67.8498 131.263 68.1952 131.049L68.2779 131.001C68.5357 130.84 68.6573 130.539 68.594 130.247L68.5892 130.242Z" fill="#729AFE"/>
<path d="M63.9695 142.333C61.0559 142.338 58.6677 139.848 58.6385 139.813C58.5169 139.682 58.5217 139.473 58.6531 139.351C58.7844 139.23 58.9936 139.235 59.1152 139.366C59.2708 139.531 62.9724 143.384 66.5719 140.806C66.7178 140.699 66.9221 140.733 67.0291 140.884C67.1361 141.029 67.102 141.234 66.9513 141.341C65.9444 142.061 64.9278 142.333 63.9695 142.338V142.333Z" fill="#729AFE"/>
<path d="M50.1508 142.359C50.1119 142.447 49.071 144.884 47.5631 145.599L47.5533 145.589L47.4609 143.916C47.4609 143.916 48.7694 143.692 50.1508 142.359Z" fill="#0063F8"/>
<path d="M48.6824 136.828C48.6824 136.828 45.4867 132.558 43.1616 135.924C41.2451 138.696 44.8932 145.91 48.697 143.429L48.6824 136.828Z" fill="white"/>
<path d="M48.2586 142.14C48.0932 142.14 47.9522 142.018 47.9327 141.848C47.5728 138.609 44.8586 137.485 44.7418 137.441C44.5716 137.373 44.4938 137.184 44.557 137.013C44.6251 136.843 44.8148 136.765 44.9802 136.828C45.1115 136.882 48.1759 138.137 48.5796 141.77C48.5991 141.95 48.4677 142.111 48.2878 142.13C48.278 142.13 48.2635 142.13 48.2537 142.13L48.2586 142.14Z" fill="#0063F8"/>
<path d="M45.1944 140.16C45.0971 140.16 45.0047 140.121 44.9415 140.039C44.8247 139.898 44.8491 139.693 44.9901 139.577C45.1214 139.47 46.2937 138.541 47.2811 138.793C47.4562 138.837 47.5632 139.017 47.5195 139.192C47.4757 139.367 47.2957 139.474 47.1206 139.431C46.5564 139.29 45.6711 139.873 45.4084 140.087C45.3501 140.136 45.2722 140.16 45.2041 140.16H45.1944Z" fill="#0063F8"/>
<path d="M67.6037 123.529C67.5453 123.806 67.4285 124.049 67.2437 124.244C65.6386 125.937 61.8299 125.343 58.3035 124.264C54.777 123.184 52.3011 125.747 52.3011 125.747C53.2886 129.123 49.9664 129.4 50.6814 131.959C51.3964 134.517 51.1289 137.893 51.1289 137.893L49.0568 137.625C48.6093 136.424 47.6364 135.646 46.9798 135.227L46.722 130.582C46.722 130.582 45.6519 122.221 53.5999 120.679C59.4028 119.555 64.8506 120.508 67.6085 123.534L67.6037 123.529Z" fill="#729AFE"/>
<g opacity="0.5">
<path d="M62.8824 135.284C62.9115 136.364 61.1264 137.293 58.8938 137.357C56.6611 137.42 54.8225 136.598 54.7933 135.513C54.7641 134.433 56.5493 133.504 58.7819 133.441C61.0145 133.378 62.8532 134.2 62.8824 135.284Z" fill="white"/>
</g>
<g opacity="0.5">
<path d="M73.2241 135.183C73.2533 136.263 71.4682 137.192 69.2356 137.255C67.003 137.318 65.1643 136.496 65.1351 135.411C65.1059 134.332 66.8911 133.403 69.1237 133.339C71.3563 133.276 73.195 134.098 73.2241 135.183Z" fill="white"/>
</g>
<path d="M65.1555 135.407C65.102 135.407 65.0436 135.383 64.9999 135.344C64.173 134.575 63.0299 135.266 62.9861 135.3C62.8742 135.368 62.7283 135.334 62.6602 135.222C62.5921 135.11 62.6262 134.964 62.7332 134.896C63.2439 134.575 64.4453 134.181 65.3209 134.998C65.4182 135.086 65.423 135.237 65.3306 135.334C65.282 135.387 65.2139 135.412 65.1506 135.407H65.1555Z" fill="white"/>
<path d="M49.2947 135.455H49.2898C49.0953 135.343 49.1342 135.051 49.3531 135.003C52.077 134.404 54.7717 135.202 54.9274 135.251C55.0538 135.29 55.1171 135.426 55.0781 135.548C55.0392 135.674 54.903 135.737 54.7814 135.698C54.7474 135.689 52.0527 134.949 49.4552 135.475C49.4017 135.484 49.3433 135.475 49.2947 135.45V135.455Z" fill="white"/>
<path d="M47.5835 152.16C47.5835 152.16 45.3557 152.836 44.1543 157.871C45.706 162.448 50.0788 166.29 56.2076 167.414L56.1881 158.411C56.1881 158.411 50.7744 157.068 47.5786 152.16H47.5835Z" fill="white"/>
<path d="M62.8475 153.429C62.8475 153.429 66.5345 154.265 68.0715 159.285C64.1219 164.11 62.0109 165.925 56.2128 167.408L56.1934 158.405C56.1934 158.405 59.6712 158.346 62.8475 153.424V153.429Z" fill="white"/>
<path d="M52.043 166.106L56.2164 172.284L60.1904 166.092L56.1969 160.936L52.043 166.106Z" fill="#00B5E2"/>
<path d="M64.6045 172.418C64.7067 172.418 64.8088 172.384 64.8915 172.321C65.1007 172.16 65.1396 171.863 64.9791 171.654L56.569 160.642C56.4815 160.53 56.3501 160.457 56.2042 160.457C56.0631 160.457 55.9221 160.511 55.8297 160.622L47.5218 170.166C47.3466 170.365 47.371 170.667 47.5704 170.837C47.7698 171.012 48.0714 170.988 48.2416 170.788L56.1653 161.688L64.2203 172.233C64.3127 172.355 64.4586 172.423 64.5997 172.423L64.6045 172.418Z" fill="#C4DBF2"/>
<path d="M56.1994 161.411C56.462 161.411 56.676 161.192 56.6712 160.93L56.6517 158.833C56.6517 158.57 56.4377 158.361 56.175 158.361C55.9124 158.361 55.6983 158.58 55.7032 158.843L55.7227 160.939C55.7227 161.202 55.9367 161.411 56.1994 161.411Z" fill="#C4DBF2"/>
</g>
</g>
<g filter="url(#filter8_i_1536_3591)">
<g filter="url(#filter9_i_1536_3591)">
<path d="M31.7825 249.702C32.8283 249.415 34.3605 250.509 35.7419 250.874C37.5659 251.356 40.1536 252.645 41.4232 253.749C42.1917 254.42 46.0295 258.798 47.7562 260.704C48.1551 261.142 48.1551 261.838 47.7125 262.237C47.1434 262.747 45.9565 262.738 43.6558 260.617C43.5488 260.529 42.8435 259.916 42.7705 259.858C41.7393 259.031 40.7325 258.851 40.7325 258.851C40.7325 258.851 42.0117 260.004 44.2006 262.081C41.8123 266.235 37.9307 270.185 32.7602 269.153C31.8846 267.913 30.9702 265.768 30.7221 265.32C29.7444 263.545 26.7092 258.973 25.8385 256.468C25.2451 254.765 28.4749 250.606 31.7825 249.697V249.702Z" fill="white"/>
</g>
<path d="M29.6524 163.13L29.1806 163.509L28.806 163.816L28.1056 164.409C27.6532 164.798 27.2155 165.187 26.7826 165.576C25.9265 166.36 25.0996 167.148 24.2921 167.945C22.6724 169.541 21.1304 171.18 19.6372 172.868C16.6652 176.253 13.917 179.833 11.4265 183.627C8.93124 187.412 6.71806 191.42 4.81133 195.612C3.87255 197.714 3.0116 199.859 2.24794 202.053C1.86367 203.147 1.51346 204.256 1.17783 205.37C1.01732 205.929 0.851938 206.489 0.70115 207.053L0.589277 207.476L0.530903 207.685L0.41903 208.123C0.234194 208.872 0.132051 209.563 0.0736818 210.18C0.0153123 210.803 -0.00414859 211.382 0.000715527 211.907C0.000715527 212.442 0.0347688 212.929 0.0736818 213.396C0.156372 214.32 0.2877 215.137 0.443352 215.901C0.749792 217.413 1.13892 218.712 1.54751 219.938C1.96096 221.159 2.40359 222.292 2.86082 223.387C3.31805 224.481 3.79473 225.527 4.286 226.553C5.26369 228.596 6.29002 230.542 7.34067 232.439C8.39132 234.336 9.48089 236.179 10.5899 237.993C12.8031 241.622 15.1087 245.129 17.4775 248.573C18.6692 250.29 19.8755 251.997 21.0964 253.685C21.7093 254.531 22.3222 255.373 22.9448 256.214L23.8884 257.474L24.8661 258.763L37.6101 249.779L36.8464 248.558L36.0682 247.299L34.5116 244.764C33.4804 243.067 32.4638 241.364 31.4716 239.652C29.4675 236.238 27.5316 232.799 25.7076 229.36C24.798 227.643 23.9273 225.921 23.0907 224.209C22.2589 222.501 21.4807 220.794 20.79 219.126C20.109 217.462 19.4912 215.823 19.0875 214.378C18.8832 213.663 18.7373 212.997 18.6741 212.51C18.64 212.272 18.6303 212.082 18.6352 211.99C18.6352 211.951 18.6449 211.927 18.6497 211.951C18.6497 211.966 18.6595 212.039 18.6497 212.155C18.64 212.267 18.6254 212.457 18.5671 212.715L18.5427 212.812V212.836C18.5427 212.836 18.5427 212.827 18.5427 212.822L18.5573 212.783L18.606 212.627L18.7081 212.316C18.8346 211.902 18.9805 211.494 19.1216 211.08C19.4134 210.258 19.7101 209.441 20.0409 208.629C20.6878 207.004 21.4223 205.404 22.2151 203.823C23.7911 200.661 25.6638 197.602 27.7311 194.654C28.7671 193.18 29.8615 191.741 30.9949 190.325C32.1282 188.91 33.3151 187.533 34.5457 186.195C35.7666 184.853 37.0264 183.545 38.3251 182.299C38.972 181.677 39.6238 181.069 40.2805 180.485C40.6064 180.193 40.9274 179.906 41.2436 179.634L41.7057 179.24L42.0413 178.963L29.6572 163.115L29.6524 163.13Z" fill="#92ABFE"/>
<path d="M18.2174 212.819C18.4363 212.819 18.6309 212.668 18.6795 212.444C18.7379 212.186 18.5773 211.934 18.3195 211.875C18.1542 211.836 14.2045 210.956 10.9066 210.815C10.6488 210.805 10.4202 211.009 10.4105 211.272C10.4008 211.535 10.605 211.758 10.8677 211.768C14.078 211.899 18.0715 212.794 18.1104 212.804C18.1444 212.814 18.1833 212.814 18.2174 212.814V212.819Z" fill="#0063F8"/>
<path d="M17.9408 212.76C18.0867 212.76 18.2277 212.697 18.3202 212.571C18.4807 212.361 18.4418 212.06 18.2277 211.904C16.6226 210.683 14.3754 209.317 14.2781 209.258C14.0543 209.122 13.7576 209.195 13.6214 209.419C13.4852 209.642 13.5582 209.939 13.7819 210.075C13.8063 210.09 16.0827 211.471 17.644 212.663C17.7316 212.731 17.8337 212.76 17.9359 212.76H17.9408Z" fill="#0063F8"/>
<path d="M24.0355 201.76C24.1912 201.76 24.3468 201.683 24.4344 201.541C24.5171 201.41 33.0147 188.238 38.5063 183.496C38.7057 183.325 38.73 183.024 38.5549 182.824C38.3847 182.625 38.0831 182.601 37.8837 182.776C32.2851 187.611 23.982 200.486 23.6318 201.031C23.4908 201.254 23.554 201.546 23.7729 201.692C23.8507 201.746 23.9431 201.77 24.0307 201.77L24.0355 201.76Z" fill="#0063F8"/>
<path d="M35.2819 186.521C35.2819 186.521 35.3306 186.521 35.3549 186.516L39.4456 185.888C39.7083 185.85 39.8834 185.606 39.8445 185.344C39.8055 185.081 39.5623 184.906 39.2997 184.945L35.209 185.572C34.9463 185.611 34.7712 185.854 34.8101 186.117C34.8441 186.355 35.0484 186.521 35.2819 186.521Z" fill="#0063F8"/>
<path d="M20.6006 252.741C20.693 252.741 20.7855 252.712 20.8682 252.658L33.5003 243.957C33.7191 243.806 33.7727 243.509 33.6219 243.295C33.4711 243.076 33.1744 243.023 32.9603 243.173L20.3282 251.875C20.1094 252.026 20.0558 252.323 20.2066 252.537C20.2991 252.673 20.4498 252.746 20.6006 252.741Z" fill="#0063F8"/>
<path d="M28.2122 256.332C28.3046 256.332 28.3922 256.307 28.4749 256.254C28.6938 256.108 28.7521 255.811 28.6062 255.592L24.7052 249.721C24.5593 249.502 24.2625 249.444 24.0437 249.59C23.8248 249.736 23.7664 250.033 23.9123 250.252L27.8133 256.123C27.9058 256.259 28.0566 256.337 28.2122 256.337V256.332Z" fill="#0063F8"/>
<path d="M30.3081 251.434C30.0259 251.984 29.3547 252.198 28.8051 251.915C28.2554 251.633 28.0414 250.962 28.3235 250.412C28.6056 249.863 29.2769 249.649 29.8265 249.931C30.3762 250.213 30.5902 250.884 30.3081 251.434Z" fill="#0063F8"/>
</g>
<g filter="url(#filter10_d_1536_3591)">
<path d="M288.186 206.851L270.371 144.956C271.772 143.873 272.91 142.488 273.702 140.904C274.493 139.319 274.917 137.577 274.943 135.807C274.968 134.036 274.594 132.282 273.849 130.676C273.103 129.07 272.005 127.653 270.636 126.529C269.267 125.406 267.663 124.606 265.942 124.188C264.221 123.77 262.428 123.745 260.697 124.116C258.965 124.486 257.339 125.243 255.94 126.328C254.541 127.413 253.405 128.8 252.615 130.385L203.525 121.646C203.162 119.707 202.318 117.889 201.07 116.36C199.823 114.83 198.212 113.638 196.385 112.892C194.558 112.146 192.573 111.87 190.612 112.089C188.65 112.308 186.775 113.015 185.158 114.145C183.54 115.276 182.232 116.794 181.353 118.561C180.473 120.328 180.051 122.287 180.124 124.259C180.197 126.231 180.764 128.154 181.772 129.85C182.78 131.547 184.197 132.964 185.894 133.972V208.292C183.787 209.513 182.111 211.357 181.096 213.571C180.082 215.784 179.778 218.257 180.228 220.65C180.678 223.043 181.859 225.238 183.608 226.931C185.357 228.625 187.588 229.735 189.994 230.107C190.591 230.213 191.196 230.272 191.802 230.285C193.857 230.28 195.874 229.737 197.654 228.711C199.434 227.685 200.914 226.211 201.948 224.435H276.079C277.341 226.586 279.254 228.281 281.542 229.273C283.83 230.266 286.375 230.505 288.808 229.956C291.241 229.408 293.436 228.1 295.077 226.222C296.718 224.343 297.719 221.992 297.935 219.507C297.965 219.158 298.042 218.822 298.042 218.467C298.038 215.678 297.045 212.981 295.241 210.854C293.437 208.727 290.937 207.309 288.186 206.851ZM202.284 213.114C201.992 212.535 201.652 211.982 201.268 211.459L223.987 182.406C225.325 182.677 226.687 182.816 228.053 182.82C229.953 182.792 231.84 182.5 233.66 181.951L240.999 190.684C239.751 192.866 239.088 195.332 239.072 197.846C239.072 198.07 239.131 198.277 239.137 198.496C239.296 202.291 240.914 205.879 243.654 208.51C246.395 211.142 250.045 212.613 253.844 212.617C257.484 212.615 260.991 211.252 263.676 208.794L274.921 215.288C274.885 215.395 274.82 215.495 274.791 215.607H203.236C203.009 214.744 202.69 213.908 202.284 213.114ZM256.793 145.624C259.127 147.213 261.99 147.824 264.77 147.326L282.082 207.435C281.512 207.67 280.961 207.949 280.434 208.269L268.155 201.178C268.358 200.334 268.487 199.474 268.539 198.608C268.551 198.354 268.616 198.111 268.616 197.846C268.625 195.102 267.867 192.411 266.427 190.075C264.988 187.74 262.924 185.854 260.469 184.63C258.013 183.406 255.265 182.892 252.533 183.148C249.802 183.403 247.196 184.417 245.011 186.075L239.397 179.398C243.483 176.731 246.49 172.7 247.88 168.023C249.271 163.346 248.955 158.327 246.99 153.861L256.793 145.624ZM203.053 127.697L251.374 136.294C251.463 137.996 251.923 139.658 252.722 141.163L243.693 148.744C240.533 144.969 236.111 142.466 231.247 141.7C226.384 140.934 221.407 141.957 217.24 144.578L203.059 127.697H203.053ZM191.932 135.674C194.711 135.665 197.396 134.668 199.507 132.861L212.631 148.478C210.559 150.776 209.035 153.515 208.175 156.487C207.315 159.459 207.141 162.588 207.667 165.638C208.192 168.687 209.402 171.578 211.207 174.091C213.011 176.605 215.363 178.676 218.084 180.149L196.565 207.666C195.105 207.02 193.529 206.678 191.932 206.661V135.674Z" fill="#053CFF" fill-opacity="0.5" shape-rendering="crispEdges"/>
</g>
<g filter="url(#filter11_d_1536_3591)">
<path d="M125.352 146.688L195.685 156.335C197.81 156.626 198.739 159.18 197.298 160.769L132.686 232.033" stroke="white" stroke-width="4.00055" stroke-dasharray="6.67 6.67"/>
</g>
<defs>
<filter id="filter0_ii_1536_3591" x="19.3357" y="0" width="457.351" height="308.781" filterUnits="userSpaceOnUse" color-interpolation-filters="sRGB">
<feFlood flood-opacity="0" result="BackgroundImageFix"/>
<feBlend mode="normal" in="SourceGraphic" in2="BackgroundImageFix" result="shape"/>
<feColorMatrix in="SourceAlpha" type="matrix" values="0 0 0 0 0 0 0 0 0 0 0 0 0 0 0 0 0 0 127 0" result="hardAlpha"/>
<feOffset dx="2.66703" dy="2.66703"/>
<feGaussianBlur stdDeviation="2.00028"/>
<feComposite in2="hardAlpha" operator="arithmetic" k2="-1" k3="1"/>
<feColorMatrix type="matrix" values="0 0 0 0 0 0 0 0 0 0 0 0 0 0 0 0 0 0 0.25 0"/>
<feBlend mode="normal" in2="shape" result="effect1_innerShadow_1536_3591"/>
<feColorMatrix in="SourceAlpha" type="matrix" values="0 0 0 0 0 0 0 0 0 0 0 0 0 0 0 0 0 0 127 0" result="hardAlpha"/>
<feOffset dx="-2.00028" dy="12.0017"/>
<feGaussianBlur stdDeviation="2.33366"/>
<feComposite in2="hardAlpha" operator="arithmetic" k2="-1" k3="1"/>
<feColorMatrix type="matrix" values="0 0 0 0 0 0 0 0 0 0 0 0 0 0 0 0 0 0 0.25 0"/>
<feBlend mode="normal" in2="effect1_innerShadow_1536_3591" result="effect2_innerShadow_1536_3591"/>
</filter>
<filter id="filter1_di_1536_3591" x="89.8916" y="76.1211" width="344.412" height="217.041" filterUnits="userSpaceOnUse" color-interpolation-filters="sRGB">
<feFlood flood-opacity="0" result="BackgroundImageFix"/>
<feColorMatrix in="SourceAlpha" type="matrix" values="0 0 0 0 0 0 0 0 0 0 0 0 0 0 0 0 0 0 127 0" result="hardAlpha"/>
<feOffset dy="2.66703"/>
<feGaussianBlur stdDeviation="1.33352"/>
<feComposite in2="hardAlpha" operator="out"/>
<feColorMatrix type="matrix" values="0 0 0 0 0 0 0 0 0 0 0 0 0 0 0 0 0 0 0.25 0"/>
<feBlend mode="normal" in2="BackgroundImageFix" result="effect1_dropShadow_1536_3591"/>
<feBlend mode="normal" in="SourceGraphic" in2="effect1_dropShadow_1536_3591" result="shape"/>
<feColorMatrix in="SourceAlpha" type="matrix" values="0 0 0 0 0 0 0 0 0 0 0 0 0 0 0 0 0 0 127 0" result="hardAlpha"/>
<feOffset dx="4.66731" dy="2.66703"/>
<feGaussianBlur stdDeviation="1.33352"/>
<feComposite in2="hardAlpha" operator="arithmetic" k2="-1" k3="1"/>
<feColorMatrix type="matrix" values="0 0 0 0 0 0 0 0 0 0 0 0 0 0 0 0 0 0 0.25 0"/>
<feBlend mode="normal" in2="shape" result="effect2_innerShadow_1536_3591"/>
</filter>
<filter id="filter2_ii_1536_3591" x="116.304" y="102.838" width="289.068" height="158.636" filterUnits="userSpaceOnUse" color-interpolation-filters="sRGB">
<feFlood flood-opacity="0" result="BackgroundImageFix"/>
<feBlend mode="normal" in="SourceGraphic" in2="BackgroundImageFix" result="shape"/>
<feColorMatrix in="SourceAlpha" type="matrix" values="0 0 0 0 0 0 0 0 0 0 0 0 0 0 0 0 0 0 127 0" result="hardAlpha"/>
<feOffset dx="2.66703" dy="1.33352"/>
<feGaussianBlur stdDeviation="1.33352"/>
<feComposite in2="hardAlpha" operator="arithmetic" k2="-1" k3="1"/>
<feColorMatrix type="matrix" values="0 0 0 0 0 0 0 0 0 0 0 0 0 0 0 0 0 0 0.25 0"/>
<feBlend mode="normal" in2="shape" result="effect1_innerShadow_1536_3591"/>
<feColorMatrix in="SourceAlpha" type="matrix" values="0 0 0 0 0 0 0 0 0 0 0 0 0 0 0 0 0 0 127 0" result="hardAlpha"/>
<feOffset dx="-2.66703" dy="2.66703"/>
<feGaussianBlur stdDeviation="1.33352"/>
<feComposite in2="hardAlpha" operator="arithmetic" k2="-1" k3="1"/>
<feColorMatrix type="matrix" values="0 0 0 0 0 0 0 0 0 0 0 0 0 0 0 0 0 0 0.25 0"/>
<feBlend mode="normal" in2="effect1_innerShadow_1536_3591" result="effect2_innerShadow_1536_3591"/>
</filter>
<filter id="filter3_i_1536_3591" x="68.4434" y="163.701" width="85.623" height="49.2178" filterUnits="userSpaceOnUse" color-interpolation-filters="sRGB">
<feFlood flood-opacity="0" result="BackgroundImageFix"/>
<feBlend mode="normal" in="SourceGraphic" in2="BackgroundImageFix" result="shape"/>
<feColorMatrix in="SourceAlpha" type="matrix" values="0 0 0 0 0 0 0 0 0 0 0 0 0 0 0 0 0 0 127 0" result="hardAlpha"/>
<feOffset dy="2.66703"/>
<feGaussianBlur stdDeviation="1.33352"/>
<feComposite in2="hardAlpha" operator="arithmetic" k2="-1" k3="1"/>
<feColorMatrix type="matrix" values="0 0 0 0 0 0 0 0 0 0 0 0 0 0 0 0 0 0 0.25 0"/>
<feBlend mode="normal" in2="shape" result="effect1_innerShadow_1536_3591"/>
</filter>
<filter id="filter4_i_1536_3591" x="124.773" y="163.701" width="29.293" height="20.6788" filterUnits="userSpaceOnUse" color-interpolation-filters="sRGB">
<feFlood flood-opacity="0" result="BackgroundImageFix"/>
<feBlend mode="normal" in="SourceGraphic" in2="BackgroundImageFix" result="shape"/>
<feColorMatrix in="SourceAlpha" type="matrix" values="0 0 0 0 0 0 0 0 0 0 0 0 0 0 0 0 0 0 127 0" result="hardAlpha"/>
<feOffset dy="2.66703"/>
<feGaussianBlur stdDeviation="1.33352"/>
<feComposite in2="hardAlpha" operator="arithmetic" k2="-1" k3="1"/>
<feColorMatrix type="matrix" values="0 0 0 0 0 0 0 0 0 0 0 0 0 0 0 0 0 0 0.25 0"/>
<feBlend mode="normal" in2="shape" result="effect1_innerShadow_1536_3591"/>
</filter>
<filter id="filter5_i_1536_3591" x="30.9316" y="240.064" width="81.5284" height="186.78" filterUnits="userSpaceOnUse" color-interpolation-filters="sRGB">
<feFlood flood-opacity="0" result="BackgroundImageFix"/>
<feBlend mode="normal" in="SourceGraphic" in2="BackgroundImageFix" result="shape"/>
<feColorMatrix in="SourceAlpha" type="matrix" values="0 0 0 0 0 0 0 0 0 0 0 0 0 0 0 0 0 0 127 0" result="hardAlpha"/>
<feOffset dx="8.0011" dy="2.66703"/>
<feGaussianBlur stdDeviation="1.33352"/>
<feComposite in2="hardAlpha" operator="arithmetic" k2="-1" k3="1"/>
<feColorMatrix type="matrix" values="0 0 0 0 0 0 0 0 0 0 0 0 0 0 0 0 0 0 0.25 0"/>
<feBlend mode="normal" in2="shape" result="effect1_innerShadow_1536_3591"/>
</filter>
<filter id="filter6_i_1536_3591" x="23.748" y="112.016" width="64.7081" height="147.745" filterUnits="userSpaceOnUse" color-interpolation-filters="sRGB">
<feFlood flood-opacity="0" result="BackgroundImageFix"/>
<feBlend mode="normal" in="SourceGraphic" in2="BackgroundImageFix" result="shape"/>
<feColorMatrix in="SourceAlpha" type="matrix" values="0 0 0 0 0 0 0 0 0 0 0 0 0 0 0 0 0 0 127 0" result="hardAlpha"/>
<feOffset dx="10.0014" dy="2.66703"/>
<feGaussianBlur stdDeviation="1.33352"/>
<feComposite in2="hardAlpha" operator="arithmetic" k2="-1" k3="1"/>
<feColorMatrix type="matrix" values="0 0 0 0 0 0 0 0 0 0 0 0 0 0 0 0 0 0 0.25 0"/>
<feBlend mode="normal" in2="shape" result="effect1_innerShadow_1536_3591"/>
</filter>
<filter id="filter7_i_1536_3591" x="42.6348" y="112.016" width="34.5772" height="63.0733" filterUnits="userSpaceOnUse" color-interpolation-filters="sRGB">
<feFlood flood-opacity="0" result="BackgroundImageFix"/>
<feBlend mode="normal" in="SourceGraphic" in2="BackgroundImageFix" result="shape"/>
<feColorMatrix in="SourceAlpha" type="matrix" values="0 0 0 0 0 0 0 0 0 0 0 0 0 0 0 0 0 0 127 0" result="hardAlpha"/>
<feOffset dx="3.33379" dy="2.66703"/>
<feGaussianBlur stdDeviation="1.33352"/>
<feComposite in2="hardAlpha" operator="arithmetic" k2="-1" k3="1"/>
<feColorMatrix type="matrix" values="0 0 0 0 0 0 0 0 0 0 0 0 0 0 0 0 0 0 0.25 0"/>
<feBlend mode="normal" in2="shape" result="effect1_innerShadow_1536_3591"/>
</filter>
<filter id="filter8_i_1536_3591" x="0" y="163.115" width="48.0508" height="108.87" filterUnits="userSpaceOnUse" color-interpolation-filters="sRGB">
<feFlood flood-opacity="0" result="BackgroundImageFix"/>
<feBlend mode="normal" in="SourceGraphic" in2="BackgroundImageFix" result="shape"/>
<feColorMatrix in="SourceAlpha" type="matrix" values="0 0 0 0 0 0 0 0 0 0 0 0 0 0 0 0 0 0 127 0" result="hardAlpha"/>
<feOffset dy="2.66703"/>
<feGaussianBlur stdDeviation="1.33352"/>
<feComposite in2="hardAlpha" operator="arithmetic" k2="-1" k3="1"/>
<feColorMatrix type="matrix" values="0 0 0 0 0 0 0 0 0 0 0 0 0 0 0 0 0 0 0.25 0"/>
<feBlend mode="normal" in2="shape" result="effect1_innerShadow_1536_3591"/>
</filter>
<filter id="filter9_i_1536_3591" x="25.7676" y="249.654" width="22.2832" height="22.3311" filterUnits="userSpaceOnUse" color-interpolation-filters="sRGB">
<feFlood flood-opacity="0" result="BackgroundImageFix"/>
<feBlend mode="normal" in="SourceGraphic" in2="BackgroundImageFix" result="shape"/>
<feColorMatrix in="SourceAlpha" type="matrix" values="0 0 0 0 0 0 0 0 0 0 0 0 0 0 0 0 0 0 127 0" result="hardAlpha"/>
<feOffset dy="2.66703"/>
<feGaussianBlur stdDeviation="1.33352"/>
<feComposite in2="hardAlpha" operator="arithmetic" k2="-1" k3="1"/>
<feColorMatrix type="matrix" values="0 0 0 0 0 0 0 0 0 0 0 0 0 0 0 0 0 0 0.25 0"/>
<feBlend mode="normal" in2="shape" result="effect1_innerShadow_1536_3591"/>
</filter>
<filter id="filter10_d_1536_3591" x="177.358" y="112.016" width="123.35" height="123.604" filterUnits="userSpaceOnUse" color-interpolation-filters="sRGB">
<feFlood flood-opacity="0" result="BackgroundImageFix"/>
<feColorMatrix in="SourceAlpha" type="matrix" values="0 0 0 0 0 0 0 0 0 0 0 0 0 0 0 0 0 0 127 0" result="hardAlpha"/>
<feOffset dy="2.66703"/>
<feGaussianBlur stdDeviation="1.33352"/>
<feComposite in2="hardAlpha" operator="out"/>
<feColorMatrix type="matrix" values="0 0 0 0 0 0 0 0 0 0 0 0 0 0 0 0 0 0 0.25 0"/>
<feBlend mode="normal" in2="BackgroundImageFix" result="effect1_dropShadow_1536_3591"/>
<feBlend mode="normal" in="SourceGraphic" in2="effect1_dropShadow_1536_3591" result="shape"/>
</filter>
<filter id="filter11_d_1536_3591" x="122.413" y="144.705" width="80.2501" height="94.0059" filterUnits="userSpaceOnUse" color-interpolation-filters="sRGB">
<feFlood flood-opacity="0" result="BackgroundImageFix"/>
<feColorMatrix in="SourceAlpha" type="matrix" values="0 0 0 0 0 0 0 0 0 0 0 0 0 0 0 0 0 0 127 0" result="hardAlpha"/>
<feOffset dy="2.66703"/>
<feGaussianBlur stdDeviation="1.33352"/>
<feComposite in2="hardAlpha" operator="out"/>
<feColorMatrix type="matrix" values="0 0 0 0 0 0 0 0 0 0 0 0 0 0 0 0 0 0 0.25 0"/>
<feBlend mode="normal" in2="BackgroundImageFix" result="effect1_dropShadow_1536_3591"/>
<feBlend mode="normal" in="SourceGraphic" in2="effect1_dropShadow_1536_3591" result="shape"/>
</filter>
<linearGradient id="paint0_linear_1536_3591" x1="71.594" y1="414.939" x2="109.792" y2="414.939" gradientUnits="userSpaceOnUse">
<stop stop-color="#4C57A6"/>
<stop offset="1" stop-color="#5560AB"/>
</linearGradient>
<linearGradient id="paint1_linear_1536_3591" x1="40.1966" y1="414.399" x2="62.6105" y2="414.399" gradientUnits="userSpaceOnUse">
<stop stop-color="#4C57A6"/>
<stop offset="1" stop-color="#5560AB"/>
</linearGradient>
</defs>
</svg>
