<svg width="602" height="470" viewBox="0 0 602 470" fill="none" xmlns="http://www.w3.org/2000/svg">
<g filter="url(#filter0_i_1534_3500)">
<path fill-rule="evenodd" clip-rule="evenodd" d="M271.252 393.955C269.752 392.446 267.67 391.52 265.374 391.52C263.078 391.52 261.004 392.446 259.495 393.955C257.995 395.455 257.06 397.538 257.06 399.834C257.06 402.129 257.986 404.203 259.495 405.712C260.995 407.212 263.078 408.147 265.374 408.147C267.67 408.147 269.743 407.221 271.252 405.712C272.752 404.212 273.687 402.129 273.687 399.834C273.687 397.538 272.752 395.464 271.252 393.955ZM269.456 385.716C270.604 386.049 271.697 386.521 272.715 387.104C273.752 387.706 274.714 388.428 275.575 389.261C275.742 389.419 275.992 389.447 276.186 389.336L280.047 387.104H280.065C280.287 386.975 280.537 386.947 280.769 387.012C281.01 387.077 281.222 387.225 281.352 387.456L281.371 387.484L284.083 392.187C284.213 392.409 284.24 392.677 284.176 392.918C284.111 393.159 283.953 393.372 283.731 393.501L283.703 393.52L279.871 395.732C279.667 395.853 279.575 396.084 279.63 396.297C279.769 396.871 279.88 397.454 279.954 398.056C280.028 398.639 280.065 399.241 280.065 399.843C280.065 400.445 280.028 401.046 279.954 401.629C279.88 402.231 279.769 402.814 279.63 403.388C279.575 403.629 279.686 403.861 279.899 403.972L283.722 406.184C283.944 406.314 284.102 406.527 284.166 406.767C284.231 407.008 284.203 407.267 284.074 407.489L281.343 412.22C281.213 412.442 281 412.6 280.76 412.664C280.519 412.729 280.26 412.701 280.038 412.572L280.01 412.553L276.177 410.341C275.973 410.23 275.733 410.267 275.566 410.415C274.705 411.248 273.752 411.97 272.706 412.572C271.687 413.164 270.586 413.627 269.428 413.97C269.206 414.034 269.058 414.238 269.058 414.46V418.913C269.058 419.172 268.947 419.413 268.78 419.589C268.605 419.765 268.364 419.867 268.105 419.867H262.643C262.384 419.867 262.143 419.756 261.967 419.589C261.791 419.413 261.689 419.172 261.689 418.913V414.46C261.689 414.22 261.523 414.016 261.3 413.96C260.152 413.627 259.06 413.155 258.042 412.572C257.005 411.97 256.042 411.248 255.181 410.415C255.005 410.248 254.746 410.23 254.552 410.359L250.719 412.572C250.497 412.701 250.228 412.729 249.997 412.664C249.756 412.6 249.543 412.451 249.414 412.22L249.395 412.192L246.683 407.48C246.553 407.258 246.525 406.99 246.59 406.758C246.655 406.517 246.803 406.304 247.035 406.175L250.895 403.944C251.099 403.823 251.191 403.592 251.136 403.379C250.997 402.805 250.886 402.222 250.812 401.62C250.738 401.037 250.701 400.435 250.701 399.834C250.701 399.232 250.738 398.63 250.812 398.047C250.886 397.445 250.997 396.862 251.136 396.288C251.191 396.047 251.08 395.816 250.867 395.705L247.035 393.492C246.812 393.363 246.655 393.15 246.59 392.909C246.525 392.668 246.553 392.409 246.683 392.187L246.701 392.159L249.414 387.456C249.543 387.234 249.756 387.077 249.997 387.012C250.238 386.947 250.497 386.975 250.719 387.104L254.579 389.336C254.783 389.456 255.042 389.41 255.2 389.252C256.051 388.428 257.014 387.706 258.042 387.114C259.06 386.521 260.162 386.058 261.319 385.725C261.541 385.66 261.689 385.457 261.689 385.234V380.782C261.689 380.522 261.8 380.282 261.967 380.106C262.143 379.93 262.384 379.828 262.643 379.828H268.105C268.364 379.828 268.605 379.939 268.78 380.106C268.956 380.282 269.058 380.522 269.058 380.782V385.234C269.058 385.475 269.225 385.679 269.447 385.734L269.456 385.716Z" fill="#352FFF"/>
</g>
<g filter="url(#filter1_d_1534_3500)">
<path d="M51.7203 195.131C51.7203 194.751 51.4091 194.44 51.0287 194.44H17.832C17.4516 194.44 17.1404 194.751 17.1404 195.131V199.281C17.1404 199.661 17.4516 199.973 17.832 199.973H51.0287C51.4091 199.973 51.7203 199.661 51.7203 199.281V195.131ZM51.0287 206.889H17.832C17.4516 206.889 17.1404 207.2 17.1404 207.58V211.73C17.1404 212.11 17.4516 212.421 17.832 212.421H51.0287C51.4091 212.421 51.7203 212.11 51.7203 211.73V207.58C51.7203 207.2 51.4091 206.889 51.0287 206.889ZM33.7387 219.337H17.832C17.4516 219.337 17.1404 219.649 17.1404 220.029V224.179C17.1404 224.559 17.4516 224.87 17.832 224.87H33.7387C34.1191 224.87 34.4303 224.559 34.4303 224.179V220.029C34.4303 219.649 34.1191 219.337 33.7387 219.337ZM29.5891 245.964H10.2244V185.103H58.6363V214.842C58.6363 215.222 58.9475 215.534 59.3279 215.534H64.1691C64.5494 215.534 64.8606 215.222 64.8606 214.842V181.645C64.8606 180.115 63.6244 178.879 62.0943 178.879H6.76639C5.23623 178.879 4 180.115 4 181.645V249.422C4 250.952 5.23623 252.188 6.76639 252.188H29.5891C29.9695 252.188 30.2807 251.877 30.2807 251.497V246.656C30.2807 246.275 29.9695 245.964 29.5891 245.964ZM60.4344 239.532C62.9415 237.258 64.5149 233.973 64.5149 230.317C64.5149 223.444 58.9388 217.868 52.0661 217.868C45.1933 217.868 39.6173 223.444 39.6173 230.317C39.6173 233.973 41.1907 237.258 43.6977 239.532C38.7701 242.342 35.3813 247.546 35.1219 253.546C35.1046 253.935 35.4245 254.263 35.8135 254.263H39.9718C40.3348 254.263 40.6374 253.978 40.6634 253.606C41.0005 247.624 45.9887 242.852 52.0661 242.852C58.1435 242.852 63.1317 247.624 63.4688 253.606C63.4861 253.969 63.7887 254.263 64.1604 254.263H68.3186C68.7163 254.263 69.0275 253.935 69.0102 253.546C68.7595 247.537 65.3621 242.342 60.4344 239.532ZM52.0661 223.401C55.8872 223.401 58.9821 226.495 58.9821 230.317C58.9821 234.138 55.8872 237.233 52.0661 237.233C48.245 237.233 45.1501 234.138 45.1501 230.317C45.1501 226.495 48.245 223.401 52.0661 223.401Z" fill="#6B7CFE"/>
</g>
<g filter="url(#filter2_dii_1534_3500)">
<path fill-rule="evenodd" clip-rule="evenodd" d="M95.3275 201.269C68.846 180.708 51.8047 148.567 51.8047 112.445C51.8047 50.3756 102.122 0.0585938 164.191 0.0585938C221.206 0.0585938 268.305 42.5147 275.597 97.5366C291.838 88.4214 310.573 83.2235 330.523 83.2235C360.59 83.2235 387.9 95.0311 408.068 114.262C428.236 95.0311 455.546 83.2235 485.614 83.2235C547.683 83.2235 598 133.541 598 195.61C598 257.678 547.685 307.994 485.617 307.996C485.617 370.065 435.3 420.382 373.231 420.382C324.378 420.382 282.805 389.211 267.316 345.673C246.769 368.105 217.237 382.17 184.42 382.17C122.351 382.17 72.0339 331.853 72.0339 269.784C72.0339 243.995 80.7205 220.234 95.3275 201.269Z" fill="url(#paint0_linear_1534_3500)"/>
</g>
<g filter="url(#filter3_i_1534_3500)">
<path opacity="0.1" d="M434.182 469.988C470.682 469.988 500.272 464.941 500.272 458.717C500.272 452.492 470.682 447.445 434.182 447.445C397.681 447.445 368.092 452.492 368.092 458.717C368.092 464.941 397.681 469.988 434.182 469.988Z" fill="#161819"/>
<path opacity="0.3" d="M476.515 309.346C475.339 309.346 474.377 310.299 474.377 311.483V400.395H446.779V311.483C446.779 310.308 445.825 309.346 444.641 309.346C443.458 309.346 442.504 310.299 442.504 311.483V447.478C442.504 448.653 443.458 449.615 444.641 449.615C445.825 449.615 446.779 448.662 446.779 447.478V404.662H474.377V447.478C474.377 448.653 475.331 449.615 476.515 449.615C477.699 449.615 478.652 448.662 478.652 447.478V311.483C478.652 310.308 477.699 309.346 476.515 309.346Z" fill="#231E56"/>
<path d="M437.366 239.67L435.976 288.29L423.176 286.161L430.624 242.128L437.366 239.67Z" fill="#FFFFFE"/>
<path d="M452.615 317.31C452.615 317.31 436.181 349.907 427.45 365.782C427.45 365.782 426.069 385.636 423.43 399.612C421.128 411.812 417.799 425.147 417.799 425.147L407.843 426.183C407.843 426.183 406.897 367.878 408.895 359.419C410.893 350.959 425.337 287.952 464.733 292.351L452.615 317.294V317.31Z" fill="#05E2FF"/>
<path d="M390.619 451.483L421.432 444.585C422.887 444.256 423.833 442.908 423.709 441.478C423.693 441.28 423.652 441.075 423.594 440.878L418.719 424.97C418.719 424.97 417.305 424.665 415.414 424.641C414.296 424.624 413.219 424.057 412.668 423.079C412.627 423.005 412.594 422.931 412.553 422.857C411.147 419.897 406.437 419.914 406.289 423.144C406.272 423.564 406.264 423.967 406.264 424.353C406.264 424.452 406.264 424.542 406.264 424.641C406.281 425.323 406.313 425.948 406.363 426.49C406.363 426.499 406.363 426.515 406.363 426.523C406.494 427.904 406.7 428.76 406.7 428.76C406.412 429.368 406.133 429.968 405.861 430.552C405.721 430.848 405.59 431.135 405.458 431.423C405.171 432.04 404.891 432.64 404.612 433.224C404.488 433.495 404.357 433.758 404.225 434.021C403.921 434.654 403.609 435.254 403.296 435.821C403.156 436.076 403.009 436.331 402.861 436.578C401.644 438.6 400.296 440.105 398.462 440.795C395.223 442.004 389.846 443.59 388.309 449.09C388.276 449.206 388.26 449.321 388.243 449.436C388.12 450.71 389.296 451.795 390.611 451.499L390.619 451.483Z" fill="#0063F8"/>
<path d="M390.619 451.484L421.432 444.586C422.887 444.257 423.832 442.909 423.709 441.479L388.251 449.42C388.128 450.694 389.303 451.78 390.619 451.484Z" fill="#0063F8"/>
<path d="M405.457 431.416C405.934 431.86 406.797 432.329 408.4 432.592C408.672 432.641 408.967 432.674 409.28 432.707L409.362 431.844C409.05 431.811 408.762 431.778 408.507 431.729C406.674 431.425 406.057 430.866 405.86 430.545C405.72 430.841 405.589 431.129 405.457 431.416Z" fill="white"/>
<path d="M408.367 432.484C408.482 433.01 409.009 433.347 409.535 433.224C410.061 433.109 410.398 432.583 410.275 432.056C410.159 431.53 409.633 431.193 409.107 431.316C408.581 431.432 408.244 431.958 408.367 432.484Z" fill="white"/>
<path d="M404.233 434.01C404.726 434.339 405.482 434.668 406.642 434.865C406.962 434.923 407.316 434.972 407.702 435.013L407.784 434.15C407.423 434.117 407.102 434.068 406.806 434.019C405.63 433.813 404.973 433.492 404.611 433.213C404.488 433.484 404.356 433.747 404.225 434.01H404.233Z" fill="white"/>
<path d="M406.627 434.833C406.742 435.36 407.268 435.697 407.794 435.573C408.321 435.458 408.658 434.932 408.534 434.406C408.419 433.88 407.893 433.543 407.367 433.666C406.841 433.781 406.504 434.307 406.627 434.833Z" fill="white"/>
<path d="M402.859 436.57C403.353 436.891 404.084 437.187 405.186 437.384C405.515 437.442 405.868 437.499 406.263 437.532L406.345 436.669C405.983 436.636 405.655 436.587 405.367 436.538C404.315 436.348 403.673 436.077 403.295 435.822C403.155 436.077 403.007 436.332 402.859 436.579V436.57Z" fill="white"/>
<path d="M405.186 437.349C405.301 437.875 405.827 438.212 406.353 438.089C406.879 437.974 407.216 437.448 407.093 436.922C406.978 436.395 406.452 436.058 405.926 436.182C405.399 436.297 405.062 436.823 405.186 437.349Z" fill="white"/>
<path d="M406.363 426.483C407.769 426.146 409.141 426.022 409.141 426.022L408.78 424.485C407.867 424.362 406.988 424.469 406.256 424.633C406.272 425.315 406.305 425.94 406.355 426.483H406.363Z" fill="white"/>
<path d="M421.884 289.572H414.205V452.294H421.884V289.572Z" fill="#F8F4EE"/>
<path d="M419.327 457.194C437.711 457.194 452.614 454.632 452.614 451.472C452.614 448.312 437.711 445.75 419.327 445.75C400.942 445.75 386.039 448.312 386.039 451.472C386.039 454.632 400.942 457.194 419.327 457.194Z" fill="#F8F4EE"/>
<path d="M490.899 288.908C490.899 288.908 497.649 318.167 481.009 358.92C481.009 358.92 479.883 383.748 474.72 393.86C469.549 403.972 453.509 436.602 453.509 436.602L442.715 433.963L461.467 356.289L465.751 297.697C465.751 297.697 479.135 288.357 490.907 288.908H490.899Z" fill="#05E2FF"/>
<path d="M462.48 325.763C462.48 325.763 440.316 328.394 432.703 308.4C432.703 308.4 478.857 298.51 492.257 304.734C492.257 304.734 475.313 322.237 462.48 325.763Z" fill="#05E2FF"/>
<path d="M413.482 441.875L445.8 453.598C447.329 454.149 448.989 453.467 449.705 452.085C449.803 451.888 449.894 451.683 449.951 451.461L454.794 434.007C454.794 434.007 453.675 432.897 451.949 431.771C450.93 431.105 450.28 429.946 450.338 428.729C450.338 428.639 450.354 428.548 450.362 428.458C450.806 424.923 446.474 422.177 444.443 425.054C444.18 425.424 443.933 425.794 443.711 426.148C443.654 426.238 443.596 426.328 443.547 426.411C443.161 427.044 442.832 427.644 442.56 428.17C442.56 428.178 442.552 428.195 442.544 428.203C441.862 429.543 441.549 430.455 441.549 430.455C440.924 430.842 440.316 431.228 439.724 431.606C439.428 431.795 439.132 431.985 438.844 432.165C438.22 432.56 437.611 432.955 437.019 433.325C436.74 433.497 436.469 433.67 436.197 433.834C435.548 434.229 434.907 434.607 434.29 434.936C434.01 435.092 433.731 435.24 433.451 435.372C431.149 436.523 429.037 437.106 426.948 436.662C423.274 435.873 417.404 434.18 412.775 438.323C412.676 438.405 412.594 438.504 412.52 438.603C411.665 439.696 412.109 441.39 413.482 441.883V441.875Z" fill="#0063F8"/>
<path d="M413.482 441.876L445.8 453.599C447.329 454.15 448.989 453.468 449.705 452.087L412.52 438.596C411.665 439.689 412.109 441.383 413.482 441.876Z" fill="#05E2FF"/>
<path d="M438.854 432.165C439.026 432.847 439.552 433.792 440.868 434.968C441.09 435.173 441.336 435.379 441.608 435.593L442.191 434.853C441.92 434.639 441.682 434.442 441.468 434.244C439.963 432.888 439.733 432.017 439.733 431.605C439.437 431.795 439.141 431.984 438.854 432.165Z" fill="white"/>
<path d="M440.901 434.855C440.704 435.406 440.983 436.022 441.542 436.219C442.093 436.417 442.71 436.137 442.907 435.578C443.104 435.027 442.825 434.411 442.266 434.213C441.715 434.016 441.098 434.296 440.901 434.855Z" fill="white"/>
<path d="M436.213 433.824C436.468 434.416 436.978 435.156 437.923 436.019C438.186 436.266 438.474 436.513 438.811 436.776L439.395 436.027C439.082 435.781 438.811 435.551 438.573 435.337C437.611 434.457 437.2 433.783 437.027 433.314C436.748 433.487 436.476 433.66 436.205 433.824H436.213Z" fill="white"/>
<path d="M437.932 435.978C437.735 436.529 438.014 437.145 438.573 437.343C439.124 437.54 439.741 437.26 439.938 436.701C440.136 436.15 439.856 435.534 439.297 435.337C438.746 435.139 438.13 435.419 437.932 435.978Z" fill="white"/>
<path d="M433.459 435.363C433.722 435.947 434.224 436.646 435.12 437.476C435.383 437.723 435.679 437.978 436.016 438.241L436.599 437.493C436.287 437.246 436.016 437.016 435.777 436.794C434.914 436.005 434.495 435.38 434.298 434.928C434.018 435.084 433.739 435.232 433.459 435.363Z" fill="white"/>
<path d="M435.128 437.443C434.93 437.993 435.21 438.61 435.769 438.807C436.32 439.005 436.936 438.725 437.134 438.166C437.331 437.615 437.051 436.999 436.492 436.801C435.941 436.604 435.325 436.884 435.128 437.443Z" fill="white"/>
<path d="M442.576 428.169C444.064 428.687 445.396 429.378 445.396 429.378L445.963 427.75C445.199 427.101 444.327 426.681 443.563 426.41C443.176 427.043 442.847 427.643 442.576 428.169Z" fill="white"/>
<path d="M471.209 213.01C471.209 213.01 492.206 213.906 497.862 226.599L501.89 248.418L499.942 248.821L489.115 251.049L492.584 297.597C492.584 297.597 461.196 310.595 435.603 301.494C435.603 301.494 431.303 239.087 436.927 224.182C436.927 224.182 437.404 214.342 455.137 213.076C455.137 213.076 461.45 221.617 471.217 213.01H471.209Z" fill="#0063F8"/>
<path d="M436.091 248.025L428.059 244.852C428.059 244.852 431.569 222.062 441.27 217.631C450.971 213.192 436.091 248.025 436.091 248.025Z" fill="#0063F8"/>
<path d="M381.493 286.161L367.838 243.337L421.892 240.92L432.703 285.553L381.493 286.161Z" fill="white"/>
<path d="M501.045 248.543L490.045 250.837C490.045 250.837 492.577 260.809 492.684 263.834C492.684 263.834 483.78 266.366 478.132 269.819C472.484 273.264 466.162 275.697 466.162 275.697C467.379 277.876 467.79 280.03 467.979 282.168C467.979 282.168 499.285 280.342 502.409 270.403C504.67 263.21 502.541 257.71 501.036 248.543H501.045Z" fill="#FFFFFE"/>
<path d="M468.836 283.598H372.385V292.986H468.836V283.598Z" fill="#92ABFE"/>
<path d="M445.378 166.191C445.378 166.191 441.3 168.214 441.826 175.136C442.344 182.058 444.868 183.094 444.868 183.094C444.868 183.094 450.656 168.625 445.378 166.191Z" fill="#92ABFE"/>
<path d="M458.844 199.882L458.277 208.481L458.014 212.419C462.486 216.661 471.102 212.633 471.102 212.633L473.511 200.079C471.422 198.262 465.405 198.822 461.754 199.364C460.036 199.619 458.844 199.874 458.844 199.874V199.882Z" fill="#FFFFFE"/>
<path d="M458.843 199.881L458.275 208.48C464.219 207.855 470.04 200.44 470.04 200.44L461.753 199.371C460.035 199.626 458.843 199.881 458.843 199.881Z" fill="white"/>
<path d="M445.716 169.726C445.716 169.726 437.026 164.308 440.66 157.073C444.293 149.839 454.882 154.673 464.748 156.268C480.631 158.833 484.618 167.753 483.147 176.344C481.683 184.943 480.352 196.543 475.904 200.383C471.456 204.222 469.532 197.785 468.168 192.129C466.803 186.472 456.329 168.386 445.716 169.726Z" fill="#92ABFE"/>
<path d="M443.981 176.976C443.948 177.272 443.924 177.568 443.891 177.864C443.398 183.249 443.521 189.892 443.776 195.31C444.055 201.056 449.021 205.446 454.759 205.002C461.673 204.468 470.24 203.424 474.342 201.393C475.592 200.777 476.422 200.07 476.669 199.256C477.244 197.365 477.754 194.742 478.198 191.881C479.538 183.208 480.228 172.274 480.228 172.274C473.356 161.217 450.287 162.367 445.946 169.314C444.951 170.901 444.335 173.663 443.981 176.968V176.976Z" fill="#FFFFFE"/>
<path d="M447.057 193.179C447.057 193.179 447.131 193.45 447.311 193.845C447.599 194.469 448.158 195.398 449.137 196.097C450.057 196.755 451.365 197.199 453.165 196.969C454.768 196.771 455.862 196.138 456.601 195.341C457.654 194.223 458.007 192.792 458.131 191.806C458.213 191.123 458.18 190.646 458.18 190.646C453.625 193.294 447.057 193.179 447.057 193.179Z" fill="#0063F8"/>
<path d="M449.137 196.098C450.057 196.755 451.365 197.199 453.165 196.969C454.768 196.772 455.862 196.139 456.602 195.341C455.681 194.831 454.16 194.379 452.318 194.725C450.748 195.021 449.918 195.604 449.137 196.098Z" fill="#6B7CFE"/>
<path d="M447.057 193.179C447.057 193.179 447.131 193.45 447.311 193.845C451.915 194.757 456.429 192.71 458.131 191.806C458.213 191.123 458.18 190.646 458.18 190.646C453.625 193.294 447.057 193.179 447.057 193.179Z" fill="white"/>
<path d="M456.772 183.48C456.633 184.615 457.027 185.593 457.644 185.667C458.26 185.741 458.885 184.886 459.017 183.76C459.148 182.633 458.762 181.647 458.145 181.573C457.529 181.499 456.904 182.354 456.764 183.48H456.772Z" fill="#92ABFE"/>
<path d="M445.247 182.064C445.107 183.199 445.502 184.177 446.118 184.251C446.735 184.325 447.36 183.47 447.499 182.344C447.639 181.217 447.245 180.231 446.628 180.157C446.011 180.083 445.387 180.938 445.255 182.064H445.247Z" fill="#92ABFE"/>
<path d="M479.209 183.923C479.209 183.923 475.887 181.128 472.336 184.95L469.968 184.663C469.968 184.663 470.7 179.82 469.878 177.05C469.056 174.271 464.517 173.786 464.222 170.596C464.222 170.596 453.016 173.539 445.707 169.725C438.399 165.918 462.931 155.971 473.248 163.543C483.566 171.114 481.938 175.866 479.209 183.923Z" fill="#92ABFE"/>
<path d="M463.127 181.382C463.127 181.382 462.313 179.022 460.307 178.208C458.441 177.46 457.01 177.781 456.27 178.077C455.95 178.2 455.777 178.554 455.851 178.891C455.95 179.285 456.361 179.516 456.747 179.392C457.98 178.989 460.627 178.611 463.118 181.382H463.127Z" fill="#92ABFE"/>
<path d="M443.981 176.976C443.948 177.272 443.924 177.568 443.891 177.864C446.119 177.108 447.853 177.864 448.725 178.398C448.815 178.456 448.914 178.489 449.012 178.497C449.292 178.53 449.58 178.39 449.719 178.127C449.876 177.823 449.793 177.445 449.514 177.239C448.873 176.779 447.557 176.113 445.568 176.392C444.976 176.475 444.441 176.697 443.981 176.968V176.976Z" fill="#92ABFE"/>
<path d="M474.342 201.395C475.592 200.778 476.422 200.071 476.668 199.257C477.244 197.366 477.754 194.744 478.198 191.883L471.736 195.245C471.736 195.245 471.136 199.479 474.35 201.386L474.342 201.395Z" fill="#92ABFE"/>
<path d="M472.335 184.949C472.335 184.949 476.495 181.011 479.208 183.922C482.2 187.128 478.476 196.311 471.727 195.259L472.335 184.949Z" fill="#FFFFFE"/>
<path d="M471.809 193.176C472.105 193.209 472.393 193.02 472.467 192.724C473.609 187.989 476.544 187.602 476.668 187.586C476.996 187.545 477.235 187.257 477.202 186.928C477.169 186.599 476.873 186.361 476.544 186.394C476.388 186.41 472.647 186.838 471.291 192.444C471.217 192.765 471.414 193.094 471.735 193.168C471.76 193.168 471.784 193.176 471.801 193.176H471.809Z" fill="white"/>
<path d="M475.992 190.606C476.132 190.622 476.28 190.589 476.412 190.499C476.683 190.31 476.749 189.94 476.56 189.668C476.519 189.603 475.499 188.164 473.485 188.353C473.156 188.386 472.91 188.682 472.942 189.011C472.975 189.34 473.271 189.586 473.6 189.553C474.891 189.43 475.549 190.318 475.573 190.359C475.672 190.499 475.828 190.589 475.992 190.606Z" fill="white"/>
<path d="M452.234 199.627C455.301 200.005 457.06 198.204 457.142 198.114C457.373 197.876 457.364 197.489 457.118 197.267C456.879 197.037 456.501 197.045 456.271 197.284C456.189 197.366 454.429 199.125 451.33 198.213C451.018 198.122 450.681 198.303 450.582 198.616C450.491 198.936 450.672 199.265 450.985 199.364C451.42 199.495 451.84 199.577 452.234 199.627Z" fill="white"/>
<path d="M450.531 189.399C450.712 189.424 450.901 189.366 451.033 189.227C451.263 188.988 451.263 188.61 451.025 188.38L449.586 186.966L451.008 186.777C451.247 186.744 451.444 186.579 451.51 186.349L452.587 182.625C452.677 182.304 452.496 181.975 452.176 181.877C451.855 181.786 451.526 181.967 451.427 182.288L450.466 185.634L448.205 185.93C447.975 185.963 447.785 186.119 447.711 186.333C447.637 186.555 447.695 186.793 447.859 186.949L450.186 189.227C450.285 189.325 450.408 189.374 450.531 189.391V189.399Z" fill="white"/>
<path d="M466.426 275.969C466.426 275.969 463.779 274.275 461.247 273.708C458.715 273.141 456.051 272.656 454.481 272.335C452.598 271.949 452.968 273.741 454.481 274.637C456.774 275.993 458.164 275.903 458.164 275.903C458.164 275.903 447.846 275.845 445.289 276.906C442.955 277.876 448.635 278.189 453.33 278.715C453.33 278.715 443.357 280.392 442.692 281.978C441.82 284.058 453.889 281.995 453.889 281.995C453.889 281.995 445.215 284.839 445.692 285.834C446.235 286.936 455.475 285.111 455.475 285.111C455.475 285.111 449.688 287.594 450.247 288.136C451.348 289.205 464.478 286.533 468.416 281.83C468.416 281.83 467.626 276.881 466.434 275.977L466.426 275.969Z" fill="#FFFFFE"/>
</g>
<g filter="url(#filter4_d_1534_3500)">
<rect x="150.064" y="132.844" width="231.049" height="39.8361" rx="7.57824" fill="white"/>
<path d="M171.822 154.93H171.062L170.793 154.67C171.768 153.539 172.304 152.096 172.303 150.602C172.303 149.366 171.936 148.158 171.249 147.13C170.562 146.102 169.586 145.3 168.444 144.827C167.302 144.354 166.045 144.23 164.832 144.472C163.62 144.713 162.506 145.308 161.632 146.182C160.757 147.057 160.162 148.17 159.921 149.383C159.68 150.596 159.803 151.852 160.277 152.995C160.75 154.137 161.551 155.113 162.579 155.8C163.607 156.487 164.815 156.853 166.052 156.853C167.6 156.853 169.023 156.286 170.12 155.343L170.379 155.613V156.372L175.188 161.171L176.62 159.738L171.822 154.93ZM166.052 154.93C163.657 154.93 161.724 152.997 161.724 150.602C161.724 148.208 163.657 146.275 166.052 146.275C168.446 146.275 170.379 148.208 170.379 150.602C170.379 152.997 168.446 154.93 166.052 154.93Z" fill="black"/>
<path d="M197.948 147.903C197.862 147.176 197.513 146.611 196.9 146.209C196.288 145.807 195.537 145.606 194.647 145.606C193.996 145.606 193.427 145.712 192.939 145.922C192.456 146.133 192.078 146.422 191.805 146.791C191.537 147.159 191.403 147.578 191.403 148.046C191.403 148.439 191.497 148.776 191.683 149.058C191.875 149.336 192.119 149.568 192.415 149.754C192.712 149.936 193.023 150.087 193.348 150.206C193.673 150.321 193.972 150.415 194.245 150.486L195.738 150.888C196.121 150.989 196.546 151.127 197.015 151.304C197.489 151.481 197.941 151.723 198.372 152.029C198.807 152.331 199.166 152.718 199.448 153.192C199.73 153.666 199.871 154.247 199.871 154.936C199.871 155.73 199.663 156.448 199.247 157.089C198.836 157.73 198.233 158.239 197.439 158.617C196.649 158.995 195.69 159.184 194.561 159.184C193.508 159.184 192.597 159.014 191.827 158.675C191.061 158.335 190.458 157.861 190.018 157.254C189.583 156.646 189.336 155.94 189.279 155.137H191.116C191.164 155.692 191.351 156.151 191.676 156.515C192.006 156.873 192.422 157.141 192.925 157.318C193.432 157.491 193.977 157.577 194.561 157.577C195.24 157.577 195.85 157.467 196.391 157.247C196.931 157.022 197.36 156.711 197.675 156.314C197.991 155.912 198.149 155.443 198.149 154.907C198.149 154.419 198.013 154.022 197.74 153.716C197.467 153.41 197.108 153.161 196.664 152.969C196.219 152.778 195.738 152.611 195.221 152.467L193.413 151.95C192.264 151.62 191.355 151.149 190.686 150.537C190.016 149.924 189.681 149.123 189.681 148.133C189.681 147.31 189.903 146.592 190.348 145.98C190.798 145.362 191.401 144.884 192.157 144.544C192.917 144.2 193.767 144.028 194.704 144.028C195.652 144.028 196.494 144.197 197.23 144.537C197.967 144.872 198.551 145.331 198.982 145.915C199.417 146.499 199.647 147.161 199.67 147.903H197.948ZM207.189 159.155C206.127 159.155 205.211 158.921 204.441 158.452C203.675 157.979 203.085 157.318 202.668 156.471C202.257 155.62 202.051 154.63 202.051 153.5C202.051 152.371 202.257 151.376 202.668 150.515C203.085 149.649 203.664 148.975 204.405 148.491C205.151 148.003 206.022 147.759 207.017 147.759C207.591 147.759 208.158 147.855 208.718 148.046C209.278 148.238 209.787 148.549 210.247 148.979C210.706 149.405 211.072 149.97 211.345 150.673C211.617 151.376 211.754 152.242 211.754 153.271V153.988H203.257V152.524H210.031C210.031 151.903 209.907 151.348 209.658 150.86C209.414 150.372 209.065 149.986 208.61 149.704C208.161 149.422 207.63 149.281 207.017 149.281C206.343 149.281 205.759 149.448 205.266 149.783C204.778 150.113 204.403 150.544 204.14 151.075C203.876 151.606 203.745 152.175 203.745 152.783V153.759C203.745 154.591 203.888 155.297 204.175 155.876C204.467 156.45 204.872 156.888 205.388 157.189C205.905 157.486 206.505 157.634 207.189 157.634C207.634 157.634 208.036 157.572 208.395 157.447C208.759 157.318 209.072 157.127 209.335 156.873C209.598 156.615 209.802 156.294 209.945 155.912L211.581 156.371C211.409 156.926 211.12 157.414 210.713 157.835C210.306 158.251 209.804 158.577 209.206 158.811C208.608 159.041 207.936 159.155 207.189 159.155ZM218.808 159.155C217.813 159.155 216.94 158.919 216.189 158.445C215.442 157.971 214.859 157.309 214.438 156.457C214.021 155.606 213.813 154.61 213.813 153.472C213.813 152.324 214.021 151.321 214.438 150.465C214.859 149.608 215.442 148.943 216.189 148.47C216.94 147.996 217.813 147.759 218.808 147.759C219.803 147.759 220.674 147.996 221.42 148.47C222.171 148.943 222.755 149.608 223.171 150.465C223.592 151.321 223.803 152.324 223.803 153.472C223.803 154.61 223.592 155.606 223.171 156.457C222.755 157.309 222.171 157.971 221.42 158.445C220.674 158.919 219.803 159.155 218.808 159.155ZM218.808 157.634C219.564 157.634 220.186 157.44 220.674 157.053C221.162 156.665 221.523 156.156 221.758 155.524C221.992 154.893 222.109 154.209 222.109 153.472C222.109 152.735 221.992 152.048 221.758 151.412C221.523 150.776 221.162 150.262 220.674 149.869C220.186 149.477 219.564 149.281 218.808 149.281C218.052 149.281 217.43 149.477 216.942 149.869C216.454 150.262 216.093 150.776 215.859 151.412C215.624 152.048 215.507 152.735 215.507 153.472C215.507 154.209 215.624 154.893 215.859 155.524C216.093 156.156 216.454 156.665 216.942 157.053C217.43 157.44 218.052 157.634 218.808 157.634Z" fill="black"/>
</g>
<path d="M196.029 291.939H180.281V359.46H196.029V291.939Z" fill="#19DFDF"/>
<path d="M180.281 341.654C185.859 339.926 191.108 336.842 196.029 333.518V359.458H180.281V341.654Z" fill="#9EDBFF"/>
<path d="M170.264 310.707H154.516V359.461H170.264V310.707Z" fill="#19DFDF"/>
<path d="M167.355 342.793C168.339 342.946 169.301 343.034 170.264 343.056V359.46H154.516V343.209C157.293 342.29 161.384 341.918 167.355 342.793Z" fill="#9EDBFF"/>
<path d="M221.776 271.77H206.027V359.456H221.776V271.77Z" fill="#19DFDF"/>
<path d="M221.799 319.822V359.455H206.051V326.559C211.65 322.753 216.878 319.801 221.799 319.822Z" fill="#9EDBFF"/>
<path d="M221.164 246.2L206.946 249.24L210.774 252.98L189.011 275.181L181.377 267.679L154.365 295.216C153.337 296.266 153.359 297.95 154.409 298.978C155.459 300.006 157.143 299.984 158.171 298.935L181.465 275.203L189.098 282.705L214.602 256.699L218.429 260.439L221.207 246.156L221.164 246.2Z" fill="#19DFDF"/>
<defs>
<filter id="filter0_i_1534_3500" x="246.557" y="379.828" width="37.6523" height="43.4072" filterUnits="userSpaceOnUse" color-interpolation-filters="sRGB">
<feFlood flood-opacity="0" result="BackgroundImageFix"/>
<feBlend mode="normal" in="SourceGraphic" in2="BackgroundImageFix" result="shape"/>
<feColorMatrix in="SourceAlpha" type="matrix" values="0 0 0 0 0 0 0 0 0 0 0 0 0 0 0 0 0 0 127 0" result="hardAlpha"/>
<feOffset dy="3.36811"/>
<feGaussianBlur stdDeviation="1.68405"/>
<feComposite in2="hardAlpha" operator="arithmetic" k2="-1" k3="1"/>
<feColorMatrix type="matrix" values="0 0 0 0 0 0 0 0 0 0 0 0 0 0 0 0 0 0 0.25 0"/>
<feBlend mode="normal" in2="shape" result="effect1_innerShadow_1534_3500"/>
</filter>
<filter id="filter1_d_1534_3500" x="0.631893" y="178.879" width="71.7479" height="82.121" filterUnits="userSpaceOnUse" color-interpolation-filters="sRGB">
<feFlood flood-opacity="0" result="BackgroundImageFix"/>
<feColorMatrix in="SourceAlpha" type="matrix" values="0 0 0 0 0 0 0 0 0 0 0 0 0 0 0 0 0 0 127 0" result="hardAlpha"/>
<feOffset dy="3.36811"/>
<feGaussianBlur stdDeviation="1.68405"/>
<feComposite in2="hardAlpha" operator="out"/>
<feColorMatrix type="matrix" values="0 0 0 0 0 0 0 0 0 0 0 0 0 0 0 0 0 0 0.25 0"/>
<feBlend mode="normal" in2="BackgroundImageFix" result="effect1_dropShadow_1534_3500"/>
<feBlend mode="normal" in="SourceGraphic" in2="effect1_dropShadow_1534_3500" result="shape"/>
</filter>
<filter id="filter2_dii_1534_3500" x="47.5946" y="0.0585938" width="553.774" height="427.06" filterUnits="userSpaceOnUse" color-interpolation-filters="sRGB">
<feFlood flood-opacity="0" result="BackgroundImageFix"/>
<feColorMatrix in="SourceAlpha" type="matrix" values="0 0 0 0 0 0 0 0 0 0 0 0 0 0 0 0 0 0 127 0" result="hardAlpha"/>
<feOffset dy="3.36811"/>
<feGaussianBlur stdDeviation="1.68405"/>
<feComposite in2="hardAlpha" operator="out"/>
<feColorMatrix type="matrix" values="0 0 0 0 0 0 0 0 0 0 0 0 0 0 0 0 0 0 0.25 0"/>
<feBlend mode="normal" in2="BackgroundImageFix" result="effect1_dropShadow_1534_3500"/>
<feBlend mode="normal" in="SourceGraphic" in2="effect1_dropShadow_1534_3500" result="shape"/>
<feColorMatrix in="SourceAlpha" type="matrix" values="0 0 0 0 0 0 0 0 0 0 0 0 0 0 0 0 0 0 127 0" result="hardAlpha"/>
<feOffset dx="3.36811" dy="3.36811"/>
<feGaussianBlur stdDeviation="1.68405"/>
<feComposite in2="hardAlpha" operator="arithmetic" k2="-1" k3="1"/>
<feColorMatrix type="matrix" values="0 0 0 0 0 0 0 0 0 0 0 0 0 0 0 0 0 0 0.25 0"/>
<feBlend mode="normal" in2="shape" result="effect2_innerShadow_1534_3500"/>
<feColorMatrix in="SourceAlpha" type="matrix" values="0 0 0 0 0 0 0 0 0 0 0 0 0 0 0 0 0 0 127 0" result="hardAlpha"/>
<feOffset dx="-4.21013" dy="3.36811"/>
<feGaussianBlur stdDeviation="4.63115"/>
<feComposite in2="hardAlpha" operator="arithmetic" k2="-1" k3="1"/>
<feColorMatrix type="matrix" values="0 0 0 0 0 0 0 0 0 0 0 0 0 0 0 0 0 0 0.25 0"/>
<feBlend mode="normal" in2="effect2_innerShadow_1534_3500" result="effect3_innerShadow_1534_3500"/>
</filter>
<filter id="filter3_i_1534_3500" x="363.628" y="153.205" width="139.769" height="320.151" filterUnits="userSpaceOnUse" color-interpolation-filters="sRGB">
<feFlood flood-opacity="0" result="BackgroundImageFix"/>
<feBlend mode="normal" in="SourceGraphic" in2="BackgroundImageFix" result="shape"/>
<feColorMatrix in="SourceAlpha" type="matrix" values="0 0 0 0 0 0 0 0 0 0 0 0 0 0 0 0 0 0 127 0" result="hardAlpha"/>
<feOffset dx="-4.21013" dy="3.36811"/>
<feGaussianBlur stdDeviation="2.94709"/>
<feComposite in2="hardAlpha" operator="arithmetic" k2="-1" k3="1"/>
<feColorMatrix type="matrix" values="0 0 0 0 0 0 0 0 0 0 0 0 0 0 0 0 0 0 0.25 0"/>
<feBlend mode="normal" in2="shape" result="effect1_innerShadow_1534_3500"/>
</filter>
<filter id="filter4_d_1534_3500" x="146.696" y="129.476" width="237.785" height="46.5722" filterUnits="userSpaceOnUse" color-interpolation-filters="sRGB">
<feFlood flood-opacity="0" result="BackgroundImageFix"/>
<feColorMatrix in="SourceAlpha" type="matrix" values="0 0 0 0 0 0 0 0 0 0 0 0 0 0 0 0 0 0 127 0" result="hardAlpha"/>
<feOffset/>
<feGaussianBlur stdDeviation="1.68405"/>
<feComposite in2="hardAlpha" operator="out"/>
<feColorMatrix type="matrix" values="0 0 0 0 0 0 0 0 0 0 0 0 0 0 0 0 0 0 0.25 0"/>
<feBlend mode="normal" in2="BackgroundImageFix" result="effect1_dropShadow_1534_3500"/>
<feBlend mode="normal" in="SourceGraphic" in2="effect1_dropShadow_1534_3500" result="shape"/>
</filter>
<linearGradient id="paint0_linear_1534_3500" x1="99.1652" y1="27.0585" x2="324.903" y2="420.382" gradientUnits="userSpaceOnUse">
<stop stop-color="#367CFF"/>
<stop offset="1" stop-color="#5790FD"/>
</linearGradient>
</defs>
</svg>
