<svg width="193" height="167" viewBox="0 0 193 167" fill="none" xmlns="http://www.w3.org/2000/svg">
<g filter="url(#filter0_diii_968_2454)">
<path d="M46.6414 87.0293C42.2741 92.6356 39.2716 96.3731 39.2716 96.3731C37.361 98.2419 37.361 101.445 39.2716 103.314L78.304 141.49C80.2147 143.359 83.4902 143.359 85.4008 141.49C85.4008 141.49 89.2222 139.088 95.7731 134.015" fill="url(#paint0_linear_968_2454)"/>
<path d="M46.6414 87.0293C42.2741 92.6356 39.2716 96.3731 39.2716 96.3731C37.361 98.2419 37.361 101.445 39.2716 103.314L78.304 141.49C80.2147 143.359 83.4902 143.359 85.4008 141.49C85.4008 141.49 89.2222 139.088 95.7731 134.015" stroke="#EEECEC" stroke-width="1.45575"/>
<path d="M83.7632 122.27L70.9343 134.55L83.7632 122.27Z" fill="url(#paint1_linear_968_2454)"/>
<path d="M83.7632 122.27L70.9343 134.55" stroke="#EEECEC" stroke-width="1.45575"/>
<path d="M71.2074 109.988L58.6515 122.536L71.2074 109.988Z" fill="url(#paint2_linear_968_2454)"/>
<path d="M71.2074 109.988L58.6515 122.536" stroke="#EEECEC" stroke-width="1.45575"/>
<path d="M58.9244 97.9766L46.3685 110.257L58.9244 97.9766Z" fill="url(#paint3_linear_968_2454)"/>
<path d="M58.9244 97.9766L46.3685 110.257" stroke="#EEECEC" stroke-width="1.45575"/>
<path d="M117.882 55.5275C121.431 58.9981 153.093 96.3734 153.093 96.3734C155.004 98.2422 155.004 101.446 153.093 103.315L114.061 141.491C112.15 143.36 108.875 143.36 106.964 141.491C106.964 141.491 84.0361 126.007 52.1005 94.7716C39.8176 82.7581 34.3585 67.2741 36.2692 65.4053L75.3016 27.2291C76.6664 25.8943 86.2198 28.03 94.9543 32.3015" fill="url(#paint4_linear_968_2454)"/>
<path d="M117.882 55.5275C121.431 58.9981 153.093 96.3734 153.093 96.3734C155.004 98.2422 155.004 101.446 153.093 103.315L114.061 141.491C112.15 143.36 108.875 143.36 106.964 141.491C106.964 141.491 84.0361 126.007 52.1005 94.7716C39.8176 82.7581 34.3585 67.2741 36.2692 65.4053L75.3016 27.2291C76.6664 25.8943 86.2198 28.03 94.9543 32.3015" stroke="#EEECEC" stroke-width="1.45575" stroke-linecap="round"/>
<path d="M146.543 87.2987C154.185 77.1539 157.461 67.0092 155.823 65.4074L116.791 27.2312C114.88 25.3624 97.4109 28.833 84.855 41.1134C79.6689 46.1858 67.9319 54.1948 62.1998 67.2762C62.1998 67.2762 65.2023 72.3485 73.118 69.4119C86.2198 64.6065 95.2273 59.8011 95.2273 59.8011C95.2273 59.8011 108.875 65.1404 117.337 55.7966" fill="url(#paint5_linear_968_2454)"/>
<path d="M146.543 87.2987C154.185 77.1539 157.461 67.0092 155.823 65.4074L116.791 27.2312C114.88 25.3624 97.4109 28.833 84.855 41.1134C79.6689 46.1858 67.9319 54.1948 62.1998 67.2762C62.1998 67.2762 65.2023 72.3485 73.118 69.4119C86.2198 64.6065 95.2273 59.8011 95.2273 59.8011C95.2273 59.8011 108.875 65.1404 117.337 55.7966" stroke="#EEECEC" stroke-width="1.45575" stroke-linecap="round"/>
<path d="M82.6715 12.8133C84.5822 14.682 84.5822 17.8856 82.6715 19.7544L32.175 69.1432C30.2643 71.012 26.9889 71.012 25.0782 69.1432L14.433 58.7315C12.5223 56.8627 12.5223 53.6591 14.433 51.7904L64.9295 2.40157C66.8402 0.532809 70.1156 0.532809 72.0263 2.40157L82.6715 12.8133Z" fill="url(#paint6_linear_968_2454)" stroke="#EEECEC" stroke-width="1.45575"/>
<path d="M110.513 13.8816C108.602 15.7504 108.602 18.954 110.513 20.8228L161.282 70.4785C163.193 72.3473 166.468 72.3473 168.379 70.4785L179.024 60.0668C180.935 58.1981 180.935 54.9945 179.024 53.1257L128.255 3.46993C126.344 1.60117 123.069 1.60117 121.158 3.46993L110.513 13.8816Z" fill="url(#paint7_linear_968_2454)" stroke="#EEECEC" stroke-width="1.45575"/>
<path d="M89.2222 103.582L121.158 134.55L89.2222 103.582Z" fill="url(#paint8_linear_968_2454)"/>
<path d="M89.2222 103.582L121.158 134.55" stroke="#EEECEC" stroke-width="1.45575"/>
<path d="M101.778 91.3027L133.441 122.538L101.778 91.3027Z" fill="url(#paint9_linear_968_2454)"/>
<path d="M101.778 91.3027L133.441 122.538" stroke="#EEECEC" stroke-width="1.45575"/>
<path d="M114.061 79.2871L145.724 110.255L114.061 79.2871Z" fill="url(#paint10_linear_968_2454)"/>
<path d="M114.061 79.2871L145.724 110.255" stroke="#EEECEC" stroke-width="1.45575"/>
</g>
<defs>
<filter id="filter0_diii_968_2454" x="0.62606" y="0.271484" width="200.94" height="166.642" filterUnits="userSpaceOnUse" color-interpolation-filters="sRGB">
<feFlood flood-opacity="0" result="BackgroundImageFix"/>
<feColorMatrix in="SourceAlpha" type="matrix" values="0 0 0 0 0 0 0 0 0 0 0 0 0 0 0 0 0 0 127 0" result="hardAlpha"/>
<feOffset dy="11.646"/>
<feGaussianBlur stdDeviation="5.82302"/>
<feComposite in2="hardAlpha" operator="out"/>
<feColorMatrix type="matrix" values="0 0 0 0 0 0 0 0 0 0.388333 0 0 0 0 0.970833 0 0 0 0.38 0"/>
<feBlend mode="normal" in2="BackgroundImageFix" result="effect1_dropShadow_968_2454"/>
<feBlend mode="normal" in="SourceGraphic" in2="effect1_dropShadow_968_2454" result="shape"/>
<feColorMatrix in="SourceAlpha" type="matrix" values="0 0 0 0 0 0 0 0 0 0 0 0 0 0 0 0 0 0 127 0" result="hardAlpha"/>
<feOffset dy="11.646"/>
<feGaussianBlur stdDeviation="5.82302"/>
<feComposite in2="hardAlpha" operator="arithmetic" k2="-1" k3="1"/>
<feColorMatrix type="matrix" values="0 0 0 0 0 0 0 0 0 0 0 0 0 0 0 0 0 0 0.25 0"/>
<feBlend mode="normal" in2="shape" result="effect2_innerShadow_968_2454"/>
<feColorMatrix in="SourceAlpha" type="matrix" values="0 0 0 0 0 0 0 0 0 0 0 0 0 0 0 0 0 0 127 0" result="hardAlpha"/>
<feOffset dx="20.3806" dy="20.3806"/>
<feGaussianBlur stdDeviation="17.469"/>
<feComposite in2="hardAlpha" operator="arithmetic" k2="-1" k3="1"/>
<feColorMatrix type="matrix" values="0 0 0 0 0.113021 0 0 0 0 0.204514 0 0 0 0 0.904167 0 0 0 0.1 0"/>
<feBlend mode="normal" in2="effect2_innerShadow_968_2454" result="effect3_innerShadow_968_2454"/>
<feColorMatrix in="SourceAlpha" type="matrix" values="0 0 0 0 0 0 0 0 0 0 0 0 0 0 0 0 0 0 127 0" result="hardAlpha"/>
<feOffset dx="11.646"/>
<feGaussianBlur stdDeviation="5.82302"/>
<feComposite in2="hardAlpha" operator="arithmetic" k2="-1" k3="1"/>
<feColorMatrix type="matrix" values="0 0 0 0 1 0 0 0 0 1 0 0 0 0 1 0 0 0 0.29 0"/>
<feBlend mode="normal" in2="effect3_innerShadow_968_2454" result="effect4_innerShadow_968_2454"/>
</filter>
<linearGradient id="paint0_linear_968_2454" x1="66.8059" y1="87.0293" x2="66.8059" y2="142.892" gradientUnits="userSpaceOnUse">
<stop stop-color="#1E56C1"/>
<stop offset="1" stop-color="#19DFDF"/>
</linearGradient>
<linearGradient id="paint1_linear_968_2454" x1="77.3487" y1="122.27" x2="77.3487" y2="134.55" gradientUnits="userSpaceOnUse">
<stop stop-color="#1E56C1"/>
<stop offset="1" stop-color="#19DFDF"/>
</linearGradient>
<linearGradient id="paint2_linear_968_2454" x1="64.9294" y1="109.988" x2="64.9294" y2="122.536" gradientUnits="userSpaceOnUse">
<stop stop-color="#1E56C1"/>
<stop offset="1" stop-color="#19DFDF"/>
</linearGradient>
<linearGradient id="paint3_linear_968_2454" x1="52.6465" y1="97.9766" x2="52.6465" y2="110.257" gradientUnits="userSpaceOnUse">
<stop stop-color="#1E56C1"/>
<stop offset="1" stop-color="#19DFDF"/>
</linearGradient>
<linearGradient id="paint4_linear_968_2454" x1="95.2115" y1="26.834" x2="95.2115" y2="142.892" gradientUnits="userSpaceOnUse">
<stop stop-color="#1E56C1"/>
<stop offset="1" stop-color="#19DFDF"/>
</linearGradient>
<linearGradient id="paint5_linear_968_2454" x1="109.217" y1="26.7578" x2="109.217" y2="87.2987" gradientUnits="userSpaceOnUse">
<stop stop-color="#1E56C1"/>
<stop offset="1" stop-color="#19DFDF"/>
</linearGradient>
<linearGradient id="paint6_linear_968_2454" x1="48.5522" y1="1" x2="48.5522" y2="70.5448" gradientUnits="userSpaceOnUse">
<stop stop-color="#1E56C1"/>
<stop offset="1" stop-color="#19DFDF"/>
</linearGradient>
<linearGradient id="paint7_linear_968_2454" x1="144.768" y1="2.06836" x2="144.768" y2="71.8801" gradientUnits="userSpaceOnUse">
<stop stop-color="#1E56C1"/>
<stop offset="1" stop-color="#19DFDF"/>
</linearGradient>
<linearGradient id="paint8_linear_968_2454" x1="105.19" y1="103.582" x2="105.19" y2="134.55" gradientUnits="userSpaceOnUse">
<stop stop-color="#1E56C1"/>
<stop offset="1" stop-color="#19DFDF"/>
</linearGradient>
<linearGradient id="paint9_linear_968_2454" x1="117.609" y1="91.3027" x2="117.609" y2="122.538" gradientUnits="userSpaceOnUse">
<stop stop-color="#1E56C1"/>
<stop offset="1" stop-color="#19DFDF"/>
</linearGradient>
<linearGradient id="paint10_linear_968_2454" x1="129.892" y1="79.2871" x2="129.892" y2="110.255" gradientUnits="userSpaceOnUse">
<stop stop-color="#1E56C1"/>
<stop offset="1" stop-color="#19DFDF"/>
</linearGradient>
</defs>
</svg>
