<svg width="556" height="411" viewBox="0 0 556 411" fill="none" xmlns="http://www.w3.org/2000/svg">
<g filter="url(#filter0_dii_1397_3897)">
<path d="M44.7229 22.4851C75.0151 -1.51793 116.384 -5.91162 151.713 7.43176C198.653 25.163 233.2 70.068 278.789 91.6307C310.802 106.777 347.575 109.484 381.148 99.1777C397.482 94.1638 413.376 86.1241 430.33 85.585C445.349 85.1097 460.182 90.6801 472.952 99.3747C510.518 124.954 529.374 179.516 516.715 225.998C509.939 250.888 495.384 272.503 478.429 290.628C443.407 328.085 396.943 352.424 348.381 358.765C321.276 362.301 293.778 360.382 266.773 356.035C207.921 346.564 149.94 325.105 101.482 287.26C43.4651 241.961 -14.0297 162.927 7.69534 80.5479C13.7758 57.4897 26.9685 36.5588 44.7229 22.4851Z" fill="url(#paint0_radial_1397_3897)"/>
</g>
<g filter="url(#filter1_i_1397_3897)">
<path d="M184.065 52.1582H388.088C394.609 52.1582 399.907 57.4561 399.907 63.9771V398.257C399.907 404.778 394.609 410.076 388.088 410.076H184.065C177.544 410.076 172.246 404.778 172.246 398.257V63.9771C172.246 57.4561 177.544 52.1582 184.065 52.1582Z" fill="#61CCFF"/>
<path d="M312.481 60.7617H259.676V64.6743H312.481V60.7617Z" fill="#0252A3"/>
<path d="M311.111 390.133H261.041V400.306H311.111V390.133Z" fill="#0252A3"/>
<g filter="url(#filter2_i_1397_3897)">
<path d="M394.438 75.2324H177.727V383.597H394.438V75.2324Z" fill="white"/>
</g>
<path d="M394.438 75.2324H177.727V86.9702H394.438V75.2324Z" fill="#1765EE"/>
<path d="M196.986 342.061C201.794 342.061 205.692 338.163 205.692 333.355C205.692 328.546 201.794 324.648 196.986 324.648C192.177 324.648 188.279 328.546 188.279 333.355C188.279 338.163 192.177 342.061 196.986 342.061Z" fill="#19DFDF"/>
<path d="M221.05 342.061C225.858 342.061 229.756 338.163 229.756 333.355C229.756 328.546 225.858 324.648 221.05 324.648C216.242 324.648 212.344 328.546 212.344 333.355C212.344 338.163 216.242 342.061 221.05 342.061Z" fill="#19DFDF"/>
<path d="M280.993 326.605H234.639V331.104H280.993V326.605Z" fill="#19DFDF"/>
<path d="M382.312 347.73H189.854V352.229H382.312V347.73Z" fill="#19DFDF"/>
<path d="M382.312 356.924H189.854V361.422H382.312V356.924Z" fill="#19DFDF"/>
<path d="M236.208 366.117H189.854V370.615H236.208V366.117Z" fill="#19DFDF"/>
<path d="M205.453 130.436C206.561 125.757 203.667 121.065 198.988 119.957C194.309 118.848 189.618 121.742 188.509 126.421C187.401 131.1 190.295 135.791 194.974 136.9C199.652 138.008 204.344 135.114 205.453 130.436Z" fill="#1765EE"/>
<path d="M255.567 121.297H209.213V125.795H255.567V121.297Z" fill="#1E56C1"/>
<path d="M309.355 335.018H234.639V339.516H309.355V335.018Z" fill="#19DFDF"/>
</g>
<g filter="url(#filter3_d_1397_3897)">
<path d="M394.252 152.811H177.541V293.635H394.252V152.811Z" fill="#1765EE"/>
<path d="M334.158 306.22C327.19 306.22 320.154 302.991 314.624 300.453C307.384 297.131 302.73 288.118 304.248 280.356C305.297 274.977 309.28 270.427 314.143 269.036C314.664 268.885 315.198 268.769 315.731 268.653C316.554 268.474 317.331 268.306 318.067 268.01C320.762 266.949 322.872 264.19 323.713 260.643C324.437 257.582 324.229 254.319 324.031 251.166L323.997 250.638C323.66 245.207 323.498 239.468 325.475 234.199C327.301 229.336 331.822 224.23 337.798 223.777C338.517 223.725 339.235 223.737 339.931 223.748C340.922 223.766 341.855 223.783 342.777 223.627C347.078 222.867 349.82 218.375 352.017 214.77C354.225 211.153 357.772 206.365 362.833 206.44C365.963 206.498 369.023 208.655 370.449 211.808C371.672 214.509 371.765 217.842 370.71 221.186C370.42 222.12 370.043 223.064 369.684 223.98C368.542 226.884 367.458 229.626 368.548 232.182C369.035 233.324 369.91 234.246 370.832 235.225C371.168 235.585 371.51 235.938 371.829 236.309C376.379 241.561 377.011 249.954 373.295 255.826C370.843 259.71 366.879 262.416 363.047 265.031C358.213 268.329 353.645 271.447 352.109 276.664C351.309 279.371 351.512 282.188 351.721 285.162C351.901 287.712 352.086 290.349 351.582 292.917C350.568 298.093 346.684 302.661 341.45 304.823C339.073 305.809 336.615 306.208 334.152 306.208L334.158 306.22ZM338.975 224.914C338.609 224.914 338.25 224.919 337.891 224.948C332.43 225.36 328.269 230.101 326.576 234.611C324.681 239.665 324.843 245.259 325.173 250.563L325.208 251.09C325.411 254.33 325.625 257.681 324.86 260.909C323.933 264.834 321.556 267.894 318.502 269.1C317.673 269.424 316.815 269.616 315.986 269.795C315.476 269.905 314.972 270.016 314.473 270.161C310.016 271.436 306.375 275.621 305.407 280.577C304.011 287.712 308.462 296.326 315.122 299.38C322.408 302.725 332.402 307.304 341.015 303.745C345.89 301.728 349.507 297.496 350.446 292.697C350.915 290.286 350.736 287.729 350.562 285.254C350.353 282.304 350.139 279.255 350.996 276.34C352.654 270.723 357.604 267.338 362.398 264.068C366.131 261.518 369.991 258.886 372.316 255.206C375.765 249.751 375.173 241.961 370.954 237.08C370.646 236.727 370.316 236.379 369.991 236.037C369.035 235.028 368.05 233.985 367.476 232.646C366.2 229.649 367.418 226.554 368.6 223.557C368.954 222.659 369.319 221.731 369.603 220.839C370.571 217.767 370.496 214.735 369.388 212.295C368.148 209.547 365.505 207.669 362.821 207.617C358.352 207.571 355.083 212.011 353.025 215.384C350.701 219.192 347.808 223.934 342.986 224.786C341.954 224.966 340.916 224.948 339.914 224.931C339.595 224.931 339.282 224.919 338.975 224.919V224.914Z" fill="#F9F9FA"/>
<path d="M373.467 199.457C371.282 199.457 369.508 197.677 369.508 195.498C369.508 193.319 371.282 191.539 373.467 191.539C375.652 191.539 377.426 193.319 377.426 195.498C377.426 197.677 375.652 199.457 373.467 199.457ZM373.467 192.71C371.931 192.71 370.679 193.962 370.679 195.498C370.679 197.034 371.931 198.286 373.467 198.286C375.003 198.286 376.255 197.034 376.255 195.498C376.255 193.962 375.003 192.71 373.467 192.71Z" fill="#F9F9FA"/>
<path d="M356.011 178.629C356.011 179.44 355.356 180.095 354.545 180.095C353.733 180.095 353.078 179.44 353.078 178.629C353.078 177.817 353.733 177.162 354.545 177.162C355.356 177.162 356.011 177.817 356.011 178.629Z" fill="#F9F9FA"/>
<path d="M198.321 265.173C199.374 265.173 200.228 264.32 200.228 263.266C200.228 262.213 199.374 261.359 198.321 261.359C197.268 261.359 196.414 262.213 196.414 263.266C196.414 264.32 197.268 265.173 198.321 265.173Z" fill="#F9F9FA"/>
<path d="M373.177 273.684C371.154 273.684 369.508 272.038 369.508 270.015C369.508 267.992 371.154 266.346 373.177 266.346C375.2 266.346 376.846 267.992 376.846 270.015C376.846 272.038 375.2 273.684 373.177 273.684ZM373.177 267.522C371.803 267.522 370.685 268.641 370.685 270.015C370.685 271.389 371.803 272.507 373.177 272.507C374.551 272.507 375.669 271.389 375.669 270.015C375.669 268.641 374.551 267.522 373.177 267.522Z" fill="#F9F9FA"/>
<path d="M253.429 262.736C253.429 262.736 242.085 281.511 238.758 297.747H315.23C315.23 297.747 309.364 269.582 302.71 262.933L253.423 262.736H253.429Z" fill="#302AFF"/>
<path d="M251.568 268.261C269.3 267.809 287.234 267.809 304.965 268.261C287.234 268.719 269.3 268.713 251.568 268.261Z" fill="white"/>
<path d="M259.346 268.703C257.99 273.375 254.836 279.247 249.55 280.024C248.796 280.087 248.037 280.041 247.318 279.85C253.555 280.18 256.929 273.485 259.346 268.703Z" fill="white"/>
<path d="M282.224 268.117C282.416 275.403 282.508 283.391 282.532 290.706V290.833L282.439 290.926C280.393 292.984 278.358 295.059 276.295 297.105L275.721 297.673V296.867C275.755 287.332 275.796 277.797 276.057 268.262C276.19 273.027 276.254 277.797 276.306 282.562C276.37 287.326 276.358 292.097 276.387 296.862L275.819 296.624C277.865 294.566 279.941 292.532 281.998 290.48L281.905 290.694C281.929 283.373 282.021 275.397 282.213 268.105L282.224 268.117Z" fill="white"/>
<path d="M299.539 268.264C299.777 274.06 301.759 279.196 308.489 278.68C301.695 280.419 298.594 274.141 299.539 268.264Z" fill="white"/>
<path d="M341.418 185.592L331.981 185.876C331.981 185.876 328.926 199.758 324.747 218.272C323.368 216.081 322.075 214 320.881 212.064C316.673 220.318 311.514 227.993 305.955 235.395C309.103 240.739 312.725 246.576 316.829 252.656C316.887 252.743 316.945 252.825 316.997 252.912C324.289 263.67 341.11 259.717 342.82 246.831C342.838 246.686 342.861 246.535 342.878 246.391C345.423 227.094 345.864 205.931 341.406 185.592H341.418Z" fill="white"/>
<path d="M335.84 171.63C335.626 169.172 335.307 166.605 334.907 166.692C334.246 166.831 333.852 168.546 333.562 170.714C334.333 170.958 335.099 171.259 335.84 171.63Z" fill="#05E2FF"/>
<path d="M339.83 174.65C339.789 172.007 339.604 166.842 338.729 166.367C338.045 165.996 337.285 169.294 336.77 172.134C337.964 172.841 339.03 173.693 339.83 174.65Z" fill="#05E2FF"/>
<path d="M346.4 171.156C345.774 171.608 344.713 172.883 343.363 176.46C343.363 176.46 344.284 168.391 343.363 167.243C342.638 166.333 340.841 172.478 340.128 175.063C340.58 175.683 340.934 176.332 341.125 177.01C341.409 178.042 341.479 178.981 341.38 179.828C342.493 182.859 340.633 186.412 337.398 187.525C336.146 187.96 334.848 188.018 333.567 187.844C332.57 188.186 331.503 188.285 330.541 188.128C331.271 189.403 332.141 190.707 333.202 191.994L339.769 190.742C339.769 190.742 346.962 177.167 347.049 171.486C347.049 171.121 346.69 170.942 346.394 171.15L346.4 171.156Z" fill="white"/>
<path d="M323.353 232.91C323.498 228.023 323.95 223.16 324.53 218.309L325.074 218.488C324.205 219.856 323.336 221.23 322.42 222.575C322.118 223.027 321.811 223.473 321.498 223.914C322.652 221.595 323.933 219.306 325.219 217.057C324.814 222.36 324.263 227.67 323.359 232.916L323.353 232.91Z" fill="#19DFDF"/>
<path d="M326.684 167.766L338.01 188.97C338.497 189.88 339.552 190.326 340.549 190.048C342.635 189.468 345.945 188.146 346.762 185.48C347.98 181.504 337.761 161.703 337.761 161.703L326.684 167.766Z" fill="#1765EE"/>
<path d="M314.517 140.24L310.691 141.382C309.538 141.73 308.819 142.866 308.993 144.06C309.514 147.532 311.05 155.096 315.398 165.165C315.885 166.289 317.137 166.875 318.308 166.521L321.698 165.507L314.517 140.24Z" fill="#1765EE"/>
<path d="M333.36 130.006L315.333 135.397C312.684 136.191 312.782 144.358 315.565 153.638C318.347 162.918 322.741 169.798 325.39 169.01L343.417 163.619L333.36 130.006Z" fill="#2110BD"/>
<path d="M343.185 145.37C345.961 154.65 346.066 162.817 343.411 163.611C340.762 164.406 336.363 157.525 333.586 148.239C330.81 138.959 330.705 130.792 333.354 129.998C336.003 129.204 340.403 136.084 343.179 145.37H343.185Z" fill="#1765EE"/>
<path d="M367.364 108.309L333.971 134.068L334.081 136.358C334.51 145.081 337.309 153.77 342.039 161.045L383.658 161.294L367.364 108.309Z" fill="#1765EE"/>
<path d="M389.399 130.648C393.828 145.446 391.944 159.08 385.197 161.103C379.968 162.668 373.355 156.807 368.578 147.203C367.193 144.409 365.958 141.296 364.956 137.963C364.057 134.949 363.414 131.981 363.02 129.158C361.495 118.093 363.785 109.114 369.158 107.509C375.905 105.492 384.971 115.856 389.393 130.654L389.399 130.648Z" fill="#2110BD"/>
<path d="M375.612 134.771C378.36 143.964 378.679 152.705 376.905 158.49C372.244 154.624 367.706 147.146 364.958 137.953C362.211 128.76 361.892 120.019 363.666 114.229C368.326 118.089 372.865 125.572 375.612 134.765V134.771Z" fill="#0063F8"/>
<path d="M375.766 128.145L379.383 140.23L368.584 147.203C367.199 144.409 365.964 141.297 364.961 137.964C364.063 134.95 363.42 131.982 363.025 129.159L375.766 128.15V128.145Z" fill="#14C4EB"/>
<path d="M380.327 133.36C381.324 136.699 380.901 139.771 379.377 140.223C377.852 140.681 375.812 138.345 374.815 135.006C373.818 131.667 374.241 128.595 375.766 128.143C377.29 127.685 379.33 130.021 380.327 133.36Z" fill="#1765EE"/>
<path d="M337.33 132.094C338.739 141.269 340.773 150.712 345.862 158.607C346.378 159.424 347.033 160.154 347.596 160.943C340.57 153.801 337.846 141.849 337.33 132.094Z" fill="#19DFDF"/>
<path d="M322.762 165.539C327.648 163.597 332.668 162.09 337.821 161.041C332.934 162.989 327.909 164.484 322.762 165.539Z" fill="#19DFDF"/>
<path d="M378.797 133.462C379.012 134.297 379.655 137.658 377.928 136.922C376.462 136.157 375.14 131.23 376.902 130.425C378.038 130.378 378.542 132.592 378.797 133.462ZM378.797 133.462C378.571 132.604 378.241 131.723 377.621 131.068C377.43 130.865 377.151 130.685 376.983 130.755C376.038 131.375 377.296 136.58 378.426 136.702C378.606 136.685 378.774 136.395 378.85 136.128C379.099 135.265 378.989 134.331 378.797 133.462Z" fill="#19DFDF"/>
<path d="M370.188 108.623C375.694 109.927 379.885 113.596 382.534 118.523C387.71 127.537 392.73 139.976 390.788 150.485C389.988 154.009 388.724 158.194 385.125 159.759C383.855 160.287 382.389 160.263 381.137 159.771C383.769 160.721 386.586 159.255 387.965 156.954C394.469 145.436 387.867 129.444 382.088 118.778C379.613 113.892 375.509 110.159 370.188 108.623Z" fill="#19DFDF"/>
<path d="M331.464 190.23C331.464 190.23 327.552 181.623 327.946 179.669C328.334 177.716 332.786 172.922 334.89 173.705C336.994 174.487 333.766 180.55 333.766 180.55C333.766 180.55 339 186.909 338.408 190.132C337.817 193.355 331.464 190.23 331.464 190.23Z" fill="white"/>
<path d="M293.283 183.293C293.283 183.293 310.342 192.324 313.275 195.848C316.208 199.366 324.033 215.991 324.033 215.991L307.014 238.875C307.014 238.875 288.843 211.782 293.283 183.293Z" fill="#2110BD"/>
<path d="M296.664 189.224C295.939 188.013 295.708 186.824 295.824 185.729C294.856 185.033 294.003 184.256 293.227 183.323C292.925 182.233 292.23 179.579 291.702 176.588C291.239 173.91 290.908 170.965 291.14 168.658V168.647C291.244 167.505 291.488 166.519 291.923 165.795L266.001 151.217C266.018 151.304 266.03 151.379 266.047 151.466C266.459 153.872 269.583 172.756 266.378 182.773C264.43 183.671 262.03 184.309 259.057 184.413C255.851 184.523 252.715 185.665 250.38 187.862C247.858 190.233 245.621 194.221 245.58 200.863C247.951 201.159 250.322 201.628 252.687 202.051C259.758 203.321 266.818 204.677 273.907 205.848C283.048 207.361 292.421 207.691 301.666 208.717C301.266 201.831 299.91 194.69 296.652 189.224H296.664Z" fill="white"/>
<path d="M291.708 176.588C277.617 178.367 270.476 161.534 270.215 160.908C272.817 165.041 276.591 167.128 280.272 168.125C284.81 169.365 289.21 168.948 291.059 168.675C291.088 168.664 291.117 168.664 291.146 168.658C290.914 170.971 291.244 173.91 291.708 176.588Z" fill="#19DFDF"/>
<path d="M265.749 182.545C265.749 182.545 282.373 200.931 287.265 197.998C292.158 195.065 293.386 183.849 293.386 183.849C293.386 183.849 310.15 198.387 312.497 203.082C314.845 207.777 314.648 216.97 308.782 231.444C302.916 245.917 305.113 265.474 305.113 265.474H251.472C251.472 265.474 255.97 256.084 254.603 245.135C253.235 234.18 240.326 199.175 240.326 199.175C240.326 199.175 237.781 183.136 265.755 182.551L265.749 182.545Z" fill="#6B7CFE"/>
<path d="M265.252 184.501C269.692 189.428 281.14 202.4 288.339 199.415C293.556 196.998 294.257 189.312 294.396 184.211C294.651 189.48 294.049 197.456 288.577 199.983C280.827 203.27 269.518 190.06 265.252 184.507V184.501Z" fill="#1765EE"/>
<path d="M303.955 206.145C304.784 208.765 305.961 211.211 307.207 213.651C310.98 220.491 310.47 226.513 307.833 233.643C307.352 234.924 306.853 236.205 306.308 237.457C306.708 236.147 307.143 234.848 307.514 233.538C309.734 226.357 310.244 220.757 306.737 213.871C305.595 211.39 304.512 208.834 303.955 206.145Z" fill="#1765EE"/>
<path d="M278.848 236.901C282.65 236.003 286.795 236.356 290.388 237.887C286.516 237.261 282.766 236.936 278.848 236.901Z" fill="#1765EE"/>
<path d="M234.753 232.132C233.657 231.112 232.55 230.103 231.461 229.071C226.418 224.289 221.212 219.733 216.216 214.969C214.825 216.482 213.41 218.035 211.985 219.646C208.762 223.287 205.475 227.17 202.194 231.28C198.009 236.531 197.847 243.91 201.783 249.347C204.385 252.947 207.133 256.518 210.025 260.024C218.448 270.238 228.116 279.871 239.1 287.865L245.946 281.384C245.946 281.384 236.341 264.233 224.818 243.238C228.203 239.424 231.536 235.691 234.735 232.132H234.753Z" fill="white"/>
<path d="M238.656 285.927C238.656 285.927 242.291 300.853 246 305.159C246.238 305.432 246.632 305.327 246.713 304.974C246.881 304.22 246.823 302.563 245.461 298.992C245.461 298.992 250.133 305.635 251.576 305.884C253.02 306.133 248.278 296.847 248.278 296.847C248.278 296.847 254.324 303.757 255.628 303.449C256.932 303.142 251.165 294.54 251.165 294.54C251.165 294.54 257.808 301.299 258.271 300.679C259.425 299.131 250.353 289.387 251.478 288.541C252.475 287.793 255.466 289.15 256.874 290.106C257.17 290.309 257.547 290.216 257.709 289.892C258.022 289.254 258.219 288.153 256.805 287.046C254.625 285.341 249.872 281.753 242.737 280.629L238.656 285.927Z" fill="white"/>
<path d="M220.361 238.689C222.187 239.86 223.694 241.362 224.859 243.187C223.033 242.022 221.532 240.51 220.361 238.689Z" fill="#19DFDF"/>
<path d="M211.566 218.93L231.124 236.922L255.77 211.493C255.77 211.493 257.37 185.108 252.083 184.627C244.235 183.914 219.003 208.166 211.572 218.924L211.566 218.93Z" fill="#2110BD"/>
<path d="M247.457 220.002L257.433 210.617L250.193 228.708L247.457 220.002Z" fill="#1765EE"/>
<path d="M304.969 145.01C304.679 137.37 303.752 129.505 301.12 122.746C297.735 114.04 281.778 110.655 270.648 120.329C265.478 124.821 264.388 132.965 264.696 140.408C264.429 140.274 264.185 140.176 264.029 140.135C261.763 139.573 259.49 141.277 258.812 143.404C258.273 145.103 258.638 147.016 259.606 148.511C260.412 149.751 261.716 150.911 263.113 151.444C263.461 151.577 265.026 151.838 266.133 151.745C267.2 156.638 269.686 161.159 273.541 164.358C278.404 168.404 284.624 170.016 290.826 168.729C295.643 167.732 302.761 164.648 304.534 159.646C304.998 158.342 305.039 156.939 305.056 155.554C305.068 155.235 305.068 154.916 305.068 154.597C305.097 151.514 305.097 148.279 304.969 145.022V145.01Z" fill="white"/>
<path d="M296.25 140.21C296.25 141.828 296.888 143.132 297.676 143.132C298.464 143.132 299.102 141.822 299.102 140.21C299.102 138.599 298.464 137.289 297.676 137.289C296.888 137.289 296.25 138.599 296.25 140.21Z" fill="#1765EE"/>
<path d="M300.593 136.358C300.349 136.833 300.036 137.245 299.625 137.604C299.219 137.964 298.709 138.248 298.129 138.375H298.106C297.822 138.445 297.538 138.271 297.474 137.981C297.41 137.697 297.584 137.413 297.868 137.349C297.915 137.338 297.961 137.332 298.007 137.338C298.807 137.367 299.694 136.885 300.297 136.178L300.309 136.167C300.372 136.097 300.477 136.086 300.546 136.149C300.61 136.201 300.622 136.288 300.587 136.358H300.593Z" fill="#1765EE"/>
<path d="M280.151 139.816C280.754 140.523 281.641 141.01 282.441 140.975C282.731 140.964 282.98 141.19 282.992 141.486C283.003 141.775 282.777 142.025 282.482 142.036C282.435 142.036 282.389 142.036 282.343 142.025H282.314C281.734 141.885 281.224 141.607 280.818 141.248C280.412 140.889 280.094 140.471 279.85 140.002C279.81 139.921 279.838 139.816 279.925 139.77C279.995 139.735 280.082 139.752 280.134 139.81L280.146 139.822L280.151 139.816Z" fill="#1765EE"/>
<path d="M282.05 141.049C282.549 140.516 283.071 140.168 283.685 139.896C284.294 139.641 284.966 139.502 285.627 139.554C286.282 139.612 286.914 139.803 287.47 140.099C287.754 140.238 288.003 140.429 288.264 140.591L288.971 141.177C289.105 141.287 289.128 141.49 289.018 141.623C288.913 141.751 288.728 141.774 288.595 141.681L288.566 141.658L287.876 141.177C287.627 141.055 287.395 140.899 287.14 140.8C286.641 140.58 286.114 140.475 285.598 140.464C285.082 140.464 284.584 140.609 284.126 140.841C283.679 141.067 283.245 141.438 282.966 141.785L282.937 141.82C282.734 142.075 282.363 142.116 282.108 141.913C281.853 141.71 281.813 141.339 282.016 141.084C282.027 141.073 282.033 141.061 282.045 141.049H282.05Z" fill="#1765EE"/>
<path d="M296.854 149.053C296.356 150.015 295.602 150.85 294.704 151.499C293.8 152.148 292.669 152.571 291.504 152.56C290.345 152.531 289.209 152.136 288.322 151.464C287.858 151.157 287.493 150.734 287.087 150.369C286.751 149.934 286.421 149.505 286.131 149.053C286.571 149.377 286.977 149.719 287.377 150.056C287.829 150.328 288.229 150.664 288.681 150.896C289.568 151.406 290.536 151.684 291.504 151.696C292.478 151.719 293.446 151.412 294.339 150.931C295.231 150.438 296.072 149.8 296.848 149.059L296.854 149.053Z" fill="#1765EE"/>
<path d="M293.001 154.24C292.595 154.6 292.033 154.733 291.499 154.75C290.96 154.733 290.41 154.588 289.992 154.24C290.52 154.321 291.001 154.426 291.499 154.408C291.998 154.426 292.479 154.339 293.001 154.24Z" fill="#1765EE"/>
<path d="M287.919 130.069C287.253 129.478 286.499 129.287 285.705 129.252C284.917 129.235 284.111 129.327 283.346 129.588C282.575 129.826 281.862 130.255 281.271 130.776C280.651 131.275 280.216 131.942 279.856 132.591C279.671 132.921 279.793 133.339 280.123 133.518C280.39 133.663 280.709 133.617 280.917 133.425L280.975 133.373C281.439 132.944 281.885 132.544 282.384 132.255C282.865 131.93 283.404 131.756 283.943 131.617C284.488 131.489 285.05 131.426 285.63 131.455C286.198 131.472 286.806 131.501 287.432 131.35L287.612 131.304C287.995 131.211 288.232 130.823 288.14 130.44C288.105 130.295 288.024 130.168 287.919 130.075V130.069Z" fill="#1765EE"/>
<path d="M295.061 130.069C295.727 129.478 296.481 129.287 297.275 129.252C298.057 129.235 298.869 129.327 299.634 129.588C300.405 129.826 301.118 130.255 301.709 130.776C302.329 131.275 302.764 131.942 303.123 132.591C303.309 132.921 303.187 133.339 302.857 133.518C302.59 133.663 302.271 133.617 302.063 133.425L302.005 133.373C301.541 132.944 301.095 132.544 300.596 132.255C300.115 131.93 299.576 131.756 299.037 131.617C298.492 131.489 297.93 131.426 297.35 131.455C296.782 131.472 296.174 131.501 295.548 131.35L295.368 131.304C294.985 131.211 294.748 130.823 294.84 130.44C294.875 130.295 294.956 130.168 295.061 130.075V130.069Z" fill="#1765EE"/>
<path d="M291.822 135.744C292.077 136.845 292.263 137.941 292.466 139.025C292.674 140.103 292.877 141.187 293.184 142.207C293.254 142.462 293.335 142.717 293.428 142.961C293.503 143.164 293.683 143.546 293.677 143.905C293.712 144.636 293.248 145.349 292.651 145.639C292.043 145.981 291.341 145.928 290.785 145.737C290.222 145.534 289.736 145.227 289.307 144.856C290.333 145.239 291.527 145.54 292.251 144.995C292.616 144.717 292.808 144.352 292.755 143.952C292.738 143.749 292.674 143.616 292.541 143.303C292.431 143.03 292.332 142.752 292.251 142.474C291.938 141.361 291.776 140.236 291.712 139.112C291.648 137.987 291.672 136.863 291.816 135.738L291.822 135.744Z" fill="#1765EE"/>
<path d="M260.603 144.98C260.585 144.308 260.771 143.566 261.362 143.044C261.994 142.528 262.886 142.575 263.57 142.83C264.295 143.079 264.886 143.578 265.35 144.128C265.825 144.691 266.173 145.299 266.457 145.995C266.556 146.244 266.44 146.528 266.19 146.632C266.005 146.708 265.796 146.661 265.663 146.522L265.628 146.487C265.153 146.006 264.556 145.49 263.994 145.328C263.71 145.253 263.501 145.264 263.304 145.404C263.101 145.548 262.944 145.85 262.811 146.163C262.562 146.806 262.411 147.554 262.956 147.85C263.53 148.174 264.37 148.099 265.118 147.995C264.411 148.308 263.628 148.568 262.742 148.313C262.289 148.168 261.93 147.653 261.901 147.195C261.855 146.731 261.924 146.314 262.04 145.902C262.162 145.496 262.33 145.062 262.73 144.708C263.136 144.343 263.773 144.262 264.225 144.401C265.153 144.679 265.773 145.212 266.359 145.832L265.53 146.325C265.083 145.206 264.347 144.041 263.286 143.514C262.753 143.259 262.127 143.131 261.623 143.415C261.095 143.688 260.782 144.331 260.603 144.975V144.98Z" fill="#19DFDF"/>
<path d="M302.577 125.28C301.939 122.527 300.797 119.982 298.856 117.866C294.711 113.339 288.092 112.105 281.971 111.966C277.838 111.861 273.589 112.163 269.873 113.971C264.007 116.8 260.472 122.793 256.165 127.68C249.737 134.977 240.978 140.188 231.495 142.374C223.74 144.159 215.677 143.933 207.73 144.652C199.795 145.353 191.593 147.185 185.506 152.326C180.765 156.314 177.513 162.151 171.989 164.951C168.929 166.522 165.428 166.991 162.002 167.449L156.391 168.179C148.143 169.269 143.471 178.497 147.812 185.603C147.835 185.65 147.87 185.696 147.893 185.754C150.745 190.333 155.336 193.886 157.069 199.005C158.652 203.688 157.562 208.818 157.939 213.745C158.547 221.489 162.947 228.671 169.039 233.493C175.131 238.316 182.782 240.913 190.503 241.753C193.332 242.072 196.183 242.153 199.035 242.014C198.659 238.258 199.725 234.386 202.206 231.279C205.493 227.17 208.779 223.286 211.99 219.64C212.037 219.582 212.095 219.524 212.153 219.466L211.567 218.927C218.998 208.18 244.224 183.922 252.078 184.635C253.968 184.201 255.742 184.212 257.347 184.577C257.91 184.485 258.483 184.438 259.063 184.415C262.031 184.311 264.436 183.685 266.384 182.798C269.497 173.083 266.656 155.045 266.088 151.746C264.987 151.839 263.457 151.584 263.109 151.451C261.724 150.923 260.408 149.758 259.614 148.518C258.64 147.028 258.275 145.115 258.814 143.411C259.44 141.452 261.434 139.864 263.521 140.072C264.5 141.742 265.683 143.289 267.056 144.652C267.485 145.075 267.995 145.504 268.598 145.475C269.375 145.434 269.873 144.657 270.244 143.968C270.714 143.081 271.531 142.171 272.001 141.284C277.571 141.603 283.228 139.128 286.77 134.821C287.854 133.499 288.747 132.033 289.634 130.572C290.822 128.619 292.004 126.659 293.193 124.706C295.824 127.639 299.98 132.943 303.893 133.412C303.893 133.412 304.014 129.563 302.583 125.292L302.577 125.28Z" fill="#1765EE"/>
</g>
<g filter="url(#filter4_dii_1397_3897)">
<path d="M505.809 69.1136C505.389 69.1128 504.983 69.2582 504.659 69.5249C504.335 69.7915 504.115 70.1627 504.035 70.5745C503.956 70.9864 504.022 71.413 504.224 71.781C504.57 72.415 505.409 72.1399 505.882 71.5935C506.12 71.318 506.379 71.0524 506.657 70.7976C507.093 70.3962 507.274 69.7107 506.773 69.3931C506.485 69.2103 506.15 69.1134 505.809 69.1136ZM520.324 78.3777C519.577 78.9639 518.104 79.5952 516.631 79.5952C515.158 79.5952 513.68 78.9639 512.939 78.3777C512.473 78.0119 511.801 78.0921 511.435 78.5581C511.07 79.024 511.15 79.6954 511.616 80.0612C512.903 81.0833 514.873 81.7396 516.631 81.7396C518.39 81.7396 520.359 81.0833 521.652 80.0612C522.118 79.6954 522.198 79.019 521.832 78.5581C521.656 78.3344 521.398 78.1899 521.115 78.156C520.832 78.1222 520.548 78.2019 520.324 78.3777ZM535.069 52.6797H498.193C497.306 52.6797 496.59 53.3962 496.59 54.283V91.1591C496.59 92.0459 497.306 92.7624 498.193 92.7624H535.069C535.956 92.7624 536.673 92.0459 536.673 91.1591V54.283C536.673 53.3962 535.956 52.6797 535.069 52.6797ZM530.509 72.8353C529.859 73.863 529.257 75.1127 529.257 76.3285C529.257 81.3087 523.606 85.3471 516.631 85.3471C509.657 85.3471 504.005 81.3087 504.005 76.3285C504.005 75.1132 503.401 73.8644 502.755 72.8348C502.7 72.7474 502.649 72.6574 502.601 72.5651C502.224 71.8288 502.11 70.9851 502.281 70.1753C502.451 69.3655 502.894 68.6389 503.537 68.1172C504.179 67.5955 504.981 67.3104 505.809 67.3099C507.931 67.3099 510.47 68.3002 512.531 67.7952C512.644 67.7676 512.757 67.7411 512.871 67.7158C514.394 67.3773 515.775 66.4641 516.41 65.0392L518.305 60.7864C518.52 60.2954 519.066 60.0449 519.582 60.1952L522.451 61.0251C523.455 61.3155 524.507 60.7506 525.464 60.3292C526.015 60.0862 526.632 60.0342 527.217 60.1815C527.801 60.3288 528.32 60.6668 528.69 61.1422C529.061 61.6175 529.262 62.2029 529.262 62.8056C529.262 64.2987 528.05 65.5112 526.557 65.5112C525.949 65.5112 525.387 65.3094 524.935 64.9693C524.137 64.3678 523.436 63.538 522.475 63.2609L521.802 63.0669C520.705 62.7505 519.542 63.2914 519.077 64.3347C518.427 65.7941 519.443 67.4608 520.989 67.866C521.24 67.9318 521.487 68.0032 521.731 68.0798C523.21 68.546 524.951 67.8976 526.439 67.4606C526.762 67.3657 527.104 67.3149 527.459 67.3149C529.453 67.3149 531.066 68.9282 531.066 70.9223C531.064 71.6242 530.86 72.2803 530.509 72.8353ZM520.239 74.5247C520.239 75.0031 520.429 75.4619 520.767 75.8002C521.105 76.1384 521.564 76.3285 522.042 76.3285C522.521 76.3285 522.98 76.1384 523.318 75.8002C523.656 75.4619 523.846 75.0031 523.846 74.5247C523.846 74.0464 523.656 73.5876 523.318 73.2493C522.98 72.9111 522.521 72.721 522.042 72.721C521.564 72.721 521.105 72.9111 520.767 73.2493C520.429 73.5876 520.239 74.0464 520.239 74.5247ZM527.454 69.1136C527.112 69.1134 526.778 69.2103 526.489 69.3931C525.988 69.7107 526.169 70.3962 526.606 70.7976C526.883 71.0524 527.142 71.318 527.38 71.5935C527.853 72.1399 528.692 72.415 529.039 71.781C529.24 71.413 529.307 70.9864 529.227 70.5745C529.148 70.1627 528.927 69.7915 528.603 69.5249C528.28 69.2582 527.873 69.1128 527.454 69.1136ZM509.416 74.5247C509.416 75.0031 509.606 75.4619 509.945 75.8002C510.283 76.1384 510.742 76.3285 511.22 76.3285C511.698 76.3285 512.157 76.1384 512.495 75.8002C512.834 75.4619 513.024 75.0031 513.024 74.5247C513.024 74.0464 512.834 73.5876 512.495 73.2493C512.157 72.9111 511.698 72.721 511.22 72.721C510.742 72.721 510.283 72.9111 509.945 73.2493C509.606 73.5876 509.416 74.0464 509.416 74.5247Z" fill="url(#paint1_linear_1397_3897)"/>
</g>
<g filter="url(#filter5_dii_1397_3897)">
<path d="M117.522 362.462C117.522 350.767 108.03 341.275 96.335 341.275C84.64 341.275 75.1484 350.767 75.1484 362.462C75.1484 372.716 82.4366 381.254 92.0977 383.225V368.818H87.8604V362.462H92.0977V357.165C92.0977 353.076 95.424 349.75 99.513 349.75H104.81V356.106H100.572C99.407 356.106 98.4537 357.059 98.4537 358.225V362.462H104.81V368.818H98.4537V383.543C109.153 382.483 117.522 373.458 117.522 362.462Z" fill="#19DFDF"/>
</g>
<g filter="url(#filter6_ii_1397_3897)">
<path d="M529.008 303.486C531.153 303.478 533.298 303.499 535.442 303.551L536.013 303.571C536.671 303.595 537.321 303.624 538.106 303.659C541.233 303.806 543.367 304.3 545.24 305.026C547.18 305.773 548.814 306.784 550.448 308.418C551.943 309.887 553.099 311.663 553.838 313.624C554.564 315.497 555.057 317.634 555.204 320.761C555.24 321.543 555.269 322.196 555.293 322.854L555.31 323.424C555.362 325.568 555.385 327.712 555.378 329.856L555.381 332.049V335.899C555.388 338.044 555.365 340.19 555.313 342.334L555.295 342.904C555.272 343.563 555.243 344.212 555.207 344.997C555.06 348.125 554.561 350.259 553.838 352.131C553.102 354.094 551.945 355.872 550.448 357.34C548.978 358.834 547.201 359.991 545.24 360.729C543.367 361.455 541.233 361.949 538.106 362.096C537.321 362.131 536.671 362.161 536.013 362.184L535.442 362.202C533.298 362.254 531.153 362.277 529.008 362.269L526.815 362.272H522.967C520.822 362.28 518.677 362.257 516.533 362.205L515.963 362.187C515.265 362.162 514.567 362.132 513.87 362.099C510.742 361.952 508.608 361.452 506.733 360.729C504.771 359.992 502.994 358.836 501.527 357.34C500.031 355.871 498.873 354.093 498.135 352.131C497.409 350.259 496.915 348.125 496.768 344.997C496.735 344.3 496.706 343.602 496.68 342.904L496.665 342.334C496.611 340.19 496.586 338.045 496.592 335.899V329.856C496.583 327.712 496.605 325.568 496.656 323.424L496.677 322.854C496.7 322.196 496.73 321.543 496.765 320.761C496.912 317.631 497.406 315.5 498.132 313.624C498.871 311.662 500.031 309.887 501.53 308.421C502.996 306.924 504.772 305.766 506.733 305.026C508.608 304.3 510.739 303.806 513.87 303.659L515.963 303.571L516.533 303.557C518.676 303.502 520.82 303.478 522.964 303.483L529.008 303.486ZM525.986 318.183C524.039 318.156 522.105 318.516 520.298 319.242C518.491 319.968 516.846 321.046 515.459 322.413C514.073 323.781 512.971 325.41 512.22 327.207C511.468 329.003 511.081 330.932 511.081 332.879C511.081 334.827 511.468 336.755 512.22 338.552C512.971 340.348 514.073 341.978 515.459 343.345C516.846 344.712 518.491 345.79 520.298 346.517C522.105 347.243 524.039 347.603 525.986 347.575C529.884 347.575 533.622 346.027 536.379 343.27C539.135 340.514 540.683 336.776 540.683 332.878C540.683 328.98 539.135 325.241 536.379 322.485C533.622 319.729 529.884 318.183 525.986 318.183ZM525.986 324.062C527.158 324.041 528.321 324.253 529.41 324.686C530.499 325.119 531.49 325.765 532.326 326.586C533.162 327.407 533.826 328.386 534.28 329.466C534.733 330.546 534.967 331.706 534.967 332.878C534.967 334.049 534.734 335.209 534.281 336.29C533.828 337.37 533.164 338.349 532.328 339.17C531.492 339.991 530.501 340.637 529.413 341.071C528.324 341.505 527.16 341.717 525.989 341.696C523.65 341.696 521.407 340.767 519.754 339.113C518.1 337.459 517.171 335.216 517.171 332.878C517.171 330.539 518.1 328.296 519.754 326.642C521.407 324.988 523.65 324.059 525.989 324.059L525.986 324.062ZM541.418 313.774C540.47 313.812 539.573 314.216 538.916 314.9C538.258 315.584 537.891 316.496 537.891 317.446C537.891 318.395 538.258 319.307 538.916 319.991C539.573 320.676 540.47 321.079 541.418 321.117C542.393 321.117 543.327 320.73 544.016 320.041C544.706 319.352 545.093 318.417 545.093 317.443C545.093 316.468 544.706 315.534 544.016 314.844C543.327 314.155 542.393 313.768 541.418 313.768V313.774Z" fill="#0063F8"/>
</g>
<defs>
<filter id="filter0_dii_1397_3897" x="0.975434" y="0" width="526.749" height="367.689" filterUnits="userSpaceOnUse" color-interpolation-filters="sRGB">
<feFlood flood-opacity="0" result="BackgroundImageFix"/>
<feColorMatrix in="SourceAlpha" type="matrix" values="0 0 0 0 0 0 0 0 0 0 0 0 0 0 0 0 0 0 127 0" result="hardAlpha"/>
<feOffset dy="2.02457"/>
<feGaussianBlur stdDeviation="1.01228"/>
<feComposite in2="hardAlpha" operator="out"/>
<feColorMatrix type="matrix" values="0 0 0 0 0 0 0 0 0 0 0 0 0 0 0 0 0 0 0.25 0"/>
<feBlend mode="normal" in2="BackgroundImageFix" result="effect1_dropShadow_1397_3897"/>
<feBlend mode="normal" in="SourceGraphic" in2="effect1_dropShadow_1397_3897" result="shape"/>
<feColorMatrix in="SourceAlpha" type="matrix" values="0 0 0 0 0 0 0 0 0 0 0 0 0 0 0 0 0 0 127 0" result="hardAlpha"/>
<feOffset dx="14.6781" dy="11.1351"/>
<feGaussianBlur stdDeviation="3.54299"/>
<feComposite in2="hardAlpha" operator="arithmetic" k2="-1" k3="1"/>
<feColorMatrix type="matrix" values="0 0 0 0 0 0 0 0 0 0 0 0 0 0 0 0 0 0 0.25 0"/>
<feBlend mode="normal" in2="shape" result="effect2_innerShadow_1397_3897"/>
<feColorMatrix in="SourceAlpha" type="matrix" values="0 0 0 0 0 0 0 0 0 0 0 0 0 0 0 0 0 0 127 0" result="hardAlpha"/>
<feOffset dx="8.60441" dy="2.02457"/>
<feGaussianBlur stdDeviation="1.01228"/>
<feComposite in2="hardAlpha" operator="arithmetic" k2="-1" k3="1"/>
<feColorMatrix type="matrix" values="0 0 0 0 1 0 0 0 0 1 0 0 0 0 1 0 0 0 0.25 0"/>
<feBlend mode="normal" in2="effect2_innerShadow_1397_3897" result="effect3_innerShadow_1397_3897"/>
</filter>
<filter id="filter1_i_1397_3897" x="172.246" y="52.1582" width="229.685" height="359.943" filterUnits="userSpaceOnUse" color-interpolation-filters="sRGB">
<feFlood flood-opacity="0" result="BackgroundImageFix"/>
<feBlend mode="normal" in="SourceGraphic" in2="BackgroundImageFix" result="shape"/>
<feColorMatrix in="SourceAlpha" type="matrix" values="0 0 0 0 0 0 0 0 0 0 0 0 0 0 0 0 0 0 127 0" result="hardAlpha"/>
<feOffset dx="5.56756" dy="2.02457"/>
<feGaussianBlur stdDeviation="1.01228"/>
<feComposite in2="hardAlpha" operator="arithmetic" k2="-1" k3="1"/>
<feColorMatrix type="matrix" values="0 0 0 0 0 0 0 0 0 0 0 0 0 0 0 0 0 0 0.25 0"/>
<feBlend mode="normal" in2="shape" result="effect1_innerShadow_1397_3897"/>
</filter>
<filter id="filter2_i_1397_3897" x="177.727" y="75.2324" width="218.736" height="310.39" filterUnits="userSpaceOnUse" color-interpolation-filters="sRGB">
<feFlood flood-opacity="0" result="BackgroundImageFix"/>
<feBlend mode="normal" in="SourceGraphic" in2="BackgroundImageFix" result="shape"/>
<feColorMatrix in="SourceAlpha" type="matrix" values="0 0 0 0 0 0 0 0 0 0 0 0 0 0 0 0 0 0 127 0" result="hardAlpha"/>
<feOffset dx="6.57984" dy="2.02457"/>
<feGaussianBlur stdDeviation="1.01228"/>
<feComposite in2="hardAlpha" operator="arithmetic" k2="-1" k3="1"/>
<feColorMatrix type="matrix" values="0 0 0 0 0 0 0 0 0 0 0 0 0 0 0 0 0 0 0.25 0"/>
<feBlend mode="normal" in2="shape" result="effect1_innerShadow_1397_3897"/>
</filter>
<filter id="filter3_d_1397_3897" x="144.134" y="107.258" width="252.143" height="203.012" filterUnits="userSpaceOnUse" color-interpolation-filters="sRGB">
<feFlood flood-opacity="0" result="BackgroundImageFix"/>
<feColorMatrix in="SourceAlpha" type="matrix" values="0 0 0 0 0 0 0 0 0 0 0 0 0 0 0 0 0 0 127 0" result="hardAlpha"/>
<feOffset dy="2.02457"/>
<feGaussianBlur stdDeviation="1.01228"/>
<feComposite in2="hardAlpha" operator="out"/>
<feColorMatrix type="matrix" values="0 0 0 0 0 0 0 0 0 0 0 0 0 0 0 0 0 0 0.25 0"/>
<feBlend mode="normal" in2="BackgroundImageFix" result="effect1_dropShadow_1397_3897"/>
<feBlend mode="normal" in="SourceGraphic" in2="effect1_dropShadow_1397_3897" result="shape"/>
</filter>
<filter id="filter4_dii_1397_3897" x="494.798" y="52.6797" width="43.666" height="43.666" filterUnits="userSpaceOnUse" color-interpolation-filters="sRGB">
<feFlood flood-opacity="0" result="BackgroundImageFix"/>
<feColorMatrix in="SourceAlpha" type="matrix" values="0 0 0 0 0 0 0 0 0 0 0 0 0 0 0 0 0 0 127 0" result="hardAlpha"/>
<feOffset dy="1.792"/>
<feGaussianBlur stdDeviation="0.896"/>
<feComposite in2="hardAlpha" operator="out"/>
<feColorMatrix type="matrix" values="0 0 0 0 0.0901961 0 0 0 0 0.396078 0 0 0 0 0.933333 0 0 0 0.1 0"/>
<feBlend mode="normal" in2="BackgroundImageFix" result="effect1_dropShadow_1397_3897"/>
<feBlend mode="normal" in="SourceGraphic" in2="effect1_dropShadow_1397_3897" result="shape"/>
<feColorMatrix in="SourceAlpha" type="matrix" values="0 0 0 0 0 0 0 0 0 0 0 0 0 0 0 0 0 0 127 0" result="hardAlpha"/>
<feOffset dx="1.792" dy="1.792"/>
<feGaussianBlur stdDeviation="2.24"/>
<feComposite in2="hardAlpha" operator="arithmetic" k2="-1" k3="1"/>
<feColorMatrix type="matrix" values="0 0 0 0 0 0 0 0 0 0 0 0 0 0 0 0 0 0 0.25 0"/>
<feBlend mode="normal" in2="shape" result="effect2_innerShadow_1397_3897"/>
<feColorMatrix in="SourceAlpha" type="matrix" values="0 0 0 0 0 0 0 0 0 0 0 0 0 0 0 0 0 0 127 0" result="hardAlpha"/>
<feOffset dx="1.344" dy="1.792"/>
<feGaussianBlur stdDeviation="1.12"/>
<feComposite in2="hardAlpha" operator="arithmetic" k2="-1" k3="1"/>
<feColorMatrix type="matrix" values="0 0 0 0 1 0 0 0 0 1 0 0 0 0 1 0 0 0 0.25 0"/>
<feBlend mode="normal" in2="effect2_innerShadow_1397_3897" result="effect3_innerShadow_1397_3897"/>
</filter>
<filter id="filter5_dii_1397_3897" x="74.7044" y="341.275" width="45.925" height="45.8196" filterUnits="userSpaceOnUse" color-interpolation-filters="sRGB">
<feFlood flood-opacity="0" result="BackgroundImageFix"/>
<feColorMatrix in="SourceAlpha" type="matrix" values="0 0 0 0 0 0 0 0 0 0 0 0 0 0 0 0 0 0 127 0" result="hardAlpha"/>
<feOffset dx="1.332" dy="1.776"/>
<feGaussianBlur stdDeviation="0.888"/>
<feComposite in2="hardAlpha" operator="out"/>
<feColorMatrix type="matrix" values="0 0 0 0 0.0891668 0 0 0 0 0.7814 0 0 0 0 1 0 0 0 0.2 0"/>
<feBlend mode="normal" in2="BackgroundImageFix" result="effect1_dropShadow_1397_3897"/>
<feBlend mode="normal" in="SourceGraphic" in2="effect1_dropShadow_1397_3897" result="shape"/>
<feColorMatrix in="SourceAlpha" type="matrix" values="0 0 0 0 0 0 0 0 0 0 0 0 0 0 0 0 0 0 127 0" result="hardAlpha"/>
<feOffset dy="1.776"/>
<feGaussianBlur stdDeviation="0.888"/>
<feComposite in2="hardAlpha" operator="arithmetic" k2="-1" k3="1"/>
<feColorMatrix type="matrix" values="0 0 0 0 0 0 0 0 0 0 0 0 0 0 0 0 0 0 0.25 0"/>
<feBlend mode="normal" in2="shape" result="effect2_innerShadow_1397_3897"/>
<feColorMatrix in="SourceAlpha" type="matrix" values="0 0 0 0 0 0 0 0 0 0 0 0 0 0 0 0 0 0 127 0" result="hardAlpha"/>
<feOffset dy="1.776"/>
<feGaussianBlur stdDeviation="0.888"/>
<feComposite in2="hardAlpha" operator="arithmetic" k2="-1" k3="1"/>
<feColorMatrix type="matrix" values="0 0 0 0 1 0 0 0 0 1 0 0 0 0 1 0 0 0 0.1 0"/>
<feBlend mode="normal" in2="effect2_innerShadow_1397_3897" result="effect3_innerShadow_1397_3897"/>
</filter>
<filter id="filter6_ii_1397_3897" x="493.51" y="303.482" width="64.3371" height="61.2551" filterUnits="userSpaceOnUse" color-interpolation-filters="sRGB">
<feFlood flood-opacity="0" result="BackgroundImageFix"/>
<feBlend mode="normal" in="SourceGraphic" in2="BackgroundImageFix" result="shape"/>
<feColorMatrix in="SourceAlpha" type="matrix" values="0 0 0 0 0 0 0 0 0 0 0 0 0 0 0 0 0 0 127 0" result="hardAlpha"/>
<feOffset dx="2.46405" dy="3.69608"/>
<feGaussianBlur stdDeviation="1.23203"/>
<feComposite in2="hardAlpha" operator="arithmetic" k2="-1" k3="1"/>
<feColorMatrix type="matrix" values="0 0 0 0 0 0 0 0 0 0 0 0 0 0 0 0 0 0 0.25 0"/>
<feBlend mode="normal" in2="shape" result="effect1_innerShadow_1397_3897"/>
<feColorMatrix in="SourceAlpha" type="matrix" values="0 0 0 0 0 0 0 0 0 0 0 0 0 0 0 0 0 0 127 0" result="hardAlpha"/>
<feOffset dx="-3.08007" dy="1.84804"/>
<feGaussianBlur stdDeviation="3.38807"/>
<feComposite in2="hardAlpha" operator="arithmetic" k2="-1" k3="1"/>
<feColorMatrix type="matrix" values="0 0 0 0 1 0 0 0 0 1 0 0 0 0 1 0 0 0 0.25 0"/>
<feBlend mode="normal" in2="effect1_innerShadow_1397_3897" result="effect2_innerShadow_1397_3897"/>
</filter>
<radialGradient id="paint0_radial_1397_3897" cx="0" cy="0" r="1" gradientUnits="userSpaceOnUse" gradientTransform="translate(253.406 189.833) rotate(87.1793) scale(170.978 245.435)">
<stop stop-color="#302AFF"/>
<stop offset="1" stop-color="#19DFDF"/>
</radialGradient>
<linearGradient id="paint1_linear_1397_3897" x1="516.631" y1="52.6797" x2="516.631" y2="92.7624" gradientUnits="userSpaceOnUse">
<stop stop-color="#0063F8"/>
<stop offset="1" stop-color="#19DFDF"/>
</linearGradient>
</defs>
</svg>
