<svg width="159" height="153" viewBox="0 0 159 153" fill="none" xmlns="http://www.w3.org/2000/svg">
<path d="M106 146.365C106 145.055 106.388 143.774 107.116 142.685C107.844 141.595 108.879 140.746 110.089 140.245C111.3 139.743 112.632 139.612 113.917 139.868C115.202 140.123 116.383 140.754 117.309 141.681C118.236 142.607 118.867 143.788 119.122 145.073C119.378 146.358 119.247 147.69 118.745 148.901C118.244 150.111 117.395 151.146 116.305 151.874C115.216 152.602 113.935 152.99 112.625 152.99C110.868 152.99 109.183 152.292 107.94 151.05C106.698 149.807 106 148.122 106 146.365ZM136.044 132.307C137.286 131.065 137.984 129.38 137.984 127.623C137.984 125.866 137.286 124.182 136.044 122.939C129.832 116.729 121.408 113.241 112.625 113.241C103.841 113.241 95.4172 116.729 89.2054 122.939C87.9986 124.189 87.3308 125.862 87.3459 127.599C87.361 129.336 88.0578 130.998 89.2861 132.226C90.5144 133.455 92.176 134.151 93.9131 134.167C95.6502 134.182 97.3236 133.514 98.5731 132.307C102.361 128.697 107.392 126.683 112.625 126.683C117.857 126.683 122.889 128.697 126.676 132.307C127.919 133.549 129.604 134.247 131.36 134.247C133.117 134.247 134.802 133.549 136.044 132.307ZM154.786 113.572C156.028 112.329 156.726 110.644 156.726 108.888C156.726 107.131 156.028 105.446 154.786 104.204C143.596 93.038 128.433 86.7671 112.625 86.7671C96.8165 86.7671 81.6537 93.038 70.4633 104.204C69.2565 105.453 68.5887 107.127 68.6038 108.864C68.6189 110.601 69.3156 112.263 70.544 113.491C71.7723 114.719 73.4339 115.416 75.171 115.431C76.908 115.446 78.5815 114.778 79.831 113.572C88.5376 104.891 100.33 100.017 112.625 100.017C124.919 100.017 136.712 104.891 145.419 113.572C146.661 114.814 148.346 115.511 150.102 115.511C151.859 115.511 153.544 114.814 154.786 113.572V113.572ZM61.0955 122.939C59.2496 121.094 57.7853 118.903 56.7863 116.491C55.7873 114.079 55.2731 111.495 55.2731 108.884C55.2731 106.274 55.7873 103.689 56.7863 101.278C57.7853 98.8662 59.2496 96.675 61.0955 94.8294C73.9018 82.0589 90.9944 74.4994 109.058 73.6168C127.122 72.7342 144.87 78.5915 158.861 90.0528C158.235 79.3055 154.329 69.0087 147.669 60.5505C141.009 52.0924 131.915 45.8797 121.615 42.7503C120.479 42.3988 119.447 41.7714 118.612 40.924C117.778 40.0766 117.166 39.0357 116.832 37.8942C113.326 26.6291 106.162 16.8558 96.4743 10.1224C86.7866 3.38897 75.1292 0.0803803 63.3487 0.72074C51.5682 1.3611 40.3382 5.91379 31.4375 13.6577C22.5368 21.4015 16.4743 31.8938 14.2104 43.4724C11.8813 55.1766 13.7583 67.3273 19.5104 77.7833C12.8089 81.2432 7.35952 86.7155 3.92783 93.4315C0.496147 100.148 -0.745471 107.77 0.377385 115.228C2.10533 123.891 6.74423 131.704 13.524 137.368C20.3038 143.031 28.8167 146.206 37.6496 146.365H84.6871C73.6433 135.414 62.8511 124.695 61.0955 122.939V122.939Z" fill="url(#paint0_linear_1815_2485)"/>
<defs>
<linearGradient id="paint0_linear_1815_2485" x1="79.4179" y1="0.642578" x2="79.4179" y2="152.99" gradientUnits="userSpaceOnUse">
<stop stop-color="#007AD9"/>
<stop offset="0.810417" stop-color="#2AB5D3"/>
</linearGradient>
</defs>
</svg>
