<svg width="162" height="97" viewBox="0 0 162 97" fill="none" xmlns="http://www.w3.org/2000/svg">
<g filter="url(#filter0_dii_1028_2497)">
<path d="M146.998 48.5725L146.954 48.6609C147.133 47.2024 147.313 45.6997 147.313 44.197C147.313 42.6943 147.178 41.28 146.998 39.8215L147.043 39.9099L158 31.424L147.088 12.7729L134.201 17.8998L134.246 17.944C131.911 16.1761 129.351 14.6734 126.567 13.5243H126.612L124.546 0H102.678L100.702 13.5685H100.747C97.9629 14.7176 95.4034 16.2203 93.0684 17.9882L93.1133 17.944L80.2257 12.7729C80.2257 12.7729 80.2258 74.0408 80.2258 75.5768L93.1582 70.4942L93.0684 70.3174C95.4483 72.1294 98.0079 73.6321 100.837 74.7813H100.702L102.723 88.3939H124.501C124.501 88.3939 124.636 87.5984 124.771 86.5376L126.477 74.8254H126.432C129.216 73.6763 131.821 72.1736 134.201 70.3615L134.111 70.5383L147.043 75.621L157.955 57.0583C157.955 57.0583 157.326 56.5279 156.473 55.9091L146.998 48.5725ZM113.59 59.6659C104.923 59.6659 97.8731 52.727 97.8731 44.197C97.8731 35.6669 104.923 28.728 113.59 28.728C122.256 28.728 129.306 35.6669 129.306 44.197C129.306 52.727 122.256 59.6659 113.59 59.6659Z" fill="url(#paint0_linear_1028_2497)"/>
</g>
<g filter="url(#filter1_i_1028_2497)">
<rect x="39.1229" y="29.6562" width="35.4059" height="27.5321" rx="6.18499" fill="url(#paint1_linear_1028_2497)"/>
</g>
<g filter="url(#filter2_i_1028_2497)">
<path d="M33.9686 35.0337C34.3955 35.0337 34.7417 34.6876 34.7417 34.2606C34.7417 33.8336 34.3955 33.4875 33.9686 33.4875V35.0337ZM13.0469 34.2606H12.2738C12.2738 34.6876 12.6199 35.0337 13.0469 35.0337V34.2606ZM8.92355 14.8262C8.92355 17.1034 10.7696 18.9495 13.0469 18.9495C15.3241 18.9495 17.1702 17.1034 17.1702 14.8262C17.1702 12.5489 15.3241 10.7028 13.0469 10.7028C10.7696 10.7028 8.92355 12.5489 8.92355 14.8262ZM33.9686 33.4875H13.0469V35.0337H33.9686V33.4875ZM13.82 34.2606V14.8262H12.2738V34.2606H13.82Z" fill="url(#paint2_linear_1028_2497)"/>
</g>
<g filter="url(#filter3_i_1028_2497)">
<path d="M33.9686 52.9233C34.3955 52.9233 34.7417 53.2694 34.7417 53.6964C34.7417 54.1234 34.3955 54.4696 33.9686 54.4696V52.9233ZM13.0469 53.6964H12.2738C12.2738 53.2694 12.6199 52.9233 13.0469 52.9233V53.6964ZM8.92355 73.1309C8.92355 70.8536 10.7696 69.0075 13.0469 69.0075C15.3241 69.0075 17.1702 70.8536 17.1702 73.1309C17.1702 75.4081 15.3241 77.2542 13.0469 77.2542C10.7696 77.2542 8.92355 75.4081 8.92355 73.1309ZM33.9686 54.4696H13.0469V52.9233H33.9686V54.4696ZM13.82 53.6964V73.1309H12.2738V53.6964H13.82Z" fill="url(#paint3_linear_1028_2497)"/>
</g>
<g filter="url(#filter4_i_1028_2497)">
<path d="M35.5778 42.3208C36.0048 42.3208 36.351 41.9747 36.351 41.5477C36.351 41.1207 36.0048 40.7746 35.5778 40.7746V42.3208ZM5 41.5477H4.22688C4.22688 41.9747 4.57302 42.3208 5 42.3208V41.5477ZM0.876671 18.0645C0.876671 20.3417 2.72275 22.1878 5 22.1878C7.27725 22.1878 9.12333 20.3417 9.12333 18.0645C9.12333 15.7872 7.27725 13.9411 5 13.9411C2.72275 13.9411 0.876671 15.7872 0.876671 18.0645ZM35.5778 40.7746H5V42.3208H35.5778V40.7746ZM5.77312 41.5477V18.0645H4.22688V41.5477H5.77312Z" fill="url(#paint4_linear_1028_2497)"/>
</g>
<g filter="url(#filter5_i_1028_2497)">
<path d="M35.5778 46.4448C36.0048 46.4448 36.351 46.7909 36.351 47.2179C36.351 47.6449 36.0048 47.991 35.5778 47.991V46.4448ZM5 47.2179H4.22688C4.22688 46.7909 4.57302 46.4448 5 46.4448V47.2179ZM0.876671 70.7012C0.876671 68.4239 2.72275 66.5778 5 66.5778C7.27725 66.5778 9.12333 68.4239 9.12333 70.7012C9.12333 72.9784 7.27725 74.8245 5 74.8245C2.72275 74.8245 0.876671 72.9784 0.876671 70.7012ZM35.5778 47.991H5V46.4448H35.5778V47.991ZM5.77312 47.2179V70.7012H4.22688V47.2179H5.77312Z" fill="url(#paint5_linear_1028_2497)"/>
</g>
<defs>
<filter id="filter0_dii_1028_2497" x="77.1332" y="0" width="83.9593" height="96.1258" filterUnits="userSpaceOnUse" color-interpolation-filters="sRGB">
<feFlood flood-opacity="0" result="BackgroundImageFix"/>
<feColorMatrix in="SourceAlpha" type="matrix" values="0 0 0 0 0 0 0 0 0 0 0 0 0 0 0 0 0 0 127 0" result="hardAlpha"/>
<feOffset dy="4.63874"/>
<feGaussianBlur stdDeviation="1.54625"/>
<feComposite in2="hardAlpha" operator="out"/>
<feColorMatrix type="matrix" values="0 0 0 0 0.099896 0 0 0 0 0.875 0 0 0 0 0.875 0 0 0 1 0"/>
<feBlend mode="normal" in2="BackgroundImageFix" result="effect1_dropShadow_1028_2497"/>
<feBlend mode="normal" in="SourceGraphic" in2="effect1_dropShadow_1028_2497" result="shape"/>
<feColorMatrix in="SourceAlpha" type="matrix" values="0 0 0 0 0 0 0 0 0 0 0 0 0 0 0 0 0 0 127 0" result="hardAlpha"/>
<feOffset dy="6.18499"/>
<feGaussianBlur stdDeviation="3.0925"/>
<feComposite in2="hardAlpha" operator="arithmetic" k2="-1" k3="1"/>
<feColorMatrix type="matrix" values="0 0 0 0 0 0 0 0 0 0 0 0 0 0 0 0 0 0 0.25 0"/>
<feBlend mode="normal" in2="shape" result="effect2_innerShadow_1028_2497"/>
<feColorMatrix in="SourceAlpha" type="matrix" values="0 0 0 0 0 0 0 0 0 0 0 0 0 0 0 0 0 0 127 0" result="hardAlpha"/>
<feOffset dy="6.18499"/>
<feGaussianBlur stdDeviation="3.0925"/>
<feComposite in2="hardAlpha" operator="arithmetic" k2="-1" k3="1"/>
<feColorMatrix type="matrix" values="0 0 0 0 0 0 0 0 0 0 0 0 0 0 0 0 0 0 0.25 0"/>
<feBlend mode="normal" in2="effect2_innerShadow_1028_2497" result="effect3_innerShadow_1028_2497"/>
</filter>
<filter id="filter1_i_1028_2497" x="39.1229" y="29.6562" width="41.5909" height="33.7162" filterUnits="userSpaceOnUse" color-interpolation-filters="sRGB">
<feFlood flood-opacity="0" result="BackgroundImageFix"/>
<feBlend mode="normal" in="SourceGraphic" in2="BackgroundImageFix" result="shape"/>
<feColorMatrix in="SourceAlpha" type="matrix" values="0 0 0 0 0 0 0 0 0 0 0 0 0 0 0 0 0 0 127 0" result="hardAlpha"/>
<feOffset dx="6.18499" dy="6.18499"/>
<feGaussianBlur stdDeviation="3.0925"/>
<feComposite in2="hardAlpha" operator="arithmetic" k2="-1" k3="1"/>
<feColorMatrix type="matrix" values="0 0 0 0 0 0 0 0 0 0 0 0 0 0 0 0 0 0 0.17 0"/>
<feBlend mode="normal" in2="shape" result="effect1_innerShadow_1028_2497"/>
</filter>
<filter id="filter2_i_1028_2497" x="8.92358" y="10.7031" width="25.8181" height="24.3301" filterUnits="userSpaceOnUse" color-interpolation-filters="sRGB">
<feFlood flood-opacity="0" result="BackgroundImageFix"/>
<feBlend mode="normal" in="SourceGraphic" in2="BackgroundImageFix" result="shape"/>
<feColorMatrix in="SourceAlpha" type="matrix" values="0 0 0 0 0 0 0 0 0 0 0 0 0 0 0 0 0 0 127 0" result="hardAlpha"/>
<feOffset dx="54.1187" dy="13.9162"/>
<feGaussianBlur stdDeviation="5.41187"/>
<feComposite in2="hardAlpha" operator="arithmetic" k2="-1" k3="1"/>
<feColorMatrix type="matrix" values="0 0 0 0 0.0308334 0 0 0 0 0.925 0 0 0 0 0.925 0 0 0 0.23 0"/>
<feBlend mode="normal" in2="shape" result="effect1_innerShadow_1028_2497"/>
</filter>
<filter id="filter3_i_1028_2497" x="8.92358" y="52.9238" width="25.8181" height="24.3301" filterUnits="userSpaceOnUse" color-interpolation-filters="sRGB">
<feFlood flood-opacity="0" result="BackgroundImageFix"/>
<feBlend mode="normal" in="SourceGraphic" in2="BackgroundImageFix" result="shape"/>
<feColorMatrix in="SourceAlpha" type="matrix" values="0 0 0 0 0 0 0 0 0 0 0 0 0 0 0 0 0 0 127 0" result="hardAlpha"/>
<feOffset dx="54.1187" dy="13.9162"/>
<feGaussianBlur stdDeviation="5.41187"/>
<feComposite in2="hardAlpha" operator="arithmetic" k2="-1" k3="1"/>
<feColorMatrix type="matrix" values="0 0 0 0 0.0308334 0 0 0 0 0.925 0 0 0 0 0.925 0 0 0 0.23 0"/>
<feBlend mode="normal" in2="shape" result="effect1_innerShadow_1028_2497"/>
</filter>
<filter id="filter4_i_1028_2497" x="0.876709" y="13.9414" width="35.4742" height="28.3789" filterUnits="userSpaceOnUse" color-interpolation-filters="sRGB">
<feFlood flood-opacity="0" result="BackgroundImageFix"/>
<feBlend mode="normal" in="SourceGraphic" in2="BackgroundImageFix" result="shape"/>
<feColorMatrix in="SourceAlpha" type="matrix" values="0 0 0 0 0 0 0 0 0 0 0 0 0 0 0 0 0 0 127 0" result="hardAlpha"/>
<feOffset dx="54.1187" dy="13.9162"/>
<feGaussianBlur stdDeviation="5.41187"/>
<feComposite in2="hardAlpha" operator="arithmetic" k2="-1" k3="1"/>
<feColorMatrix type="matrix" values="0 0 0 0 0.0308334 0 0 0 0 0.925 0 0 0 0 0.925 0 0 0 0.23 0"/>
<feBlend mode="normal" in2="shape" result="effect1_innerShadow_1028_2497"/>
</filter>
<filter id="filter5_i_1028_2497" x="0.876709" y="46.4453" width="35.4742" height="28.3789" filterUnits="userSpaceOnUse" color-interpolation-filters="sRGB">
<feFlood flood-opacity="0" result="BackgroundImageFix"/>
<feBlend mode="normal" in="SourceGraphic" in2="BackgroundImageFix" result="shape"/>
<feColorMatrix in="SourceAlpha" type="matrix" values="0 0 0 0 0 0 0 0 0 0 0 0 0 0 0 0 0 0 127 0" result="hardAlpha"/>
<feOffset dx="54.1187" dy="13.9162"/>
<feGaussianBlur stdDeviation="5.41187"/>
<feComposite in2="hardAlpha" operator="arithmetic" k2="-1" k3="1"/>
<feColorMatrix type="matrix" values="0 0 0 0 0.0308334 0 0 0 0 0.925 0 0 0 0 0.925 0 0 0 0.23 0"/>
<feBlend mode="normal" in2="shape" result="effect1_innerShadow_1028_2497"/>
</filter>
<linearGradient id="paint0_linear_1028_2497" x1="118.956" y1="0" x2="118.956" y2="88.3939" gradientUnits="userSpaceOnUse">
<stop stop-color="#1E25D0"/>
<stop offset="1" stop-color="#46DAEE"/>
</linearGradient>
<linearGradient id="paint1_linear_1028_2497" x1="56.8259" y1="29.6562" x2="56.8259" y2="57.1884" gradientUnits="userSpaceOnUse">
<stop stop-color="#274BD7"/>
<stop offset="1" stop-color="#3DAEE7"/>
</linearGradient>
<linearGradient id="paint2_linear_1028_2497" x1="15.4609" y1="14.8262" x2="23.5945" y2="34.2242" gradientUnits="userSpaceOnUse">
<stop stop-color="#2B5ADA"/>
<stop offset="1" stop-color="#3AA1E5"/>
</linearGradient>
<linearGradient id="paint3_linear_1028_2497" x1="23.5077" y1="73.1309" x2="23.5077" y2="53.6964" gradientUnits="userSpaceOnUse">
<stop stop-color="#274FD7"/>
<stop offset="1" stop-color="#3CACE7"/>
</linearGradient>
<linearGradient id="paint4_linear_1028_2497" x1="20.2889" y1="18.0645" x2="20.2889" y2="41.5477" gradientUnits="userSpaceOnUse">
<stop stop-color="#2B5ADA"/>
<stop offset="1" stop-color="#3999E4"/>
</linearGradient>
<linearGradient id="paint5_linear_1028_2497" x1="20.2889" y1="70.7012" x2="20.2889" y2="47.2179" gradientUnits="userSpaceOnUse">
<stop stop-color="#274ED7"/>
<stop offset="1" stop-color="#399DE4"/>
</linearGradient>
</defs>
</svg>
