<svg width="525" height="393" viewBox="0 0 525 393" fill="none" xmlns="http://www.w3.org/2000/svg">
<g filter="url(#filter0_i_1346_4219)">
<path d="M10.1803 321.233L19.1504 314.335L29.866 317.973L26.1692 307.096L32.8591 297.864L21.5996 298.079L15.0377 288.721L11.7568 299.686L1 303.156L10.2625 309.761L10.1803 321.233Z" fill="#32A4DC" stroke="#1765EE" stroke-width="0.913915" stroke-linecap="round" stroke-linejoin="round"/>
<path d="M472.444 371.32L475.35 363.192L483.575 361.031L476.89 355.697L477.429 347.104L470.369 351.929L462.478 348.752L464.804 357.053L459.402 363.7L467.874 364.035L472.444 371.32Z" fill="#32A4DC" stroke="#1765EE" stroke-width="0.913915" stroke-linecap="round" stroke-linejoin="round"/>
<path d="M462.103 313.145L465.009 314.375L468.208 329.826L478.302 317.845L493.711 319.541L485.65 306.033L492.006 291.64L476.931 295.282L465.425 284.699L464.136 300.406L450.725 308.278L458.072 311.413" fill="#32A4DC"/>
<path d="M462.103 313.145L465.009 314.375L468.208 329.826L478.302 317.845L493.711 319.541L485.65 306.033L492.006 291.64L476.931 295.282L465.425 284.699L464.136 300.406L450.725 308.278L458.072 311.413" stroke="#1765EE" stroke-width="0.913915" stroke-linecap="round" stroke-linejoin="round"/>
</g>
<g filter="url(#filter1_dii_1346_4219)">
<path d="M515.966 131.263C512.489 87.0641 496.331 22.3836 452.796 8.07433C323.619 -27.0374 133.159 63.2619 99.0424 94.9221C69.491 122.357 49.9834 165.332 53.502 209.163C56.39 268.58 101.766 314.457 155.221 319.091C242.331 346.89 330.108 347.933 408.718 293.924C472.848 254.904 518.685 219.383 515.966 131.263Z" fill="url(#paint0_linear_1346_4219)"/>
</g>
<g filter="url(#filter2_i_1346_4219)">
<path d="M91.9346 372.954V392H324.426V347.838H91.9346V356.297" fill="#3E86EA"/>
<path d="M91.9346 372.954V392H324.426V347.838H91.9346V356.297" stroke="#1765EE" stroke-width="0.913915" stroke-linecap="round" stroke-linejoin="round"/>
<path d="M131.092 303.707H324.426V347.869H131.092V303.707Z" fill="#3E86EA" stroke="#1765EE" stroke-width="0.913915" stroke-linecap="round" stroke-linejoin="round"/>
<path d="M306.997 259.547H170.248V303.709H324.426V259.547H312.225" fill="#3E86EA"/>
<path d="M306.997 259.547H170.248V303.709H324.426V259.547H312.225" stroke="#1765EE" stroke-width="0.913915" stroke-linecap="round" stroke-linejoin="round"/>
<path d="M91.9346 360.848V368.636" stroke="#1765EE" stroke-width="0.913915" stroke-linecap="round" stroke-linejoin="round"/>
</g>
<g filter="url(#filter3_i_1346_4219)">
<path d="M284.771 251.084L366.786 167.479L448.892 251.084H402.598V369.942H330.974V251.084H284.771Z" fill="#3C73E2" stroke="#1765EE" stroke-width="0.913915" stroke-linecap="round" stroke-linejoin="round"/>
<path d="M462.692 145.31V133.735H438.757L481.208 90.4629L523.746 133.735H499.811V178.429H462.692V154.035" fill="#1EEDF1"/>
<path d="M462.692 145.31V133.735H438.757L481.208 90.4629L523.746 133.735H499.811V178.429H462.692V154.035" stroke="#1765EE" stroke-width="0.913915" stroke-linecap="round" stroke-linejoin="round"/>
</g>
<g filter="url(#filter4_i_1346_4219)">
<path d="M222.979 214.061C225.92 214.061 228.421 213.011 230.481 210.91C232.542 208.809 233.57 206.263 233.566 203.27C233.566 200.272 232.535 197.723 230.474 195.623C228.414 193.522 225.915 192.474 222.979 192.479C220.039 192.479 217.538 193.529 215.477 195.63C213.417 197.731 212.388 200.277 212.393 203.27C212.393 206.267 213.424 208.816 215.484 210.917C217.545 213.018 220.043 214.066 222.979 214.061ZM222.979 235.643C226.626 235.643 229.978 234.772 233.036 233.031C236.094 231.29 238.565 228.984 240.447 226.111C237.859 224.552 235.095 223.353 232.154 222.514C229.213 221.674 226.155 221.255 222.979 221.255C219.804 221.255 216.745 221.674 213.805 222.514C210.864 223.353 208.1 224.552 205.512 226.111C207.394 228.988 209.864 231.298 212.922 233.039C215.981 234.779 219.333 235.648 222.979 235.643ZM222.979 250.031C213.217 250.031 204.893 246.522 198.01 239.506C191.127 232.489 187.687 224.008 187.692 214.061C187.692 204.109 191.134 195.625 198.017 188.609C204.901 181.592 213.221 178.086 222.979 178.091C232.742 178.091 241.065 181.599 247.949 188.616C254.832 195.632 258.271 204.114 258.267 214.061C258.267 224.013 254.825 232.497 247.942 239.513C241.058 246.53 232.737 250.035 222.979 250.031ZM187.692 249.491H186.012C185.485 249.491 184.928 249.371 184.34 249.131C168.931 244.335 156.228 234.624 146.23 219.996C136.231 205.368 131.232 189.242 131.232 171.616V137.625C131.232 134.627 132.086 131.93 133.794 129.532C135.502 127.134 137.706 125.395 140.407 124.316L182.752 108.13C184.399 107.53 186.045 107.23 187.692 107.23C189.339 107.23 190.986 107.53 192.632 108.13L234.977 124.316C237.682 125.395 239.889 127.134 241.597 129.532C243.305 131.93 244.156 134.627 244.152 137.625V168.559C240.741 167 237.299 165.801 233.827 164.962C230.354 164.123 226.739 163.703 222.979 163.703C209.335 163.703 197.69 168.619 188.045 178.451C178.4 188.282 173.577 200.153 173.577 214.061C173.577 220.895 174.753 227.281 177.106 233.218C179.458 239.156 183.046 244.58 187.869 249.491H187.692Z" fill="#0063F8"/>
</g>
<defs>
<filter id="filter0_i_1346_4219" x="0.542969" y="284.242" width="493.625" height="89.363" filterUnits="userSpaceOnUse" color-interpolation-filters="sRGB">
<feFlood flood-opacity="0" result="BackgroundImageFix"/>
<feBlend mode="normal" in="SourceGraphic" in2="BackgroundImageFix" result="shape"/>
<feColorMatrix in="SourceAlpha" type="matrix" values="0 0 0 0 0 0 0 0 0 0 0 0 0 0 0 0 0 0 127 0" result="hardAlpha"/>
<feOffset dy="1.82783"/>
<feGaussianBlur stdDeviation="0.913915"/>
<feComposite in2="hardAlpha" operator="arithmetic" k2="-1" k3="1"/>
<feColorMatrix type="matrix" values="0 0 0 0 0 0 0 0 0 0 0 0 0 0 0 0 0 0 0.25 0"/>
<feBlend mode="normal" in2="shape" result="effect1_innerShadow_1346_4219"/>
</filter>
<filter id="filter1_dii_1346_4219" x="51.2649" y="0.0976562" width="474.412" height="347.364" filterUnits="userSpaceOnUse" color-interpolation-filters="sRGB">
<feFlood flood-opacity="0" result="BackgroundImageFix"/>
<feColorMatrix in="SourceAlpha" type="matrix" values="0 0 0 0 0 0 0 0 0 0 0 0 0 0 0 0 0 0 127 0" result="hardAlpha"/>
<feOffset dy="1.82783"/>
<feGaussianBlur stdDeviation="0.913915"/>
<feComposite in2="hardAlpha" operator="out"/>
<feColorMatrix type="matrix" values="0 0 0 0 0 0 0 0 0 0 0 0 0 0 0 0 0 0 0.25 0"/>
<feBlend mode="normal" in2="BackgroundImageFix" result="effect1_dropShadow_1346_4219"/>
<feBlend mode="normal" in="SourceGraphic" in2="effect1_dropShadow_1346_4219" result="shape"/>
<feColorMatrix in="SourceAlpha" type="matrix" values="0 0 0 0 0 0 0 0 0 0 0 0 0 0 0 0 0 0 127 0" result="hardAlpha"/>
<feOffset dx="11.8809" dy="11.4239"/>
<feGaussianBlur stdDeviation="4.79806"/>
<feComposite in2="hardAlpha" operator="arithmetic" k2="-1" k3="1"/>
<feColorMatrix type="matrix" values="0 0 0 0 0 0 0 0 0 0 0 0 0 0 0 0 0 0 0.25 0"/>
<feBlend mode="normal" in2="shape" result="effect2_innerShadow_1346_4219"/>
<feColorMatrix in="SourceAlpha" type="matrix" values="0 0 0 0 0 0 0 0 0 0 0 0 0 0 0 0 0 0 127 0" result="hardAlpha"/>
<feOffset dx="10.0531" dy="1.82783"/>
<feGaussianBlur stdDeviation="3.88414"/>
<feComposite in2="hardAlpha" operator="arithmetic" k2="-1" k3="1"/>
<feColorMatrix type="matrix" values="0 0 0 0 1 0 0 0 0 1 0 0 0 0 1 0 0 0 0.25 0"/>
<feBlend mode="normal" in2="effect2_innerShadow_1346_4219" result="effect3_innerShadow_1346_4219"/>
</filter>
<filter id="filter2_i_1346_4219" x="91.4775" y="259.09" width="235.233" height="135.195" filterUnits="userSpaceOnUse" color-interpolation-filters="sRGB">
<feFlood flood-opacity="0" result="BackgroundImageFix"/>
<feBlend mode="normal" in="SourceGraphic" in2="BackgroundImageFix" result="shape"/>
<feColorMatrix in="SourceAlpha" type="matrix" values="0 0 0 0 0 0 0 0 0 0 0 0 0 0 0 0 0 0 127 0" result="hardAlpha"/>
<feOffset dx="8.6822" dy="1.82783"/>
<feGaussianBlur stdDeviation="0.913915"/>
<feComposite in2="hardAlpha" operator="arithmetic" k2="-1" k3="1"/>
<feColorMatrix type="matrix" values="0 0 0 0 0 0 0 0 0 0 0 0 0 0 0 0 0 0 0.25 0"/>
<feBlend mode="normal" in2="shape" result="effect1_innerShadow_1346_4219"/>
</filter>
<filter id="filter3_i_1346_4219" x="284.314" y="90.0059" width="241.717" height="282.22" filterUnits="userSpaceOnUse" color-interpolation-filters="sRGB">
<feFlood flood-opacity="0" result="BackgroundImageFix"/>
<feBlend mode="normal" in="SourceGraphic" in2="BackgroundImageFix" result="shape"/>
<feColorMatrix in="SourceAlpha" type="matrix" values="0 0 0 0 0 0 0 0 0 0 0 0 0 0 0 0 0 0 127 0" result="hardAlpha"/>
<feOffset dx="9.59611" dy="1.82783"/>
<feGaussianBlur stdDeviation="0.913915"/>
<feComposite in2="hardAlpha" operator="arithmetic" k2="-1" k3="1"/>
<feColorMatrix type="matrix" values="0 0 0 0 0 0 0 0 0 0 0 0 0 0 0 0 0 0 0.25 0"/>
<feBlend mode="normal" in2="shape" result="effect1_innerShadow_1346_4219"/>
</filter>
<filter id="filter4_i_1346_4219" x="131.232" y="107.23" width="128.862" height="144.629" filterUnits="userSpaceOnUse" color-interpolation-filters="sRGB">
<feFlood flood-opacity="0" result="BackgroundImageFix"/>
<feBlend mode="normal" in="SourceGraphic" in2="BackgroundImageFix" result="shape"/>
<feColorMatrix in="SourceAlpha" type="matrix" values="0 0 0 0 0 0 0 0 0 0 0 0 0 0 0 0 0 0 127 0" result="hardAlpha"/>
<feOffset dx="6.85437" dy="3.65566"/>
<feGaussianBlur stdDeviation="0.913915"/>
<feComposite in2="hardAlpha" operator="arithmetic" k2="-1" k3="1"/>
<feColorMatrix type="matrix" values="0 0 0 0 0 0 0 0 0 0 0 0 0 0 0 0 0 0 0.25 0"/>
<feBlend mode="normal" in2="shape" result="effect1_innerShadow_1346_4219"/>
</filter>
<linearGradient id="paint0_linear_1346_4219" x1="284.587" y1="0.0976562" x2="284.587" y2="337.864" gradientUnits="userSpaceOnUse">
<stop stop-color="#0063F8"/>
<stop offset="1" stop-color="#3FD1FF"/>
</linearGradient>
</defs>
</svg>
