<svg width="279" height="237" viewBox="0 0 279 237" fill="none" xmlns="http://www.w3.org/2000/svg">
<g filter="url(#filter0_dii_1505_3488)">
<path fill-rule="evenodd" clip-rule="evenodd" d="M253.094 65.2631C252.376 65.2109 251.581 65.2109 250.746 65.2109H217.816C190.846 65.2109 167.775 86.4428 167.775 114.117C167.775 141.792 190.859 163.023 217.816 163.023H250.746C251.581 163.023 252.376 163.023 253.12 162.971C258.663 162.637 263.895 160.299 267.842 156.393C271.789 152.487 274.181 147.279 274.573 141.739C274.625 140.957 274.625 140.109 274.625 139.327V88.9077C274.625 88.1252 274.625 87.2774 274.573 86.4949C274.181 80.9557 271.789 75.7477 267.842 71.8415C263.895 67.9354 258.663 65.5973 253.12 65.2631H253.094ZM214.908 127.159C221.846 127.159 227.467 121.316 227.467 114.117C227.467 106.918 221.846 101.076 214.908 101.076C207.956 101.076 202.335 106.918 202.335 114.117C202.335 121.316 207.956 127.159 214.908 127.159Z" fill="url(#paint0_linear_1505_3488)"/>
<path fill-rule="evenodd" clip-rule="evenodd" d="M250.722 182.583C251.173 182.565 251.622 182.654 252.032 182.842C252.443 183.03 252.803 183.312 253.083 183.665C253.364 184.018 253.558 184.433 253.648 184.875C253.739 185.317 253.724 185.774 253.605 186.209C250.996 195.495 246.836 203.424 240.172 210.075C230.403 219.857 218.027 224.173 202.742 226.234C187.875 228.229 168.899 228.229 144.928 228.229H117.384C93.4137 228.229 74.425 228.229 59.5706 226.234C44.2857 224.173 31.9092 219.843 22.141 210.088C12.3858 200.32 8.05596 187.944 5.99538 172.659C4 157.791 4 138.816 4 114.845V113.384C4 89.4137 4 70.425 5.99538 55.5575C8.05596 40.2727 12.3858 27.8961 22.141 18.1279C31.9092 8.37275 44.2857 4.04292 59.5706 1.98233C74.4381 -5.83008e-07 93.4137 0 117.384 0H144.928C168.899 0 187.888 1.55469e-06 202.742 1.99538C218.027 4.05596 230.403 8.38579 240.172 18.141C246.836 24.8183 250.996 32.7346 253.605 42.0203C253.724 42.4554 253.739 42.9126 253.648 43.3547C253.558 43.7967 253.364 44.2112 253.083 44.5644C252.803 44.9177 252.443 45.1997 252.032 45.3876C251.622 45.5755 251.173 45.664 250.722 45.6459H217.805C180.806 45.6459 148.202 74.8592 148.202 114.115C148.202 153.37 180.806 182.583 217.805 182.583H250.722ZM52.9063 52.1667C50.3121 52.1667 47.8242 53.1972 45.9899 55.0315C44.1555 56.8659 43.125 59.3538 43.125 61.9479C43.125 64.5421 44.1555 67.03 45.9899 68.8643C47.8242 70.6987 50.3121 71.7292 52.9063 71.7292H105.073C107.667 71.7292 110.155 70.6987 111.989 68.8643C113.824 67.03 114.854 64.5421 114.854 61.9479C114.854 59.3538 113.824 56.8659 111.989 55.0315C110.155 53.1972 107.667 52.1667 105.073 52.1667H52.9063Z" fill="url(#paint1_linear_1505_3488)"/>
</g>
<defs>
<filter id="filter0_dii_1505_3488" x="0" y="0" width="286.625" height="236.229" filterUnits="userSpaceOnUse" color-interpolation-filters="sRGB">
<feFlood flood-opacity="0" result="BackgroundImageFix"/>
<feColorMatrix in="SourceAlpha" type="matrix" values="0 0 0 0 0 0 0 0 0 0 0 0 0 0 0 0 0 0 127 0" result="hardAlpha"/>
<feOffset dy="4"/>
<feGaussianBlur stdDeviation="2"/>
<feComposite in2="hardAlpha" operator="out"/>
<feColorMatrix type="matrix" values="0 0 0 0 0 0 0 0 0 0 0 0 0 0 0 0 0 0 0.25 0"/>
<feBlend mode="normal" in2="BackgroundImageFix" result="effect1_dropShadow_1505_3488"/>
<feBlend mode="normal" in="SourceGraphic" in2="effect1_dropShadow_1505_3488" result="shape"/>
<feColorMatrix in="SourceAlpha" type="matrix" values="0 0 0 0 0 0 0 0 0 0 0 0 0 0 0 0 0 0 127 0" result="hardAlpha"/>
<feOffset dy="4"/>
<feGaussianBlur stdDeviation="2"/>
<feComposite in2="hardAlpha" operator="arithmetic" k2="-1" k3="1"/>
<feColorMatrix type="matrix" values="0 0 0 0 0 0 0 0 0 0 0 0 0 0 0 0 0 0 0.25 0"/>
<feBlend mode="normal" in2="shape" result="effect2_innerShadow_1505_3488"/>
<feColorMatrix in="SourceAlpha" type="matrix" values="0 0 0 0 0 0 0 0 0 0 0 0 0 0 0 0 0 0 127 0" result="hardAlpha"/>
<feOffset dx="16" dy="4"/>
<feGaussianBlur stdDeviation="6"/>
<feComposite in2="hardAlpha" operator="arithmetic" k2="-1" k3="1"/>
<feColorMatrix type="matrix" values="0 0 0 0 1 0 0 0 0 1 0 0 0 0 1 0 0 0 0.2 0"/>
<feBlend mode="normal" in2="effect2_innerShadow_1505_3488" result="effect3_innerShadow_1505_3488"/>
</filter>
<linearGradient id="paint0_linear_1505_3488" x1="221.2" y1="65.2109" x2="221.2" y2="163.023" gradientUnits="userSpaceOnUse">
<stop stop-color="#0063F8"/>
<stop offset="1" stop-color="#14C4EB"/>
</linearGradient>
<linearGradient id="paint1_linear_1505_3488" x1="128.853" y1="0" x2="128.853" y2="228.229" gradientUnits="userSpaceOnUse">
<stop stop-color="#0063F8"/>
<stop offset="1" stop-color="#14C4EB"/>
</linearGradient>
</defs>
</svg>
