<svg width="168" height="70" viewBox="0 0 168 70" fill="none" xmlns="http://www.w3.org/2000/svg">
<path d="M70.171 35.1992H59.8217L62.8355 25.7028H66.9866L64.6552 18.1398H77.2791L85.9794 41.3974H72.3888L70.2279 35.1992H70.171ZM112.308 0C120.098 0 126.41 6.36883 126.41 14.1024C126.41 21.8929 120.041 28.2048 112.308 28.2048H105.427V41.3974H92.5757V17.9123H109.408C111.512 17.9123 113.218 16.2064 113.218 14.1024C113.218 11.9984 111.512 10.2925 109.408 10.2925L64.4277 10.3494L54.3058 41.3406H40.9995L56.1255 0H112.308Z" fill="#0E0073"/>
<path d="M11.9984 67.2709H6.36883L5.51587 69.8298H0L6.14138 52.7136H12.2259L18.3673 69.8298H12.7945L11.9416 67.2709H11.9984ZM10.6905 63.2335L9.1552 58.4569L7.61985 63.2335H10.6905ZM28.0342 69.8298L24.8498 63.6884V69.8298H19.5614V52.7136H27.4087C28.7735 52.7136 29.9108 52.941 30.8775 53.4528C31.8442 53.9646 32.5834 54.5901 33.0383 55.4431C33.5501 56.296 33.7776 57.2627 33.7776 58.2863C33.7776 59.4236 33.4364 60.4471 32.8109 61.357C32.1854 62.2668 31.2755 62.8923 30.1382 63.2904L33.7776 69.8298H27.9774H28.0342ZM24.8498 60.106H26.9538C27.4656 60.106 27.8636 59.9922 28.0911 59.7648C28.3186 59.5373 28.4892 59.1393 28.4892 58.6843C28.4892 58.2294 28.3754 57.8882 28.0911 57.6039C27.8068 57.3196 27.4656 57.2059 26.9538 57.2059H24.8498V60.106ZM40.7719 56.9784V59.0824H46.0035V63.1198H40.7719V65.565H46.7427V69.8298H35.5404V52.7136H46.7427V56.9784H40.7719ZM68.9767 52.7136V69.8298H63.7452V61.3001L61.1294 69.8298H56.6371L54.0214 61.3001V69.8298H48.733V52.7136H55.2155L58.9117 63.0061L62.551 52.7136H68.9767ZM82.0556 69.8298L78.9849 65.3944L76.426 69.8298H70.3984L75.9142 61.0158L70.114 52.7136H76.3691L79.3261 56.9784L81.8281 52.7136H87.8558L82.3968 61.357L88.3107 69.8298H82.0556ZM105.654 52.7136L99.6268 64.6551V69.8298H94.3384V64.6551L88.3107 52.7136H94.3384L97.011 58.7981L99.6836 52.7136H105.654ZM120.61 58.5706C120.61 59.651 120.382 60.6177 119.871 61.5276C119.359 62.3805 118.676 63.1198 117.71 63.6316C116.743 64.1433 115.606 64.4277 114.241 64.4277H112.137V69.8867H106.849V52.7704H114.241C116.288 52.7704 117.88 53.2822 118.961 54.3626C120.041 55.4431 120.61 56.8647 120.61 58.6275V58.5706ZM113.615 60.1628C114.696 60.1628 115.265 59.651 115.265 58.5706C115.265 57.5471 114.696 56.9784 113.615 56.9784H112.137V60.106H113.615V60.1628ZM127.547 65.7924H132.665V69.8298H122.316V52.7136H127.604V65.7924H127.547ZM139.489 52.7136V62.3805C139.489 63.1766 139.659 63.8022 140.001 64.2571C140.342 64.712 140.91 64.9395 141.65 64.9395C142.389 64.9395 142.958 64.712 143.356 64.2571C143.697 63.8022 143.924 63.1766 143.924 62.3805V52.7136H149.156V62.3805C149.156 64.0296 148.815 65.3944 148.132 66.5317C147.45 67.669 146.54 68.5788 145.403 69.1474C144.265 69.7161 142.958 70.0004 141.536 70.0004C140.114 70.0004 138.863 69.7161 137.726 69.1474C136.646 68.5788 135.736 67.7258 135.167 66.5885C134.542 65.4512 134.257 64.0296 134.257 62.3805V52.7136H139.489ZM161.78 58.5706C161.552 58.2294 161.268 57.9451 160.927 57.7745C160.529 57.6039 160.074 57.4902 159.562 57.4902C158.538 57.4902 157.742 57.8314 157.231 58.5138C156.662 59.1961 156.378 60.106 156.378 61.2433C156.378 62.608 156.662 63.5747 157.287 64.2571C157.913 64.9395 158.88 65.2238 160.131 65.2238C161.325 65.2238 162.348 64.712 163.088 63.7453H158.88V59.9354H167.466V65.2806C166.727 66.5317 165.703 67.669 164.452 68.5788C163.145 69.4886 161.552 69.9435 159.562 69.9435C157.799 69.9435 156.321 69.6023 155.013 68.8631C153.705 68.1239 152.738 67.1003 152.056 65.7924C151.374 64.4845 151.032 62.9492 151.032 61.2433C151.032 59.5373 151.374 58.0588 152.056 56.6941C152.738 55.3862 153.705 54.3626 155.013 53.6234C156.321 52.8842 157.799 52.543 159.505 52.543C161.723 52.543 163.486 53.0548 164.907 54.1352C166.272 55.2156 167.125 56.6941 167.352 58.5138H161.78V58.5706Z" fill="#0E0073"/>
</svg>
